<?xml version="1.0" encoding="us-ascii" standalone="no"?><svg xmlns="http://www.w3.org/2000/svg" xmlns:xlink="http://www.w3.org/1999/xlink" contentStyleType="text/css" height="654px" preserveAspectRatio="none" style="width:946px;height:654px;background:#FFFFFF;" version="1.1" viewBox="0 0 946 654" width="946px" zoomAndPan="magnify"><defs/><g><!--class DeviceView--><g id="elem_DeviceView"><rect codeLine="6" fill="#F1F1F1" height="44.6211" id="DeviceView" rx="2.5" ry="2.5" style="stroke:#181818;stroke-width:0.5;" width="78" x="612.5" y="7"/><text fill="#000000" font-family="sans-serif" font-size="14" lengthAdjust="spacing" textLength="72" x="615.5" y="27.1074">DeviceView</text><line style="stroke:#181818;stroke-width:0.5;" x1="613.5" x2="689.5" y1="35.6211" y2="35.6211"/><line style="stroke:#181818;stroke-width:0.5;" x1="613.5" x2="689.5" y1="43.6211" y2="43.6211"/></g><!--class DeviceController--><g id="elem_DeviceController"><rect codeLine="9" fill="#F1F1F1" height="81.8633" id="DeviceController" rx="2.5" ry="2.5" style="stroke:#181818;stroke-width:0.5;" width="214" x="440.5" y="113"/><text fill="#000000" font-family="sans-serif" font-size="14" lengthAdjust="spacing" textLength="105" x="495" y="133.1074">DeviceController</text><line style="stroke:#181818;stroke-width:0.5;" x1="441.5" x2="653.5" y1="141.6211" y2="141.6211"/><line style="stroke:#181818;stroke-width:0.5;" x1="441.5" x2="653.5" y1="149.6211" y2="149.6211"/><text fill="#000000" font-family="sans-serif" font-size="14" lengthAdjust="spacing" textLength="142" x="446.5" y="168.7285">+getAll(): List&lt;Device&gt;</text><text fill="#000000" font-family="sans-serif" font-size="14" lengthAdjust="spacing" textLength="202" x="446.5" y="187.3496">+getSubDevices(): List&lt;Device&gt;</text></g><!--class ACME--><g id="elem_ACME"><rect codeLine="14" fill="#F1F1F1" height="81.8633" id="ACME" rx="2.5" ry="2.5" style="stroke:#181818;stroke-width:0.5;" width="315" x="7" y="265"/><text fill="#000000" font-family="sans-serif" font-size="14" lengthAdjust="spacing" textLength="39" x="145" y="285.1074">ACME</text><line style="stroke:#181818;stroke-width:0.5;" x1="8" x2="321" y1="293.6211" y2="293.6211"/><line style="stroke:#181818;stroke-width:0.5;" x1="8" x2="321" y1="301.6211" y2="301.6211"/><text fill="#000000" font-family="sans-serif" font-size="14" lengthAdjust="spacing" textLength="233" x="13" y="320.7285">+getDevicesService(): DeviceService</text><text fill="#000000" font-family="sans-serif" font-size="14" lengthAdjust="spacing" textLength="303" x="13" y="339.3496">+getSubscriptionsService(): SubscriptionService</text></g><!--class DeviceService--><g id="elem_DeviceService"><rect codeLine="19" fill="#F1F1F1" height="100.4844" id="DeviceService" rx="2.5" ry="2.5" style="stroke:#181818;stroke-width:0.5;" width="299" x="398" y="256"/><text fill="#000000" font-family="sans-serif" font-size="14" lengthAdjust="spacing" textLength="90" x="502.5" y="276.1074">DeviceService</text><line style="stroke:#181818;stroke-width:0.5;" x1="399" x2="696" y1="284.6211" y2="284.6211"/><line style="stroke:#181818;stroke-width:0.5;" x1="399" x2="696" y1="292.6211" y2="292.6211"/><text fill="#000000" font-family="sans-serif" font-size="14" lengthAdjust="spacing" textLength="287" x="404" y="311.7285">+DeviceService(DeviceRepository devsRepo)</text><text fill="#000000" font-family="sans-serif" font-size="14" lengthAdjust="spacing" textLength="142" x="404" y="330.3496">+getAll(): List&lt;Device&gt;</text><text fill="#000000" font-family="sans-serif" font-size="14" lengthAdjust="spacing" textLength="202" x="404" y="348.9707">+getSubDevices(): List&lt;Device&gt;</text></g><!--class DeviceRepository--><g id="elem_DeviceRepository"><rect codeLine="25" fill="#F1F1F1" height="97.8242" id="DeviceRepository" rx="2.5" ry="2.5" style="stroke:#181818;stroke-width:0.5;" width="160" x="343.5" y="492"/><text fill="#000000" font-family="sans-serif" font-size="12" font-style="italic" lengthAdjust="spacing" textLength="61" x="393" y="509.9492">&#171;interface&#187;</text><text fill="#000000" font-family="sans-serif" font-size="14" font-style="italic" lengthAdjust="spacing" textLength="110" x="368.5" y="528.0684">DeviceRepository</text><line style="stroke:#181818;stroke-width:0.5;" x1="344.5" x2="502.5" y1="536.582" y2="536.582"/><line style="stroke:#181818;stroke-width:0.5;" x1="344.5" x2="502.5" y1="544.582" y2="544.582"/><text fill="#000000" font-family="sans-serif" font-size="14" lengthAdjust="spacing" textLength="142" x="349.5" y="563.6895">+getAll(): List&lt;Device&gt;</text><text fill="#000000" font-family="sans-serif" font-size="14" lengthAdjust="spacing" textLength="148" x="349.5" y="582.3105">+getByID(int id): Device</text></g><!--class RepositoryFactory--><g id="elem_RepositoryFactory"><rect codeLine="30" fill="#F1F1F1" height="79.2031" id="RepositoryFactory" rx="2.5" ry="2.5" style="stroke:#181818;stroke-width:0.5;" width="287" x="21" y="501.5"/><text fill="#000000" font-family="sans-serif" font-size="12" font-style="italic" lengthAdjust="spacing" textLength="61" x="134" y="519.4492">&#171;interface&#187;</text><text fill="#000000" font-family="sans-serif" font-size="14" font-style="italic" lengthAdjust="spacing" textLength="116" x="106.5" y="537.5684">RepositoryFactory</text><line style="stroke:#181818;stroke-width:0.5;" x1="22" x2="307" y1="546.082" y2="546.082"/><line style="stroke:#181818;stroke-width:0.5;" x1="22" x2="307" y1="554.082" y2="554.082"/><text fill="#000000" font-family="sans-serif" font-size="14" lengthAdjust="spacing" textLength="275" x="27" y="573.1895">+getDevicesRepository(): DeviceRepository</text></g><!--class Device--><g id="elem_Device"><rect codeLine="34" fill="#F1F1F1" height="212.2109" id="Device" rx="2.5" ry="2.5" style="stroke:#181818;stroke-width:0.5;" width="356" x="583.5" y="435"/><text fill="#000000" font-family="sans-serif" font-size="14" lengthAdjust="spacing" textLength="43" x="740" y="455.1074">Device</text><line style="stroke:#181818;stroke-width:0.5;" x1="584.5" x2="938.5" y1="463.6211" y2="463.6211"/><text fill="#000000" font-family="sans-serif" font-size="14" lengthAdjust="spacing" textLength="16" x="589.5" y="482.7285">-id</text><text fill="#000000" font-family="sans-serif" font-size="14" lengthAdjust="spacing" textLength="41" x="589.5" y="501.3496">-idSub</text><text fill="#000000" font-family="sans-serif" font-size="14" lengthAdjust="spacing" textLength="40" x="589.5" y="519.9707">-name</text><text fill="#000000" font-family="sans-serif" font-size="14" lengthAdjust="spacing" textLength="74" x="589.5" y="538.5918">-description</text><line style="stroke:#181818;stroke-width:0.5;" x1="584.5" x2="938.5" y1="546.1055" y2="546.1055"/><text fill="#000000" font-family="sans-serif" font-size="14" lengthAdjust="spacing" textLength="344" x="589.5" y="565.2129">Device(int id, int idSub, string name, string description)</text><text fill="#000000" font-family="sans-serif" font-size="14" lengthAdjust="spacing" textLength="74" x="589.5" y="583.834">+getID(): int</text><text fill="#000000" font-family="sans-serif" font-size="14" lengthAdjust="spacing" textLength="99" x="589.5" y="602.4551">+getIDSub(): int</text><text fill="#000000" font-family="sans-serif" font-size="14" lengthAdjust="spacing" textLength="117" x="589.5" y="621.0762">+getName(): string</text><text fill="#000000" font-family="sans-serif" font-size="14" lengthAdjust="spacing" textLength="152" x="589.5" y="639.6973">+getDescription(): string</text></g><!--link ACME to RepositoryFactory--><g id="link_ACME_RepositoryFactory"><path codeLine="47" d="M164.5,347.05 C164.5,388.56 164.5,453.26 164.5,496.13 " fill="none" id="ACME-to-RepositoryFactory" style="stroke:#181818;stroke-width:1.0;"/><polygon fill="#181818" points="164.5,501.24,168.5,492.24,164.5,496.24,160.5,492.24,164.5,501.24" style="stroke:#181818;stroke-width:1.0;"/><text fill="#000000" font-family="sans-serif" font-size="13" lengthAdjust="spacing" textLength="28" x="165.5" y="401.0283">uses</text><text fill="#000000" font-family="sans-serif" font-size="13" lengthAdjust="spacing" textLength="7" x="156.9422" y="369.0094">1</text><text fill="#000000" font-family="sans-serif" font-size="13" lengthAdjust="spacing" textLength="7" x="156.9203" y="490.2825">1</text></g><!--link DeviceRepository to Device--><g id="link_DeviceRepository_Device"><path codeLine="48" d="M503.6,541 C526.3,541 551.98,541 578.13,541 " fill="none" id="DeviceRepository-to-Device" style="stroke:#181818;stroke-width:1.0;"/><polygon fill="#181818" points="583.36,541,574.36,537,578.36,541,574.36,545,583.36,541" style="stroke:#181818;stroke-width:1.0;"/><text fill="#000000" font-family="sans-serif" font-size="13" lengthAdjust="spacing" textLength="43" x="522" y="534.0283">records</text><text fill="#000000" font-family="sans-serif" font-size="13" lengthAdjust="spacing" textLength="7" x="511.5681" y="537.2404">1</text><text fill="#000000" font-family="sans-serif" font-size="13" lengthAdjust="spacing" textLength="20" x="555.4228" y="555.3886">0..*</text></g><!--link DeviceView to DeviceController--><g id="link_DeviceView_DeviceController"><path codeLine="51" d="M633.15,52.12 C619.81,67.83 601.29,89.64 584.89,108.96 " fill="none" id="DeviceView-to-DeviceController" style="stroke:#181818;stroke-width:1.0;stroke-dasharray:7.0,7.0;"/><polygon fill="#181818" points="581.64,112.79,590.5077,108.5048,584.8704,108.9736,584.4015,103.3362,581.64,112.79" style="stroke:#181818;stroke-width:1.0;"/></g><!--link DeviceView to Device--><g id="link_DeviceView_Device"><path codeLine="52" d="M658.37,52.07 C670.9,91.98 697.69,180.2 714.5,256 C727.13,312.96 738.01,377.02 746.12,429.87 " fill="none" id="DeviceView-to-Device" style="stroke:#181818;stroke-width:1.0;stroke-dasharray:7.0,7.0;"/><polygon fill="#181818" points="746.89,434.95,749.4812,425.4481,746.1329,430.0076,741.5734,426.6594,746.89,434.95" style="stroke:#181818;stroke-width:1.0;"/></g><!--link DeviceController to ACME--><g id="link_DeviceController_ACME"><path codeLine="53" d="M445.37,195 C391.7,216.02 325.96,241.77 271.57,263.07 " fill="none" id="DeviceController-to-ACME" style="stroke:#181818;stroke-width:1.0;stroke-dasharray:7.0,7.0;"/><polygon fill="#181818" points="266.68,264.98,276.5193,265.414,271.3341,263.1526,273.5955,257.9674,266.68,264.98" style="stroke:#181818;stroke-width:1.0;"/></g><!--link DeviceController to DeviceService--><g id="link_DeviceController_DeviceService"><path codeLine="54" d="M547.5,195.2 C547.5,212.25 547.5,232.39 547.5,250.73 " fill="none" id="DeviceController-to-DeviceService" style="stroke:#181818;stroke-width:1.0;stroke-dasharray:7.0,7.0;"/><polygon fill="#181818" points="547.5,255.86,551.5,246.86,547.5,250.86,543.5,246.86,547.5,255.86" style="stroke:#181818;stroke-width:1.0;"/></g><!--link DeviceService to DeviceRepository--><g id="link_DeviceService_DeviceRepository"><path codeLine="55" d="M521.35,356.13 C500.94,394.49 472.62,447.7 451.7,487.01 " fill="none" id="DeviceService-to-DeviceRepository" style="stroke:#181818;stroke-width:1.0;stroke-dasharray:7.0,7.0;"/><polygon fill="#181818" points="449.18,491.74,456.9478,485.6851,451.5352,487.3294,449.8908,481.9168,449.18,491.74" style="stroke:#181818;stroke-width:1.0;"/></g><!--link ACME to DeviceService--><g id="link_ACME_DeviceService"><path codeLine="57" d="M322.22,306 C345.51,306 369.49,306 392.72,306 " fill="none" id="ACME-to-DeviceService" style="stroke:#181818;stroke-width:1.0;"/><polygon fill="#181818" points="397.97,306,388.97,302,392.97,306,388.97,310,397.97,306" style="stroke:#181818;stroke-width:1.0;"/><text fill="#000000" font-family="sans-serif" font-size="13" lengthAdjust="spacing" textLength="39" x="340.5" y="299.0283">adopts</text></g><!--link RepositoryFactory to DeviceRepository--><g id="link_RepositoryFactory_DeviceRepository"><path codeLine="58" d="M308.16,541 C318.14,541 328.11,541 338.09,541 " fill="none" id="RepositoryFactory-to-DeviceRepository" style="stroke:#181818;stroke-width:1.0;stroke-dasharray:7.0,7.0;"/><polygon fill="#181818" points="343.31,541,334.31,537,338.31,541,334.31,545,343.31,541" style="stroke:#181818;stroke-width:1.0;"/></g><!--SRC=[hLF1JiCm3BtdAw9Ts63ju3fDbSO6qYJWm2JkMH8wYpQfadJJGFmxITErQJiX3lIIvjdFzhFZgxqnXPxFPaL6X2dpBAOodz6CQ1qn8AaYEK9xO1nJK3JZI7-0A8Y5SUMqD4R1hZHyGwNOmYV7jmXL5hpc1w3y3VWHVw7lBhgImYYPPLnP6xRVJShDCil6apb-0cqMtYrfRDjovo4zS6b2BrVF3q6usd_BbJiTpICr48RML45XG8hGEyJFd9wC6ZudxO1ZVtlbXTHWf3fXnW_QNIV_e1Y4uUgTsDo3D8j5OqoIFxRt_hHPZoqD0slwr4tJ9dWazDSyTTKjeMrzY_KxMVCZOEVJwlU_WkH-M17ZpK0gm5FhkgVOdvOtnTg-If5YHsqk0RkTW9LjgxFC0B4H-k2B3UGm7ogGseGCh4vRzHP7ToDRj3oAAAd-1psSOrnghj5WXXLJGRetZdeRnzUZMgsbA4wbOXeX5AnO72U3tRfiHuCLT3PNy6LBTskw3x-r1wFrugCUSuu9auNHQFYIuahffL0_]--></g></svg>