<?xml version="1.0" encoding="us-ascii" standalone="no"?><svg xmlns="http://www.w3.org/2000/svg" xmlns:xlink="http://www.w3.org/1999/xlink" contentStyleType="text/css" height="793px" preserveAspectRatio="none" style="width:1155px;height:793px;background:#FFFFFF;" version="1.1" viewBox="0 0 1155 793" width="1155px" zoomAndPan="magnify"><defs/><g><!--class PlanController--><g id="elem_PlanController"><rect codeLine="8" fill="#F1F1F1" height="63.2422" id="PlanController" rx="2.5" ry="2.5" style="stroke:#181818;stroke-width:0.5;" width="196" x="472.5" y="7"/><text fill="#000000" font-family="sans-serif" font-size="14" lengthAdjust="spacing" textLength="90" x="525.5" y="27.1074">PlanController</text><line style="stroke:#181818;stroke-width:0.5;" x1="473.5" x2="667.5" y1="35.6211" y2="35.6211"/><line style="stroke:#181818;stroke-width:0.5;" x1="473.5" x2="667.5" y1="43.6211" y2="43.6211"/><text fill="#000000" font-family="sans-serif" font-size="14" lengthAdjust="spacing" textLength="184" x="478.5" y="62.7285">+findAll(): Iterable&lt;PlanView&gt;</text></g><!--class PlanService--><g id="elem_PlanService"><rect codeLine="14" fill="#F1F1F1" height="63.2422" id="PlanService" rx="2.5" ry="2.5" style="stroke:#181818;stroke-width:0.5;" width="204" x="468.5" y="131"/><text fill="#000000" font-family="sans-serif" font-size="14" lengthAdjust="spacing" textLength="75" x="533" y="151.1074">PlanService</text><line style="stroke:#181818;stroke-width:0.5;" x1="469.5" x2="671.5" y1="159.6211" y2="159.6211"/><line style="stroke:#181818;stroke-width:0.5;" x1="469.5" x2="671.5" y1="167.6211" y2="167.6211"/><text fill="#000000" font-family="sans-serif" font-size="14" lengthAdjust="spacing" textLength="192" x="474.5" y="186.7285">+findAll_User(): Iterable&lt;Plan&gt;</text></g><!--class ProductServiceImpl--><g id="elem_ProductServiceImpl"><rect codeLine="17" fill="#F1F1F1" height="63.2422" id="ProductServiceImpl" rx="2.5" ry="2.5" style="stroke:#181818;stroke-width:0.5;" width="204" x="391.5" y="255"/><text fill="#000000" font-family="sans-serif" font-size="14" lengthAdjust="spacing" textLength="121" x="433" y="275.1074">ProductServiceImpl</text><line style="stroke:#181818;stroke-width:0.5;" x1="392.5" x2="594.5" y1="283.6211" y2="283.6211"/><line style="stroke:#181818;stroke-width:0.5;" x1="392.5" x2="594.5" y1="291.6211" y2="291.6211"/><text fill="#000000" font-family="sans-serif" font-size="14" lengthAdjust="spacing" textLength="192" x="397.5" y="310.7285">+findAll_User(): Iterable&lt;Plan&gt;</text></g><!--class PlanRepository--><g id="elem_PlanRepository"><rect codeLine="21" fill="#F1F1F1" height="79.2031" id="PlanRepository" rx="2.5" ry="2.5" style="stroke:#181818;stroke-width:0.5;" width="116" x="408.5" y="379"/><text fill="#000000" font-family="sans-serif" font-size="12" font-style="italic" lengthAdjust="spacing" textLength="61" x="436" y="396.9492">&#171;interface&#187;</text><text fill="#000000" font-family="sans-serif" font-size="14" font-style="italic" lengthAdjust="spacing" textLength="96" x="418.5" y="415.0684">PlanRepository</text><line style="stroke:#181818;stroke-width:0.5;" x1="409.5" x2="523.5" y1="423.582" y2="423.582"/><line style="stroke:#181818;stroke-width:0.5;" x1="409.5" x2="523.5" y1="431.582" y2="431.582"/><text fill="#000000" font-family="sans-serif" font-size="14" lengthAdjust="spacing" textLength="104" x="414.5" y="450.6895">+findAll(): Result</text></g><!--class Plan--><g id="elem_Plan"><rect codeLine="26" fill="#F1F1F1" height="249.4531" id="Plan" rx="2.5" ry="2.5" style="stroke:#181818;stroke-width:0.5;" width="1141" x="7" y="537"/><text fill="#000000" font-family="sans-serif" font-size="14" lengthAdjust="spacing" textLength="28" x="563.5" y="557.1074">Plan</text><line style="stroke:#181818;stroke-width:0.5;" x1="8" x2="1147" y1="565.6211" y2="565.6211"/><text fill="#000000" font-family="sans-serif" font-size="14" lengthAdjust="spacing" textLength="42" x="13" y="584.7285">-nMins</text><text fill="#000000" font-family="sans-serif" font-size="14" lengthAdjust="spacing" textLength="80" x="13" y="603.3496">-maxDevices</text><text fill="#000000" font-family="sans-serif" font-size="14" lengthAdjust="spacing" textLength="110" x="13" y="621.9707">-musicCollections</text><text fill="#000000" font-family="sans-serif" font-size="14" lengthAdjust="spacing" textLength="119" x="13" y="640.5918">-musicSuggestions</text><text fill="#000000" font-family="sans-serif" font-size="14" lengthAdjust="spacing" textLength="79" x="13" y="659.2129">-monthlyFee</text><text fill="#000000" font-family="sans-serif" font-size="14" lengthAdjust="spacing" textLength="73" x="13" y="677.834">-annualFee</text><text fill="#000000" font-family="sans-serif" font-size="14" lengthAdjust="spacing" textLength="65" x="13" y="696.4551">-planState</text><text fill="#000000" font-family="sans-serif" font-size="14" lengthAdjust="spacing" textLength="64" x="13" y="715.0762">-planType</text><text fill="#000000" font-family="sans-serif" font-size="14" lengthAdjust="spacing" textLength="85" x="13" y="733.6973">-planPromote</text><text fill="#000000" font-family="sans-serif" font-size="14" lengthAdjust="spacing" textLength="111" x="13" y="752.3184">-HTMLdescription</text><line style="stroke:#181818;stroke-width:0.5;" x1="8" x2="1147" y1="759.832" y2="759.832"/><text fill="#000000" font-family="sans-serif" font-size="14" lengthAdjust="spacing" textLength="1129" x="13" y="778.9395">Plan(int nMins, int maxDevices, int musicCollections, string musicSuggestions, double monthlyFee, double annualFee, PlanState planState, string planType,string HTMLdescription)</text></g><!--link PlanRepository to Plan--><g id="link_PlanRepository_Plan"><path codeLine="41" d="M484.18,458.28 C491.13,473.48 499.17,491.07 506.5,507 C510.28,515.22 514.17,523.68 518.11,532.2 " fill="none" id="PlanRepository-to-Plan" style="stroke:#181818;stroke-width:1.0;"/><polygon fill="#181818" points="520.29,536.95,520.1444,527.1022,518.192,532.4115,512.8828,530.459,520.29,536.95" style="stroke:#181818;stroke-width:1.0;"/><text fill="#000000" font-family="sans-serif" font-size="13" lengthAdjust="spacing" textLength="43" x="507.5" y="503.0283">records</text><text fill="#000000" font-family="sans-serif" font-size="13" lengthAdjust="spacing" textLength="7" x="479.5286" y="480.312">1</text><text fill="#000000" font-family="sans-serif" font-size="13" lengthAdjust="spacing" textLength="20" x="496.1944" y="525.8656">0..*</text></g><!--link PlanController to PlanService--><g id="link_PlanController_PlanService"><path codeLine="42" d="M570.5,70.29 C570.5,87.05 570.5,107.88 570.5,125.4 " fill="none" id="PlanController-to-PlanService" style="stroke:#181818;stroke-width:1.0;stroke-dasharray:7.0,7.0;"/><polygon fill="#181818" points="570.5,130.72,574.5,121.72,570.5,125.72,566.5,121.72,570.5,130.72" style="stroke:#181818;stroke-width:1.0;"/></g><!--link ProductServiceImpl to PlanRepository--><g id="link_ProductServiceImpl_PlanRepository"><path codeLine="43" d="M487.1,318.31 C483.65,334.92 479.34,355.69 475.55,373.93 " fill="none" id="ProductServiceImpl-to-PlanRepository" style="stroke:#181818;stroke-width:1.0;stroke-dasharray:7.0,7.0;"/><polygon fill="#181818" points="474.5,379,480.2413,370.9976,475.5135,374.1038,472.4073,369.376,474.5,379" style="stroke:#181818;stroke-width:1.0;"/></g><!--link ProductServiceImpl to Plan--><g id="link_ProductServiceImpl_Plan"><path codeLine="44" d="M513.05,318.06 C523.16,335.3 534.76,357.61 541.5,379 C556.86,427.72 565.69,483.16 570.75,531.87 " fill="none" id="ProductServiceImpl-to-Plan" style="stroke:#181818;stroke-width:1.0;stroke-dasharray:7.0,7.0;"/><polygon fill="#181818" points="571.26,536.87,574.3393,527.5149,570.7597,531.8951,566.3794,528.3155,571.26,536.87" style="stroke:#181818;stroke-width:1.0;"/></g><!--link PlanService to Plan--><g id="link_PlanService_Plan"><path codeLine="45" d="M589,194.04 C598.36,211.27 608.72,233.59 613.5,255 C633.84,346.12 623.61,451.17 608.93,531.52 " fill="none" id="PlanService-to-Plan" style="stroke:#181818;stroke-width:1.0;stroke-dasharray:7.0,7.0;"/><polygon fill="#181818" points="607.96,536.78,613.5387,528.6635,608.8745,531.8643,605.6737,527.2002,607.96,536.78" style="stroke:#181818;stroke-width:1.0;"/></g><!--reverse link PlanService to ProductServiceImpl--><g id="link_PlanService_ProductServiceImpl"><path codeLine="46" d="M540.31,211.33 C531.1,225.92 521.22,241.58 512.92,254.72 " fill="none" id="PlanService-backto-ProductServiceImpl" style="stroke:#181818;stroke-width:1.0;stroke-dasharray:7.0,7.0;"/><polygon fill="none" points="534.48,207.46,551.07,194.29,546.31,214.93,534.48,207.46" style="stroke:#181818;stroke-width:1.0;"/></g><!--SRC=[ZL9DJm8n4BttLqou2BeiU2La4u8naaXY0BsQqXsWiTjk-g7Ynt-tNPRTPJ76dlfUvysypip5pjhSZ0Q3N51fNIPYfh814zIOVihfLjECa1rF4HZNJ20nBrpcrDDG14sirNpjBCwOaal-WJ0a_XHlyE1pJfMqMWc16Zu9N6suJ2T2T7iZc5dKT2rm7CAUEBubvFjKkqJzoXasXS-F1lMPEYXBcLQfOxPKph9S_4jCkFJKXlfYWLfWhWotIkzXFAwUagJzXGKQ9snXktOTWlpfopcNvd3DwFiD1aD7x0ndqz0LPhcIJNRfjbiqJTOtS2VsjuW7JALqL5Gmp6rfgMt0rJvl8D-HJ1sVxrRp-nGDqpmF9GeoUExwJq9XE89mhGsNk6Ku0kFdBhVGzXn1gfplBDIsAwfo7Xsc6rn3vRzAUVn2LEAMvrxHxjQKEjSTwFSJw0pZ-B9Jf1y1Q6HAfuQqzZ2Ea-PwaVETgKBg4dz5aUQorkGl0fV7NwV5Vm00]--></g></svg>