<?xml version="1.0" encoding="us-ascii" standalone="no"?><svg xmlns="http://www.w3.org/2000/svg" xmlns:xlink="http://www.w3.org/1999/xlink" contentStyleType="text/css" height="511px" preserveAspectRatio="none" style="width:1620px;height:511px;background:#FFFFFF;" version="1.1" viewBox="0 0 1620 511" width="1620px" zoomAndPan="magnify"><defs/><g><rect fill="#FFFFFF" height="326.2402" style="stroke:#181818;stroke-width:1.0;" width="10" x="37" y="93.6211"/><rect fill="#FFFFFF" height="293.9492" style="stroke:#181818;stroke-width:1.0;" width="10" x="206" y="116.9121"/><rect fill="#FFFFFF" height="231.3672" style="stroke:#181818;stroke-width:1.0;" width="10" x="481" y="148.2031"/><rect fill="#FFFFFF" height="240.3672" style="stroke:#181818;stroke-width:1.0;" width="10" x="756" y="179.4941"/><rect fill="#FFFFFF" height="209.0762" style="stroke:#181818;stroke-width:1.0;" width="10" x="1031" y="210.7852"/><rect fill="#FFFFFF" height="31.291" style="stroke:#181818;stroke-width:1.0;" width="10" x="1491" y="316.9883"/><line style="stroke:#181818;stroke-width:0.5;stroke-dasharray:5.0,5.0;" x1="42" x2="42" y1="83.6211" y2="428.8613"/><line style="stroke:#181818;stroke-width:0.5;stroke-dasharray:5.0,5.0;" x1="210.5" x2="210.5" y1="83.6211" y2="428.8613"/><line style="stroke:#181818;stroke-width:0.5;stroke-dasharray:5.0,5.0;" x1="486" x2="486" y1="83.6211" y2="428.8613"/><line style="stroke:#181818;stroke-width:0.5;stroke-dasharray:5.0,5.0;" x1="761" x2="761" y1="83.6211" y2="428.8613"/><line style="stroke:#181818;stroke-width:0.5;stroke-dasharray:5.0,5.0;" x1="1035.5" x2="1035.5" y1="83.6211" y2="428.8613"/><line style="stroke:#181818;stroke-width:0.5;stroke-dasharray:5.0,5.0;" x1="1339" x2="1339" y1="250.5957" y2="428.8613"/><line style="stroke:#181818;stroke-width:0.5;stroke-dasharray:5.0,5.0;" x1="1496" x2="1496" y1="83.6211" y2="428.8613"/><text fill="#000000" font-family="sans-serif" font-size="14" lengthAdjust="spacing" textLength="68" x="5" y="80.1074">Subscriber</text><ellipse cx="42" cy="13.5" fill="#E2E2F0" rx="8" ry="8" style="stroke:#181818;stroke-width:0.5;"/><path d="M42,21.5 L42,48.5 M29,29.5 L55,29.5 M42,48.5 L29,63.5 M42,48.5 L55,63.5 " fill="none" style="stroke:#181818;stroke-width:0.5;"/><text fill="#000000" font-family="sans-serif" font-size="14" lengthAdjust="spacing" textLength="68" x="5" y="442.9688">Subscriber</text><ellipse cx="42" cy="454.9824" fill="#E2E2F0" rx="8" ry="8" style="stroke:#181818;stroke-width:0.5;"/><path d="M42,462.9824 L42,489.9824 M29,470.9824 L55,470.9824 M42,489.9824 L29,504.9824 M42,489.9824 L55,504.9824 " fill="none" style="stroke:#181818;stroke-width:0.5;"/><rect fill="#E2E2F0" height="32.6211" rx="2.5" ry="2.5" style="stroke:#181818;stroke-width:0.5;" width="123" x="149.5" y="50"/><text fill="#000000" font-family="sans-serif" font-size="14" lengthAdjust="spacing" textLength="109" x="156.5" y="72.1074">:DeviceController</text><rect fill="#E2E2F0" height="32.6211" rx="2.5" ry="2.5" style="stroke:#181818;stroke-width:0.5;" width="123" x="149.5" y="427.8613"/><text fill="#000000" font-family="sans-serif" font-size="14" lengthAdjust="spacing" textLength="109" x="156.5" y="449.9688">:DeviceController</text><rect fill="#E2E2F0" height="32.6211" rx="2.5" ry="2.5" style="stroke:#181818;stroke-width:0.5;" width="196" x="388" y="50"/><text fill="#000000" font-family="sans-serif" font-size="14" lengthAdjust="spacing" textLength="182" x="395" y="72.1074">deviceService:DeviceService</text><rect fill="#E2E2F0" height="32.6211" rx="2.5" ry="2.5" style="stroke:#181818;stroke-width:0.5;" width="196" x="388" y="427.8613"/><text fill="#000000" font-family="sans-serif" font-size="14" lengthAdjust="spacing" textLength="182" x="395" y="449.9688">deviceService:DeviceService</text><rect fill="#E2E2F0" height="32.6211" rx="2.5" ry="2.5" style="stroke:#181818;stroke-width:0.5;" width="246" x="638" y="50"/><text fill="#000000" font-family="sans-serif" font-size="14" lengthAdjust="spacing" textLength="232" x="645" y="72.1074">deviceServiceImpl:DeviceServiceImpl</text><rect fill="#E2E2F0" height="32.6211" rx="2.5" ry="2.5" style="stroke:#181818;stroke-width:0.5;" width="246" x="638" y="427.8613"/><text fill="#000000" font-family="sans-serif" font-size="14" lengthAdjust="spacing" textLength="232" x="645" y="449.9688">deviceServiceImpl:DeviceServiceImpl</text><rect fill="#E2E2F0" height="32.6211" rx="2.5" ry="2.5" style="stroke:#181818;stroke-width:0.5;" width="247" x="912.5" y="50"/><text fill="#000000" font-family="sans-serif" font-size="14" lengthAdjust="spacing" textLength="233" x="919.5" y="72.1074">editDeviceMapper:EditDeviceMapper</text><rect fill="#E2E2F0" height="32.6211" rx="2.5" ry="2.5" style="stroke:#181818;stroke-width:0.5;" width="247" x="912.5" y="427.8613"/><text fill="#000000" font-family="sans-serif" font-size="14" lengthAdjust="spacing" textLength="233" x="919.5" y="449.9688">editDeviceMapper:EditDeviceMapper</text><rect fill="#E2E2F0" height="32.6211" rx="2.5" ry="2.5" style="stroke:#181818;stroke-width:0.5;" width="57" x="1311" y="427.8613"/><text fill="#000000" font-family="sans-serif" font-size="14" lengthAdjust="spacing" textLength="43" x="1318" y="449.9688">Device</text><rect fill="#E2E2F0" height="32.6211" rx="2.5" ry="2.5" style="stroke:#181818;stroke-width:0.5;" width="236" x="1378" y="50"/><text fill="#000000" font-family="sans-serif" font-size="14" lengthAdjust="spacing" textLength="222" x="1385" y="72.1074">deviceRepository:deviceRepository</text><rect fill="#E2E2F0" height="32.6211" rx="2.5" ry="2.5" style="stroke:#181818;stroke-width:0.5;" width="236" x="1378" y="427.8613"/><text fill="#000000" font-family="sans-serif" font-size="14" lengthAdjust="spacing" textLength="222" x="1385" y="449.9688">deviceRepository:deviceRepository</text><rect fill="#FFFFFF" height="326.2402" style="stroke:#181818;stroke-width:1.0;" width="10" x="37" y="93.6211"/><rect fill="#FFFFFF" height="293.9492" style="stroke:#181818;stroke-width:1.0;" width="10" x="206" y="116.9121"/><rect fill="#FFFFFF" height="231.3672" style="stroke:#181818;stroke-width:1.0;" width="10" x="481" y="148.2031"/><rect fill="#FFFFFF" height="240.3672" style="stroke:#181818;stroke-width:1.0;" width="10" x="756" y="179.4941"/><rect fill="#FFFFFF" height="209.0762" style="stroke:#181818;stroke-width:1.0;" width="10" x="1031" y="210.7852"/><rect fill="#FFFFFF" height="31.291" style="stroke:#181818;stroke-width:1.0;" width="10" x="1491" y="316.9883"/><polygon fill="#181818" points="194,112.9121,204,116.9121,194,120.9121,198,116.9121" style="stroke:#181818;stroke-width:1.0;"/><line style="stroke:#181818;stroke-width:1.0;" x1="47" x2="200" y1="116.9121" y2="116.9121"/><text fill="#000000" font-family="sans-serif" font-size="13" font-weight="bold" lengthAdjust="spacing" textLength="7" x="54" y="111.6494">1</text><text fill="#000000" font-family="sans-serif" font-size="13" lengthAdjust="spacing" textLength="129" x="65" y="111.6494">POST(/api/device/add)</text><polygon fill="#181818" points="469,144.2031,479,148.2031,469,152.2031,473,148.2031" style="stroke:#181818;stroke-width:1.0;"/><line style="stroke:#181818;stroke-width:1.0;" x1="216" x2="475" y1="148.2031" y2="148.2031"/><text fill="#000000" font-family="sans-serif" font-size="13" font-weight="bold" lengthAdjust="spacing" textLength="7" x="223" y="142.9404">2</text><text fill="#000000" font-family="sans-serif" font-size="13" lengthAdjust="spacing" textLength="235" x="234" y="142.9404">create(final CreateDeviceRequest device)</text><polygon fill="#181818" points="744,175.4941,754,179.4941,744,183.4941,748,179.4941" style="stroke:#181818;stroke-width:1.0;"/><line style="stroke:#181818;stroke-width:1.0;" x1="491" x2="750" y1="179.4941" y2="179.4941"/><text fill="#000000" font-family="sans-serif" font-size="13" font-weight="bold" lengthAdjust="spacing" textLength="7" x="498" y="174.2314">3</text><text fill="#000000" font-family="sans-serif" font-size="13" lengthAdjust="spacing" textLength="235" x="509" y="174.2314">create(final CreateDeviceRequest device)</text><polygon fill="#181818" points="1019,206.7852,1029,210.7852,1019,214.7852,1023,210.7852" style="stroke:#181818;stroke-width:1.0;"/><line style="stroke:#181818;stroke-width:1.0;" x1="766" x2="1025" y1="210.7852" y2="210.7852"/><text fill="#000000" font-family="sans-serif" font-size="13" font-weight="bold" lengthAdjust="spacing" textLength="7" x="773" y="205.5225">4</text><text fill="#000000" font-family="sans-serif" font-size="13" lengthAdjust="spacing" textLength="235" x="784" y="205.5225">create(final CreateDeviceRequest device)</text><polygon fill="#181818" points="1299,238.0762,1309,242.0762,1299,246.0762,1303,242.0762" style="stroke:#181818;stroke-width:1.0;"/><line style="stroke:#181818;stroke-width:1.0;" x1="1041" x2="1305" y1="242.0762" y2="242.0762"/><text fill="#000000" font-family="sans-serif" font-size="13" font-weight="bold" lengthAdjust="spacing" textLength="7" x="1048" y="236.8135">5</text><text fill="#000000" font-family="sans-serif" font-size="13" lengthAdjust="spacing" textLength="235" x="1059" y="236.8135">create(final CreateDeviceRequest device)</text><rect fill="#E2E2F0" height="32.6211" rx="2.5" ry="2.5" style="stroke:#181818;stroke-width:0.5;" width="57" x="1311" y="218.7852"/><text fill="#000000" font-family="sans-serif" font-size="14" lengthAdjust="spacing" textLength="43" x="1318" y="240.8926">Device</text><polygon fill="#181818" points="1052,281.6973,1042,285.6973,1052,289.6973,1048,285.6973" style="stroke:#181818;stroke-width:1.0;"/><line style="stroke:#181818;stroke-width:1.0;stroke-dasharray:2.0,2.0;" x1="1046" x2="1338.5" y1="285.6973" y2="285.6973"/><text fill="#000000" font-family="sans-serif" font-size="13" font-weight="bold" lengthAdjust="spacing" textLength="7" x="1058" y="280.4346">6</text><text fill="#000000" font-family="sans-serif" font-size="13" lengthAdjust="spacing" textLength="36" x="1069" y="280.4346">device</text><polygon fill="#181818" points="1479,312.9883,1489,316.9883,1479,320.9883,1483,316.9883" style="stroke:#181818;stroke-width:1.0;"/><line style="stroke:#181818;stroke-width:1.0;" x1="1041" x2="1485" y1="316.9883" y2="316.9883"/><text fill="#000000" font-family="sans-serif" font-size="13" font-weight="bold" lengthAdjust="spacing" textLength="7" x="1048" y="311.7256">7</text><text fill="#000000" font-family="sans-serif" font-size="13" lengthAdjust="spacing" textLength="70" x="1059" y="311.7256">save(device)</text><polygon fill="#181818" points="502,344.2793,492,348.2793,502,352.2793,498,348.2793" style="stroke:#181818;stroke-width:1.0;"/><line style="stroke:#181818;stroke-width:1.0;stroke-dasharray:2.0,2.0;" x1="496" x2="1495" y1="348.2793" y2="348.2793"/><text fill="#000000" font-family="sans-serif" font-size="13" font-weight="bold" lengthAdjust="spacing" textLength="7" x="508" y="343.0166">8</text><text fill="#000000" font-family="sans-serif" font-size="13" lengthAdjust="spacing" textLength="36" x="519" y="343.0166">device</text><polygon fill="#181818" points="227,375.5703,217,379.5703,227,383.5703,223,379.5703" style="stroke:#181818;stroke-width:1.0;"/><line style="stroke:#181818;stroke-width:1.0;stroke-dasharray:2.0,2.0;" x1="221" x2="485" y1="379.5703" y2="379.5703"/><text fill="#000000" font-family="sans-serif" font-size="13" font-weight="bold" lengthAdjust="spacing" textLength="7" x="233" y="374.3076">9</text><text fill="#000000" font-family="sans-serif" font-size="13" lengthAdjust="spacing" textLength="36" x="244" y="374.3076">device</text><polygon fill="#181818" points="58,406.8613,48,410.8613,58,414.8613,54,410.8613" style="stroke:#181818;stroke-width:1.0;"/><line style="stroke:#181818;stroke-width:1.0;stroke-dasharray:2.0,2.0;" x1="52" x2="210" y1="410.8613" y2="410.8613"/><text fill="#000000" font-family="sans-serif" font-size="13" font-weight="bold" lengthAdjust="spacing" textLength="14" x="64" y="405.5986">10</text><text fill="#000000" font-family="sans-serif" font-size="13" lengthAdjust="spacing" textLength="70" x="82" y="405.5986">201:Created</text><!--SRC=[bP71JiCm38RlUGfh5xP9ey0n1ouR1mu8nE01lDH0fBG9IJg9joTEiawj489B6__-FyVwS_4HemkoQPp1FWwTkLIsQm9z3jGhshGQtprs0eTeKKLzn4XW-rptGtSWBqJIhOV5VZW4vNMI5e01NaFgEVHHA-tIQ5Z87HsregtjexV6LDysUZFrjTcs9y-_2jKg4_Ny2tJVEJC5MSam7wOajJeMxmCwHrxUpOJCiLZAALsCsLAEFwtrJCu6dLBwadCXaroACTwSdE0lR6vpFXAU7lSlomQTRig01jjs9RZ7dbDMe3ob2SittQE1RIvszSBqe252eLUY4WpdiFvEifsnSo3_WCyGZoYUzVeV0ueAcza2fJqRpwbA27YavGbdASDZOfKSynWJhuqISLBvFIJSN5tBibyhlW40]--></g></svg>