<?xml version="1.0" encoding="us-ascii" standalone="no"?><svg xmlns="http://www.w3.org/2000/svg" xmlns:xlink="http://www.w3.org/1999/xlink" contentStyleType="text/css" height="312px" preserveAspectRatio="none" style="width:859px;height:312px;background:#FFFFFF;" version="1.1" viewBox="0 0 859 312" width="859px" zoomAndPan="magnify"><defs/><g><rect fill="#FFFFFF" height="219.5371" style="stroke:#181818;stroke-width:0.5;" width="5" x="28.75" y="46.8105"/><rect fill="#FFFFFF" height="203.3916" style="stroke:#181818;stroke-width:0.5;" width="5" x="175.25" y="58.4561"/><rect fill="#FFFFFF" height="172.1006" style="stroke:#181818;stroke-width:0.5;" width="5" x="292.75" y="74.1016"/><rect fill="#FFFFFF" height="140.8096" style="stroke:#181818;stroke-width:0.5;" width="5" x="443.25" y="89.7471"/><rect fill="#FFFFFF" height="15.6455" style="stroke:#181818;stroke-width:0.5;" width="5" x="725.75" y="105.3926"/><rect fill="#FFFFFF" height="15.6455" style="stroke:#181818;stroke-width:0.5;" width="5" x="725.75" y="136.6836"/><rect fill="#FFFFFF" height="15.6455" style="stroke:#181818;stroke-width:0.5;" width="5" x="830.75" y="167.9746"/><rect fill="#FFFFFF" height="15.6455" style="stroke:#181818;stroke-width:0.5;" width="5" x="830.75" y="199.2656"/><line style="stroke:#181818;stroke-width:0.25;stroke-dasharray:5.0,5.0;" x1="31" x2="31" y1="41.8105" y2="270.8477"/><line style="stroke:#181818;stroke-width:0.25;stroke-dasharray:5.0,5.0;" x1="177.75" x2="177.75" y1="41.8105" y2="270.8477"/><line style="stroke:#181818;stroke-width:0.25;stroke-dasharray:5.0,5.0;" x1="295.25" x2="295.25" y1="41.8105" y2="270.8477"/><line style="stroke:#181818;stroke-width:0.25;stroke-dasharray:5.0,5.0;" x1="445.75" x2="445.75" y1="41.8105" y2="270.8477"/><line style="stroke:#181818;stroke-width:0.25;stroke-dasharray:5.0,5.0;" x1="728.25" x2="728.25" y1="41.8105" y2="270.8477"/><line style="stroke:#181818;stroke-width:0.25;stroke-dasharray:5.0,5.0;" x1="833.25" x2="833.25" y1="41.8105" y2="270.8477"/><text fill="#000000" font-family="sans-serif" font-size="7" lengthAdjust="spacing" textLength="54.5" x="2.5" y="40.0537">Product Manager</text><ellipse cx="31.25" cy="6.75" fill="#E2E2F0" rx="4" ry="4" style="stroke:#181818;stroke-width:0.25;"/><path d="M31.25,10.75 L31.25,24.25 M24.75,14.75 L37.75,14.75 M31.25,24.25 L24.75,31.75 M31.25,24.25 L37.75,31.75 " fill="none" style="stroke:#181818;stroke-width:0.25;"/><text fill="#000000" font-family="sans-serif" font-size="7" lengthAdjust="spacing" textLength="54.5" x="2.5" y="277.9014">Product Manager</text><ellipse cx="31.25" cy="283.9082" fill="#E2E2F0" rx="4" ry="4" style="stroke:#181818;stroke-width:0.25;"/><path d="M31.25,287.9082 L31.25,301.4082 M24.75,291.9082 L37.75,291.9082 M31.25,301.4082 L24.75,308.9082 M31.25,301.4082 L37.75,308.9082 " fill="none" style="stroke:#181818;stroke-width:0.25;"/><rect fill="#E2E2F0" height="16.3105" rx="1.25" ry="1.25" style="stroke:#181818;stroke-width:0.25;" width="79" x="138.25" y="25"/><text fill="#000000" font-family="sans-serif" font-size="7" lengthAdjust="spacing" textLength="72" x="141.75" y="36.0537">:SubscriptionController</text><rect fill="#E2E2F0" height="16.3105" rx="1.25" ry="1.25" style="stroke:#181818;stroke-width:0.25;" width="79" x="138.25" y="270.3477"/><text fill="#000000" font-family="sans-serif" font-size="7" lengthAdjust="spacing" textLength="72" x="141.75" y="281.4014">:SubscriptionController</text><rect fill="#E2E2F0" height="16.3105" rx="1.25" ry="1.25" style="stroke:#181818;stroke-width:0.25;" width="133" x="228.75" y="25"/><text fill="#000000" font-family="sans-serif" font-size="7" lengthAdjust="spacing" textLength="126" x="232.25" y="36.0537">subscriptionService:SubscriptionService</text><rect fill="#E2E2F0" height="16.3105" rx="1.25" ry="1.25" style="stroke:#181818;stroke-width:0.25;" width="133" x="228.75" y="270.3477"/><text fill="#000000" font-family="sans-serif" font-size="7" lengthAdjust="spacing" textLength="126" x="232.25" y="281.4014">subscriptionService:SubscriptionService</text><rect fill="#E2E2F0" height="16.3105" rx="1.25" ry="1.25" style="stroke:#181818;stroke-width:0.25;" width="158" x="366.75" y="25"/><text fill="#000000" font-family="sans-serif" font-size="7" lengthAdjust="spacing" textLength="151" x="370.25" y="36.0537">subscriptionServiceImpl:SubscriptionServiceImpl</text><rect fill="#E2E2F0" height="16.3105" rx="1.25" ry="1.25" style="stroke:#181818;stroke-width:0.25;" width="158" x="366.75" y="270.3477"/><text fill="#000000" font-family="sans-serif" font-size="7" lengthAdjust="spacing" textLength="151" x="370.25" y="281.4014">subscriptionServiceImpl:SubscriptionServiceImpl</text><rect fill="#E2E2F0" height="16.3105" rx="1.25" ry="1.25" style="stroke:#181818;stroke-width:0.25;" width="154" x="651.25" y="25"/><text fill="#000000" font-family="sans-serif" font-size="7" lengthAdjust="spacing" textLength="147" x="654.75" y="36.0537">subscriptionRepository:SubscriptionRepository</text><rect fill="#E2E2F0" height="16.3105" rx="1.25" ry="1.25" style="stroke:#181818;stroke-width:0.25;" width="154" x="651.25" y="270.3477"/><text fill="#000000" font-family="sans-serif" font-size="7" lengthAdjust="spacing" textLength="147" x="654.75" y="281.4014">subscriptionRepository:SubscriptionRepository</text><rect fill="#E2E2F0" height="16.3105" rx="1.25" ry="1.25" style="stroke:#181818;stroke-width:0.25;" width="46" x="810.25" y="25"/><text fill="#000000" font-family="sans-serif" font-size="7" lengthAdjust="spacing" textLength="39" x="813.75" y="36.0537">Subscription</text><rect fill="#E2E2F0" height="16.3105" rx="1.25" ry="1.25" style="stroke:#181818;stroke-width:0.25;" width="46" x="810.25" y="270.3477"/><text fill="#000000" font-family="sans-serif" font-size="7" lengthAdjust="spacing" textLength="39" x="813.75" y="281.4014">Subscription</text><rect fill="#FFFFFF" height="219.5371" style="stroke:#181818;stroke-width:0.5;" width="5" x="28.75" y="46.8105"/><rect fill="#FFFFFF" height="203.3916" style="stroke:#181818;stroke-width:0.5;" width="5" x="175.25" y="58.4561"/><rect fill="#FFFFFF" height="172.1006" style="stroke:#181818;stroke-width:0.5;" width="5" x="292.75" y="74.1016"/><rect fill="#FFFFFF" height="140.8096" style="stroke:#181818;stroke-width:0.5;" width="5" x="443.25" y="89.7471"/><rect fill="#FFFFFF" height="15.6455" style="stroke:#181818;stroke-width:0.5;" width="5" x="725.75" y="105.3926"/><rect fill="#FFFFFF" height="15.6455" style="stroke:#181818;stroke-width:0.5;" width="5" x="725.75" y="136.6836"/><rect fill="#FFFFFF" height="15.6455" style="stroke:#181818;stroke-width:0.5;" width="5" x="830.75" y="167.9746"/><rect fill="#FFFFFF" height="15.6455" style="stroke:#181818;stroke-width:0.5;" width="5" x="830.75" y="199.2656"/><polygon fill="#181818" points="169.25,56.4561,174.25,58.4561,169.25,60.4561,171.25,58.4561" style="stroke:#181818;stroke-width:0.5;"/><line style="stroke:#181818;stroke-width:0.5;" x1="33.75" x2="172.25" y1="58.4561" y2="58.4561"/><text fill="#000000" font-family="sans-serif" font-size="6.5" font-weight="bold" lengthAdjust="spacing" textLength="3.5" x="37.25" y="55.8247">1</text><text fill="#000000" font-family="sans-serif" font-size="6.5" lengthAdjust="spacing" textLength="126.5" x="42.75" y="55.8247">GET(api/sub/dashboard/newSubAndCancel)</text><polygon fill="#181818" points="286.75,72.1016,291.75,74.1016,286.75,76.1016,288.75,74.1016" style="stroke:#181818;stroke-width:0.5;"/><line style="stroke:#181818;stroke-width:0.5;" x1="180.25" x2="289.75" y1="74.1016" y2="74.1016"/><text fill="#000000" font-family="sans-serif" font-size="6.5" font-weight="bold" lengthAdjust="spacing" textLength="3.5" x="183.75" y="71.4702">2</text><text fill="#000000" font-family="sans-serif" font-size="6.5" lengthAdjust="spacing" textLength="97.5" x="189.25" y="71.4702">forDashBoard(startDate, endDate)</text><polygon fill="#181818" points="437.25,87.7471,442.25,89.7471,437.25,91.7471,439.25,89.7471" style="stroke:#181818;stroke-width:0.5;"/><line style="stroke:#181818;stroke-width:0.5;" x1="297.75" x2="440.25" y1="89.7471" y2="89.7471"/><text fill="#000000" font-family="sans-serif" font-size="6.5" font-weight="bold" lengthAdjust="spacing" textLength="3.5" x="301.25" y="87.1157">3</text><text fill="#000000" font-family="sans-serif" font-size="6.5" lengthAdjust="spacing" textLength="97.5" x="306.75" y="87.1157">forDashBoard(startDate, endDate)</text><polygon fill="#181818" points="719.75,103.3926,724.75,105.3926,719.75,107.3926,721.75,105.3926" style="stroke:#181818;stroke-width:0.5;"/><line style="stroke:#181818;stroke-width:0.5;" x1="448.25" x2="722.75" y1="105.3926" y2="105.3926"/><text fill="#000000" font-family="sans-serif" font-size="6.5" font-weight="bold" lengthAdjust="spacing" textLength="3.5" x="451.75" y="102.7612">4</text><text fill="#000000" font-family="sans-serif" font-size="6.5" lengthAdjust="spacing" textLength="248" x="457.25" y="102.7612">countSubscriptionsByDatesAndStatus(startDate, endDate, SubscriptionStatus.Active)</text><polygon fill="#181818" points="453.75,119.0381,448.75,121.0381,453.75,123.0381,451.75,121.0381" style="stroke:#181818;stroke-width:0.5;"/><line style="stroke:#181818;stroke-width:0.5;stroke-dasharray:2.0,2.0;" x1="450.75" x2="727.75" y1="121.0381" y2="121.0381"/><text fill="#000000" font-family="sans-serif" font-size="6.5" font-weight="bold" lengthAdjust="spacing" textLength="3.5" x="456.75" y="118.4067">5</text><text fill="#000000" font-family="sans-serif" font-size="6.5" lengthAdjust="spacing" textLength="59.5" x="462.25" y="118.4067">(subscriptionsCount)</text><polygon fill="#181818" points="719.75,134.6836,724.75,136.6836,719.75,138.6836,721.75,136.6836" style="stroke:#181818;stroke-width:0.5;"/><line style="stroke:#181818;stroke-width:0.5;" x1="448.25" x2="722.75" y1="136.6836" y2="136.6836"/><text fill="#000000" font-family="sans-serif" font-size="6.5" font-weight="bold" lengthAdjust="spacing" textLength="3.5" x="451.75" y="134.0522">6</text><text fill="#000000" font-family="sans-serif" font-size="6.5" lengthAdjust="spacing" textLength="262.5" x="457.25" y="134.0522">countSubscriptionsByDatesAndStatus1(startDate, endDate, SubscriptionStatus.Cancelled)</text><polygon fill="#181818" points="453.75,150.3291,448.75,152.3291,453.75,154.3291,451.75,152.3291" style="stroke:#181818;stroke-width:0.5;"/><line style="stroke:#181818;stroke-width:0.5;stroke-dasharray:2.0,2.0;" x1="450.75" x2="727.75" y1="152.3291" y2="152.3291"/><text fill="#000000" font-family="sans-serif" font-size="6.5" font-weight="bold" lengthAdjust="spacing" textLength="3.5" x="456.75" y="149.6978">7</text><text fill="#000000" font-family="sans-serif" font-size="6.5" lengthAdjust="spacing" textLength="48.5" x="462.25" y="149.6978">(cancelledCount)</text><polygon fill="#181818" points="824.75,165.9746,829.75,167.9746,824.75,169.9746,826.75,167.9746" style="stroke:#181818;stroke-width:0.5;"/><line style="stroke:#181818;stroke-width:0.5;" x1="448.25" x2="827.75" y1="167.9746" y2="167.9746"/><text fill="#000000" font-family="sans-serif" font-size="6.5" font-weight="bold" lengthAdjust="spacing" textLength="3.5" x="451.75" y="165.3433">8</text><text fill="#000000" font-family="sans-serif" font-size="6.5" lengthAdjust="spacing" textLength="108" x="457.25" y="165.3433">setSubscriptions(subscriptionsCount)</text><polygon fill="#181818" points="453.75,181.6201,448.75,183.6201,453.75,185.6201,451.75,183.6201" style="stroke:#181818;stroke-width:0.5;"/><line style="stroke:#181818;stroke-width:0.5;stroke-dasharray:2.0,2.0;" x1="450.75" x2="832.75" y1="183.6201" y2="183.6201"/><text fill="#000000" font-family="sans-serif" font-size="6.5" font-weight="bold" lengthAdjust="spacing" textLength="3.5" x="456.75" y="180.9888">9</text><text fill="#000000" font-family="sans-serif" font-size="6.5" lengthAdjust="spacing" textLength="7" x="462.25" y="180.9888">ok</text><polygon fill="#181818" points="824.75,197.2656,829.75,199.2656,824.75,201.2656,826.75,199.2656" style="stroke:#181818;stroke-width:0.5;"/><line style="stroke:#181818;stroke-width:0.5;" x1="448.25" x2="827.75" y1="199.2656" y2="199.2656"/><text fill="#000000" font-family="sans-serif" font-size="6.5" font-weight="bold" lengthAdjust="spacing" textLength="7" x="451.75" y="196.6343">10</text><text fill="#000000" font-family="sans-serif" font-size="6.5" lengthAdjust="spacing" textLength="96.5" x="460.75" y="196.6343">setCancellations(cancelledCount)</text><polygon fill="#181818" points="453.75,212.9111,448.75,214.9111,453.75,216.9111,451.75,214.9111" style="stroke:#181818;stroke-width:0.5;"/><line style="stroke:#181818;stroke-width:0.5;stroke-dasharray:2.0,2.0;" x1="450.75" x2="832.75" y1="214.9111" y2="214.9111"/><text fill="#000000" font-family="sans-serif" font-size="6.5" font-weight="bold" lengthAdjust="spacing" textLength="7" x="456.75" y="212.2798">11</text><text fill="#000000" font-family="sans-serif" font-size="6.5" lengthAdjust="spacing" textLength="7" x="465.75" y="212.2798">ok</text><polygon fill="#181818" points="303.25,228.5566,298.25,230.5566,303.25,232.5566,301.25,230.5566" style="stroke:#181818;stroke-width:0.5;"/><line style="stroke:#181818;stroke-width:0.5;stroke-dasharray:2.0,2.0;" x1="300.25" x2="445.25" y1="230.5566" y2="230.5566"/><text fill="#000000" font-family="sans-serif" font-size="6.5" font-weight="bold" lengthAdjust="spacing" textLength="7" x="306.25" y="227.9253">12</text><text fill="#000000" font-family="sans-serif" font-size="6.5" lengthAdjust="spacing" textLength="7" x="315.25" y="227.9253">ok</text><polygon fill="#181818" points="185.75,244.2021,180.75,246.2021,185.75,248.2021,183.75,246.2021" style="stroke:#181818;stroke-width:0.5;"/><line style="stroke:#181818;stroke-width:0.5;stroke-dasharray:2.0,2.0;" x1="182.75" x2="294.75" y1="246.2021" y2="246.2021"/><text fill="#000000" font-family="sans-serif" font-size="6.5" font-weight="bold" lengthAdjust="spacing" textLength="7" x="188.75" y="243.5708">13</text><text fill="#000000" font-family="sans-serif" font-size="6.5" lengthAdjust="spacing" textLength="7" x="197.75" y="243.5708">ok</text><polygon fill="#181818" points="39.25,259.8477,34.25,261.8477,39.25,263.8477,37.25,261.8477" style="stroke:#181818;stroke-width:0.5;"/><line style="stroke:#181818;stroke-width:0.5;stroke-dasharray:2.0,2.0;" x1="36.25" x2="177.25" y1="261.8477" y2="261.8477"/><text fill="#000000" font-family="sans-serif" font-size="6.5" font-weight="bold" lengthAdjust="spacing" textLength="7" x="42.25" y="259.2163">14</text><text fill="#000000" font-family="sans-serif" font-size="6.5" lengthAdjust="spacing" textLength="22" x="51.25" y="259.2163">200:OK</text><!--SRC=[bLBHJi8m57tVLpIy20amzB4F932CCSPeH3-WT1KQkxQs7OQ_zzvkO8SGT0zBUtfwxhcdzseJWlKqpwrYEjIL6dDJvLvyra9pCIebMpjMPHchWs4yo2qBWXWTzxgkLi9byC69SQJtx4nPyq0UcMPhuNg4UVBcWMAP2v9B2oL8ZoxhbUTEsY2DBemEpYZLielWL9Vj4_9IkAtaeYFGOl5skxueS5zPTKe4yIY4Y_CgBy8QBw7ZNKVa1uuQkErgfEJ6RmB449juOsGP_ibeYeaGIkvkN_lCoXnyv2NpcvLXhior-0ADcIuB1g-b1bbaZwRx92XvDsu1z3dI-pw0dGMK61AXIrmCifQ9bs8ibsyW3UdO8EMcrY7jmyztIFDWQXbOgFq9ZM6dyuOsdc7x88-oP7Imqq-JzmMM-xU5wxzwQ69KelnjW- -FZYoaAfHuqNLoqdtAI4gOZ_EYhJ7MY1vxkIIO3WI0XoS770ScWita089pHydDP4AV7hu1]--></g></svg>