<?xml version="1.0" encoding="UTF-8" standalone="no"?><svg xmlns="http://www.w3.org/2000/svg" xmlns:xlink="http://www.w3.org/1999/xlink" contentStyleType="text/css" height="808px" preserveAspectRatio="none" style="width:530px;height:808px;background:#FFFFFF;" version="1.1" viewBox="0 0 530 808" width="530px" zoomAndPan="magnify"><defs/><g><!--MD5=[a0d94b09b17b306fb81c487dc7673e5c]
class SubscriptionController--><g id="elem_SubscriptionController"><rect codeLine="1" fill="#F1F1F1" height="66.6211" id="SubscriptionController" rx="2.5" ry="2.5" style="stroke:#181818;stroke-width:0.5;" width="172" x="178" y="7"/><ellipse cx="193" cy="23" fill="#ADD1B2" rx="11" ry="11" style="stroke:#181818;stroke-width:1.0;"/><path d="M195.7656,18.875 Q195.9219,18.6563 196.1094,18.5469 Q196.2969,18.4375 196.5156,18.4375 Q196.8906,18.4375 197.125,18.7031 Q197.3594,18.9531 197.3594,19.5625 L197.3594,21.0156 Q197.3594,21.625 197.125,21.8906 Q196.8906,22.1563 196.5156,22.1563 Q196.1719,22.1563 195.9688,21.9531 Q195.7656,21.7656 195.6563,21.25 Q195.6094,20.8906 195.4219,20.7031 Q195.0938,20.3281 194.4844,20.1094 Q193.875,19.8906 193.25,19.8906 Q192.4844,19.8906 191.8438,20.2188 Q191.2188,20.5469 190.7188,21.2969 Q190.2344,22.0469 190.2344,23.0781 L190.2344,24.1719 Q190.2344,25.4063 191.125,26.2344 Q192.0156,27.0469 193.6094,27.0469 Q194.5469,27.0469 195.2031,26.7969 Q195.5938,26.6406 196.0156,26.2031 Q196.2813,25.9375 196.4219,25.8594 Q196.5781,25.7813 196.7813,25.7813 Q197.1094,25.7813 197.3594,26.0469 Q197.625,26.2969 197.625,26.6406 Q197.625,26.9844 197.2813,27.3906 Q196.7813,27.9688 195.9844,28.2969 Q194.9063,28.75 193.6094,28.75 Q192.0938,28.75 190.8906,28.125 Q189.9063,27.625 189.2188,26.5625 Q188.5313,25.4844 188.5313,24.2031 L188.5313,23.0469 Q188.5313,21.7188 189.1406,20.5781 Q189.7656,19.4219 190.8594,18.8125 Q191.9531,18.1875 193.1875,18.1875 Q193.9219,18.1875 194.5625,18.3594 Q195.2188,18.5156 195.7656,18.875 Z " fill="#000000"/><text fill="#000000" font-family="sans-serif" font-size="14" lengthAdjust="spacing" textLength="140" x="207" y="28.7969">SubscriptionController</text><line style="stroke:#181818;stroke-width:0.5;" x1="179" x2="349" y1="39" y2="39"/><line style="stroke:#181818;stroke-width:0.5;" x1="179" x2="349" y1="47" y2="47"/><ellipse cx="189" cy="61.8105" fill="#84BE84" rx="3" ry="3" style="stroke:#038048;stroke-width:1.0;"/><text fill="#000000" font-family="sans-serif" font-size="14" lengthAdjust="spacing" textLength="107" x="198" y="66.1074">findOne(Long id)</text></g><!--MD5=[0dcc03df3314187238fb9500a6ba3a42]
class SubscriptionService--><g id="elem_SubscriptionService"><rect codeLine="7" fill="#F1F1F1" height="66.6211" id="SubscriptionService" rx="2.5" ry="2.5" style="stroke:#181818;stroke-width:0.5;" width="181" x="173.5" y="135"/><ellipse cx="199.3" cy="151" fill="#ADD1B2" rx="11" ry="11" style="stroke:#181818;stroke-width:1.0;"/><path d="M202.0656,146.875 Q202.2219,146.6563 202.4094,146.5469 Q202.5969,146.4375 202.8156,146.4375 Q203.1906,146.4375 203.425,146.7031 Q203.6594,146.9531 203.6594,147.5625 L203.6594,149.0156 Q203.6594,149.625 203.425,149.8906 Q203.1906,150.1563 202.8156,150.1563 Q202.4719,150.1563 202.2688,149.9531 Q202.0656,149.7656 201.9563,149.25 Q201.9094,148.8906 201.7219,148.7031 Q201.3938,148.3281 200.7844,148.1094 Q200.175,147.8906 199.55,147.8906 Q198.7844,147.8906 198.1438,148.2188 Q197.5188,148.5469 197.0188,149.2969 Q196.5344,150.0469 196.5344,151.0781 L196.5344,152.1719 Q196.5344,153.4063 197.425,154.2344 Q198.3156,155.0469 199.9094,155.0469 Q200.8469,155.0469 201.5031,154.7969 Q201.8938,154.6406 202.3156,154.2031 Q202.5813,153.9375 202.7219,153.8594 Q202.8781,153.7813 203.0813,153.7813 Q203.4094,153.7813 203.6594,154.0469 Q203.925,154.2969 203.925,154.6406 Q203.925,154.9844 203.5813,155.3906 Q203.0813,155.9688 202.2844,156.2969 Q201.2063,156.75 199.9094,156.75 Q198.3938,156.75 197.1906,156.125 Q196.2063,155.625 195.5188,154.5625 Q194.8313,153.4844 194.8313,152.2031 L194.8313,151.0469 Q194.8313,149.7188 195.4406,148.5781 Q196.0656,147.4219 197.1594,146.8125 Q198.2531,146.1875 199.4875,146.1875 Q200.2219,146.1875 200.8625,146.3594 Q201.5188,146.5156 202.0656,146.875 Z " fill="#000000"/><text fill="#000000" font-family="sans-serif" font-size="14" lengthAdjust="spacing" textLength="125" x="215.7" y="156.7969">SubscriptionService</text><line style="stroke:#181818;stroke-width:0.5;" x1="174.5" x2="353.5" y1="167" y2="167"/><line style="stroke:#181818;stroke-width:0.5;" x1="174.5" x2="353.5" y1="175" y2="175"/><ellipse cx="184.5" cy="189.8105" fill="#84BE84" rx="3" ry="3" style="stroke:#038048;stroke-width:1.0;"/><text fill="#000000" font-family="sans-serif" font-size="14" lengthAdjust="spacing" textLength="155" x="193.5" y="194.1074">findOne(Long id): Result</text></g><!--MD5=[d845121cb320b282bcbc82de8d275a60]
class SubscriptionServiceImpl--><g id="elem_SubscriptionServiceImpl"><rect codeLine="10" fill="#F1F1F1" height="85.2422" id="SubscriptionServiceImpl" rx="2.5" ry="2.5" style="stroke:#181818;stroke-width:0.5;" width="182" x="101" y="263"/><ellipse cx="116" cy="279" fill="#ADD1B2" rx="11" ry="11" style="stroke:#181818;stroke-width:1.0;"/><path d="M118.7656,274.875 Q118.9219,274.6563 119.1094,274.5469 Q119.2969,274.4375 119.5156,274.4375 Q119.8906,274.4375 120.125,274.7031 Q120.3594,274.9531 120.3594,275.5625 L120.3594,277.0156 Q120.3594,277.625 120.125,277.8906 Q119.8906,278.1563 119.5156,278.1563 Q119.1719,278.1563 118.9688,277.9531 Q118.7656,277.7656 118.6563,277.25 Q118.6094,276.8906 118.4219,276.7031 Q118.0938,276.3281 117.4844,276.1094 Q116.875,275.8906 116.25,275.8906 Q115.4844,275.8906 114.8438,276.2188 Q114.2188,276.5469 113.7188,277.2969 Q113.2344,278.0469 113.2344,279.0781 L113.2344,280.1719 Q113.2344,281.4063 114.125,282.2344 Q115.0156,283.0469 116.6094,283.0469 Q117.5469,283.0469 118.2031,282.7969 Q118.5938,282.6406 119.0156,282.2031 Q119.2813,281.9375 119.4219,281.8594 Q119.5781,281.7813 119.7813,281.7813 Q120.1094,281.7813 120.3594,282.0469 Q120.625,282.2969 120.625,282.6406 Q120.625,282.9844 120.2813,283.3906 Q119.7813,283.9688 118.9844,284.2969 Q117.9063,284.75 116.6094,284.75 Q115.0938,284.75 113.8906,284.125 Q112.9063,283.625 112.2188,282.5625 Q111.5313,281.4844 111.5313,280.2031 L111.5313,279.0469 Q111.5313,277.7188 112.1406,276.5781 Q112.7656,275.4219 113.8594,274.8125 Q114.9531,274.1875 116.1875,274.1875 Q116.9219,274.1875 117.5625,274.3594 Q118.2188,274.5156 118.7656,274.875 Z " fill="#000000"/><text fill="#000000" font-family="sans-serif" font-size="14" lengthAdjust="spacing" textLength="150" x="130" y="284.7969">SubscriptionServiceImpl</text><line style="stroke:#181818;stroke-width:0.5;" x1="102" x2="282" y1="295" y2="295"/><line style="stroke:#181818;stroke-width:0.5;" x1="102" x2="282" y1="303" y2="303"/><ellipse cx="112" cy="317.8105" fill="#84BE84" rx="3" ry="3" style="stroke:#038048;stroke-width:1.0;"/><text fill="#000000" font-family="sans-serif" font-size="14" lengthAdjust="spacing" textLength="106" x="121" y="322.1074">findByUser(user)</text><ellipse cx="112" cy="336.4316" fill="#84BE84" rx="3" ry="3" style="stroke:#038048;stroke-width:1.0;"/><text fill="#000000" font-family="sans-serif" font-size="14" lengthAdjust="spacing" textLength="128" x="121" y="340.7285">ResponseEntity.ok()</text></g><!--MD5=[8cb61edb30e29c1e32ddb687c0ab6f7a]
class SubscriptionRepository--><g id="elem_SubscriptionRepository"><rect codeLine="15" fill="#F1F1F1" height="60.582" id="SubscriptionRepository" rx="2.5" ry="2.5" style="stroke:#181818;stroke-width:0.5;" width="178" x="34" y="409"/><ellipse cx="49" cy="431.291" fill="#B4A7E5" rx="11" ry="11" style="stroke:#181818;stroke-width:1.0;"/><path d="M49.9531,427.9316 L49.9531,434.5879 L51.6719,434.5879 Q52.2813,434.5879 52.5469,434.8223 Q52.8125,435.0566 52.8125,435.4473 Q52.8125,435.8223 52.5469,436.0566 Q52.2813,436.291 51.6719,436.291 L46.5313,436.291 Q45.9219,436.291 45.6563,436.0566 Q45.3906,435.8223 45.3906,435.4316 Q45.3906,435.0566 45.6563,434.8223 Q45.9219,434.5879 46.5313,434.5879 L48.25,434.5879 L48.25,427.9316 L46.5313,427.9316 Q45.9219,427.9316 45.6563,427.6973 Q45.3906,427.4629 45.3906,427.0723 Q45.3906,426.6973 45.6563,426.4629 Q45.9219,426.2285 46.5313,426.2285 L51.6719,426.2285 Q52.2813,426.2285 52.5469,426.4629 Q52.8125,426.6973 52.8125,427.0723 Q52.8125,427.4629 52.5469,427.6973 Q52.2813,427.9316 51.6719,427.9316 L49.9531,427.9316 Z " fill="#000000"/><text fill="#000000" font-family="sans-serif" font-size="12" font-style="italic" lengthAdjust="spacing" textLength="61" x="105.5" y="426.9492">«interface»</text><text fill="#000000" font-family="sans-serif" font-size="14" font-style="italic" lengthAdjust="spacing" textLength="146" x="63" y="445.0684">SubscriptionRepository</text><line style="stroke:#181818;stroke-width:0.5;" x1="35" x2="211" y1="453.582" y2="453.582"/><line style="stroke:#181818;stroke-width:0.5;" x1="35" x2="211" y1="461.582" y2="461.582"/></g><!--MD5=[545507b7baa8aade59e57dce916f0187]
class Subscription--><g id="elem_Subscription"><rect codeLine="20" fill="#F1F1F1" height="252.832" id="Subscription" rx="2.5" ry="2.5" style="stroke:#181818;stroke-width:0.5;" width="516" x="7" y="549"/><ellipse cx="221.75" cy="565" fill="#ADD1B2" rx="11" ry="11" style="stroke:#181818;stroke-width:1.0;"/><path d="M224.5156,560.875 Q224.6719,560.6563 224.8594,560.5469 Q225.0469,560.4375 225.2656,560.4375 Q225.6406,560.4375 225.875,560.7031 Q226.1094,560.9531 226.1094,561.5625 L226.1094,563.0156 Q226.1094,563.625 225.875,563.8906 Q225.6406,564.1563 225.2656,564.1563 Q224.9219,564.1563 224.7188,563.9531 Q224.5156,563.7656 224.4063,563.25 Q224.3594,562.8906 224.1719,562.7031 Q223.8438,562.3281 223.2344,562.1094 Q222.625,561.8906 222,561.8906 Q221.2344,561.8906 220.5938,562.2188 Q219.9688,562.5469 219.4688,563.2969 Q218.9844,564.0469 218.9844,565.0781 L218.9844,566.1719 Q218.9844,567.4063 219.875,568.2344 Q220.7656,569.0469 222.3594,569.0469 Q223.2969,569.0469 223.9531,568.7969 Q224.3438,568.6406 224.7656,568.2031 Q225.0313,567.9375 225.1719,567.8594 Q225.3281,567.7813 225.5313,567.7813 Q225.8594,567.7813 226.1094,568.0469 Q226.375,568.2969 226.375,568.6406 Q226.375,568.9844 226.0313,569.3906 Q225.5313,569.9688 224.7344,570.2969 Q223.6563,570.75 222.3594,570.75 Q220.8438,570.75 219.6406,570.125 Q218.6563,569.625 217.9688,568.5625 Q217.2813,567.4844 217.2813,566.2031 L217.2813,565.0469 Q217.2813,563.7188 217.8906,562.5781 Q218.5156,561.4219 219.6094,560.8125 Q220.7031,560.1875 221.9375,560.1875 Q222.6719,560.1875 223.3125,560.3594 Q223.9688,560.5156 224.5156,560.875 Z " fill="#000000"/><text fill="#000000" font-family="sans-serif" font-size="14" lengthAdjust="spacing" textLength="78" x="242.25" y="570.7969">Subscription</text><line style="stroke:#181818;stroke-width:0.5;" x1="8" x2="522" y1="581" y2="581"/><rect fill="none" height="6" style="stroke:#C82930;stroke-width:1.0;" width="6" x="15" y="592.8105"/><text fill="#000000" font-family="sans-serif" font-size="14" lengthAdjust="spacing" textLength="11" x="27" y="600.1074">id</text><rect fill="none" height="6" style="stroke:#C82930;stroke-width:1.0;" width="6" x="15" y="611.4316"/><text fill="#000000" font-family="sans-serif" font-size="14" lengthAdjust="spacing" textLength="55" x="27" y="618.7285">subType</text><rect fill="none" height="6" style="stroke:#C82930;stroke-width:1.0;" width="6" x="15" y="630.0527"/><text fill="#000000" font-family="sans-serif" font-size="14" lengthAdjust="spacing" textLength="28" x="27" y="637.3496">date</text><rect fill="none" height="6" style="stroke:#C82930;stroke-width:1.0;" width="6" x="15" y="648.6738"/><text fill="#000000" font-family="sans-serif" font-size="14" lengthAdjust="spacing" textLength="56" x="27" y="655.9707">subState</text><rect fill="none" height="6" style="stroke:#C82930;stroke-width:1.0;" width="6" x="15" y="667.2949"/><text fill="#000000" font-family="sans-serif" font-size="14" lengthAdjust="spacing" textLength="52" x="27" y="674.5918">feeType</text><line style="stroke:#181818;stroke-width:0.5;" x1="8" x2="522" y1="682.1055" y2="682.1055"/><text fill="#000000" font-family="sans-serif" font-size="14" lengthAdjust="spacing" textLength="490" x="27" y="701.2129">Subscription(int id, string subType, date date, string subState, string feeType)</text><ellipse cx="18" cy="715.5371" fill="#84BE84" rx="3" ry="3" style="stroke:#038048;stroke-width:1.0;"/><text fill="#000000" font-family="sans-serif" font-size="14" lengthAdjust="spacing" textLength="66" x="27" y="719.834">getID(): int</text><ellipse cx="18" cy="734.1582" fill="#84BE84" rx="3" ry="3" style="stroke:#038048;stroke-width:1.0;"/><text fill="#000000" font-family="sans-serif" font-size="14" lengthAdjust="spacing" textLength="130" x="27" y="738.4551">getSubType(): string</text><ellipse cx="18" cy="752.7793" fill="#84BE84" rx="3" ry="3" style="stroke:#038048;stroke-width:1.0;"/><text fill="#000000" font-family="sans-serif" font-size="14" lengthAdjust="spacing" textLength="96" x="27" y="757.0762">getDate(): date</text><ellipse cx="18" cy="771.4004" fill="#84BE84" rx="3" ry="3" style="stroke:#038048;stroke-width:1.0;"/><text fill="#000000" font-family="sans-serif" font-size="14" lengthAdjust="spacing" textLength="131" x="27" y="775.6973">getSubState(): string</text><ellipse cx="18" cy="790.0215" fill="#84BE84" rx="3" ry="3" style="stroke:#038048;stroke-width:1.0;"/><text fill="#000000" font-family="sans-serif" font-size="14" lengthAdjust="spacing" textLength="130" x="27" y="794.3184">getFeeType(): string</text></g><!--MD5=[735a3ef7641b41d5ec8e9b2441552fb7]
link SubscriptionRepository to Subscription--><g id="link_SubscriptionRepository_Subscription"><path codeLine="35" d="M140.98,470.14 C152.78,489.57 169.11,516.48 186.05,544.4 " fill="none" id="SubscriptionRepository-to-Subscription" style="stroke:#181818;stroke-width:1.0;"/><polygon fill="#181818" points="188.77,548.89,187.5456,539.1175,186.187,544.6088,180.6957,543.2503,188.77,548.89" style="stroke:#181818;stroke-width:1.0;"/><text fill="#000000" font-family="sans-serif" font-size="13" lengthAdjust="spacing" textLength="43" x="170" y="515.0283">records</text><text fill="#000000" font-family="sans-serif" font-size="13" lengthAdjust="spacing" textLength="7" x="136.7403" y="491.697">1</text><text fill="#000000" font-family="sans-serif" font-size="13" lengthAdjust="spacing" textLength="20" x="163.5154" y="537.699">0..*</text></g><!--MD5=[7c0a5013189dd744519452e23d34a89f]
link SubscriptionController to SubscriptionService--><g id="link_SubscriptionController_SubscriptionService"><path codeLine="36" d="M264,74.28 C264,91.19 264,111.92 264,129.53 " fill="none" id="SubscriptionController-to-SubscriptionService" style="stroke:#181818;stroke-width:1.0;stroke-dasharray:7.0,7.0;"/><polygon fill="#181818" points="264,134.89,268,125.89,264,129.89,260,125.89,264,134.89" style="stroke:#181818;stroke-width:1.0;"/></g><!--MD5=[a463dccd8de9a3cde3f12b9a78431812]
link SubscriptionServiceImpl to SubscriptionRepository--><g id="link_SubscriptionServiceImpl_SubscriptionRepository"><path codeLine="37" d="M170.17,348.27 C160.78,366.22 149.95,386.94 141.03,404 " fill="none" id="SubscriptionServiceImpl-to-SubscriptionRepository" style="stroke:#181818;stroke-width:1.0;stroke-dasharray:7.0,7.0;"/><polygon fill="#181818" points="138.57,408.71,146.2835,402.5861,140.8858,404.2786,139.1933,398.8809,138.57,408.71" style="stroke:#181818;stroke-width:1.0;"/></g><!--MD5=[86081a14726a75d9e6fe321749ef4ce7]
link SubscriptionServiceImpl to Subscription--><g id="link_SubscriptionServiceImpl_Subscription"><path codeLine="38" d="M209.35,348.27 C216.38,366.63 224,388.6 229,409 C239.65,452.39 247.37,500.6 252.87,543.89 " fill="none" id="SubscriptionServiceImpl-to-Subscription" style="stroke:#181818;stroke-width:1.0;stroke-dasharray:7.0,7.0;"/><polygon fill="#181818" points="253.49,548.88,256.3561,539.4574,252.8768,543.9177,248.4165,540.4385,253.49,548.88" style="stroke:#181818;stroke-width:1.0;"/></g><!--MD5=[1106b8449e6ce895e821e5b0220feefa]
link SubscriptionService to Subscription--><g id="link_SubscriptionService_Subscription"><path codeLine="39" d="M280.52,202.34 C288.42,219.86 297.01,242.08 301,263 C318.71,355.88 308.63,462.25 294.68,543.57 " fill="none" id="SubscriptionService-to-Subscription" style="stroke:#181818;stroke-width:1.0;stroke-dasharray:7.0,7.0;"/><polygon fill="#181818" points="293.76,548.89,299.2429,540.7085,294.6167,543.9639,291.3612,539.3377,293.76,548.89" style="stroke:#181818;stroke-width:1.0;"/></g><!--MD5=[bd4fa322b08aba60ea02c44d11c186c0]
reverse link SubscriptionService to SubscriptionServiceImpl--><g id="link_SubscriptionService_SubscriptionServiceImpl"><path codeLine="40" d="M237.1,219.95 C229.55,234.1 221.42,249.33 214.18,262.91 " fill="none" id="SubscriptionService-backto-SubscriptionServiceImpl" style="stroke:#181818;stroke-width:1.0;stroke-dasharray:7.0,7.0;"/><polygon fill="none" points="230.98,216.53,246.57,202.18,243.34,223.12,230.98,216.53" style="stroke:#181818;stroke-width:1.0;"/></g><!--MD5=[a8ad51672cee7483b7516696ebec1b1a]
@startuml
class SubscriptionController {
 +findOne(Long id)
}



class SubscriptionService {
 +findOne(Long id): Result
}
class SubscriptionServiceImpl{
+findByUser(user)
+ResponseEntity.ok()
}

interface SubscriptionRepository <<interface>> {

}


class Subscription {
    -id
    -subType
    -date
    -subState
    -feeType
    Subscription(int id, string subType, date date, string subState, string feeType)
    +getID(): int
    +getSubType(): string
    +getDate(): date
    +getSubState(): string
    +getFeeType(): string

}

SubscriptionRepository "1" - -> "0..*" Subscription:  records
SubscriptionController ..> SubscriptionService
SubscriptionServiceImpl ..> SubscriptionRepository
SubscriptionServiceImpl ..> Subscription
SubscriptionService ..> Subscription
SubscriptionServiceImpl .up.|> SubscriptionService
@enduml

PlantUML version 1.2022.13(Sat Nov 19 13:22:17 WET 2022)
(GPL source distribution)
Java Runtime: OpenJDK Runtime Environment
JVM: OpenJDK 64-Bit Server VM
Default Encoding: Cp1252
Language: pt
Country: PT
--></g></svg>