<?xml version="1.0" encoding="us-ascii" standalone="no"?><svg xmlns="http://www.w3.org/2000/svg" xmlns:xlink="http://www.w3.org/1999/xlink" contentStyleType="text/css" height="579px" preserveAspectRatio="none" style="width:2530px;height:579px;background:#FFFFFF;" version="1.1" viewBox="0 0 2530 579" width="2530px" zoomAndPan="magnify"><defs/><g><rect fill="#FFFFFF" height="393.7832" style="stroke:#181818;stroke-width:1.0;" width="10" x="60" y="93.6211"/><rect fill="#FFFFFF" height="361.4922" style="stroke:#181818;stroke-width:1.0;" width="10" x="252" y="116.9121"/><rect fill="#FFFFFF" height="298.9102" style="stroke:#181818;stroke-width:1.0;" width="10" x="925" y="148.2031"/><rect fill="#FFFFFF" height="236.3281" style="stroke:#181818;stroke-width:1.0;" width="10" x="1598" y="179.4941"/><rect fill="#FFFFFF" height="31.291" style="stroke:#181818;stroke-width:1.0;" width="10" x="1820.5" y="210.7852"/><rect fill="#FFFFFF" height="31.291" style="stroke:#181818;stroke-width:1.0;" width="10" x="1820.5" y="353.2402"/><rect fill="#FFFFFF" height="31.291" style="stroke:#181818;stroke-width:1.0;" width="10" x="2498" y="290.6582"/><line style="stroke:#181818;stroke-width:0.5;stroke-dasharray:5.0,5.0;" x1="65" x2="65" y1="83.6211" y2="496.4043"/><line style="stroke:#181818;stroke-width:0.5;stroke-dasharray:5.0,5.0;" x1="257" x2="257" y1="83.6211" y2="496.4043"/><line style="stroke:#181818;stroke-width:0.5;stroke-dasharray:5.0,5.0;" x1="929.5" x2="929.5" y1="83.6211" y2="496.4043"/><line style="stroke:#181818;stroke-width:0.5;stroke-dasharray:5.0,5.0;" x1="1602.5" x2="1602.5" y1="83.6211" y2="496.4043"/><line style="stroke:#181818;stroke-width:0.5;stroke-dasharray:5.0,5.0;" x1="1825.5" x2="1825.5" y1="83.6211" y2="496.4043"/><line style="stroke:#181818;stroke-width:0.5;stroke-dasharray:5.0,5.0;" x1="2503" x2="2503" y1="83.6211" y2="496.4043"/><text fill="#000000" font-family="sans-serif" font-size="14" lengthAdjust="spacing" textLength="114" x="5" y="80.1074">Marketing director</text><ellipse cx="65" cy="13.5" fill="#E2E2F0" rx="8" ry="8" style="stroke:#181818;stroke-width:0.5;"/><path d="M65,21.5 L65,48.5 M52,29.5 L78,29.5 M65,48.5 L52,63.5 M65,48.5 L78,63.5 " fill="none" style="stroke:#181818;stroke-width:0.5;"/><text fill="#000000" font-family="sans-serif" font-size="14" lengthAdjust="spacing" textLength="114" x="5" y="510.5117">Marketing director</text><ellipse cx="65" cy="522.5254" fill="#E2E2F0" rx="8" ry="8" style="stroke:#181818;stroke-width:0.5;"/><path d="M65,530.5254 L65,557.5254 M52,538.5254 L78,538.5254 M65,557.5254 L52,572.5254 M65,557.5254 L78,572.5254 " fill="none" style="stroke:#181818;stroke-width:0.5;"/><rect fill="#E2E2F0" height="32.6211" rx="2.5" ry="2.5" style="stroke:#181818;stroke-width:0.5;" width="108" x="203" y="50"/><text fill="#000000" font-family="sans-serif" font-size="14" lengthAdjust="spacing" textLength="94" x="210" y="72.1074">:PlanController</text><rect fill="#E2E2F0" height="32.6211" rx="2.5" ry="2.5" style="stroke:#181818;stroke-width:0.5;" width="108" x="203" y="495.4043"/><text fill="#000000" font-family="sans-serif" font-size="14" lengthAdjust="spacing" textLength="94" x="210" y="517.5117">:PlanController</text><rect fill="#E2E2F0" height="32.6211" rx="2.5" ry="2.5" style="stroke:#181818;stroke-width:0.5;" width="167" x="846.5" y="50"/><text fill="#000000" font-family="sans-serif" font-size="14" lengthAdjust="spacing" textLength="153" x="853.5" y="72.1074">planService:PlanService</text><rect fill="#E2E2F0" height="32.6211" rx="2.5" ry="2.5" style="stroke:#181818;stroke-width:0.5;" width="167" x="846.5" y="495.4043"/><text fill="#000000" font-family="sans-serif" font-size="14" lengthAdjust="spacing" textLength="153" x="853.5" y="517.5117">planService:PlanService</text><rect fill="#E2E2F0" height="32.6211" rx="2.5" ry="2.5" style="stroke:#181818;stroke-width:0.5;" width="217" x="1494.5" y="50"/><text fill="#000000" font-family="sans-serif" font-size="14" lengthAdjust="spacing" textLength="203" x="1501.5" y="72.1074">planServiceImpl:PlanServiceImpl</text><rect fill="#E2E2F0" height="32.6211" rx="2.5" ry="2.5" style="stroke:#181818;stroke-width:0.5;" width="217" x="1494.5" y="495.4043"/><text fill="#000000" font-family="sans-serif" font-size="14" lengthAdjust="spacing" textLength="203" x="1501.5" y="517.5117">planServiceImpl:PlanServiceImpl</text><rect fill="#E2E2F0" height="32.6211" rx="2.5" ry="2.5" style="stroke:#181818;stroke-width:0.5;" width="208" x="1721.5" y="50"/><text fill="#000000" font-family="sans-serif" font-size="14" lengthAdjust="spacing" textLength="194" x="1728.5" y="72.1074">planRepository:planRepository</text><rect fill="#E2E2F0" height="32.6211" rx="2.5" ry="2.5" style="stroke:#181818;stroke-width:0.5;" width="208" x="1721.5" y="495.4043"/><text fill="#000000" font-family="sans-serif" font-size="14" lengthAdjust="spacing" textLength="194" x="1728.5" y="517.5117">planRepository:planRepository</text><rect fill="#E2E2F0" height="32.6211" rx="2.5" ry="2.5" style="stroke:#181818;stroke-width:0.5;" width="42" x="2482" y="50"/><text fill="#000000" font-family="sans-serif" font-size="14" lengthAdjust="spacing" textLength="28" x="2489" y="72.1074">Plan</text><rect fill="#E2E2F0" height="32.6211" rx="2.5" ry="2.5" style="stroke:#181818;stroke-width:0.5;" width="42" x="2482" y="495.4043"/><text fill="#000000" font-family="sans-serif" font-size="14" lengthAdjust="spacing" textLength="28" x="2489" y="517.5117">Plan</text><rect fill="#FFFFFF" height="393.7832" style="stroke:#181818;stroke-width:1.0;" width="10" x="60" y="93.6211"/><rect fill="#FFFFFF" height="361.4922" style="stroke:#181818;stroke-width:1.0;" width="10" x="252" y="116.9121"/><rect fill="#FFFFFF" height="298.9102" style="stroke:#181818;stroke-width:1.0;" width="10" x="925" y="148.2031"/><rect fill="#FFFFFF" height="236.3281" style="stroke:#181818;stroke-width:1.0;" width="10" x="1598" y="179.4941"/><rect fill="#FFFFFF" height="31.291" style="stroke:#181818;stroke-width:1.0;" width="10" x="1820.5" y="210.7852"/><rect fill="#FFFFFF" height="31.291" style="stroke:#181818;stroke-width:1.0;" width="10" x="1820.5" y="353.2402"/><rect fill="#FFFFFF" height="31.291" style="stroke:#181818;stroke-width:1.0;" width="10" x="2498" y="290.6582"/><polygon fill="#181818" points="240,112.9121,250,116.9121,240,120.9121,244,116.9121" style="stroke:#181818;stroke-width:1.0;"/><line style="stroke:#181818;stroke-width:1.0;" x1="70" x2="246" y1="116.9121" y2="116.9121"/><text fill="#000000" font-family="sans-serif" font-size="13" font-weight="bold" lengthAdjust="spacing" textLength="7" x="77" y="111.6494">1</text><text fill="#000000" font-family="sans-serif" font-size="13" lengthAdjust="spacing" textLength="152" x="88" y="111.6494">PATCH(api/plan/{{idPlan}})</text><polygon fill="#181818" points="913,144.2031,923,148.2031,913,152.2031,917,148.2031" style="stroke:#181818;stroke-width:1.0;"/><line style="stroke:#181818;stroke-width:1.0;" x1="262" x2="919" y1="148.2031" y2="148.2031"/><text fill="#000000" font-family="sans-serif" font-size="13" font-weight="bold" lengthAdjust="spacing" textLength="7" x="269" y="142.9404">2</text><text fill="#000000" font-family="sans-serif" font-size="13" lengthAdjust="spacing" textLength="633" x="280" y="142.9404">partialUpdate(Long idPlan,EditPlanRequest resource,getVersionFromIfMatchHeader(ifMatchValue), User user)</text><polygon fill="#181818" points="1586,175.4941,1596,179.4941,1586,183.4941,1590,179.4941" style="stroke:#181818;stroke-width:1.0;"/><line style="stroke:#181818;stroke-width:1.0;" x1="935" x2="1592" y1="179.4941" y2="179.4941"/><text fill="#000000" font-family="sans-serif" font-size="13" font-weight="bold" lengthAdjust="spacing" textLength="7" x="942" y="174.2314">3</text><text fill="#000000" font-family="sans-serif" font-size="13" lengthAdjust="spacing" textLength="633" x="953" y="174.2314">partialUpdate(Long idPlan,EditPlanRequest resource,getVersionFromIfMatchHeader(ifMatchValue), User user)</text><polygon fill="#181818" points="1808.5,206.7852,1818.5,210.7852,1808.5,214.7852,1812.5,210.7852" style="stroke:#181818;stroke-width:1.0;"/><line style="stroke:#181818;stroke-width:1.0;" x1="1608" x2="1814.5" y1="210.7852" y2="210.7852"/><text fill="#000000" font-family="sans-serif" font-size="13" font-weight="bold" lengthAdjust="spacing" textLength="7" x="1615" y="205.5225">4</text><text fill="#000000" font-family="sans-serif" font-size="13" lengthAdjust="spacing" textLength="90" x="1626" y="205.5225">findById(idPlan)</text><polygon fill="#181818" points="1619,238.0762,1609,242.0762,1619,246.0762,1615,242.0762" style="stroke:#181818;stroke-width:1.0;"/><line style="stroke:#181818;stroke-width:1.0;stroke-dasharray:2.0,2.0;" x1="1613" x2="1824.5" y1="242.0762" y2="242.0762"/><text fill="#000000" font-family="sans-serif" font-size="13" font-weight="bold" lengthAdjust="spacing" textLength="7" x="1625" y="236.8135">5</text><text fill="#000000" font-family="sans-serif" font-size="13" lengthAdjust="spacing" textLength="24" x="1636" y="236.8135">plan</text><polygon fill="#181818" points="2486,286.6582,2496,290.6582,2486,294.6582,2490,290.6582" style="stroke:#181818;stroke-width:1.0;"/><line style="stroke:#181818;stroke-width:1.0;" x1="1608" x2="2492" y1="290.6582" y2="290.6582"/><text fill="#000000" font-family="sans-serif" font-size="13" font-weight="bold" lengthAdjust="spacing" textLength="7" x="1615" y="276.75">6</text><text fill="#000000" font-family="sans-serif" font-size="13" lengthAdjust="spacing" textLength="860" x="1626" y="268.1045">applyPatch(desiredVersion, resource.getNumMinutes(), resource.getMaxDevices(), resource.getMusicCollections(), resource.getMusicSuggestions(),</text><text fill="#000000" font-family="sans-serif" font-size="13" lengthAdjust="spacing" textLength="794" x="1626" y="285.3955">resource.getPlanState(), resource.getPlanPromote(), resource.getMonthlyFee(), resource.getAnnualFee(), resource.getHtmlDescription());</text><polygon fill="#181818" points="1619,317.9492,1609,321.9492,1619,325.9492,1615,321.9492" style="stroke:#181818;stroke-width:1.0;"/><line style="stroke:#181818;stroke-width:1.0;stroke-dasharray:2.0,2.0;" x1="1613" x2="2502" y1="321.9492" y2="321.9492"/><text fill="#000000" font-family="sans-serif" font-size="13" font-weight="bold" lengthAdjust="spacing" textLength="7" x="1625" y="316.6865">7</text><text fill="#000000" font-family="sans-serif" font-size="13" lengthAdjust="spacing" textLength="14" x="1636" y="316.6865">ok</text><polygon fill="#181818" points="1808.5,349.2402,1818.5,353.2402,1808.5,357.2402,1812.5,353.2402" style="stroke:#181818;stroke-width:1.0;"/><line style="stroke:#181818;stroke-width:1.0;" x1="1608" x2="1814.5" y1="353.2402" y2="353.2402"/><text fill="#000000" font-family="sans-serif" font-size="13" font-weight="bold" lengthAdjust="spacing" textLength="7" x="1615" y="347.9775">8</text><text fill="#000000" font-family="sans-serif" font-size="13" lengthAdjust="spacing" textLength="62" x="1626" y="347.9775">save( plan)</text><polygon fill="#181818" points="1619,380.5313,1609,384.5313,1619,388.5313,1615,384.5313" style="stroke:#181818;stroke-width:1.0;"/><line style="stroke:#181818;stroke-width:1.0;stroke-dasharray:2.0,2.0;" x1="1613" x2="1824.5" y1="384.5313" y2="384.5313"/><text fill="#000000" font-family="sans-serif" font-size="13" font-weight="bold" lengthAdjust="spacing" textLength="7" x="1625" y="379.2686">9</text><text fill="#000000" font-family="sans-serif" font-size="13" lengthAdjust="spacing" textLength="14" x="1636" y="379.2686">ok</text><polygon fill="#181818" points="946,411.8223,936,415.8223,946,419.8223,942,415.8223" style="stroke:#181818;stroke-width:1.0;"/><line style="stroke:#181818;stroke-width:1.0;stroke-dasharray:2.0,2.0;" x1="940" x2="1602" y1="415.8223" y2="415.8223"/><text fill="#000000" font-family="sans-serif" font-size="13" font-weight="bold" lengthAdjust="spacing" textLength="14" x="952" y="410.5596">10</text><text fill="#000000" font-family="sans-serif" font-size="13" lengthAdjust="spacing" textLength="14" x="970" y="410.5596">ok</text><polygon fill="#181818" points="273,443.1133,263,447.1133,273,451.1133,269,447.1133" style="stroke:#181818;stroke-width:1.0;"/><line style="stroke:#181818;stroke-width:1.0;stroke-dasharray:2.0,2.0;" x1="267" x2="929" y1="447.1133" y2="447.1133"/><text fill="#000000" font-family="sans-serif" font-size="13" font-weight="bold" lengthAdjust="spacing" textLength="14" x="279" y="441.8506">11</text><text fill="#000000" font-family="sans-serif" font-size="13" lengthAdjust="spacing" textLength="24" x="297" y="441.8506">plan</text><polygon fill="#181818" points="81,474.4043,71,478.4043,81,482.4043,77,478.4043" style="stroke:#181818;stroke-width:1.0;"/><line style="stroke:#181818;stroke-width:1.0;stroke-dasharray:2.0,2.0;" x1="75" x2="256" y1="478.4043" y2="478.4043"/><text fill="#000000" font-family="sans-serif" font-size="13" font-weight="bold" lengthAdjust="spacing" textLength="14" x="87" y="473.1416">12</text><text fill="#000000" font-family="sans-serif" font-size="13" lengthAdjust="spacing" textLength="44" x="105" y="473.1416">200:OK</text><!--SRC=[lLD1Rjim4Bph5OGlaG0x3dfKWGAfqy16grPecfnwOScDJ8GYMN9fr0Zozt8fnRMZz9gBG79cEBl3rTaMqOLwkNIQ6uozFXUsNmRu7S48M4Z5Ey_xek0HBHUeTXo1MPFt9lQ_m2TCeFLird3_0AXCnwJoG6SpnWEx3OdZk4Sbb4iUR5QtoMjb3NghDGoi5NfzogA2Ri3lb80i6DUPFQx_AzZqJX-BQ9-5j9YgleEpGQM2z_NfDcjeUwgXcpD4Yzp_a4jkjQ0lMtp8BTMilVonMfVSgPpmyl5HIL8zFLK54OZut2NB9bpVEfbkAx_O5EN0dd-I2jjSMdgOWCn3iD4Bc7U0T-23ikRQstvptt0KspLm2RvKm-wEwmZLF5V7OlfKnUX8vZcgjtCcExAbK6jshupykD_8SZ2h2ZfcYtzbKRxF4cBKZ3kdzotTNae8QT3aMCNyKDfvAkrhx1jb8a8egrEauN-kWBgV8Z4eiQAPJ0zgpUluJUowbCE8_pJ7X3nnI0c-K1BGffJi56hIVx3L-skO89V6HAvV0TROwoi8mYj7TPHLzRuWXwFWxCEBf0FVGPdpd8Hyu1wFOZey3CbXblDp35ERpkXLQ_RkugB-zlal]--></g></svg>