<?xml version="1.0" encoding="us-ascii" standalone="no"?><svg xmlns="http://www.w3.org/2000/svg" xmlns:xlink="http://www.w3.org/1999/xlink" contentStyleType="text/css" height="249px" preserveAspectRatio="none" style="width:296px;height:249px;background:#FFFFFF;" version="1.1" viewBox="0 0 296 249" width="296px" zoomAndPan="magnify"><defs/><g><rect fill="#FFFFFF" height="63.582" style="stroke:#181818;stroke-width:1.0;" width="10" x="61" y="93.6211"/><rect fill="#FFFFFF" height="31.291" style="stroke:#181818;stroke-width:1.0;" width="10" x="253" y="116.9121"/><line style="stroke:#181818;stroke-width:0.5;stroke-dasharray:5.0,5.0;" x1="66" x2="66" y1="83.6211" y2="166.2031"/><line style="stroke:#181818;stroke-width:0.5;stroke-dasharray:5.0,5.0;" x1="258" x2="258" y1="83.6211" y2="166.2031"/><text fill="#000000" font-family="sans-serif" font-size="14" lengthAdjust="spacing" textLength="116" x="5" y="80.1074">Marketing Director</text><ellipse cx="66" cy="13.5" fill="#E2E2F0" rx="8" ry="8" style="stroke:#181818;stroke-width:0.5;"/><path d="M66,21.5 L66,48.5 M53,29.5 L79,29.5 M66,48.5 L53,63.5 M66,48.5 L79,63.5 " fill="none" style="stroke:#181818;stroke-width:0.5;"/><text fill="#000000" font-family="sans-serif" font-size="14" lengthAdjust="spacing" textLength="116" x="5" y="180.3105">Marketing Director</text><ellipse cx="66" cy="192.3242" fill="#E2E2F0" rx="8" ry="8" style="stroke:#181818;stroke-width:0.5;"/><path d="M66,200.3242 L66,227.3242 M53,208.3242 L79,208.3242 M66,227.3242 L53,242.3242 M66,227.3242 L79,242.3242 " fill="none" style="stroke:#181818;stroke-width:0.5;"/><rect fill="#E2E2F0" height="32.6211" rx="2.5" ry="2.5" style="stroke:#181818;stroke-width:0.5;" width="64" x="226" y="50"/><text fill="#000000" font-family="sans-serif" font-size="14" lengthAdjust="spacing" textLength="50" x="233" y="72.1074">:System</text><rect fill="#E2E2F0" height="32.6211" rx="2.5" ry="2.5" style="stroke:#181818;stroke-width:0.5;" width="64" x="226" y="165.2031"/><text fill="#000000" font-family="sans-serif" font-size="14" lengthAdjust="spacing" textLength="50" x="233" y="187.3105">:System</text><rect fill="#FFFFFF" height="63.582" style="stroke:#181818;stroke-width:1.0;" width="10" x="61" y="93.6211"/><rect fill="#FFFFFF" height="31.291" style="stroke:#181818;stroke-width:1.0;" width="10" x="253" y="116.9121"/><polygon fill="#181818" points="241,112.9121,251,116.9121,241,120.9121,245,116.9121" style="stroke:#181818;stroke-width:1.0;"/><line style="stroke:#181818;stroke-width:1.0;" x1="71" x2="247" y1="116.9121" y2="116.9121"/><text fill="#000000" font-family="sans-serif" font-size="13" font-weight="bold" lengthAdjust="spacing" textLength="7" x="78" y="111.6494">1</text><text fill="#000000" font-family="sans-serif" font-size="13" lengthAdjust="spacing" textLength="152" x="89" y="111.6494">PATCH(api/plan/{{idPlan}})</text><polygon fill="#181818" points="82,144.2031,72,148.2031,82,152.2031,78,148.2031" style="stroke:#181818;stroke-width:1.0;"/><line style="stroke:#181818;stroke-width:1.0;stroke-dasharray:2.0,2.0;" x1="76" x2="257" y1="148.2031" y2="148.2031"/><text fill="#000000" font-family="sans-serif" font-size="13" font-weight="bold" lengthAdjust="spacing" textLength="7" x="88" y="142.9404">2</text><text fill="#000000" font-family="sans-serif" font-size="13" lengthAdjust="spacing" textLength="44" x="99" y="142.9404">200:OK</text><!--SRC=[PK-z2i8m4Dxp54SNTQWjZXa4qK4GiQ0lSAQX1fiq9XT1Ij_TcAfBR_hkk- -7czs8hET5OLiq57Ix59qkl7m4QOJCQuMDGytYOA0E1QadaeJEfDq4VPKktWHr3h8ZkhiaPHhOAIS_N0ReuK__M6RHaHBAnah8-FdbIUea7M4A78kcNZQX85z_ZHogpMMxdwDLwQ6YxrLTHJ0C2pPA88_gIGI7LLdoqu6z0G00]--></g></svg>