<?xml version="1.0" encoding="UTF-8" standalone="no"?><svg xmlns="http://www.w3.org/2000/svg" xmlns:xlink="http://www.w3.org/1999/xlink" contentStyleType="text/css" height="313px" preserveAspectRatio="none" style="width:758px;height:313px;background:#FFFFFF;" version="1.1" viewBox="0 0 758 313" width="758px" zoomAndPan="magnify"><defs/><g><rect fill="#FFFFFF" height="128.1641" style="stroke:#181818;stroke-width:1.0;" width="10" x="22.5" y="93.6211"/><rect fill="#FFFFFF" height="104.873" style="stroke:#181818;stroke-width:1.0;" width="10" x="281.5" y="116.9121"/><rect fill="#FFFFFF" height="31.291" style="stroke:#181818;stroke-width:1.0;" width="10" x="649.5" y="174.4941"/><rect fill="none" height="81.873" style="stroke:#000000;stroke-width:1.5;" width="538" x="214.5" y="131.9121"/><line style="stroke:#181818;stroke-width:0.5;stroke-dasharray:5.0,5.0;" x1="27" x2="27" y1="83.6211" y2="230.7852"/><line style="stroke:#181818;stroke-width:0.5;stroke-dasharray:5.0,5.0;" x1="286.5" x2="286.5" y1="83.6211" y2="230.7852"/><line style="stroke:#181818;stroke-width:0.5;stroke-dasharray:5.0,5.0;" x1="654.5" x2="654.5" y1="83.6211" y2="230.7852"/><text fill="#000000" font-family="sans-serif" font-size="14" lengthAdjust="spacing" textLength="39" x="5" y="80.1074">Admin</text><ellipse cx="27.5" cy="13.5" fill="#E2E2F0" rx="8" ry="8" style="stroke:#181818;stroke-width:0.5;"/><path d="M27.5,21.5 L27.5,48.5 M14.5,29.5 L40.5,29.5 M27.5,48.5 L14.5,63.5 M27.5,48.5 L40.5,63.5 " fill="none" style="stroke:#181818;stroke-width:0.5;"/><text fill="#000000" font-family="sans-serif" font-size="14" lengthAdjust="spacing" textLength="39" x="5" y="244.8926">Admin</text><ellipse cx="27.5" cy="256.9063" fill="#E2E2F0" rx="8" ry="8" style="stroke:#181818;stroke-width:0.5;"/><path d="M27.5,264.9063 L27.5,291.9063 M14.5,272.9063 L40.5,272.9063 M27.5,291.9063 L14.5,306.9063 M27.5,291.9063 L40.5,306.9063 " fill="none" style="stroke:#181818;stroke-width:0.5;"/><rect fill="#E2E2F0" height="32.6211" rx="2.5" ry="2.5" style="stroke:#181818;stroke-width:0.5;" width="124" x="224.5" y="50"/><text fill="#000000" font-family="sans-serif" font-size="14" lengthAdjust="spacing" textLength="110" x="231.5" y="72.1074">:PlanBoostrapper</text><rect fill="#E2E2F0" height="32.6211" rx="2.5" ry="2.5" style="stroke:#181818;stroke-width:0.5;" width="124" x="224.5" y="229.7852"/><text fill="#000000" font-family="sans-serif" font-size="14" lengthAdjust="spacing" textLength="110" x="231.5" y="251.8926">:PlanBoostrapper</text><rect fill="#E2E2F0" height="32.6211" rx="2.5" ry="2.5" style="stroke:#181818;stroke-width:0.5;" width="176" x="566.5" y="50"/><text fill="#000000" font-family="sans-serif" font-size="14" lengthAdjust="spacing" textLength="162" x="573.5" y="72.1074">PlanRepo:PlanRepository</text><rect fill="#E2E2F0" height="32.6211" rx="2.5" ry="2.5" style="stroke:#181818;stroke-width:0.5;" width="176" x="566.5" y="229.7852"/><text fill="#000000" font-family="sans-serif" font-size="14" lengthAdjust="spacing" textLength="162" x="573.5" y="251.8926">PlanRepo:PlanRepository</text><rect fill="#FFFFFF" height="128.1641" style="stroke:#181818;stroke-width:1.0;" width="10" x="22.5" y="93.6211"/><rect fill="#FFFFFF" height="104.873" style="stroke:#181818;stroke-width:1.0;" width="10" x="281.5" y="116.9121"/><rect fill="#FFFFFF" height="31.291" style="stroke:#181818;stroke-width:1.0;" width="10" x="649.5" y="174.4941"/><polygon fill="#181818" points="269.5,112.9121,279.5,116.9121,269.5,120.9121,273.5,116.9121" style="stroke:#181818;stroke-width:1.0;"/><line style="stroke:#181818;stroke-width:1.0;" x1="32.5" x2="275.5" y1="116.9121" y2="116.9121"/><text fill="#000000" font-family="sans-serif" font-size="13" font-weight="bold" lengthAdjust="spacing" textLength="7" x="39.5" y="111.6494">1</text><text fill="#000000" font-family="sans-serif" font-size="13" lengthAdjust="spacing" textLength="219" x="50.5" y="111.6494">asks to bootstrap user credential data</text><path d="M214.5,131.9121 L287.5,131.9121 L287.5,141.2031 L277.5,151.2031 L214.5,151.2031 L214.5,131.9121 " fill="#EEEEEE" style="stroke:#000000;stroke-width:1.5;"/><rect fill="none" height="81.873" style="stroke:#000000;stroke-width:1.5;" width="538" x="214.5" y="131.9121"/><text fill="#000000" font-family="sans-serif" font-size="13" font-weight="bold" lengthAdjust="spacing" textLength="28" x="229.5" y="146.9404">loop</text><text fill="#000000" font-family="sans-serif" font-size="11" font-weight="bold" lengthAdjust="spacing" textLength="111" x="302.5" y="145.7822">[for each credential]</text><polygon fill="#181818" points="637.5,170.4941,647.5,174.4941,637.5,178.4941,641.5,174.4941" style="stroke:#181818;stroke-width:1.0;"/><line style="stroke:#181818;stroke-width:1.0;" x1="291.5" x2="643.5" y1="174.4941" y2="174.4941"/><text fill="#000000" font-family="sans-serif" font-size="13" font-weight="bold" lengthAdjust="spacing" textLength="7" x="298.5" y="169.2314">2</text><text fill="#000000" font-family="sans-serif" font-size="13" lengthAdjust="spacing" textLength="219" x="309.5" y="169.2314">checks if the credentials already exist</text><polygon fill="#181818" points="302.5,201.7852,292.5,205.7852,302.5,209.7852,298.5,205.7852" style="stroke:#181818;stroke-width:1.0;"/><line style="stroke:#181818;stroke-width:1.0;stroke-dasharray:2.0,2.0;" x1="296.5" x2="653.5" y1="205.7852" y2="205.7852"/><text fill="#000000" font-family="sans-serif" font-size="13" font-weight="bold" lengthAdjust="spacing" textLength="7" x="308.5" y="200.5225">3</text><text fill="#000000" font-family="sans-serif" font-size="13" lengthAdjust="spacing" textLength="323" x="319.5" y="200.5225">if not, creates user with the appropriate role and saves it</text><!--MD5=[7ee335e688f691831ebe8be5a3a58b87]
@startuml
'https://plantuml.com/sequence-diagram

autoactivate on
autonumber

actor "Admin" as User
participant ":PlanBoostrapper" as Ctrl
participant "PlanRepo:PlanRepository" as Repo

activate User

User -> Ctrl: asks to bootstrap user credential data
loop for each credential
    Ctrl -> Repo: checks if the credentials already exist
    Repo - -> Ctrl: if not, creates user with the appropriate role and saves it
end loop

@enduml

@startuml

autoactivate on
autonumber

actor "Admin" as User
participant ":PlanBoostrapper" as Ctrl
participant "PlanRepo:PlanRepository" as Repo

activate User

User -> Ctrl: asks to bootstrap user credential data
loop for each credential
    Ctrl -> Repo: checks if the credentials already exist
    Repo - -> Ctrl: if not, creates user with the appropriate role and saves it
end loop

@enduml

PlantUML version 1.2022.13(Sat Nov 19 13:22:17 WET 2022)
(GPL source distribution)
Java Runtime: OpenJDK Runtime Environment
JVM: OpenJDK 64-Bit Server VM
Default Encoding: Cp1252
Language: pt
Country: PT
--></g></svg>