<?xml version="1.0" encoding="us-ascii" standalone="no"?><svg xmlns="http://www.w3.org/2000/svg" xmlns:xlink="http://www.w3.org/1999/xlink" contentStyleType="text/css" height="1241px" preserveAspectRatio="none" style="width:1337px;height:1241px;background:#FFFFFF;" version="1.1" viewBox="0 0 1337 1241" width="1337px" zoomAndPan="magnify"><defs/><g><!--class PlanController--><g id="elem_PlanController"><rect codeLine="8" fill="#F1F1F1" height="63.2422" id="PlanController" rx="2.5" ry="2.5" style="stroke:#181818;stroke-width:0.5;" width="311" x="878.5" y="7"/><text fill="#000000" font-family="sans-serif" font-size="14" lengthAdjust="spacing" textLength="90" x="989" y="27.1074">PlanController</text><line style="stroke:#181818;stroke-width:0.5;" x1="879.5" x2="1188.5" y1="35.6211" y2="35.6211"/><line style="stroke:#181818;stroke-width:0.5;" x1="879.5" x2="1188.5" y1="43.6211" y2="43.6211"/><text fill="#000000" font-family="sans-serif" font-size="14" lengthAdjust="spacing" textLength="299" x="884.5" y="62.7285">+RevenueByPlan(): ResponseEntity&lt;PlanView&gt;</text></g><!--class PlanService--><g id="elem_PlanService"><rect codeLine="14" fill="#F1F1F1" height="63.2422" id="PlanService" rx="2.5" ry="2.5" style="stroke:#181818;stroke-width:0.5;" width="498" x="785" y="131"/><text fill="#000000" font-family="sans-serif" font-size="14" lengthAdjust="spacing" textLength="75" x="996.5" y="151.1074">PlanService</text><line style="stroke:#181818;stroke-width:0.5;" x1="786" x2="1282" y1="159.6211" y2="159.6211"/><line style="stroke:#181818;stroke-width:0.5;" x1="786" x2="1282" y1="167.6211" y2="167.6211"/><text fill="#000000" font-family="sans-serif" font-size="14" lengthAdjust="spacing" textLength="486" x="791" y="186.7285">+findRevenueByPlan(Integer page, Integer batchSize): List&lt;RevenueByPlan&gt;</text></g><!--class PlanServiceImpl--><g id="elem_PlanServiceImpl"><rect codeLine="18" fill="#F1F1F1" height="63.2422" id="PlanServiceImpl" rx="2.5" ry="2.5" style="stroke:#181818;stroke-width:0.5;" width="498" x="581" y="255"/><text fill="#000000" font-family="sans-serif" font-size="14" lengthAdjust="spacing" textLength="100" x="780" y="275.1074">PlanServiceImpl</text><line style="stroke:#181818;stroke-width:0.5;" x1="582" x2="1078" y1="283.6211" y2="283.6211"/><line style="stroke:#181818;stroke-width:0.5;" x1="582" x2="1078" y1="291.6211" y2="291.6211"/><text fill="#000000" font-family="sans-serif" font-size="14" lengthAdjust="spacing" textLength="486" x="587" y="310.7285">+findRevenueByPlan(Integer page, Integer batchSize): List&lt;RevenueByPlan&gt;</text></g><!--class PlanRepository--><g id="elem_PlanRepository"><rect codeLine="22" fill="#F1F1F1" height="79.2031" id="PlanRepository" rx="2.5" ry="2.5" style="stroke:#181818;stroke-width:0.5;" width="219" x="965.5" y="399"/><text fill="#000000" font-family="sans-serif" font-size="12" font-style="italic" lengthAdjust="spacing" textLength="61" x="1044.5" y="416.9492">&#171;interface&#187;</text><text fill="#000000" font-family="sans-serif" font-size="14" font-style="italic" lengthAdjust="spacing" textLength="96" x="1027" y="435.0684">PlanRepository</text><line style="stroke:#181818;stroke-width:0.5;" x1="966.5" x2="1183.5" y1="443.582" y2="443.582"/><line style="stroke:#181818;stroke-width:0.5;" x1="966.5" x2="1183.5" y1="451.582" y2="451.582"/><text fill="#000000" font-family="sans-serif" font-size="14" lengthAdjust="spacing" textLength="207" x="971.5" y="470.6895">+findSomePlans(pageable): Plan</text></g><!--class SubscriptionRepository--><g id="elem_SubscriptionRepository"><rect codeLine="25" fill="#F1F1F1" height="79.2031" id="SubscriptionRepository" rx="2.5" ry="2.5" style="stroke:#181818;stroke-width:0.5;" width="554" x="7" y="528"/><text fill="#000000" font-family="sans-serif" font-size="12" font-style="italic" lengthAdjust="spacing" textLength="61" x="253.5" y="545.9492">&#171;interface&#187;</text><text fill="#000000" font-family="sans-serif" font-size="14" font-style="italic" lengthAdjust="spacing" textLength="146" x="211" y="564.0684">SubscriptionRepository</text><line style="stroke:#181818;stroke-width:0.5;" x1="8" x2="560" y1="572.582" y2="572.582"/><line style="stroke:#181818;stroke-width:0.5;" x1="8" x2="560" y1="580.582" y2="580.582"/><text fill="#000000" font-family="sans-serif" font-size="14" lengthAdjust="spacing" textLength="542" x="13" y="599.6895">+findByPlanAndYear(plan, currentYear, SubscriptionStatus.Active): List&lt;Subscription&gt;</text></g><!--class Subscription--><g id="elem_Subscription"><rect codeLine="28" fill="#F1F1F1" height="212.2109" id="Subscription" rx="2.5" ry="2.5" style="stroke:#181818;stroke-width:0.5;" width="341" x="413.5" y="1022"/><text fill="#000000" font-family="sans-serif" font-size="14" lengthAdjust="spacing" textLength="78" x="545" y="1042.1074">Subscription</text><line style="stroke:#181818;stroke-width:0.5;" x1="414.5" x2="753.5" y1="1050.6211" y2="1050.6211"/><text fill="#000000" font-family="sans-serif" font-size="14" lengthAdjust="spacing" textLength="16" x="419.5" y="1069.7285">-id</text><text fill="#000000" font-family="sans-serif" font-size="14" lengthAdjust="spacing" textLength="60" x="419.5" y="1088.3496">-subType</text><text fill="#000000" font-family="sans-serif" font-size="14" lengthAdjust="spacing" textLength="33" x="419.5" y="1106.9707">-date</text><text fill="#000000" font-family="sans-serif" font-size="14" lengthAdjust="spacing" textLength="61" x="419.5" y="1125.5918">-subState</text><text fill="#000000" font-family="sans-serif" font-size="14" lengthAdjust="spacing" textLength="57" x="419.5" y="1144.2129">-feeType</text><line style="stroke:#181818;stroke-width:0.5;" x1="414.5" x2="753.5" y1="1151.7266" y2="1151.7266"/><text fill="#000000" font-family="sans-serif" font-size="14" lengthAdjust="spacing" textLength="329" x="419.5" y="1170.834">(final Plan plan, final User user, final String feeType)</text><text fill="#000000" font-family="sans-serif" font-size="14" lengthAdjust="spacing" textLength="95" x="419.5" y="1189.4551">+getFeeType()</text><text fill="#000000" font-family="sans-serif" font-size="14" lengthAdjust="spacing" textLength="66" x="419.5" y="1208.0762">+getPlan()</text><text fill="#000000" font-family="sans-serif" font-size="14" lengthAdjust="spacing" textLength="96" x="419.5" y="1226.6973">+getSubState()</text></g><!--class RevenueByPlan--><g id="elem_RevenueByPlan"><rect codeLine="39" fill="#F1F1F1" height="119.1055" id="RevenueByPlan" rx="2.5" ry="2.5" style="stroke:#181818;stroke-width:0.5;" width="222" x="637" y="379"/><text fill="#000000" font-family="sans-serif" font-size="14" lengthAdjust="spacing" textLength="101" x="697.5" y="399.1074">RevenueByPlan</text><line style="stroke:#181818;stroke-width:0.5;" x1="638" x2="858" y1="407.6211" y2="407.6211"/><text fill="#000000" font-family="sans-serif" font-size="14" lengthAdjust="spacing" textLength="64" x="643" y="426.7285">-planType</text><text fill="#000000" font-family="sans-serif" font-size="14" lengthAdjust="spacing" textLength="89" x="643" y="445.3496">-totalRevenue</text><line style="stroke:#181818;stroke-width:0.5;" x1="638" x2="858" y1="452.8633" y2="452.8633"/><text fill="#000000" font-family="sans-serif" font-size="14" lengthAdjust="spacing" textLength="200" x="643" y="471.9707">RevenueByPlan(final Plan plan)</text><text fill="#000000" font-family="sans-serif" font-size="14" lengthAdjust="spacing" textLength="210" x="643" y="490.5918">+setTotalRevenue(totalRevenue)</text></g><!--class Plan--><g id="elem_Plan"><rect codeLine="46" fill="#F1F1F1" height="323.9375" id="Plan" rx="2.5" ry="2.5" style="stroke:#181818;stroke-width:0.5;" width="693" x="637.5" y="637"/><text fill="#000000" font-family="sans-serif" font-size="14" lengthAdjust="spacing" textLength="28" x="970" y="657.1074">Plan</text><line style="stroke:#181818;stroke-width:0.5;" x1="638.5" x2="1329.5" y1="665.6211" y2="665.6211"/><text fill="#000000" font-family="sans-serif" font-size="14" lengthAdjust="spacing" textLength="42" x="643.5" y="684.7285">-nMins</text><text fill="#000000" font-family="sans-serif" font-size="14" lengthAdjust="spacing" textLength="80" x="643.5" y="703.3496">-maxDevices</text><text fill="#000000" font-family="sans-serif" font-size="14" lengthAdjust="spacing" textLength="110" x="643.5" y="721.9707">-musicCollections</text><text fill="#000000" font-family="sans-serif" font-size="14" lengthAdjust="spacing" textLength="119" x="643.5" y="740.5918">-musicSuggestions</text><text fill="#000000" font-family="sans-serif" font-size="14" lengthAdjust="spacing" textLength="79" x="643.5" y="759.2129">-monthlyFee</text><text fill="#000000" font-family="sans-serif" font-size="14" lengthAdjust="spacing" textLength="73" x="643.5" y="777.834">-annualFee</text><text fill="#000000" font-family="sans-serif" font-size="14" lengthAdjust="spacing" textLength="65" x="643.5" y="796.4551">-planState</text><text fill="#000000" font-family="sans-serif" font-size="14" lengthAdjust="spacing" textLength="64" x="643.5" y="815.0762">-planType</text><text fill="#000000" font-family="sans-serif" font-size="14" lengthAdjust="spacing" textLength="85" x="643.5" y="833.6973">-planPromote</text><text fill="#000000" font-family="sans-serif" font-size="14" lengthAdjust="spacing" textLength="111" x="643.5" y="852.3184">-HTMLdescription</text><text fill="#000000" font-family="sans-serif" font-size="14" lengthAdjust="spacing" textLength="503" x="643.5" y="870.9395">final String musicSuggestions, final Integer monthlyFee, final Integer annualFee,</text><line style="stroke:#181818;stroke-width:0.5;" x1="638.5" x2="1329.5" y1="878.4531" y2="878.4531"/><text fill="#000000" font-family="sans-serif" font-size="14" lengthAdjust="spacing" textLength="681" x="643.5" y="897.5605">Plan(final String planType, final Integer numMinutes, final Integer maxDevices, final Integer musicCollections,</text><text fill="#000000" font-family="sans-serif" font-size="14" lengthAdjust="spacing" textLength="173" x="643.5" y="916.1816">final String htmlDescription)</text><text fill="#000000" font-family="sans-serif" font-size="14" lengthAdjust="spacing" textLength="107" x="643.5" y="934.8027">+getAnnualFee()</text><text fill="#000000" font-family="sans-serif" font-size="14" lengthAdjust="spacing" textLength="112" x="643.5" y="953.4238">+getMonthlyFee()</text></g><!--link PlanRepository to Plan--><g id="link_PlanRepository_Plan"><path codeLine="65" d="M1065.17,478.21 C1055.72,515.47 1040.75,574.44 1026.23,631.65 " fill="none" id="PlanRepository-to-Plan" style="stroke:#181818;stroke-width:1.0;"/><polygon fill="#181818" points="1024.91,636.82,1031.0003,629.0799,1026.1395,631.9735,1023.2459,627.1127,1024.91,636.82" style="stroke:#181818;stroke-width:1.0;"/><text fill="#000000" font-family="sans-serif" font-size="13" lengthAdjust="spacing" textLength="43" x="1052" y="573.0283">records</text><text fill="#000000" font-family="sans-serif" font-size="13" lengthAdjust="spacing" textLength="7" x="1055.9622" y="500.2304">1</text><text fill="#000000" font-family="sans-serif" font-size="13" lengthAdjust="spacing" textLength="20" x="1006.4072" y="625.5896">0..*</text></g><!--link PlanController to PlanService--><g id="link_PlanController_PlanService"><path codeLine="66" d="M1034,70.29 C1034,87.05 1034,107.88 1034,125.4 " fill="none" id="PlanController-to-PlanService" style="stroke:#181818;stroke-width:1.0;stroke-dasharray:7.0,7.0;"/><polygon fill="#181818" points="1034,130.72,1038,121.72,1034,125.72,1030,121.72,1034,130.72" style="stroke:#181818;stroke-width:1.0;"/></g><!--link PlanServiceImpl to PlanRepository--><g id="link_PlanServiceImpl_PlanRepository"><path codeLine="67" d="M886.19,318.03 C902.99,327.41 921.36,337.92 938,348 C963.05,363.17 990.14,380.64 1013.56,396.09 " fill="none" id="PlanServiceImpl-to-PlanRepository" style="stroke:#181818;stroke-width:1.0;stroke-dasharray:7.0,7.0;"/><polygon fill="#181818" points="1017.89,398.95,1012.5874,390.6504,1013.7188,396.193,1008.1762,397.3244,1017.89,398.95" style="stroke:#181818;stroke-width:1.0;"/></g><!--link PlanServiceImpl to Plan--><g id="link_PlanServiceImpl_Plan"><path codeLine="69" d="M847.45,318.1 C856.86,335.53 868.13,358.03 876,379 C906.54,460.38 931.54,553.79 949.76,631.74 " fill="none" id="PlanServiceImpl-to-Plan" style="stroke:#181818;stroke-width:1.0;stroke-dasharray:7.0,7.0;"/><polygon fill="#181818" points="950.95,636.85,952.7823,627.1731,949.8048,631.9829,944.995,629.0054,950.95,636.85" style="stroke:#181818;stroke-width:1.0;"/></g><!--link PlanService to Plan--><g id="link_PlanService_Plan"><path codeLine="70" d="M1069.26,194.3 C1110.3,232.73 1175.78,302.73 1202,379 C1219.19,429.02 1218.35,447.7 1202,498 C1186.66,545.21 1160.78,591.2 1132.11,632.41 " fill="none" id="PlanService-to-Plan" style="stroke:#181818;stroke-width:1.0;stroke-dasharray:7.0,7.0;"/><polygon fill="#181818" points="1129.15,636.64,1137.5893,631.5627,1132.0183,632.5445,1131.0365,626.9735,1129.15,636.64" style="stroke:#181818;stroke-width:1.0;"/></g><!--reverse link PlanService to PlanServiceImpl--><g id="link_PlanService_PlanServiceImpl"><path codeLine="71" d="M965.33,204.56 C937.83,221.01 906.7,239.63 881.24,254.86 " fill="none" id="PlanService-backto-PlanServiceImpl" style="stroke:#181818;stroke-width:1.0;stroke-dasharray:7.0,7.0;"/><polygon fill="none" points="962.03,198.39,982.79,194.13,969.21,210.4,962.03,198.39" style="stroke:#181818;stroke-width:1.0;"/></g><!--link SubscriptionRepository to Subscription--><g id="link_SubscriptionRepository_Subscription"><path codeLine="73" d="M304.86,607.33 C349.87,691.12 457.5,891.5 525.2,1017.53 " fill="none" id="SubscriptionRepository-to-Subscription" style="stroke:#181818;stroke-width:1.0;"/><polygon fill="#181818" points="527.59,1021.98,526.8659,1012.1578,525.2289,1017.5726,519.8141,1015.9356,527.59,1021.98" style="stroke:#181818;stroke-width:1.0;"/><text fill="#000000" font-family="sans-serif" font-size="13" lengthAdjust="spacing" textLength="43" x="496" y="804.5283">records</text><text fill="#000000" font-family="sans-serif" font-size="13" lengthAdjust="spacing" textLength="7" x="300.7353" y="629.3703">1</text><text fill="#000000" font-family="sans-serif" font-size="13" lengthAdjust="spacing" textLength="20" x="502.713" y="1010.6012">0..*</text></g><!--link RevenueByPlan to Plan--><g id="link_RevenueByPlan_Plan"><path codeLine="74" d="M786.71,498.3 C810.89,535.03 843.34,584.32 874.93,632.31 " fill="none" id="RevenueByPlan-to-Plan" style="stroke:#181818;stroke-width:1.0;"/><polygon fill="#181818" points="877.79,636.65,876.1876,626.9324,875.043,632.4722,869.5031,631.3276,877.79,636.65" style="stroke:#181818;stroke-width:1.0;"/><text fill="#000000" font-family="sans-serif" font-size="13" lengthAdjust="spacing" textLength="7" x="783.7812" y="520.2362">1</text><text fill="#000000" font-family="sans-serif" font-size="13" lengthAdjust="spacing" textLength="5" x="867.8641" y="625.9447">*</text></g><!--link PlanServiceImpl to SubscriptionRepository--><g id="link_PlanServiceImpl_SubscriptionRepository"><path codeLine="75" d="M640.07,318.07 C611.84,325.92 583.64,335.74 558,348 C464.73,392.6 374.56,474.26 324.47,524.13 " fill="none" id="PlanServiceImpl-to-SubscriptionRepository" style="stroke:#181818;stroke-width:1.0;stroke-dasharray:7.0,7.0;"/><polygon fill="#181818" points="320.93,527.66,330.1295,524.143,324.4727,524.1316,324.4841,518.4748,320.93,527.66" style="stroke:#181818;stroke-width:1.0;"/></g><!--link PlanServiceImpl to Subscription--><g id="link_PlanServiceImpl_Subscription"><path codeLine="77" d="M699.15,318.05 C668.02,331.6 638.28,351.07 619,379 C549.72,479.36 563.19,834.38 575.33,1016.88 " fill="none" id="PlanServiceImpl-to-Subscription" style="stroke:#181818;stroke-width:1.0;stroke-dasharray:7.0,7.0;"/><polygon fill="#181818" points="575.67,1021.96,579.0695,1012.7164,575.3412,1016.9708,571.0868,1013.2425,575.67,1021.96" style="stroke:#181818;stroke-width:1.0;"/></g><!--link PlanServiceImpl to RevenueByPlan--><g id="link_PlanServiceImpl_RevenueByPlan"><path codeLine="78" d="M813.21,318.22 C804.32,334.47 793.07,355.05 782.43,374.52 " fill="none" id="PlanServiceImpl-to-RevenueByPlan" style="stroke:#181818;stroke-width:1.0;stroke-dasharray:7.0,7.0;"/><polygon fill="#181818" points="780.02,378.92,787.8494,372.9451,782.4203,374.5338,780.8315,369.1046,780.02,378.92" style="stroke:#181818;stroke-width:1.0;"/></g><!--link Plan to Subscription--><g id="link_Plan_Subscription"><path codeLine="79" d="M786.93,961.11 C763.07,980.61 739.15,1000.16 716.54,1018.65 " fill="none" id="Plan-to-Subscription" style="stroke:#181818;stroke-width:1.0;"/><polygon fill="#181818" points="712.63,1021.85,722.127,1019.241,716.4979,1018.6815,717.0574,1013.0524,712.63,1021.85" style="stroke:#181818;stroke-width:1.0;"/><text fill="#000000" font-family="sans-serif" font-size="13" lengthAdjust="spacing" textLength="7" x="770.8417" y="982.8771">1</text><text fill="#000000" font-family="sans-serif" font-size="13" lengthAdjust="spacing" textLength="5" x="716.4985" y="1010.8198">*</text></g><!--SRC=[hLHRRzem57xthx1uMIWGkjSA8R5sqv1QgIBjf3qQvn2iENRaIpTs-U-pOnBiGBK-B0yjvpl7ttTkzhkzCOs-cSyRJeInDS-fhEUK4wrd9IEL8ZL2UrO2fanH3aX_Ow8X3iPjqCeOnRRMm9fAKR2VWA-H-reVVdISjr8O9Ja7XNyXFDd02mWB7mxUburly0Pq8uM6Zy8mSrXu-0k3xqlq9-KfGBqm2Yt9Zeao9LeB0vMJQ4W5KznPMsBetYVbTEwPDelaK2jn9h2k6_wVDPWBLJlYalVG1XgfcP7gW1UBthLS-ig2R25hy94wyr9aopst1npPYQkmMqqLQmoJR-0CwQn4-HM8olomfvXQfK0OZqmJki8GOtM-eeQzz7N50RwiqBaORTKmdh4o_DTs-tHe81WbCT33Nk1exG3weCnbIdXRAWuf1k1PkqPRzwS32hTqeiB7i-FsiFic5PXF0SiIC2nRZ1J791pQbP8Chgl5ft4gmaX3-34kiAKhCiZ_g3ZHO9wYarbCCqwtiDCL3qpeyBCcF-x0hsPdMytehRzIr7SzHWjRLQ1ZrDs-FJ-ufWIR2649xqsVP3IBj5XlFIfPoyxz-UdXleH-t2qObNqSIaVIpQgxACBMhYRtKkYXvrJWcMTGwhGRuTcNf33inHbjtvMXf-_F6vNsfkPtfvQ4WVlzMdL4sGbxw6NRhKDey1oCte_mRBR4e-iylngrhRt1M06LgjHey9Zc-J9-jj3W2Ulz9txqQapik0Y6QDlalrDHzCeZDAWaZeegIYzSV-PgT5dUvNLP3lqpTXZW_Oaw6gQG7lyB]--></g></svg>