<?xml version="1.0" encoding="us-ascii" standalone="no"?><svg xmlns="http://www.w3.org/2000/svg" xmlns:xlink="http://www.w3.org/1999/xlink" contentStyleType="text/css" height="1454px" preserveAspectRatio="none" style="width:2445px;height:1454px;background:#FFFFFF;" version="1.1" viewBox="0 0 2445 1454" width="2445px" zoomAndPan="magnify"><defs/><g><rect fill="#FFFFFF" height="1268.9707" style="stroke:#181818;stroke-width:1.0;" width="10" x="60" y="93.6211"/><rect fill="#FFFFFF" height="1236.6797" style="stroke:#181818;stroke-width:1.0;" width="10" x="460" y="116.9121"/><rect fill="#FFFFFF" height="1174.0977" style="stroke:#181818;stroke-width:1.0;" width="10" x="799" y="148.2031"/><rect fill="#FFFFFF" height="1111.5156" style="stroke:#181818;stroke-width:1.0;" width="10" x="1138" y="179.4941"/><rect fill="#FFFFFF" height="31.291" style="stroke:#181818;stroke-width:1.0;" width="10" x="1360.5" y="210.7852"/><rect fill="#FFFFFF" height="31.291" style="stroke:#181818;stroke-width:1.0;" width="10" x="1628.5" y="437.1523"/><rect fill="#FFFFFF" height="31.291" style="stroke:#181818;stroke-width:1.0;" width="10" x="1628.5" y="499.7344"/><rect fill="#FFFFFF" height="31.291" style="stroke:#181818;stroke-width:1.0;" width="10" x="1628.5" y="562.3164"/><rect fill="#FFFFFF" height="31.291" style="stroke:#181818;stroke-width:1.0;" width="10" x="1878.5" y="624.8984"/><rect fill="#FFFFFF" height="31.291" style="stroke:#181818;stroke-width:1.0;" width="10" x="1878.5" y="713.7715"/><rect fill="#FFFFFF" height="31.291" style="stroke:#181818;stroke-width:1.0;" width="10" x="1878.5" y="838.9355"/><rect fill="#FFFFFF" height="31.291" style="stroke:#181818;stroke-width:1.0;" width="10" x="1878.5" y="964.0996"/><rect fill="#FFFFFF" height="31.291" style="stroke:#181818;stroke-width:1.0;" width="10" x="1878.5" y="1089.2637"/><rect fill="#FFFFFF" height="31.291" style="stroke:#181818;stroke-width:1.0;" width="10" x="2082" y="273.3672"/><rect fill="#FFFFFF" height="31.291" style="stroke:#181818;stroke-width:1.0;" width="10" x="2082" y="1221.4277"/><rect fill="#FFFFFF" height="31.291" style="stroke:#181818;stroke-width:1.0;" width="10" x="2220.5" y="776.3535"/><rect fill="#FFFFFF" height="31.291" style="stroke:#181818;stroke-width:1.0;" width="10" x="2220.5" y="901.5176"/><rect fill="#FFFFFF" height="31.291" style="stroke:#181818;stroke-width:1.0;" width="10" x="2220.5" y="1026.6816"/><rect fill="#FFFFFF" height="31.291" style="stroke:#181818;stroke-width:1.0;" width="10" x="2220.5" y="1151.8457"/><rect fill="none" height="941.0605" style="stroke:#000000;stroke-width:1.5;" width="1425" x="1014.5" y="319.6582"/><rect fill="none" height="519.9473" style="stroke:#000000;stroke-width:1.5;" width="1232" x="1024.5" y="671.1895"/><line style="stroke:#181818;stroke-width:0.5;stroke-dasharray:5.0,5.0;" x1="65" x2="65" y1="83.6211" y2="1371.5918"/><line style="stroke:#181818;stroke-width:0.5;stroke-dasharray:5.0,5.0;" x1="465" x2="465" y1="83.6211" y2="1371.5918"/><line style="stroke:#181818;stroke-width:0.5;stroke-dasharray:5.0,5.0;" x1="803.5" x2="803.5" y1="83.6211" y2="1371.5918"/><line style="stroke:#181818;stroke-width:0.5;stroke-dasharray:5.0,5.0;" x1="1142.5" x2="1142.5" y1="83.6211" y2="1371.5918"/><line style="stroke:#181818;stroke-width:0.5;stroke-dasharray:5.0,5.0;" x1="1365.5" x2="1365.5" y1="83.6211" y2="1371.5918"/><line style="stroke:#181818;stroke-width:0.5;stroke-dasharray:5.0,5.0;" x1="1633.5" x2="1633.5" y1="83.6211" y2="1371.5918"/><line style="stroke:#181818;stroke-width:0.5;stroke-dasharray:5.0,5.0;" x1="1883.5" x2="1883.5" y1="83.6211" y2="1371.5918"/><line style="stroke:#181818;stroke-width:0.5;stroke-dasharray:5.0,5.0;" x1="2086.5" x2="2086.5" y1="83.6211" y2="1371.5918"/><line style="stroke:#181818;stroke-width:0.5;stroke-dasharray:5.0,5.0;" x1="2225.5" x2="2225.5" y1="83.6211" y2="1371.5918"/><line style="stroke:#181818;stroke-width:0.5;stroke-dasharray:5.0,5.0;" x1="2280.5" x2="2280.5" y1="83.6211" y2="1371.5918"/><line style="stroke:#181818;stroke-width:0.5;stroke-dasharray:5.0,5.0;" x1="2371.5" x2="2371.5" y1="370.7598" y2="1371.5918"/><text fill="#000000" font-family="sans-serif" font-size="14" lengthAdjust="spacing" textLength="114" x="5" y="80.1074">Marketing director</text><ellipse cx="65" cy="13.5" fill="#E2E2F0" rx="8" ry="8" style="stroke:#181818;stroke-width:0.5;"/><path d="M65,21.5 L65,48.5 M52,29.5 L78,29.5 M65,48.5 L52,63.5 M65,48.5 L78,63.5 " fill="none" style="stroke:#181818;stroke-width:0.5;"/><text fill="#000000" font-family="sans-serif" font-size="14" lengthAdjust="spacing" textLength="114" x="5" y="1385.6992">Marketing director</text><ellipse cx="65" cy="1397.7129" fill="#E2E2F0" rx="8" ry="8" style="stroke:#181818;stroke-width:0.5;"/><path d="M65,1405.7129 L65,1432.7129 M52,1413.7129 L78,1413.7129 M65,1432.7129 L52,1447.7129 M65,1432.7129 L78,1447.7129 " fill="none" style="stroke:#181818;stroke-width:0.5;"/><rect fill="#E2E2F0" height="32.6211" rx="2.5" ry="2.5" style="stroke:#181818;stroke-width:0.5;" width="108" x="411" y="50"/><text fill="#000000" font-family="sans-serif" font-size="14" lengthAdjust="spacing" textLength="94" x="418" y="72.1074">:PlanController</text><rect fill="#E2E2F0" height="32.6211" rx="2.5" ry="2.5" style="stroke:#181818;stroke-width:0.5;" width="108" x="411" y="1370.5918"/><text fill="#000000" font-family="sans-serif" font-size="14" lengthAdjust="spacing" textLength="94" x="418" y="1392.6992">:PlanController</text><rect fill="#E2E2F0" height="32.6211" rx="2.5" ry="2.5" style="stroke:#181818;stroke-width:0.5;" width="167" x="720.5" y="50"/><text fill="#000000" font-family="sans-serif" font-size="14" lengthAdjust="spacing" textLength="153" x="727.5" y="72.1074">planService:PlanService</text><rect fill="#E2E2F0" height="32.6211" rx="2.5" ry="2.5" style="stroke:#181818;stroke-width:0.5;" width="167" x="720.5" y="1370.5918"/><text fill="#000000" font-family="sans-serif" font-size="14" lengthAdjust="spacing" textLength="153" x="727.5" y="1392.6992">planService:PlanService</text><rect fill="#E2E2F0" height="32.6211" rx="2.5" ry="2.5" style="stroke:#181818;stroke-width:0.5;" width="217" x="1034.5" y="50"/><text fill="#000000" font-family="sans-serif" font-size="14" lengthAdjust="spacing" textLength="203" x="1041.5" y="72.1074">planServiceImpl:PlanServiceImpl</text><rect fill="#E2E2F0" height="32.6211" rx="2.5" ry="2.5" style="stroke:#181818;stroke-width:0.5;" width="217" x="1034.5" y="1370.5918"/><text fill="#000000" font-family="sans-serif" font-size="14" lengthAdjust="spacing" textLength="203" x="1041.5" y="1392.6992">planServiceImpl:PlanServiceImpl</text><rect fill="#E2E2F0" height="32.6211" rx="2.5" ry="2.5" style="stroke:#181818;stroke-width:0.5;" width="208" x="1261.5" y="50"/><text fill="#000000" font-family="sans-serif" font-size="14" lengthAdjust="spacing" textLength="194" x="1268.5" y="72.1074">planRepository:planRepository</text><rect fill="#E2E2F0" height="32.6211" rx="2.5" ry="2.5" style="stroke:#181818;stroke-width:0.5;" width="208" x="1261.5" y="1370.5918"/><text fill="#000000" font-family="sans-serif" font-size="14" lengthAdjust="spacing" textLength="194" x="1268.5" y="1392.6992">planRepository:planRepository</text><rect fill="#E2E2F0" height="32.6211" rx="2.5" ry="2.5" style="stroke:#181818;stroke-width:0.5;" width="308" x="1479.5" y="50"/><text fill="#000000" font-family="sans-serif" font-size="14" lengthAdjust="spacing" textLength="294" x="1486.5" y="72.1074">subscriptionRepository:SubscriptionRepository</text><rect fill="#E2E2F0" height="32.6211" rx="2.5" ry="2.5" style="stroke:#181818;stroke-width:0.5;" width="308" x="1479.5" y="1370.5918"/><text fill="#000000" font-family="sans-serif" font-size="14" lengthAdjust="spacing" textLength="294" x="1486.5" y="1392.6992">subscriptionRepository:SubscriptionRepository</text><rect fill="#E2E2F0" height="32.6211" rx="2.5" ry="2.5" style="stroke:#181818;stroke-width:0.5;" width="172" x="1797.5" y="50"/><text fill="#000000" font-family="sans-serif" font-size="14" lengthAdjust="spacing" textLength="158" x="1804.5" y="72.1074">subscription:Subscription</text><rect fill="#E2E2F0" height="32.6211" rx="2.5" ry="2.5" style="stroke:#181818;stroke-width:0.5;" width="172" x="1797.5" y="1370.5918"/><text fill="#000000" font-family="sans-serif" font-size="14" lengthAdjust="spacing" textLength="158" x="1804.5" y="1392.6992">subscription:Subscription</text><rect fill="#E2E2F0" height="32.6211" rx="2.5" ry="2.5" style="stroke:#181818;stroke-width:0.5;" width="215" x="1979.5" y="50"/><text fill="#000000" font-family="sans-serif" font-size="14" lengthAdjust="spacing" textLength="201" x="1986.5" y="72.1074">revenueByPlan:RevenueByPlan</text><rect fill="#E2E2F0" height="32.6211" rx="2.5" ry="2.5" style="stroke:#181818;stroke-width:0.5;" width="215" x="1979.5" y="1370.5918"/><text fill="#000000" font-family="sans-serif" font-size="14" lengthAdjust="spacing" textLength="201" x="1986.5" y="1392.6992">revenueByPlan:RevenueByPlan</text><rect fill="#E2E2F0" height="32.6211" rx="2.5" ry="2.5" style="stroke:#181818;stroke-width:0.5;" width="42" x="2204.5" y="50"/><text fill="#000000" font-family="sans-serif" font-size="14" lengthAdjust="spacing" textLength="28" x="2211.5" y="72.1074">Plan</text><rect fill="#E2E2F0" height="32.6211" rx="2.5" ry="2.5" style="stroke:#181818;stroke-width:0.5;" width="42" x="2204.5" y="1370.5918"/><text fill="#000000" font-family="sans-serif" font-size="14" lengthAdjust="spacing" textLength="28" x="2211.5" y="1392.6992">Plan</text><rect fill="#E2E2F0" height="32.6211" rx="2.5" ry="2.5" style="stroke:#181818;stroke-width:0.5;" width="48" x="2256.5" y="50"/><text fill="#000000" font-family="sans-serif" font-size="14" lengthAdjust="spacing" textLength="34" x="2263.5" y="72.1074">plans</text><rect fill="#E2E2F0" height="32.6211" rx="2.5" ry="2.5" style="stroke:#181818;stroke-width:0.5;" width="48" x="2256.5" y="1370.5918"/><text fill="#000000" font-family="sans-serif" font-size="14" lengthAdjust="spacing" textLength="34" x="2263.5" y="1392.6992">plans</text><rect fill="#E2E2F0" height="32.6211" rx="2.5" ry="2.5" style="stroke:#181818;stroke-width:0.5;" width="115" x="2314.5" y="1370.5918"/><text fill="#000000" font-family="sans-serif" font-size="14" lengthAdjust="spacing" textLength="101" x="2321.5" y="1392.6992">RevenueByPlan</text><rect fill="#FFFFFF" height="1268.9707" style="stroke:#181818;stroke-width:1.0;" width="10" x="60" y="93.6211"/><rect fill="#FFFFFF" height="1236.6797" style="stroke:#181818;stroke-width:1.0;" width="10" x="460" y="116.9121"/><rect fill="#FFFFFF" height="1174.0977" style="stroke:#181818;stroke-width:1.0;" width="10" x="799" y="148.2031"/><rect fill="#FFFFFF" height="1111.5156" style="stroke:#181818;stroke-width:1.0;" width="10" x="1138" y="179.4941"/><rect fill="#FFFFFF" height="31.291" style="stroke:#181818;stroke-width:1.0;" width="10" x="1360.5" y="210.7852"/><rect fill="#FFFFFF" height="31.291" style="stroke:#181818;stroke-width:1.0;" width="10" x="1628.5" y="437.1523"/><rect fill="#FFFFFF" height="31.291" style="stroke:#181818;stroke-width:1.0;" width="10" x="1628.5" y="499.7344"/><rect fill="#FFFFFF" height="31.291" style="stroke:#181818;stroke-width:1.0;" width="10" x="1628.5" y="562.3164"/><rect fill="#FFFFFF" height="31.291" style="stroke:#181818;stroke-width:1.0;" width="10" x="1878.5" y="624.8984"/><rect fill="#FFFFFF" height="31.291" style="stroke:#181818;stroke-width:1.0;" width="10" x="1878.5" y="713.7715"/><rect fill="#FFFFFF" height="31.291" style="stroke:#181818;stroke-width:1.0;" width="10" x="1878.5" y="838.9355"/><rect fill="#FFFFFF" height="31.291" style="stroke:#181818;stroke-width:1.0;" width="10" x="1878.5" y="964.0996"/><rect fill="#FFFFFF" height="31.291" style="stroke:#181818;stroke-width:1.0;" width="10" x="1878.5" y="1089.2637"/><rect fill="#FFFFFF" height="31.291" style="stroke:#181818;stroke-width:1.0;" width="10" x="2082" y="273.3672"/><rect fill="#FFFFFF" height="31.291" style="stroke:#181818;stroke-width:1.0;" width="10" x="2082" y="1221.4277"/><rect fill="#FFFFFF" height="31.291" style="stroke:#181818;stroke-width:1.0;" width="10" x="2220.5" y="776.3535"/><rect fill="#FFFFFF" height="31.291" style="stroke:#181818;stroke-width:1.0;" width="10" x="2220.5" y="901.5176"/><rect fill="#FFFFFF" height="31.291" style="stroke:#181818;stroke-width:1.0;" width="10" x="2220.5" y="1026.6816"/><rect fill="#FFFFFF" height="31.291" style="stroke:#181818;stroke-width:1.0;" width="10" x="2220.5" y="1151.8457"/><polygon fill="#181818" points="448,112.9121,458,116.9121,448,120.9121,452,116.9121" style="stroke:#181818;stroke-width:1.0;"/><line style="stroke:#181818;stroke-width:1.0;" x1="70" x2="454" y1="116.9121" y2="116.9121"/><text fill="#000000" font-family="sans-serif" font-size="13" font-weight="bold" lengthAdjust="spacing" textLength="7" x="77" y="111.6494">1</text><text fill="#000000" font-family="sans-serif" font-size="13" lengthAdjust="spacing" textLength="360" x="88" y="111.6494">GET(/api/plan/dashboard/totalRevenueByPlan?&amp;page=&amp;size=)</text><polygon fill="#181818" points="787,144.2031,797,148.2031,787,152.2031,791,148.2031" style="stroke:#181818;stroke-width:1.0;"/><line style="stroke:#181818;stroke-width:1.0;" x1="470" x2="793" y1="148.2031" y2="148.2031"/><text fill="#000000" font-family="sans-serif" font-size="13" font-weight="bold" lengthAdjust="spacing" textLength="7" x="477" y="142.9404">2</text><text fill="#000000" font-family="sans-serif" font-size="13" lengthAdjust="spacing" textLength="299" x="488" y="142.9404">findRevenueByPlan(Integer page, Integer batchSize)</text><polygon fill="#181818" points="1126,175.4941,1136,179.4941,1126,183.4941,1130,179.4941" style="stroke:#181818;stroke-width:1.0;"/><line style="stroke:#181818;stroke-width:1.0;" x1="809" x2="1132" y1="179.4941" y2="179.4941"/><text fill="#000000" font-family="sans-serif" font-size="13" font-weight="bold" lengthAdjust="spacing" textLength="7" x="816" y="174.2314">3</text><text fill="#000000" font-family="sans-serif" font-size="13" lengthAdjust="spacing" textLength="299" x="827" y="174.2314">findRevenueByPlan(Integer page, Integer batchSize)</text><polygon fill="#181818" points="1348.5,206.7852,1358.5,210.7852,1348.5,214.7852,1352.5,210.7852" style="stroke:#181818;stroke-width:1.0;"/><line style="stroke:#181818;stroke-width:1.0;" x1="1148" x2="1354.5" y1="210.7852" y2="210.7852"/><text fill="#000000" font-family="sans-serif" font-size="13" font-weight="bold" lengthAdjust="spacing" textLength="7" x="1155" y="205.5225">4</text><text fill="#000000" font-family="sans-serif" font-size="13" lengthAdjust="spacing" textLength="95" x="1166" y="205.5225">findSomePlans()</text><polygon fill="#181818" points="2268.5,238.0762,2278.5,242.0762,2268.5,246.0762,2272.5,242.0762" style="stroke:#181818;stroke-width:1.0;"/><line style="stroke:#181818;stroke-width:1.0;stroke-dasharray:2.0,2.0;" x1="1365.5" x2="2274.5" y1="242.0762" y2="242.0762"/><text fill="#000000" font-family="sans-serif" font-size="13" font-weight="bold" lengthAdjust="spacing" textLength="7" x="1372.5" y="236.8135">5</text><text fill="#000000" font-family="sans-serif" font-size="13" lengthAdjust="spacing" textLength="4" x="1383.5" y="236.8135">&#160;</text><polygon fill="#181818" points="2070,269.3672,2080,273.3672,2070,277.3672,2074,273.3672" style="stroke:#181818;stroke-width:1.0;"/><line style="stroke:#181818;stroke-width:1.0;" x1="1148" x2="2076" y1="273.3672" y2="273.3672"/><text fill="#000000" font-family="sans-serif" font-size="13" font-weight="bold" lengthAdjust="spacing" textLength="7" x="1155" y="268.1045">6</text><text fill="#000000" font-family="sans-serif" font-size="13" lengthAdjust="spacing" textLength="128" x="1166" y="268.1045">List&lt;RevenueByPlan&gt;</text><polygon fill="#181818" points="1159,300.6582,1149,304.6582,1159,308.6582,1155,304.6582" style="stroke:#181818;stroke-width:1.0;"/><line style="stroke:#181818;stroke-width:1.0;stroke-dasharray:2.0,2.0;" x1="1153" x2="2086" y1="304.6582" y2="304.6582"/><text fill="#000000" font-family="sans-serif" font-size="13" font-weight="bold" lengthAdjust="spacing" textLength="7" x="1165" y="299.3955">7</text><text fill="#000000" font-family="sans-serif" font-size="13" lengthAdjust="spacing" textLength="21" x="1176" y="299.3955">List</text><path d="M1014.5,319.6582 L1087.5,319.6582 L1087.5,328.9492 L1077.5,338.9492 L1014.5,338.9492 L1014.5,319.6582 " fill="#EEEEEE" style="stroke:#000000;stroke-width:1.5;"/><rect fill="none" height="941.0605" style="stroke:#000000;stroke-width:1.5;" width="1425" x="1014.5" y="319.6582"/><text fill="#000000" font-family="sans-serif" font-size="13" font-weight="bold" lengthAdjust="spacing" textLength="28" x="1029.5" y="334.6865">loop</text><text fill="#000000" font-family="sans-serif" font-size="11" font-weight="bold" lengthAdjust="spacing" textLength="58" x="1102.5" y="333.5283">[list plans]</text><polygon fill="#181818" points="2302.5,358.2402,2312.5,362.2402,2302.5,366.2402,2306.5,362.2402" style="stroke:#181818;stroke-width:1.0;"/><line style="stroke:#181818;stroke-width:1.0;" x1="1148" x2="2308.5" y1="362.2402" y2="362.2402"/><text fill="#000000" font-family="sans-serif" font-size="13" font-weight="bold" lengthAdjust="spacing" textLength="7" x="1155" y="356.9775">8</text><text fill="#000000" font-family="sans-serif" font-size="13" lengthAdjust="spacing" textLength="36" x="1166" y="356.9775">create</text><rect fill="#E2E2F0" height="32.6211" rx="2.5" ry="2.5" style="stroke:#181818;stroke-width:0.5;" width="115" x="2314.5" y="338.9492"/><text fill="#000000" font-family="sans-serif" font-size="14" lengthAdjust="spacing" textLength="101" x="2321.5" y="361.0566">RevenueByPlan</text><polygon fill="#181818" points="1159,401.8613,1149,405.8613,1159,409.8613,1155,405.8613" style="stroke:#181818;stroke-width:1.0;"/><line style="stroke:#181818;stroke-width:1.0;stroke-dasharray:2.0,2.0;" x1="1153" x2="2371" y1="405.8613" y2="405.8613"/><text fill="#000000" font-family="sans-serif" font-size="13" font-weight="bold" lengthAdjust="spacing" textLength="7" x="1165" y="400.5986">9</text><text fill="#000000" font-family="sans-serif" font-size="13" lengthAdjust="spacing" textLength="91" x="1176" y="400.5986">RevenueByPlan</text><polygon fill="#181818" points="1616.5,433.1523,1626.5,437.1523,1616.5,441.1523,1620.5,437.1523" style="stroke:#181818;stroke-width:1.0;"/><line style="stroke:#181818;stroke-width:1.0;" x1="1148" x2="1622.5" y1="437.1523" y2="437.1523"/><text fill="#000000" font-family="sans-serif" font-size="13" font-weight="bold" lengthAdjust="spacing" textLength="14" x="1155" y="431.8896">10</text><text fill="#000000" font-family="sans-serif" font-size="13" lengthAdjust="spacing" textLength="120" x="1173" y="431.8896">findByPlanAndYear()</text><polygon fill="#181818" points="1159,464.4434,1149,468.4434,1159,472.4434,1155,468.4434" style="stroke:#181818;stroke-width:1.0;"/><line style="stroke:#181818;stroke-width:1.0;stroke-dasharray:2.0,2.0;" x1="1153" x2="1632.5" y1="468.4434" y2="468.4434"/><text fill="#000000" font-family="sans-serif" font-size="13" font-weight="bold" lengthAdjust="spacing" textLength="14" x="1165" y="463.1807">11</text><text fill="#000000" font-family="sans-serif" font-size="13" lengthAdjust="spacing" textLength="109" x="1183" y="463.1807">List&lt;Subscription&gt;</text><polygon fill="#181818" points="1616.5,495.7344,1626.5,499.7344,1616.5,503.7344,1620.5,499.7344" style="stroke:#181818;stroke-width:1.0;"/><line style="stroke:#181818;stroke-width:1.0;" x1="1148" x2="1622.5" y1="499.7344" y2="499.7344"/><text fill="#000000" font-family="sans-serif" font-size="13" font-weight="bold" lengthAdjust="spacing" textLength="14" x="1155" y="494.4717">12</text><text fill="#000000" font-family="sans-serif" font-size="13" lengthAdjust="spacing" textLength="120" x="1173" y="494.4717">findByPlanAndYear()</text><polygon fill="#181818" points="1159,527.0254,1149,531.0254,1159,535.0254,1155,531.0254" style="stroke:#181818;stroke-width:1.0;"/><line style="stroke:#181818;stroke-width:1.0;stroke-dasharray:2.0,2.0;" x1="1153" x2="1632.5" y1="531.0254" y2="531.0254"/><text fill="#000000" font-family="sans-serif" font-size="13" font-weight="bold" lengthAdjust="spacing" textLength="14" x="1165" y="525.7627">13</text><text fill="#000000" font-family="sans-serif" font-size="13" lengthAdjust="spacing" textLength="109" x="1183" y="525.7627">List&lt;Subscription&gt;</text><polygon fill="#181818" points="1616.5,558.3164,1626.5,562.3164,1616.5,566.3164,1620.5,562.3164" style="stroke:#181818;stroke-width:1.0;"/><line style="stroke:#181818;stroke-width:1.0;" x1="1148" x2="1622.5" y1="562.3164" y2="562.3164"/><text fill="#000000" font-family="sans-serif" font-size="13" font-weight="bold" lengthAdjust="spacing" textLength="14" x="1155" y="557.0537">14</text><text fill="#000000" font-family="sans-serif" font-size="13" lengthAdjust="spacing" textLength="120" x="1173" y="557.0537">findByPlanAndYear()</text><polygon fill="#181818" points="1159,589.6074,1149,593.6074,1159,597.6074,1155,593.6074" style="stroke:#181818;stroke-width:1.0;"/><line style="stroke:#181818;stroke-width:1.0;stroke-dasharray:2.0,2.0;" x1="1153" x2="1632.5" y1="593.6074" y2="593.6074"/><text fill="#000000" font-family="sans-serif" font-size="13" font-weight="bold" lengthAdjust="spacing" textLength="14" x="1165" y="588.3447">15</text><text fill="#000000" font-family="sans-serif" font-size="13" lengthAdjust="spacing" textLength="109" x="1183" y="588.3447">List&lt;Subscription&gt;</text><polygon fill="#181818" points="1866.5,620.8984,1876.5,624.8984,1866.5,628.8984,1870.5,624.8984" style="stroke:#181818;stroke-width:1.0;"/><line style="stroke:#181818;stroke-width:1.0;" x1="1148" x2="1872.5" y1="624.8984" y2="624.8984"/><text fill="#000000" font-family="sans-serif" font-size="13" font-weight="bold" lengthAdjust="spacing" textLength="14" x="1155" y="619.6357">16</text><text fill="#000000" font-family="sans-serif" font-size="13" lengthAdjust="spacing" textLength="109" x="1173" y="619.6357">List&lt;Subscription&gt;</text><polygon fill="#181818" points="1159,652.1895,1149,656.1895,1159,660.1895,1155,656.1895" style="stroke:#181818;stroke-width:1.0;"/><line style="stroke:#181818;stroke-width:1.0;stroke-dasharray:2.0,2.0;" x1="1153" x2="1882.5" y1="656.1895" y2="656.1895"/><text fill="#000000" font-family="sans-serif" font-size="13" font-weight="bold" lengthAdjust="spacing" textLength="14" x="1165" y="650.9268">17</text><text fill="#000000" font-family="sans-serif" font-size="13" lengthAdjust="spacing" textLength="109" x="1183" y="650.9268">List&lt;Subscription&gt;</text><path d="M1024.5,671.1895 L1097.5,671.1895 L1097.5,680.4805 L1087.5,690.4805 L1024.5,690.4805 L1024.5,671.1895 " fill="#EEEEEE" style="stroke:#000000;stroke-width:1.5;"/><rect fill="none" height="519.9473" style="stroke:#000000;stroke-width:1.5;" width="1232" x="1024.5" y="671.1895"/><text fill="#000000" font-family="sans-serif" font-size="13" font-weight="bold" lengthAdjust="spacing" textLength="28" x="1039.5" y="686.2178">loop</text><text fill="#000000" font-family="sans-serif" font-size="11" font-weight="bold" lengthAdjust="spacing" textLength="75" x="1112.5" y="685.0596">[for list subs]</text><polygon fill="#181818" points="1866.5,709.7715,1876.5,713.7715,1866.5,717.7715,1870.5,713.7715" style="stroke:#181818;stroke-width:1.0;"/><line style="stroke:#181818;stroke-width:1.0;" x1="1148" x2="1872.5" y1="713.7715" y2="713.7715"/><text fill="#000000" font-family="sans-serif" font-size="13" font-weight="bold" lengthAdjust="spacing" textLength="14" x="1155" y="708.5088">18</text><text fill="#000000" font-family="sans-serif" font-size="13" lengthAdjust="spacing" textLength="52" x="1173" y="708.5088">getPlan()</text><polygon fill="#181818" points="1159,741.0625,1149,745.0625,1159,749.0625,1155,745.0625" style="stroke:#181818;stroke-width:1.0;"/><line style="stroke:#181818;stroke-width:1.0;stroke-dasharray:2.0,2.0;" x1="1153" x2="1882.5" y1="745.0625" y2="745.0625"/><text fill="#000000" font-family="sans-serif" font-size="13" font-weight="bold" lengthAdjust="spacing" textLength="14" x="1165" y="739.7998">19</text><text fill="#000000" font-family="sans-serif" font-size="13" lengthAdjust="spacing" textLength="24" x="1183" y="739.7998">plan</text><polygon fill="#181818" points="2208.5,772.3535,2218.5,776.3535,2208.5,780.3535,2212.5,776.3535" style="stroke:#181818;stroke-width:1.0;"/><line style="stroke:#181818;stroke-width:1.0;" x1="1148" x2="2214.5" y1="776.3535" y2="776.3535"/><text fill="#000000" font-family="sans-serif" font-size="13" font-weight="bold" lengthAdjust="spacing" textLength="14" x="1155" y="771.0908">20</text><text fill="#000000" font-family="sans-serif" font-size="13" lengthAdjust="spacing" textLength="94" x="1173" y="771.0908">getMonthlyFee()</text><polygon fill="#181818" points="1159,803.6445,1149,807.6445,1159,811.6445,1155,807.6445" style="stroke:#181818;stroke-width:1.0;"/><line style="stroke:#181818;stroke-width:1.0;stroke-dasharray:2.0,2.0;" x1="1153" x2="2224.5" y1="807.6445" y2="807.6445"/><text fill="#000000" font-family="sans-serif" font-size="13" font-weight="bold" lengthAdjust="spacing" textLength="14" x="1165" y="802.3818">21</text><text fill="#000000" font-family="sans-serif" font-size="13" lengthAdjust="spacing" textLength="68" x="1183" y="802.3818">MonthlyFee</text><polygon fill="#181818" points="1866.5,834.9355,1876.5,838.9355,1866.5,842.9355,1870.5,838.9355" style="stroke:#181818;stroke-width:1.0;"/><line style="stroke:#181818;stroke-width:1.0;" x1="1148" x2="1872.5" y1="838.9355" y2="838.9355"/><text fill="#000000" font-family="sans-serif" font-size="13" font-weight="bold" lengthAdjust="spacing" textLength="14" x="1155" y="833.6729">22</text><text fill="#000000" font-family="sans-serif" font-size="13" lengthAdjust="spacing" textLength="52" x="1173" y="833.6729">getPlan()</text><polygon fill="#181818" points="1159,866.2266,1149,870.2266,1159,874.2266,1155,870.2266" style="stroke:#181818;stroke-width:1.0;"/><line style="stroke:#181818;stroke-width:1.0;stroke-dasharray:2.0,2.0;" x1="1153" x2="1882.5" y1="870.2266" y2="870.2266"/><text fill="#000000" font-family="sans-serif" font-size="13" font-weight="bold" lengthAdjust="spacing" textLength="14" x="1165" y="864.9639">23</text><text fill="#000000" font-family="sans-serif" font-size="13" lengthAdjust="spacing" textLength="24" x="1183" y="864.9639">plan</text><polygon fill="#181818" points="2208.5,897.5176,2218.5,901.5176,2208.5,905.5176,2212.5,901.5176" style="stroke:#181818;stroke-width:1.0;"/><line style="stroke:#181818;stroke-width:1.0;" x1="1148" x2="2214.5" y1="901.5176" y2="901.5176"/><text fill="#000000" font-family="sans-serif" font-size="13" font-weight="bold" lengthAdjust="spacing" textLength="14" x="1155" y="896.2549">24</text><text fill="#000000" font-family="sans-serif" font-size="13" lengthAdjust="spacing" textLength="94" x="1173" y="896.2549">getMonthlyFee()</text><polygon fill="#181818" points="1159,928.8086,1149,932.8086,1159,936.8086,1155,932.8086" style="stroke:#181818;stroke-width:1.0;"/><line style="stroke:#181818;stroke-width:1.0;stroke-dasharray:2.0,2.0;" x1="1153" x2="2224.5" y1="932.8086" y2="932.8086"/><text fill="#000000" font-family="sans-serif" font-size="13" font-weight="bold" lengthAdjust="spacing" textLength="14" x="1165" y="927.5459">25</text><text fill="#000000" font-family="sans-serif" font-size="13" lengthAdjust="spacing" textLength="68" x="1183" y="927.5459">MonthlyFee</text><polygon fill="#181818" points="1866.5,960.0996,1876.5,964.0996,1866.5,968.0996,1870.5,964.0996" style="stroke:#181818;stroke-width:1.0;"/><line style="stroke:#181818;stroke-width:1.0;" x1="1148" x2="1872.5" y1="964.0996" y2="964.0996"/><text fill="#000000" font-family="sans-serif" font-size="13" font-weight="bold" lengthAdjust="spacing" textLength="14" x="1155" y="958.8369">26</text><text fill="#000000" font-family="sans-serif" font-size="13" lengthAdjust="spacing" textLength="52" x="1173" y="958.8369">getPlan()</text><polygon fill="#181818" points="1159,991.3906,1149,995.3906,1159,999.3906,1155,995.3906" style="stroke:#181818;stroke-width:1.0;"/><line style="stroke:#181818;stroke-width:1.0;stroke-dasharray:2.0,2.0;" x1="1153" x2="1882.5" y1="995.3906" y2="995.3906"/><text fill="#000000" font-family="sans-serif" font-size="13" font-weight="bold" lengthAdjust="spacing" textLength="14" x="1165" y="990.1279">27</text><text fill="#000000" font-family="sans-serif" font-size="13" lengthAdjust="spacing" textLength="24" x="1183" y="990.1279">plan</text><polygon fill="#181818" points="2208.5,1022.6816,2218.5,1026.6816,2208.5,1030.6816,2212.5,1026.6816" style="stroke:#181818;stroke-width:1.0;"/><line style="stroke:#181818;stroke-width:1.0;" x1="1148" x2="2214.5" y1="1026.6816" y2="1026.6816"/><text fill="#000000" font-family="sans-serif" font-size="13" font-weight="bold" lengthAdjust="spacing" textLength="14" x="1155" y="1021.4189">28</text><text fill="#000000" font-family="sans-serif" font-size="13" lengthAdjust="spacing" textLength="88" x="1173" y="1021.4189">getAnnualFee()</text><polygon fill="#181818" points="1159,1053.9727,1149,1057.9727,1159,1061.9727,1155,1057.9727" style="stroke:#181818;stroke-width:1.0;"/><line style="stroke:#181818;stroke-width:1.0;stroke-dasharray:2.0,2.0;" x1="1153" x2="2224.5" y1="1057.9727" y2="1057.9727"/><text fill="#000000" font-family="sans-serif" font-size="13" font-weight="bold" lengthAdjust="spacing" textLength="14" x="1165" y="1052.71">29</text><text fill="#000000" font-family="sans-serif" font-size="13" lengthAdjust="spacing" textLength="62" x="1183" y="1052.71">AnnualFee</text><polygon fill="#181818" points="1866.5,1085.2637,1876.5,1089.2637,1866.5,1093.2637,1870.5,1089.2637" style="stroke:#181818;stroke-width:1.0;"/><line style="stroke:#181818;stroke-width:1.0;" x1="1148" x2="1872.5" y1="1089.2637" y2="1089.2637"/><text fill="#000000" font-family="sans-serif" font-size="13" font-weight="bold" lengthAdjust="spacing" textLength="14" x="1155" y="1084.001">30</text><text fill="#000000" font-family="sans-serif" font-size="13" lengthAdjust="spacing" textLength="52" x="1173" y="1084.001">getPlan()</text><polygon fill="#181818" points="1159,1116.5547,1149,1120.5547,1159,1124.5547,1155,1120.5547" style="stroke:#181818;stroke-width:1.0;"/><line style="stroke:#181818;stroke-width:1.0;stroke-dasharray:2.0,2.0;" x1="1153" x2="1882.5" y1="1120.5547" y2="1120.5547"/><text fill="#000000" font-family="sans-serif" font-size="13" font-weight="bold" lengthAdjust="spacing" textLength="14" x="1165" y="1115.292">31</text><text fill="#000000" font-family="sans-serif" font-size="13" lengthAdjust="spacing" textLength="24" x="1183" y="1115.292">plan</text><polygon fill="#181818" points="2208.5,1147.8457,2218.5,1151.8457,2208.5,1155.8457,2212.5,1151.8457" style="stroke:#181818;stroke-width:1.0;"/><line style="stroke:#181818;stroke-width:1.0;" x1="1148" x2="2214.5" y1="1151.8457" y2="1151.8457"/><text fill="#000000" font-family="sans-serif" font-size="13" font-weight="bold" lengthAdjust="spacing" textLength="14" x="1155" y="1146.583">32</text><text fill="#000000" font-family="sans-serif" font-size="13" lengthAdjust="spacing" textLength="88" x="1173" y="1146.583">getAnnualFee()</text><polygon fill="#181818" points="1159,1179.1367,1149,1183.1367,1159,1187.1367,1155,1183.1367" style="stroke:#181818;stroke-width:1.0;"/><line style="stroke:#181818;stroke-width:1.0;stroke-dasharray:2.0,2.0;" x1="1153" x2="2224.5" y1="1183.1367" y2="1183.1367"/><text fill="#000000" font-family="sans-serif" font-size="13" font-weight="bold" lengthAdjust="spacing" textLength="14" x="1165" y="1177.874">33</text><text fill="#000000" font-family="sans-serif" font-size="13" lengthAdjust="spacing" textLength="62" x="1183" y="1177.874">AnnualFee</text><polygon fill="#181818" points="2070,1217.4277,2080,1221.4277,2070,1225.4277,2074,1221.4277" style="stroke:#181818;stroke-width:1.0;"/><line style="stroke:#181818;stroke-width:1.0;" x1="1148" x2="2076" y1="1221.4277" y2="1221.4277"/><text fill="#000000" font-family="sans-serif" font-size="13" font-weight="bold" lengthAdjust="spacing" textLength="14" x="1155" y="1216.165">34</text><text fill="#000000" font-family="sans-serif" font-size="13" lengthAdjust="spacing" textLength="103" x="1173" y="1216.165">setTotalRevenue()</text><polygon fill="#181818" points="1159,1248.7188,1149,1252.7188,1159,1256.7188,1155,1252.7188" style="stroke:#181818;stroke-width:1.0;"/><line style="stroke:#181818;stroke-width:1.0;stroke-dasharray:2.0,2.0;" x1="1153" x2="2086" y1="1252.7188" y2="1252.7188"/><text fill="#000000" font-family="sans-serif" font-size="13" font-weight="bold" lengthAdjust="spacing" textLength="14" x="1165" y="1247.4561">35</text><text fill="#000000" font-family="sans-serif" font-size="13" lengthAdjust="spacing" textLength="71" x="1183" y="1247.4561">added to list</text><polygon fill="#181818" points="820,1287.0098,810,1291.0098,820,1295.0098,816,1291.0098" style="stroke:#181818;stroke-width:1.0;"/><line style="stroke:#181818;stroke-width:1.0;stroke-dasharray:2.0,2.0;" x1="814" x2="1142" y1="1291.0098" y2="1291.0098"/><text fill="#000000" font-family="sans-serif" font-size="13" font-weight="bold" lengthAdjust="spacing" textLength="14" x="826" y="1285.7471">36</text><text fill="#000000" font-family="sans-serif" font-size="13" lengthAdjust="spacing" textLength="4" x="844" y="1285.7471">&#160;</text><polygon fill="#181818" points="481,1318.3008,471,1322.3008,481,1326.3008,477,1322.3008" style="stroke:#181818;stroke-width:1.0;"/><line style="stroke:#181818;stroke-width:1.0;stroke-dasharray:2.0,2.0;" x1="475" x2="803" y1="1322.3008" y2="1322.3008"/><text fill="#000000" font-family="sans-serif" font-size="13" font-weight="bold" lengthAdjust="spacing" textLength="14" x="487" y="1317.0381">37</text><text fill="#000000" font-family="sans-serif" font-size="13" lengthAdjust="spacing" textLength="4" x="505" y="1317.0381">&#160;</text><polygon fill="#181818" points="81,1349.5918,71,1353.5918,81,1357.5918,77,1353.5918" style="stroke:#181818;stroke-width:1.0;"/><line style="stroke:#181818;stroke-width:1.0;stroke-dasharray:2.0,2.0;" x1="75" x2="464" y1="1353.5918" y2="1353.5918"/><text fill="#000000" font-family="sans-serif" font-size="13" font-weight="bold" lengthAdjust="spacing" textLength="14" x="87" y="1348.3291">38</text><text fill="#000000" font-family="sans-serif" font-size="13" lengthAdjust="spacing" textLength="44" x="105" y="1348.3291">200:OK</text><!--SRC=[vLJ1Rjim3BthAuGSkgIOvs97eVNG5TjGRCM6fZtig5Yi8qoMF4aEa7tzHDcnhRGUXfuwB8T09Dzxf4IQhxRUDuxbUQEuzcsjtfIcpXtyR46Na0d9AyjhGdZh3I-zt74FrEXewxRUW0snqXjB5pVS_W0lTKM5j82-1UMEthk0QRZrifHDo44Nx5l8TMMqjqOfw51NtgeKXGMjmUva2P7GdoEwFyyIhkj6JKbeHo8U7hDkeJ5EXeBtB3KZ1ysKuzgDAwril3HJxlf9zw0HmlCo2RcxuyIHyYpiGBVmVeytPBTJgqyMF6Ybj24UGsJePcmGmN-Q5R4HZ7xwSBVCUIFZMEI2k-t6S2joRpnNISPt9msluEB4oLzmiI98Hvb3v-Y3r28XBA-rXoeaGzvhUh0st9VRTH1PaPwBCh6Hpz508WhWmzDEOMrgGB9RhaXqPo6EztCJTFzob7sHpfydIGioXhE-jY2DGAACQQWAfrwGqF1BL0ygfwUCbXR2mqTC4flA9e5ZlJXC_RKwnAKMtu7RSBLEjKCSbNa-dQdYdz5CHAUX-H8Ir5-en_uzX2qMUuWVPkUVoyne1JvEuch0pUN4YNWarWqPgjo4HRXL-uy04wtZQHX1_trTbrgtNFsvh07pKgkA6D1YdEsi6BOBemxytMJJ3b_B4-k72m62UXCdbw1aLzouWyTzsg_tVabd1UvyzlRiZ7tz_1i0]--></g></svg>