<?xml version="1.0" encoding="us-ascii" standalone="no"?><svg xmlns="http://www.w3.org/2000/svg" xmlns:xlink="http://www.w3.org/1999/xlink" contentStyleType="text/css" height="1127px" preserveAspectRatio="none" style="width:1272px;height:1127px;background:#FFFFFF;" version="1.1" viewBox="0 0 1272 1127" width="1272px" zoomAndPan="magnify"><defs/><g><!--class PlanController--><g id="elem_PlanController"><rect codeLine="8" fill="#F1F1F1" height="63.2422" id="PlanController" rx="2.5" ry="2.5" style="stroke:#181818;stroke-width:0.5;" width="280" x="539.38" y="7"/><text fill="#000000" font-family="sans-serif" font-size="14" lengthAdjust="spacing" textLength="90" x="634.38" y="27.1074">PlanController</text><line style="stroke:#181818;stroke-width:0.5;" x1="540.38" x2="818.38" y1="35.6211" y2="35.6211"/><line style="stroke:#181818;stroke-width:0.5;" x1="540.38" x2="818.38" y1="43.6211" y2="43.6211"/><text fill="#000000" font-family="sans-serif" font-size="14" lengthAdjust="spacing" textLength="268" x="545.38" y="62.7285">+PriceHistory(): Iterable&lt;PriceHistoryView&gt;</text></g><!--class PlanService--><g id="elem_PlanService"><rect codeLine="14" fill="#F1F1F1" height="63.2422" id="PlanService" rx="2.5" ry="2.5" style="stroke:#181818;stroke-width:0.5;" width="565" x="396.88" y="131"/><text fill="#000000" font-family="sans-serif" font-size="14" lengthAdjust="spacing" textLength="75" x="641.88" y="151.1074">PlanService</text><line style="stroke:#181818;stroke-width:0.5;" x1="397.88" x2="960.88" y1="159.6211" y2="159.6211"/><line style="stroke:#181818;stroke-width:0.5;" x1="397.88" x2="960.88" y1="167.6211" y2="167.6211"/><text fill="#000000" font-family="sans-serif" font-size="14" lengthAdjust="spacing" textLength="553" x="402.88" y="186.7285">+findAllPriceHistory(Long idPlan,Integer page, Integer batchSize): Iterable&lt;PriceHistory&gt;</text></g><!--class PlanServiceImpl--><g id="elem_PlanServiceImpl"><rect codeLine="17" fill="#F1F1F1" height="63.2422" id="PlanServiceImpl" rx="2.5" ry="2.5" style="stroke:#181818;stroke-width:0.5;" width="565" x="224.88" y="255"/><text fill="#000000" font-family="sans-serif" font-size="14" lengthAdjust="spacing" textLength="100" x="457.38" y="275.1074">PlanServiceImpl</text><line style="stroke:#181818;stroke-width:0.5;" x1="225.88" x2="788.88" y1="283.6211" y2="283.6211"/><line style="stroke:#181818;stroke-width:0.5;" x1="225.88" x2="788.88" y1="291.6211" y2="291.6211"/><text fill="#000000" font-family="sans-serif" font-size="14" lengthAdjust="spacing" textLength="553" x="230.88" y="310.7285">+findAllPriceHistory(Long idPlan,Integer page, Integer batchSize): Iterable&lt;PriceHistory&gt;</text></g><!--class PlanRepository--><g id="elem_PlanRepository"><rect codeLine="21" fill="#F1F1F1" height="79.2031" id="PlanRepository" rx="2.5" ry="2.5" style="stroke:#181818;stroke-width:0.5;" width="196" x="632.38" y="488"/><text fill="#000000" font-family="sans-serif" font-size="12" font-style="italic" lengthAdjust="spacing" textLength="61" x="699.88" y="505.9492">&#171;interface&#187;</text><text fill="#000000" font-family="sans-serif" font-size="14" font-style="italic" lengthAdjust="spacing" textLength="96" x="682.38" y="524.0684">PlanRepository</text><line style="stroke:#181818;stroke-width:0.5;" x1="633.38" x2="827.38" y1="532.582" y2="532.582"/><line style="stroke:#181818;stroke-width:0.5;" x1="633.38" x2="827.38" y1="540.582" y2="540.582"/><text fill="#000000" font-family="sans-serif" font-size="14" lengthAdjust="spacing" textLength="184" x="638.38" y="559.6895">+findById(id): Optional&lt;Plan&gt;</text></g><!--class PriceHistoryRepository--><g id="elem_PriceHistoryRepository"><rect codeLine="24" fill="#F1F1F1" height="79.2031" id="PriceHistoryRepository" rx="2.5" ry="2.5" style="stroke:#181818;stroke-width:0.5;" width="340" x="337.38" y="379"/><text fill="#000000" font-family="sans-serif" font-size="12" font-style="italic" lengthAdjust="spacing" textLength="61" x="476.88" y="396.9492">&#171;interface&#187;</text><text fill="#000000" font-family="sans-serif" font-size="14" font-style="italic" lengthAdjust="spacing" textLength="144" x="435.38" y="415.0684">PriceHistoryRepository</text><line style="stroke:#181818;stroke-width:0.5;" x1="338.38" x2="676.38" y1="423.582" y2="423.582"/><line style="stroke:#181818;stroke-width:0.5;" x1="338.38" x2="676.38" y1="431.582" y2="431.582"/><text fill="#000000" font-family="sans-serif" font-size="14" lengthAdjust="spacing" textLength="328" x="343.38" y="450.6895">+searchByPlanType(planType): Page&lt;PriceHistory&gt;</text></g><!--class Plan--><g id="elem_Plan"><rect codeLine="28" fill="#F1F1F1" height="268.0742" id="Plan" rx="2.5" ry="2.5" style="stroke:#181818;stroke-width:0.5;" width="1196" x="69.38" y="852"/><text fill="#000000" font-family="sans-serif" font-size="14" lengthAdjust="spacing" textLength="28" x="653.38" y="872.1074">Plan</text><line style="stroke:#181818;stroke-width:0.5;" x1="70.38" x2="1264.38" y1="880.6211" y2="880.6211"/><text fill="#000000" font-family="sans-serif" font-size="14" lengthAdjust="spacing" textLength="42" x="75.38" y="899.7285">-nMins</text><text fill="#000000" font-family="sans-serif" font-size="14" lengthAdjust="spacing" textLength="80" x="75.38" y="918.3496">-maxDevices</text><text fill="#000000" font-family="sans-serif" font-size="14" lengthAdjust="spacing" textLength="110" x="75.38" y="936.9707">-musicCollections</text><text fill="#000000" font-family="sans-serif" font-size="14" lengthAdjust="spacing" textLength="119" x="75.38" y="955.5918">-musicSuggestions</text><text fill="#000000" font-family="sans-serif" font-size="14" lengthAdjust="spacing" textLength="79" x="75.38" y="974.2129">-monthlyFee</text><text fill="#000000" font-family="sans-serif" font-size="14" lengthAdjust="spacing" textLength="73" x="75.38" y="992.834">-annualFee</text><text fill="#000000" font-family="sans-serif" font-size="14" lengthAdjust="spacing" textLength="65" x="75.38" y="1011.4551">-planState</text><text fill="#000000" font-family="sans-serif" font-size="14" lengthAdjust="spacing" textLength="64" x="75.38" y="1030.0762">-planType</text><text fill="#000000" font-family="sans-serif" font-size="14" lengthAdjust="spacing" textLength="85" x="75.38" y="1048.6973">-planPromote</text><text fill="#000000" font-family="sans-serif" font-size="14" lengthAdjust="spacing" textLength="111" x="75.38" y="1067.3184">-HTMLdescription</text><line style="stroke:#181818;stroke-width:0.5;" x1="70.38" x2="1264.38" y1="1074.832" y2="1074.832"/><text fill="#000000" font-family="sans-serif" font-size="14" lengthAdjust="spacing" textLength="1184" x="75.38" y="1093.9395">Plan(final String planType, final Integer numMinutes, final Integer maxDevices, final Integer musicCollections,final String musicSuggestions, final Integer monthlyFee, final Integer annualFee,</text><text fill="#000000" font-family="sans-serif" font-size="14" lengthAdjust="spacing" textLength="173" x="75.38" y="1112.5605">final String htmlDescription)</text></g><!--class PriceHistory--><g id="elem_PriceHistory"><rect codeLine="42" fill="#F1F1F1" height="193.5898" id="PriceHistory" rx="2.5" ry="2.5" style="stroke:#181818;stroke-width:0.5;" width="545" x="137.88" y="597"/><text fill="#000000" font-family="sans-serif" font-size="14" lengthAdjust="spacing" textLength="75" x="372.88" y="617.1074">PriceHistory</text><line style="stroke:#181818;stroke-width:0.5;" x1="138.88" x2="681.88" y1="625.6211" y2="625.6211"/><text fill="#000000" font-family="sans-serif" font-size="14" lengthAdjust="spacing" textLength="138" x="143.88" y="644.7285">-oldPrice_monthlyFee</text><text fill="#000000" font-family="sans-serif" font-size="14" lengthAdjust="spacing" textLength="144" x="143.88" y="663.3496">-newPrice_monthlyFee</text><text fill="#000000" font-family="sans-serif" font-size="14" lengthAdjust="spacing" textLength="132" x="143.88" y="681.9707">-oldPrice_annualFee</text><text fill="#000000" font-family="sans-serif" font-size="14" lengthAdjust="spacing" textLength="138" x="143.88" y="700.5918">-newPrice_annualFee</text><text fill="#000000" font-family="sans-serif" font-size="14" lengthAdjust="spacing" textLength="82" x="143.88" y="719.2129">-changeDate</text><line style="stroke:#181818;stroke-width:0.5;" x1="138.88" x2="681.88" y1="726.7266" y2="726.7266"/><text fill="#000000" font-family="sans-serif" font-size="14" lengthAdjust="spacing" textLength="391" x="143.88" y="745.834">PriceHistory(final Plan plan, final double oldPrice_monthlyFee,</text><text fill="#000000" font-family="sans-serif" font-size="14" lengthAdjust="spacing" textLength="297" x="143.88" y="764.4551">final double newPrice_monthlyFee, final double</text><text fill="#000000" font-family="sans-serif" font-size="14" lengthAdjust="spacing" textLength="533" x="143.88" y="783.0762">oldPrice_annualFee, final double newPrice_annualFee, final LocalDate changeDate)</text></g><!--link PlanRepository to Plan--><g id="link_PlanRepository_Plan"><path codeLine="53" d="M726.62,567.28 C721.49,618.58 711.64,711.75 700.38,791 C697.82,809.01 694.9,827.92 691.88,846.58 " fill="none" id="PlanRepository-to-Plan" style="stroke:#181818;stroke-width:1.0;"/><polygon fill="#181818" points="691.02,851.83,696.4103,843.5872,691.8211,846.8946,688.5137,842.3054,691.02,851.83" style="stroke:#181818;stroke-width:1.0;"/><text fill="#000000" font-family="sans-serif" font-size="13" lengthAdjust="spacing" textLength="43" x="724.38" y="699.5283">records</text><text fill="#000000" font-family="sans-serif" font-size="13" lengthAdjust="spacing" textLength="7" x="718.4176" y="589.312">1</text><text fill="#000000" font-family="sans-serif" font-size="13" lengthAdjust="spacing" textLength="20" x="671.8086" y="840.6165">0..*</text></g><!--link PriceHistoryRepository to PriceHistory--><g id="link_PriceHistoryRepository_PriceHistory"><path codeLine="54" d="M493.69,458.11 C481.37,492.84 462.72,545.43 446.18,592.05 " fill="none" id="PriceHistoryRepository-to-PriceHistory" style="stroke:#181818;stroke-width:1.0;"/><polygon fill="#181818" points="444.49,596.83,451.2675,589.684,446.1608,592.1174,443.7274,587.0107,444.49,596.83" style="stroke:#181818;stroke-width:1.0;"/><text fill="#000000" font-family="sans-serif" font-size="13" lengthAdjust="spacing" textLength="43" x="482.38" y="533.0283">records</text><text fill="#000000" font-family="sans-serif" font-size="13" lengthAdjust="spacing" textLength="7" x="483.8429" y="480.1138">1</text><text fill="#000000" font-family="sans-serif" font-size="13" lengthAdjust="spacing" textLength="20" x="426.3359" y="585.7948">0..*</text></g><!--link PlanController to PlanService--><g id="link_PlanController_PlanService"><path codeLine="55" d="M679.38,70.29 C679.38,87.05 679.38,107.88 679.38,125.4 " fill="none" id="PlanController-to-PlanService" style="stroke:#181818;stroke-width:1.0;stroke-dasharray:7.0,7.0;"/><polygon fill="#181818" points="679.38,130.72,683.38,121.72,679.38,125.72,675.38,121.72,679.38,130.72" style="stroke:#181818;stroke-width:1.0;"/></g><!--link PlanServiceImpl to PlanRepository--><g id="link_PlanServiceImpl_PlanRepository"><path codeLine="56" d="M609.23,318.15 C640.56,332.14 672.51,351.83 694.38,379 C717.99,408.34 726.46,450.86 729.33,482.72 " fill="none" id="PlanServiceImpl-to-PlanRepository" style="stroke:#181818;stroke-width:1.0;stroke-dasharray:7.0,7.0;"/><polygon fill="#181818" points="729.75,487.74,733.0174,478.4489,729.3501,482.756,725.0431,479.0887,729.75,487.74" style="stroke:#181818;stroke-width:1.0;"/></g><!--link PlanServiceImpl to PriceHistoryRepository--><g id="link_PlanServiceImpl_PriceHistoryRepository"><path codeLine="57" d="M507.38,318.31 C507.38,334.92 507.38,355.69 507.38,373.93 " fill="none" id="PlanServiceImpl-to-PriceHistoryRepository" style="stroke:#181818;stroke-width:1.0;stroke-dasharray:7.0,7.0;"/><polygon fill="#181818" points="507.38,379,511.38,370,507.38,374,503.38,370,507.38,379" style="stroke:#181818;stroke-width:1.0;"/></g><!--link PriceHistory to Plan--><g id="link_PriceHistory_Plan"><path codeLine="59" d="M495.6,791.16 C511.76,809.4 528.96,828.81 545.99,848.03 " fill="none" id="PriceHistory-to-Plan" style="stroke:#181818;stroke-width:1.0;"/><polygon fill="#181818" points="549.4,851.87,546.4282,842.4802,546.0853,848.1267,540.4388,847.7838,549.4,851.87" style="stroke:#181818;stroke-width:1.0;"/><text fill="#000000" font-family="sans-serif" font-size="13" lengthAdjust="spacing" textLength="7" x="494.3459" y="812.6422">1</text><text fill="#000000" font-family="sans-serif" font-size="13" lengthAdjust="spacing" textLength="7" x="535.3769" y="840.6588">1</text></g><!--link PlanServiceImpl to PriceHistory--><g id="link_PlanServiceImpl_PriceHistory"><path codeLine="60" d="M394.6,318.09 C365.08,331.77 336.7,351.3 319.38,379 C278.82,443.85 306.18,527.44 341.19,592.07 " fill="none" id="PlanServiceImpl-to-PriceHistory" style="stroke:#181818;stroke-width:1.0;stroke-dasharray:7.0,7.0;"/><polygon fill="#181818" points="343.73,596.69,342.9185,586.8746,341.3297,592.3038,335.9006,590.7151,343.73,596.69" style="stroke:#181818;stroke-width:1.0;"/></g><!--link PlanServiceImpl to Plan--><g id="link_PlanServiceImpl_Plan"><path codeLine="61" d="M395.93,318.03 C359.47,332.11 320.81,351.89 291.38,379 C145.56,513.32 6,629.07 120.38,791 C135.5,812.41 153.2,831.47 172.8,848.44 " fill="none" id="PlanServiceImpl-to-Plan" style="stroke:#181818;stroke-width:1.0;stroke-dasharray:7.0,7.0;"/><polygon fill="#181818" points="176.74,851.81,172.4741,842.9329,172.9307,848.5713,167.2923,849.0279,176.74,851.81" style="stroke:#181818;stroke-width:1.0;"/></g><!--link PlanService to Plan--><g id="link_PlanService_Plan"><path codeLine="62" d="M775.69,194.09 C814.99,213.13 851.38,242.39 851.38,285.5 C851.38,285.5 851.38,285.5 851.38,695 C851.38,749.59 827.85,802.22 797.62,847.31 " fill="none" id="PlanService-to-Plan" style="stroke:#181818;stroke-width:1.0;stroke-dasharray:7.0,7.0;"/><polygon fill="#181818" points="794.67,851.65,803.036,846.453,797.4796,847.514,796.4185,841.9576,794.67,851.65" style="stroke:#181818;stroke-width:1.0;"/></g><!--reverse link PlanService to PlanServiceImpl--><g id="link_PlanService_PlanServiceImpl"><path codeLine="63" d="M619.61,205.9 C596.85,222.04 571.38,240.1 550.47,254.94 " fill="none" id="PlanService-backto-PlanServiceImpl" style="stroke:#181818;stroke-width:1.0;stroke-dasharray:7.0,7.0;"/><polygon fill="none" points="615.61,200.15,635.98,194.29,623.71,211.57,615.61,200.15" style="stroke:#181818;stroke-width:1.0;"/></g><!--SRC=[jLJBRjim4BppAmXVQhUod5mDmq0IeuW11pMg8AS21Krj9A8KAP1KK_VnxoMbIg8eEJbL9t4VipExIxxBZIdrUhKgEH6cAdXCPR6Yd6YzJ1d952aGobaAc395EI3zZOcIM3EkWswCKUnK6TXJAHBs4_0Lib_jmqUBUIU5KP9pKFWNmX-EYb6uPzf8TPulrdXlG94JXutlU6BmiaL_Xa09gEysf4PvPYAzuNm0Tf0YmonreT5U6CXinP9a4E7sT2A6vexZfRgkvgZWlYZvVww9c8rMpyIgSr2VePIQEIVUR3hNTjj9lptlqpbBBUIdqZ0f2D-uF0Vb8Nb5NaNKG1JDRyyEul5SmhpyzsFnZrRCc6xV8mTWlwLuO48tlmNviGFNkFPSQKRlt0PGnzMt9bMMWVQjTbboVlu8q9o941NXtT4HImmntj7nx4z79GlPkkyV7mufQAfOtQJQw3ZFRGi9nubTN3kz5YJ2ZRaTdAWAgyakjWuzlS2H9v0Q3Ig5aaVPdVZGqxKXgaLCVODAkIduhbU-wDVQcsGxEidJslmrRBw0bsb7bn6Cfqi8x3Gd8eETczlWzZISwpLoKsXLfxAobmHFy8hm5p68cQ0uH45Zha6PCUasu20fuOurxWKiwbSfkAIpwnbUBhTuTXN7xsUre3N62gXKgKONxc6Ov4NvoSCND8wt_jE4WcUgy_TrfaCcAQ41rPxWTIFfJQIBR7p7fB69hihuzr3UNm00]--></g></svg>