<?xml version="1.0" encoding="us-ascii" standalone="no"?><svg xmlns="http://www.w3.org/2000/svg" xmlns:xlink="http://www.w3.org/1999/xlink" contentStyleType="text/css" height="709px" preserveAspectRatio="none" style="width:1133px;height:709px;background:#FFFFFF;" version="1.1" viewBox="0 0 1133 709" width="1133px" zoomAndPan="magnify"><defs/><g><!--class DeviceView--><g id="elem_DeviceView"><rect codeLine="6" fill="#F1F1F1" height="44.6211" id="DeviceView" rx="2.5" ry="2.5" style="stroke:#181818;stroke-width:0.5;" width="78" x="719.5" y="7"/><text fill="#000000" font-family="sans-serif" font-size="14" lengthAdjust="spacing" textLength="72" x="722.5" y="27.1074">DeviceView</text><line style="stroke:#181818;stroke-width:0.5;" x1="720.5" x2="796.5" y1="35.6211" y2="35.6211"/><line style="stroke:#181818;stroke-width:0.5;" x1="720.5" x2="796.5" y1="43.6211" y2="43.6211"/></g><!--class DeviceController--><g id="elem_DeviceController"><rect codeLine="9" fill="#F1F1F1" height="100.4844" id="DeviceController" rx="2.5" ry="2.5" style="stroke:#181818;stroke-width:0.5;" width="445" x="398" y="113"/><text fill="#000000" font-family="sans-serif" font-size="14" lengthAdjust="spacing" textLength="105" x="568" y="133.1074">DeviceController</text><line style="stroke:#181818;stroke-width:0.5;" x1="399" x2="842" y1="141.6211" y2="141.6211"/><line style="stroke:#181818;stroke-width:0.5;" x1="399" x2="842" y1="149.6211" y2="149.6211"/><text fill="#000000" font-family="sans-serif" font-size="14" lengthAdjust="spacing" textLength="142" x="404" y="168.7285">+getAll(): List&lt;Device&gt;</text><text fill="#000000" font-family="sans-serif" font-size="14" lengthAdjust="spacing" textLength="257" x="404" y="187.3496">+getSubDevices(int idSub): List&lt;Device&gt;</text><text fill="#000000" font-family="sans-serif" font-size="14" lengthAdjust="spacing" textLength="433" x="404" y="205.9707">+removeDevice(int id, int idSub, string name, string description): void</text></g><!--class ACME--><g id="elem_ACME"><rect codeLine="15" fill="#F1F1F1" height="81.8633" id="ACME" rx="2.5" ry="2.5" style="stroke:#181818;stroke-width:0.5;" width="315" x="7" y="292.5"/><text fill="#000000" font-family="sans-serif" font-size="14" lengthAdjust="spacing" textLength="39" x="145" y="312.6074">ACME</text><line style="stroke:#181818;stroke-width:0.5;" x1="8" x2="321" y1="321.1211" y2="321.1211"/><line style="stroke:#181818;stroke-width:0.5;" x1="8" x2="321" y1="329.1211" y2="329.1211"/><text fill="#000000" font-family="sans-serif" font-size="14" lengthAdjust="spacing" textLength="233" x="13" y="348.2285">+getDevicesService(): DeviceService</text><text fill="#000000" font-family="sans-serif" font-size="14" lengthAdjust="spacing" textLength="303" x="13" y="366.8496">+getSubscriptionsService(): SubscriptionService</text></g><!--class DeviceService--><g id="elem_DeviceService"><rect codeLine="20" fill="#F1F1F1" height="119.1055" id="DeviceService" rx="2.5" ry="2.5" style="stroke:#181818;stroke-width:0.5;" width="445" x="398" y="274"/><text fill="#000000" font-family="sans-serif" font-size="14" lengthAdjust="spacing" textLength="90" x="575.5" y="294.1074">DeviceService</text><line style="stroke:#181818;stroke-width:0.5;" x1="399" x2="842" y1="302.6211" y2="302.6211"/><line style="stroke:#181818;stroke-width:0.5;" x1="399" x2="842" y1="310.6211" y2="310.6211"/><text fill="#000000" font-family="sans-serif" font-size="14" lengthAdjust="spacing" textLength="287" x="404" y="329.7285">+DeviceService(DeviceRepository devsRepo)</text><text fill="#000000" font-family="sans-serif" font-size="14" lengthAdjust="spacing" textLength="142" x="404" y="348.3496">+getAll(): List&lt;Device&gt;</text><text fill="#000000" font-family="sans-serif" font-size="14" lengthAdjust="spacing" textLength="257" x="404" y="366.9707">+getSubDevices(int idSub): List&lt;Device&gt;</text><text fill="#000000" font-family="sans-serif" font-size="14" lengthAdjust="spacing" textLength="433" x="404" y="385.5918">+removeDevice(int id, int idSub, string name, string description): void</text></g><!--class DeviceRepository--><g id="elem_DeviceRepository"><rect codeLine="27" fill="#F1F1F1" height="97.8242" id="DeviceRepository" rx="2.5" ry="2.5" style="stroke:#181818;stroke-width:0.5;" width="160" x="427.5" y="538.5"/><text fill="#000000" font-family="sans-serif" font-size="12" font-style="italic" lengthAdjust="spacing" textLength="61" x="477" y="556.4492">&#171;interface&#187;</text><text fill="#000000" font-family="sans-serif" font-size="14" font-style="italic" lengthAdjust="spacing" textLength="110" x="452.5" y="574.5684">DeviceRepository</text><line style="stroke:#181818;stroke-width:0.5;" x1="428.5" x2="586.5" y1="583.082" y2="583.082"/><line style="stroke:#181818;stroke-width:0.5;" x1="428.5" x2="586.5" y1="591.082" y2="591.082"/><text fill="#000000" font-family="sans-serif" font-size="14" lengthAdjust="spacing" textLength="142" x="433.5" y="610.1895">+getAll(): List&lt;Device&gt;</text><text fill="#000000" font-family="sans-serif" font-size="14" lengthAdjust="spacing" textLength="148" x="433.5" y="628.8105">+getByID(int id): Device</text></g><!--class RepositoryFactory--><g id="elem_RepositoryFactory"><rect codeLine="32" fill="#F1F1F1" height="79.2031" id="RepositoryFactory" rx="2.5" ry="2.5" style="stroke:#181818;stroke-width:0.5;" width="287" x="84" y="548"/><text fill="#000000" font-family="sans-serif" font-size="12" font-style="italic" lengthAdjust="spacing" textLength="61" x="197" y="565.9492">&#171;interface&#187;</text><text fill="#000000" font-family="sans-serif" font-size="14" font-style="italic" lengthAdjust="spacing" textLength="116" x="169.5" y="584.0684">RepositoryFactory</text><line style="stroke:#181818;stroke-width:0.5;" x1="85" x2="370" y1="592.582" y2="592.582"/><line style="stroke:#181818;stroke-width:0.5;" x1="85" x2="370" y1="600.582" y2="600.582"/><text fill="#000000" font-family="sans-serif" font-size="14" lengthAdjust="spacing" textLength="275" x="90" y="619.6895">+getDevicesRepository(): DeviceRepository</text></g><!--class Device--><g id="elem_Device"><rect codeLine="36" fill="#F1F1F1" height="230.832" id="Device" rx="2.5" ry="2.5" style="stroke:#181818;stroke-width:0.5;" width="459" x="667" y="472"/><text fill="#000000" font-family="sans-serif" font-size="14" lengthAdjust="spacing" textLength="43" x="875" y="492.1074">Device</text><line style="stroke:#181818;stroke-width:0.5;" x1="668" x2="1125" y1="500.6211" y2="500.6211"/><text fill="#000000" font-family="sans-serif" font-size="14" lengthAdjust="spacing" textLength="16" x="673" y="519.7285">-id</text><text fill="#000000" font-family="sans-serif" font-size="14" lengthAdjust="spacing" textLength="41" x="673" y="538.3496">-idSub</text><text fill="#000000" font-family="sans-serif" font-size="14" lengthAdjust="spacing" textLength="40" x="673" y="556.9707">-name</text><text fill="#000000" font-family="sans-serif" font-size="14" lengthAdjust="spacing" textLength="74" x="673" y="575.5918">-description</text><line style="stroke:#181818;stroke-width:0.5;" x1="668" x2="1125" y1="583.1055" y2="583.1055"/><text fill="#000000" font-family="sans-serif" font-size="14" lengthAdjust="spacing" textLength="344" x="673" y="602.2129">Device(int id, int idSub, string name, string description)</text><text fill="#000000" font-family="sans-serif" font-size="14" lengthAdjust="spacing" textLength="74" x="673" y="620.834">+getID(): int</text><text fill="#000000" font-family="sans-serif" font-size="14" lengthAdjust="spacing" textLength="99" x="673" y="639.4551">+getIDSub(): int</text><text fill="#000000" font-family="sans-serif" font-size="14" lengthAdjust="spacing" textLength="117" x="673" y="658.0762">+getName(): string</text><text fill="#000000" font-family="sans-serif" font-size="14" lengthAdjust="spacing" textLength="152" x="673" y="676.6973">+getDescription(): string</text><text fill="#000000" font-family="sans-serif" font-size="14" lengthAdjust="spacing" textLength="447" x="673" y="695.3184">+removeDevice(int id, int idSub, string name, string description): Result</text></g><!--link ACME to RepositoryFactory--><g id="link_ACME_RepositoryFactory"><path codeLine="50" d="M174.55,374.71 C186.02,420.56 204.7,495.28 216.53,542.61 " fill="none" id="ACME-to-RepositoryFactory" style="stroke:#181818;stroke-width:1.0;"/><polygon fill="#181818" points="217.79,547.68,219.4877,537.9786,216.5773,542.8293,211.7266,539.9189,217.79,547.68" style="stroke:#181818;stroke-width:1.0;"/><text fill="#000000" font-family="sans-serif" font-size="13" lengthAdjust="spacing" textLength="28" x="191.5" y="438.0283">uses</text><text fill="#000000" font-family="sans-serif" font-size="13" lengthAdjust="spacing" textLength="7" x="168.553" y="396.3829">1</text><text fill="#000000" font-family="sans-serif" font-size="13" lengthAdjust="spacing" textLength="7" x="208.6021" y="536.7126">1</text></g><!--link DeviceRepository to Device--><g id="link_DeviceRepository_Device"><path codeLine="51" d="M587.63,587.5 C609.84,587.5 635.13,587.5 661.46,587.5 " fill="none" id="DeviceRepository-to-Device" style="stroke:#181818;stroke-width:1.0;"/><polygon fill="#181818" points="666.73,587.5,657.73,583.5,661.73,587.5,657.73,591.5,666.73,587.5" style="stroke:#181818;stroke-width:1.0;"/><text fill="#000000" font-family="sans-serif" font-size="13" lengthAdjust="spacing" textLength="43" x="605.75" y="580.5283">records</text><text fill="#000000" font-family="sans-serif" font-size="13" lengthAdjust="spacing" textLength="7" x="595.601" y="583.7404">1</text><text fill="#000000" font-family="sans-serif" font-size="13" lengthAdjust="spacing" textLength="20" x="638.8625" y="601.8148">0..*</text></g><!--link DeviceView to DeviceController--><g id="link_DeviceView_DeviceController"><path codeLine="54" d="M735.71,52.21 C719.36,67.8 696.59,89.49 675.61,109.48 " fill="none" id="DeviceView-to-DeviceController" style="stroke:#181818;stroke-width:1.0;stroke-dasharray:7.0,7.0;"/><polygon fill="#181818" points="671.99,112.93,681.2587,109.5996,675.6032,109.4739,675.7289,103.8184,671.99,112.93" style="stroke:#181818;stroke-width:1.0;"/></g><!--link DeviceView to Device--><g id="link_DeviceView_Device"><path codeLine="55" d="M797.53,51.24 C820.05,65.44 846.58,86.48 860.5,113 C918.05,222.66 920.46,366.65 912.62,466.94 " fill="none" id="DeviceView-to-Device" style="stroke:#181818;stroke-width:1.0;stroke-dasharray:7.0,7.0;"/><polygon fill="#181818" points="912.21,471.98,916.9169,463.3287,912.6099,466.996,908.9426,462.6889,912.21,471.98" style="stroke:#181818;stroke-width:1.0;"/></g><!--link DeviceController to ACME--><g id="link_DeviceController_ACME"><path codeLine="56" d="M487.69,213.08 C421.19,237.65 341.53,267.08 277.94,290.58 " fill="none" id="DeviceController-to-ACME" style="stroke:#181818;stroke-width:1.0;stroke-dasharray:7.0,7.0;"/><polygon fill="#181818" points="273,292.41,282.8292,293.0313,277.6881,290.6716,280.0478,285.5304,273,292.41" style="stroke:#181818;stroke-width:1.0;"/></g><!--link DeviceController to DeviceService--><g id="link_DeviceController_DeviceService"><path codeLine="57" d="M620.5,213.19 C620.5,230.5 620.5,250.22 620.5,268.57 " fill="none" id="DeviceController-to-DeviceService" style="stroke:#181818;stroke-width:1.0;stroke-dasharray:7.0,7.0;"/><polygon fill="#181818" points="620.5,273.71,624.5,264.71,620.5,268.71,616.5,264.71,620.5,273.71" style="stroke:#181818;stroke-width:1.0;"/></g><!--link DeviceService to DeviceRepository--><g id="link_DeviceService_DeviceRepository"><path codeLine="58" d="M594.15,393.26 C575.16,435.61 549.75,492.29 531.36,533.3 " fill="none" id="DeviceService-to-DeviceRepository" style="stroke:#181818;stroke-width:1.0;stroke-dasharray:7.0,7.0;"/><polygon fill="#181818" points="529.15,538.22,536.4815,531.6436,531.1953,533.6575,529.1815,528.3712,529.15,538.22" style="stroke:#181818;stroke-width:1.0;"/></g><!--link ACME to DeviceService--><g id="link_ACME_DeviceService"><path codeLine="60" d="M322.07,333.5 C344.9,333.5 368.78,333.5 392.65,333.5 " fill="none" id="ACME-to-DeviceService" style="stroke:#181818;stroke-width:1.0;"/><polygon fill="#181818" points="397.75,333.5,388.75,329.5,392.75,333.5,388.75,337.5,397.75,333.5" style="stroke:#181818;stroke-width:1.0;"/><text fill="#000000" font-family="sans-serif" font-size="13" lengthAdjust="spacing" textLength="39" x="340.5" y="326.5283">adopts</text></g><!--link RepositoryFactory to DeviceRepository--><g id="link_RepositoryFactory_DeviceRepository"><path codeLine="61" d="M371.05,587.5 C388.04,587.5 405.03,587.5 422.01,587.5 " fill="none" id="RepositoryFactory-to-DeviceRepository" style="stroke:#181818;stroke-width:1.0;stroke-dasharray:7.0,7.0;"/><polygon fill="#181818" points="427.29,587.5,418.29,583.5,422.29,587.5,418.29,591.5,427.29,587.5" style="stroke:#181818;stroke-width:1.0;"/></g><!--SRC=[pLJBJiCm4BpxAwnUA8-cSAsgI8M2L0auK8cxwoojXMD7jbC4Y7zd4vl4IIg4u48kiMTtrhFZnz7EkSBEfjD2CkNAN2PSvrCkcRMJJB2jOJaXEv41vS9m2SG-2rKmX6cTj73EY4tfOCMrMeiteEU4r16wXBtWy2ZWXRwJZovwfPKpMaem6AFudMx1BQGS7y_ehR1kxjFI9hOkDnwoOw4S5Ha21tCDv7eF7WgfPxIXd56BUjMMAfP3Cyd0SYCA9xJ2cdijibRlukhkEj8OHAp1r0jWkaS24EjjQiRPCVx5wNaJuAz5E-3OpnwWq5OuRLvH-zvMq-F_QYEIm3mnR6YWVJvlWcdwmuDm-RfQ1a6D-TrbsWLk6FzsdM15IsZtiyNwsnFu4-mk_D4GFwpSyAF8YXhulP6DM6mRrI4pGh127xp7GXNcIqMjDYNxqRzlzGFOKZfIELLVbz7522tGBsgIrkF1ZimeBIrOCZWHDTE8xSvLrFCaEHa5xv1YW6kJMK98zBGaIJfuKmx7oU3fgMALuCEHxiNktiqs7XqKt_oanvnHbkd2MJ8ybqdTwQ5Idm00]--></g></svg>