<?xml version="1.0" encoding="us-ascii" standalone="no"?><svg xmlns="http://www.w3.org/2000/svg" xmlns:xlink="http://www.w3.org/1999/xlink" contentStyleType="text/css" height="1229px" preserveAspectRatio="none" style="width:1537px;height:1229px;background:#FFFFFF;" version="1.1" viewBox="0 0 1537 1229" width="1537px" zoomAndPan="magnify"><defs/><g><rect fill="#FFFFFF" height="1043.9336" style="stroke:#181818;stroke-width:1.0;" width="10" x="22.5" y="93.6211"/><rect fill="#FFFFFF" height="405.1133" style="stroke:#181818;stroke-width:1.0;" width="10" x="358.5" y="116.9121"/><rect fill="#FFFFFF" height="262.3281" style="stroke:#181818;stroke-width:1.0;" width="10" x="358.5" y="553.3164"/><rect fill="#FFFFFF" height="42.291" style="stroke:#181818;stroke-width:1.0;" width="10" x="363.5" y="592.6074"/><rect fill="#FFFFFF" height="281.6191" style="stroke:#181818;stroke-width:1.0;" width="10" x="358.5" y="846.9355"/><rect fill="#FFFFFF" height="325.2402" style="stroke:#181818;stroke-width:1.0;" width="10" x="518.5" y="148.2031"/><rect fill="#FFFFFF" height="219.0371" style="stroke:#181818;stroke-width:1.0;" width="10" x="518.5" y="878.2266"/><rect fill="#FFFFFF" height="137.4941" style="stroke:#181818;stroke-width:1.0;" width="10" x="671.5" y="179.4941"/><rect fill="#FFFFFF" height="93.873" style="stroke:#181818;stroke-width:1.0;" width="10" x="857" y="348.2793"/><rect fill="#FFFFFF" height="156.4551" style="stroke:#181818;stroke-width:1.0;" width="10" x="857" y="909.5176"/><rect fill="#FFFFFF" height="31.291" style="stroke:#181818;stroke-width:1.0;" width="10" x="1032" y="210.7852"/><rect fill="#FFFFFF" height="31.291" style="stroke:#181818;stroke-width:1.0;" width="10" x="1209.5" y="379.5703"/><rect fill="#FFFFFF" height="31.291" style="stroke:#181818;stroke-width:1.0;" width="10" x="1209.5" y="940.8086"/><rect fill="#FFFFFF" height="31.291" style="stroke:#181818;stroke-width:1.0;" width="10" x="1209.5" y="1003.3906"/><rect fill="#FFFFFF" height="31.291" style="stroke:#181818;stroke-width:1.0;" width="10" x="1475.5" y="673.1895"/><rect fill="#FFFFFF" height="31.291" style="stroke:#181818;stroke-width:1.0;" width="10" x="1475.5" y="735.7715"/><line style="stroke:#181818;stroke-width:0.5;stroke-dasharray:5.0,5.0;" x1="27" x2="27" y1="83.6211" y2="1146.5547"/><line style="stroke:#181818;stroke-width:0.5;stroke-dasharray:5.0,5.0;" x1="363" x2="363" y1="83.6211" y2="1146.5547"/><line style="stroke:#181818;stroke-width:0.5;stroke-dasharray:5.0,5.0;" x1="523.5" x2="523.5" y1="83.6211" y2="1146.5547"/><line style="stroke:#181818;stroke-width:0.5;stroke-dasharray:5.0,5.0;" x1="676" x2="676" y1="83.6211" y2="1146.5547"/><line style="stroke:#181818;stroke-width:0.5;stroke-dasharray:5.0,5.0;" x1="861.5" x2="861.5" y1="281.8867" y2="1146.5547"/><line style="stroke:#181818;stroke-width:0.5;stroke-dasharray:5.0,5.0;" x1="1036.5" x2="1036.5" y1="83.6211" y2="1146.5547"/><line style="stroke:#181818;stroke-width:0.5;stroke-dasharray:5.0,5.0;" x1="1214.5" x2="1214.5" y1="83.6211" y2="1146.5547"/><line style="stroke:#181818;stroke-width:0.5;stroke-dasharray:5.0,5.0;" x1="1361.5" x2="1361.5" y1="83.6211" y2="1146.5547"/><line style="stroke:#181818;stroke-width:0.5;stroke-dasharray:5.0,5.0;" x1="1480.5" x2="1480.5" y1="83.6211" y2="1146.5547"/><text fill="#000000" font-family="sans-serif" font-size="14" lengthAdjust="spacing" textLength="39" x="5" y="80.1074">Admin</text><ellipse cx="27.5" cy="13.5" fill="#E2E2F0" rx="8" ry="8" style="stroke:#181818;stroke-width:0.5;"/><path d="M27.5,21.5 L27.5,48.5 M14.5,29.5 L40.5,29.5 M27.5,48.5 L14.5,63.5 M27.5,48.5 L40.5,63.5 " fill="none" style="stroke:#181818;stroke-width:0.5;"/><text fill="#000000" font-family="sans-serif" font-size="14" lengthAdjust="spacing" textLength="39" x="5" y="1160.6621">Admin</text><ellipse cx="27.5" cy="1172.6758" fill="#E2E2F0" rx="8" ry="8" style="stroke:#181818;stroke-width:0.5;"/><path d="M27.5,1180.6758 L27.5,1207.6758 M14.5,1188.6758 L40.5,1188.6758 M27.5,1207.6758 L14.5,1222.6758 M27.5,1207.6758 L40.5,1222.6758 " fill="none" style="stroke:#181818;stroke-width:0.5;"/><rect fill="#E2E2F0" height="32.6211" rx="2.5" ry="2.5" style="stroke:#181818;stroke-width:0.5;" width="131" x="298" y="50"/><text fill="#000000" font-family="sans-serif" font-size="14" lengthAdjust="spacing" textLength="117" x="305" y="72.1074">:DeleteDeviceView</text><rect fill="#E2E2F0" height="32.6211" rx="2.5" ry="2.5" style="stroke:#181818;stroke-width:0.5;" width="131" x="298" y="1145.5547"/><text fill="#000000" font-family="sans-serif" font-size="14" lengthAdjust="spacing" textLength="117" x="305" y="1167.6621">:DeleteDeviceView</text><rect fill="#E2E2F0" height="32.6211" rx="2.5" ry="2.5" style="stroke:#181818;stroke-width:0.5;" width="164" x="441.5" y="50"/><text fill="#000000" font-family="sans-serif" font-size="14" lengthAdjust="spacing" textLength="150" x="448.5" y="72.1074">:DeleteDeviceController</text><rect fill="#E2E2F0" height="32.6211" rx="2.5" ry="2.5" style="stroke:#181818;stroke-width:0.5;" width="164" x="441.5" y="1145.5547"/><text fill="#000000" font-family="sans-serif" font-size="14" lengthAdjust="spacing" textLength="150" x="448.5" y="1167.6621">:DeleteDeviceController</text><rect fill="#E2E2F0" height="32.6211" rx="2.5" ry="2.5" style="stroke:#181818;stroke-width:0.5;" width="57" x="648" y="50"/><text fill="#000000" font-family="sans-serif" font-size="14" lengthAdjust="spacing" textLength="43" x="655" y="72.1074">:ACME</text><rect fill="#E2E2F0" height="32.6211" rx="2.5" ry="2.5" style="stroke:#181818;stroke-width:0.5;" width="57" x="648" y="1145.5547"/><text fill="#000000" font-family="sans-serif" font-size="14" lengthAdjust="spacing" textLength="43" x="655" y="1167.6621">:ACME</text><rect fill="#E2E2F0" height="32.6211" rx="2.5" ry="2.5" style="stroke:#181818;stroke-width:0.5;" width="153" x="785.5" y="1145.5547"/><text fill="#000000" font-family="sans-serif" font-size="14" lengthAdjust="spacing" textLength="139" x="792.5" y="1167.6621">service:DeviceService</text><rect fill="#E2E2F0" height="32.6211" rx="2.5" ry="2.5" style="stroke:#181818;stroke-width:0.5;" width="177" x="948.5" y="50"/><text fill="#000000" font-family="sans-serif" font-size="14" lengthAdjust="spacing" textLength="163" x="955.5" y="72.1074">factory:RepositoryFactory</text><rect fill="#E2E2F0" height="32.6211" rx="2.5" ry="2.5" style="stroke:#181818;stroke-width:0.5;" width="177" x="948.5" y="1145.5547"/><text fill="#000000" font-family="sans-serif" font-size="14" lengthAdjust="spacing" textLength="163" x="955.5" y="1167.6621">factory:RepositoryFactory</text><rect fill="#E2E2F0" height="32.6211" rx="2.5" ry="2.5" style="stroke:#181818;stroke-width:0.5;" width="158" x="1135.5" y="50"/><text fill="#000000" font-family="sans-serif" font-size="14" lengthAdjust="spacing" textLength="144" x="1142.5" y="72.1074">repo:DeviceRepository</text><rect fill="#E2E2F0" height="32.6211" rx="2.5" ry="2.5" style="stroke:#181818;stroke-width:0.5;" width="158" x="1135.5" y="1145.5547"/><text fill="#000000" font-family="sans-serif" font-size="14" lengthAdjust="spacing" textLength="144" x="1142.5" y="1167.6621">repo:DeviceRepository</text><rect fill="#E2E2F0" height="32.6211" rx="2.5" ry="2.5" style="stroke:#181818;stroke-width:0.5;" width="116" x="1303.5" y="50"/><text fill="#000000" font-family="sans-serif" font-size="14" lengthAdjust="spacing" textLength="102" x="1310.5" y="72.1074">list:List&lt;Device&gt;</text><rect fill="#E2E2F0" height="32.6211" rx="2.5" ry="2.5" style="stroke:#181818;stroke-width:0.5;" width="116" x="1303.5" y="1145.5547"/><text fill="#000000" font-family="sans-serif" font-size="14" lengthAdjust="spacing" textLength="102" x="1310.5" y="1167.6621">list:List&lt;Device&gt;</text><rect fill="#E2E2F0" height="32.6211" rx="2.5" ry="2.5" style="stroke:#181818;stroke-width:0.5;" width="102" x="1429.5" y="50"/><text fill="#000000" font-family="sans-serif" font-size="14" lengthAdjust="spacing" textLength="88" x="1436.5" y="72.1074">device:Device</text><rect fill="#E2E2F0" height="32.6211" rx="2.5" ry="2.5" style="stroke:#181818;stroke-width:0.5;" width="102" x="1429.5" y="1145.5547"/><text fill="#000000" font-family="sans-serif" font-size="14" lengthAdjust="spacing" textLength="88" x="1436.5" y="1167.6621">device:Device</text><rect fill="#FFFFFF" height="1043.9336" style="stroke:#181818;stroke-width:1.0;" width="10" x="22.5" y="93.6211"/><rect fill="#FFFFFF" height="405.1133" style="stroke:#181818;stroke-width:1.0;" width="10" x="358.5" y="116.9121"/><rect fill="#FFFFFF" height="262.3281" style="stroke:#181818;stroke-width:1.0;" width="10" x="358.5" y="553.3164"/><rect fill="#FFFFFF" height="42.291" style="stroke:#181818;stroke-width:1.0;" width="10" x="363.5" y="592.6074"/><rect fill="#FFFFFF" height="281.6191" style="stroke:#181818;stroke-width:1.0;" width="10" x="358.5" y="846.9355"/><rect fill="#FFFFFF" height="325.2402" style="stroke:#181818;stroke-width:1.0;" width="10" x="518.5" y="148.2031"/><rect fill="#FFFFFF" height="219.0371" style="stroke:#181818;stroke-width:1.0;" width="10" x="518.5" y="878.2266"/><rect fill="#FFFFFF" height="137.4941" style="stroke:#181818;stroke-width:1.0;" width="10" x="671.5" y="179.4941"/><rect fill="#FFFFFF" height="93.873" style="stroke:#181818;stroke-width:1.0;" width="10" x="857" y="348.2793"/><rect fill="#FFFFFF" height="156.4551" style="stroke:#181818;stroke-width:1.0;" width="10" x="857" y="909.5176"/><rect fill="#FFFFFF" height="31.291" style="stroke:#181818;stroke-width:1.0;" width="10" x="1032" y="210.7852"/><rect fill="#FFFFFF" height="31.291" style="stroke:#181818;stroke-width:1.0;" width="10" x="1209.5" y="379.5703"/><rect fill="#FFFFFF" height="31.291" style="stroke:#181818;stroke-width:1.0;" width="10" x="1209.5" y="940.8086"/><rect fill="#FFFFFF" height="31.291" style="stroke:#181818;stroke-width:1.0;" width="10" x="1209.5" y="1003.3906"/><rect fill="#FFFFFF" height="31.291" style="stroke:#181818;stroke-width:1.0;" width="10" x="1475.5" y="673.1895"/><rect fill="#FFFFFF" height="31.291" style="stroke:#181818;stroke-width:1.0;" width="10" x="1475.5" y="735.7715"/><polygon fill="#181818" points="346.5,112.9121,356.5,116.9121,346.5,120.9121,350.5,116.9121" style="stroke:#181818;stroke-width:1.0;"/><line style="stroke:#181818;stroke-width:1.0;" x1="32.5" x2="352.5" y1="116.9121" y2="116.9121"/><text fill="#000000" font-family="sans-serif" font-size="13" font-weight="bold" lengthAdjust="spacing" textLength="7" x="39.5" y="111.6494">1</text><text fill="#000000" font-family="sans-serif" font-size="13" lengthAdjust="spacing" textLength="133" x="50.5" y="111.6494">asks to delete a device</text><polygon fill="#181818" points="506.5,144.2031,516.5,148.2031,506.5,152.2031,510.5,148.2031" style="stroke:#181818;stroke-width:1.0;"/><line style="stroke:#181818;stroke-width:1.0;" x1="368.5" x2="512.5" y1="148.2031" y2="148.2031"/><text fill="#000000" font-family="sans-serif" font-size="13" font-weight="bold" lengthAdjust="spacing" textLength="7" x="375.5" y="142.9404">2</text><text fill="#000000" font-family="sans-serif" font-size="13" lengthAdjust="spacing" textLength="41" x="386.5" y="142.9404">getAll()</text><polygon fill="#181818" points="659.5,175.4941,669.5,179.4941,659.5,183.4941,663.5,179.4941" style="stroke:#181818;stroke-width:1.0;"/><line style="stroke:#181818;stroke-width:1.0;" x1="528.5" x2="665.5" y1="179.4941" y2="179.4941"/><text fill="#000000" font-family="sans-serif" font-size="13" font-weight="bold" lengthAdjust="spacing" textLength="7" x="535.5" y="174.2314">3</text><text fill="#000000" font-family="sans-serif" font-size="13" lengthAdjust="spacing" textLength="113" x="546.5" y="174.2314">getDevicesService()</text><polygon fill="#181818" points="1020,206.7852,1030,210.7852,1020,214.7852,1024,210.7852" style="stroke:#181818;stroke-width:1.0;"/><line style="stroke:#181818;stroke-width:1.0;" x1="681.5" x2="1026" y1="210.7852" y2="210.7852"/><text fill="#000000" font-family="sans-serif" font-size="13" font-weight="bold" lengthAdjust="spacing" textLength="7" x="688.5" y="205.5225">4</text><text fill="#000000" font-family="sans-serif" font-size="13" lengthAdjust="spacing" textLength="133" x="699.5" y="205.5225">getDevicesRepository()</text><polygon fill="#181818" points="692.5,238.0762,682.5,242.0762,692.5,246.0762,688.5,242.0762" style="stroke:#181818;stroke-width:1.0;"/><line style="stroke:#181818;stroke-width:1.0;stroke-dasharray:2.0,2.0;" x1="686.5" x2="1036" y1="242.0762" y2="242.0762"/><text fill="#000000" font-family="sans-serif" font-size="13" font-weight="bold" lengthAdjust="spacing" textLength="7" x="698.5" y="236.8135">5</text><text fill="#000000" font-family="sans-serif" font-size="13" lengthAdjust="spacing" textLength="25" x="709.5" y="236.8135">repo</text><polygon fill="#181818" points="773.5,269.3672,783.5,273.3672,773.5,277.3672,777.5,273.3672" style="stroke:#181818;stroke-width:1.0;"/><line style="stroke:#181818;stroke-width:1.0;stroke-dasharray:2.0,2.0;" x1="681.5" x2="779.5" y1="273.3672" y2="273.3672"/><text fill="#000000" font-family="sans-serif" font-size="13" font-weight="bold" lengthAdjust="spacing" textLength="7" x="688.5" y="268.1045">6</text><text fill="#000000" font-family="sans-serif" font-size="13" lengthAdjust="spacing" textLength="69" x="699.5" y="268.1045">create(repo)</text><rect fill="#E2E2F0" height="32.6211" rx="2.5" ry="2.5" style="stroke:#181818;stroke-width:0.5;" width="153" x="785.5" y="250.0762"/><text fill="#000000" font-family="sans-serif" font-size="14" lengthAdjust="spacing" textLength="139" x="792.5" y="272.1836">service:DeviceService</text><polygon fill="#181818" points="539.5,312.9883,529.5,316.9883,539.5,320.9883,535.5,316.9883" style="stroke:#181818;stroke-width:1.0;"/><line style="stroke:#181818;stroke-width:1.0;stroke-dasharray:2.0,2.0;" x1="533.5" x2="675.5" y1="316.9883" y2="316.9883"/><text fill="#000000" font-family="sans-serif" font-size="13" font-weight="bold" lengthAdjust="spacing" textLength="7" x="545.5" y="311.7256">7</text><text fill="#000000" font-family="sans-serif" font-size="13" lengthAdjust="spacing" textLength="40" x="556.5" y="311.7256">service</text><polygon fill="#181818" points="845,344.2793,855,348.2793,845,352.2793,849,348.2793" style="stroke:#181818;stroke-width:1.0;"/><line style="stroke:#181818;stroke-width:1.0;" x1="528.5" x2="851" y1="348.2793" y2="348.2793"/><text fill="#000000" font-family="sans-serif" font-size="13" font-weight="bold" lengthAdjust="spacing" textLength="7" x="535.5" y="343.0166">8</text><text fill="#000000" font-family="sans-serif" font-size="13" lengthAdjust="spacing" textLength="41" x="546.5" y="343.0166">getAll()</text><polygon fill="#181818" points="1197.5,375.5703,1207.5,379.5703,1197.5,383.5703,1201.5,379.5703" style="stroke:#181818;stroke-width:1.0;"/><line style="stroke:#181818;stroke-width:1.0;" x1="867" x2="1203.5" y1="379.5703" y2="379.5703"/><text fill="#000000" font-family="sans-serif" font-size="13" font-weight="bold" lengthAdjust="spacing" textLength="7" x="874" y="374.3076">9</text><text fill="#000000" font-family="sans-serif" font-size="13" lengthAdjust="spacing" textLength="41" x="885" y="374.3076">getAll()</text><polygon fill="#181818" points="878,406.8613,868,410.8613,878,414.8613,874,410.8613" style="stroke:#181818;stroke-width:1.0;"/><line style="stroke:#181818;stroke-width:1.0;stroke-dasharray:2.0,2.0;" x1="872" x2="1213.5" y1="410.8613" y2="410.8613"/><text fill="#000000" font-family="sans-serif" font-size="13" font-weight="bold" lengthAdjust="spacing" textLength="14" x="884" y="405.5986">10</text><text fill="#000000" font-family="sans-serif" font-size="13" lengthAdjust="spacing" textLength="17" x="902" y="405.5986">list</text><polygon fill="#181818" points="539.5,438.1523,529.5,442.1523,539.5,446.1523,535.5,442.1523" style="stroke:#181818;stroke-width:1.0;"/><line style="stroke:#181818;stroke-width:1.0;stroke-dasharray:2.0,2.0;" x1="533.5" x2="861" y1="442.1523" y2="442.1523"/><text fill="#000000" font-family="sans-serif" font-size="13" font-weight="bold" lengthAdjust="spacing" textLength="14" x="545.5" y="436.8896">11</text><text fill="#000000" font-family="sans-serif" font-size="13" lengthAdjust="spacing" textLength="17" x="563.5" y="436.8896">list</text><polygon fill="#181818" points="379.5,469.4434,369.5,473.4434,379.5,477.4434,375.5,473.4434" style="stroke:#181818;stroke-width:1.0;"/><line style="stroke:#181818;stroke-width:1.0;stroke-dasharray:2.0,2.0;" x1="373.5" x2="522.5" y1="473.4434" y2="473.4434"/><text fill="#000000" font-family="sans-serif" font-size="13" font-weight="bold" lengthAdjust="spacing" textLength="14" x="385.5" y="468.1807">12</text><text fill="#000000" font-family="sans-serif" font-size="13" lengthAdjust="spacing" textLength="17" x="403.5" y="468.1807">list</text><polygon fill="#181818" points="43.5,518.0254,33.5,522.0254,43.5,526.0254,39.5,522.0254" style="stroke:#181818;stroke-width:1.0;"/><line style="stroke:#181818;stroke-width:1.0;stroke-dasharray:2.0,2.0;" x1="37.5" x2="362.5" y1="522.0254" y2="522.0254"/><text fill="#000000" font-family="sans-serif" font-size="13" font-weight="bold" lengthAdjust="spacing" textLength="14" x="49.5" y="508.1172">13</text><text fill="#000000" font-family="sans-serif" font-size="13" lengthAdjust="spacing" textLength="175" x="67.5" y="499.4717">shows all existing devices and</text><text fill="#000000" font-family="sans-serif" font-size="13" lengthAdjust="spacing" textLength="208" x="71.5" y="516.7627">asks to select the one to be deleted</text><polygon fill="#181818" points="346.5,549.3164,356.5,553.3164,346.5,557.3164,350.5,553.3164" style="stroke:#181818;stroke-width:1.0;"/><line style="stroke:#181818;stroke-width:1.0;" x1="32.5" x2="352.5" y1="553.3164" y2="553.3164"/><text fill="#000000" font-family="sans-serif" font-size="13" font-weight="bold" lengthAdjust="spacing" textLength="14" x="39.5" y="548.0537">14</text><text fill="#000000" font-family="sans-serif" font-size="13" lengthAdjust="spacing" textLength="157" x="57.5" y="548.0537">selects the intended device</text><line style="stroke:#181818;stroke-width:1.0;" x1="368.5" x2="415.5" y1="579.6074" y2="579.6074"/><line style="stroke:#181818;stroke-width:1.0;" x1="415.5" x2="415.5" y1="579.6074" y2="592.6074"/><line style="stroke:#181818;stroke-width:1.0;" x1="374.5" x2="415.5" y1="592.6074" y2="592.6074"/><polygon fill="#181818" points="384.5,588.6074,374.5,592.6074,384.5,596.6074,380.5,592.6074" style="stroke:#181818;stroke-width:1.0;"/><text fill="#000000" font-family="sans-serif" font-size="13" font-weight="bold" lengthAdjust="spacing" textLength="14" x="380.5" y="574.3447">15</text><text fill="#000000" font-family="sans-serif" font-size="13" lengthAdjust="spacing" textLength="117" x="398.5" y="574.3447">findSelectedDevice()</text><line style="stroke:#181818;stroke-width:1.0;stroke-dasharray:2.0,2.0;" x1="373.5" x2="415.5" y1="633.8984" y2="633.8984"/><line style="stroke:#181818;stroke-width:1.0;stroke-dasharray:2.0,2.0;" x1="415.5" x2="415.5" y1="633.8984" y2="646.8984"/><line style="stroke:#181818;stroke-width:1.0;stroke-dasharray:2.0,2.0;" x1="368.5" x2="415.5" y1="646.8984" y2="646.8984"/><polygon fill="#181818" points="378.5,642.8984,368.5,646.8984,378.5,650.8984,374.5,646.8984" style="stroke:#181818;stroke-width:1.0;"/><text fill="#000000" font-family="sans-serif" font-size="13" font-weight="bold" lengthAdjust="spacing" textLength="14" x="380.5" y="628.6357">16</text><text fill="#000000" font-family="sans-serif" font-size="13" lengthAdjust="spacing" textLength="36" x="398.5" y="628.6357">device</text><polygon fill="#181818" points="1463.5,669.1895,1473.5,673.1895,1463.5,677.1895,1467.5,673.1895" style="stroke:#181818;stroke-width:1.0;"/><line style="stroke:#181818;stroke-width:1.0;" x1="368.5" x2="1469.5" y1="673.1895" y2="673.1895"/><text fill="#000000" font-family="sans-serif" font-size="13" font-weight="bold" lengthAdjust="spacing" textLength="14" x="375.5" y="667.9268">17</text><text fill="#000000" font-family="sans-serif" font-size="13" lengthAdjust="spacing" textLength="60" x="393.5" y="667.9268">getName()</text><polygon fill="#181818" points="379.5,700.4805,369.5,704.4805,379.5,708.4805,375.5,704.4805" style="stroke:#181818;stroke-width:1.0;"/><line style="stroke:#181818;stroke-width:1.0;stroke-dasharray:2.0,2.0;" x1="373.5" x2="1479.5" y1="704.4805" y2="704.4805"/><text fill="#000000" font-family="sans-serif" font-size="13" font-weight="bold" lengthAdjust="spacing" textLength="14" x="385.5" y="699.2178">18</text><text fill="#000000" font-family="sans-serif" font-size="13" lengthAdjust="spacing" textLength="32" x="403.5" y="699.2178">name</text><polygon fill="#181818" points="1463.5,731.7715,1473.5,735.7715,1463.5,739.7715,1467.5,735.7715" style="stroke:#181818;stroke-width:1.0;"/><line style="stroke:#181818;stroke-width:1.0;" x1="368.5" x2="1469.5" y1="735.7715" y2="735.7715"/><text fill="#000000" font-family="sans-serif" font-size="13" font-weight="bold" lengthAdjust="spacing" textLength="14" x="375.5" y="730.5088">19</text><text fill="#000000" font-family="sans-serif" font-size="13" lengthAdjust="spacing" textLength="91" x="393.5" y="730.5088">getDescription()</text><polygon fill="#181818" points="379.5,763.0625,369.5,767.0625,379.5,771.0625,375.5,767.0625" style="stroke:#181818;stroke-width:1.0;"/><line style="stroke:#181818;stroke-width:1.0;stroke-dasharray:2.0,2.0;" x1="373.5" x2="1479.5" y1="767.0625" y2="767.0625"/><text fill="#000000" font-family="sans-serif" font-size="13" font-weight="bold" lengthAdjust="spacing" textLength="14" x="385.5" y="761.7998">20</text><text fill="#000000" font-family="sans-serif" font-size="13" lengthAdjust="spacing" textLength="63" x="403.5" y="761.7998">description</text><polygon fill="#181818" points="43.5,811.6445,33.5,815.6445,43.5,819.6445,39.5,815.6445" style="stroke:#181818;stroke-width:1.0;"/><line style="stroke:#181818;stroke-width:1.0;stroke-dasharray:2.0,2.0;" x1="37.5" x2="362.5" y1="815.6445" y2="815.6445"/><text fill="#000000" font-family="sans-serif" font-size="13" font-weight="bold" lengthAdjust="spacing" textLength="14" x="49.5" y="801.7363">21</text><text fill="#000000" font-family="sans-serif" font-size="13" lengthAdjust="spacing" textLength="280" x="67.5" y="793.0908">shows name and description of the select device</text><text fill="#000000" font-family="sans-serif" font-size="13" lengthAdjust="spacing" textLength="209" x="71.5" y="810.3818">and requests a deleting confirmation</text><polygon fill="#181818" points="346.5,842.9355,356.5,846.9355,346.5,850.9355,350.5,846.9355" style="stroke:#181818;stroke-width:1.0;"/><line style="stroke:#181818;stroke-width:1.0;" x1="32.5" x2="352.5" y1="846.9355" y2="846.9355"/><text fill="#000000" font-family="sans-serif" font-size="13" font-weight="bold" lengthAdjust="spacing" textLength="14" x="39.5" y="841.6729">22</text><text fill="#000000" font-family="sans-serif" font-size="13" lengthAdjust="spacing" textLength="49" x="57.5" y="841.6729">confirms</text><polygon fill="#181818" points="506.5,874.2266,516.5,878.2266,506.5,882.2266,510.5,878.2266" style="stroke:#181818;stroke-width:1.0;"/><line style="stroke:#181818;stroke-width:1.0;" x1="368.5" x2="512.5" y1="878.2266" y2="878.2266"/><text fill="#000000" font-family="sans-serif" font-size="13" font-weight="bold" lengthAdjust="spacing" textLength="14" x="375.5" y="872.9639">23</text><text fill="#000000" font-family="sans-serif" font-size="13" lengthAdjust="spacing" textLength="113" x="393.5" y="872.9639">deleteDevice(name)</text><polygon fill="#181818" points="845,905.5176,855,909.5176,845,913.5176,849,909.5176" style="stroke:#181818;stroke-width:1.0;"/><line style="stroke:#181818;stroke-width:1.0;" x1="528.5" x2="851" y1="909.5176" y2="909.5176"/><text fill="#000000" font-family="sans-serif" font-size="13" font-weight="bold" lengthAdjust="spacing" textLength="14" x="535.5" y="904.2549">24</text><text fill="#000000" font-family="sans-serif" font-size="13" lengthAdjust="spacing" textLength="81" x="553.5" y="904.2549">remove(name)</text><polygon fill="#181818" points="1197.5,936.8086,1207.5,940.8086,1197.5,944.8086,1201.5,940.8086" style="stroke:#181818;stroke-width:1.0;"/><line style="stroke:#181818;stroke-width:1.0;" x1="867" x2="1203.5" y1="940.8086" y2="940.8086"/><text fill="#000000" font-family="sans-serif" font-size="13" font-weight="bold" lengthAdjust="spacing" textLength="14" x="874" y="935.5459">25</text><text fill="#000000" font-family="sans-serif" font-size="13" lengthAdjust="spacing" textLength="84" x="892" y="935.5459">getById(name)</text><polygon fill="#181818" points="878,968.0996,868,972.0996,878,976.0996,874,972.0996" style="stroke:#181818;stroke-width:1.0;"/><line style="stroke:#181818;stroke-width:1.0;stroke-dasharray:2.0,2.0;" x1="872" x2="1213.5" y1="972.0996" y2="972.0996"/><text fill="#000000" font-family="sans-serif" font-size="13" font-weight="bold" lengthAdjust="spacing" textLength="14" x="884" y="966.8369">26</text><text fill="#000000" font-family="sans-serif" font-size="13" lengthAdjust="spacing" textLength="36" x="902" y="966.8369">device</text><polygon fill="#181818" points="1197.5,999.3906,1207.5,1003.3906,1197.5,1007.3906,1201.5,1003.3906" style="stroke:#181818;stroke-width:1.0;"/><line style="stroke:#181818;stroke-width:1.0;" x1="867" x2="1203.5" y1="1003.3906" y2="1003.3906"/><text fill="#000000" font-family="sans-serif" font-size="13" font-weight="bold" lengthAdjust="spacing" textLength="14" x="874" y="998.1279">27</text><text fill="#000000" font-family="sans-serif" font-size="13" lengthAdjust="spacing" textLength="85" x="892" y="998.1279">remove(device)</text><polygon fill="#181818" points="878,1030.6816,868,1034.6816,878,1038.6816,874,1034.6816" style="stroke:#181818;stroke-width:1.0;"/><line style="stroke:#181818;stroke-width:1.0;stroke-dasharray:2.0,2.0;" x1="872" x2="1213.5" y1="1034.6816" y2="1034.6816"/><text fill="#000000" font-family="sans-serif" font-size="13" font-weight="bold" lengthAdjust="spacing" textLength="14" x="884" y="1029.4189">28</text><text fill="#000000" font-family="sans-serif" font-size="13" lengthAdjust="spacing" textLength="14" x="902" y="1029.4189">ok</text><polygon fill="#181818" points="539.5,1061.9727,529.5,1065.9727,539.5,1069.9727,535.5,1065.9727" style="stroke:#181818;stroke-width:1.0;"/><line style="stroke:#181818;stroke-width:1.0;stroke-dasharray:2.0,2.0;" x1="533.5" x2="861" y1="1065.9727" y2="1065.9727"/><text fill="#000000" font-family="sans-serif" font-size="13" font-weight="bold" lengthAdjust="spacing" textLength="14" x="545.5" y="1060.71">29</text><text fill="#000000" font-family="sans-serif" font-size="13" lengthAdjust="spacing" textLength="14" x="563.5" y="1060.71">ok</text><polygon fill="#181818" points="379.5,1093.2637,369.5,1097.2637,379.5,1101.2637,375.5,1097.2637" style="stroke:#181818;stroke-width:1.0;"/><line style="stroke:#181818;stroke-width:1.0;stroke-dasharray:2.0,2.0;" x1="373.5" x2="522.5" y1="1097.2637" y2="1097.2637"/><text fill="#000000" font-family="sans-serif" font-size="13" font-weight="bold" lengthAdjust="spacing" textLength="14" x="385.5" y="1092.001">30</text><text fill="#000000" font-family="sans-serif" font-size="13" lengthAdjust="spacing" textLength="14" x="403.5" y="1092.001">ok</text><polygon fill="#181818" points="43.5,1124.5547,33.5,1128.5547,43.5,1132.5547,39.5,1128.5547" style="stroke:#181818;stroke-width:1.0;"/><line style="stroke:#181818;stroke-width:1.0;stroke-dasharray:2.0,2.0;" x1="37.5" x2="362.5" y1="1128.5547" y2="1128.5547"/><text fill="#000000" font-family="sans-serif" font-size="13" font-weight="bold" lengthAdjust="spacing" textLength="14" x="49.5" y="1123.292">31</text><text fill="#000000" font-family="sans-serif" font-size="13" lengthAdjust="spacing" textLength="152" x="67.5" y="1123.292">informs operation success</text><!--SRC=[VPJ1Rjim38RlVWeXboK5ijoD8K2MRC20ROSLs6aNLQ8JeRBaINAwllr8IdLinzibeSYV5Fc9oRjBIbsiTxlEIfVwrhvNljr5-Ds3Kx3LHfw3RAjAzibBbSnL9X3UyTdrxHC4ZAdaWrWTT6lSIiWesAew6P9HfiEwObMVm4A24roDWfy6NbX8ndzqH-zIyDP2OFKn1JjJ7uxVFkKhqPZ68WIgKUTIZ_d4sc9FvGrFyLh_WCv7G-RdxE6KOazJ0afB-LiMo-aurLeJK_qLFpxaX3tho37LQHWrpPfiCkLCFzEj-4jizmonHkLp5CaBpVo45BbIHL5I4RnQd24Th5rlAZgIcxYnEryJ2njKK8GKPNGnLjt6HU6RO3kK8p0bVxil5HyUQg42u01h2c-6UEciFDVGM4aRjLmy5AJxHn4wSgaXYN3V4ePBs9rl6C2nBrEY0OWgTdFnBr58QmNymRXnvy8JdKwBNsxW7P6tIY9Tw6S1v7c2yWYwkdkbh8uiDow1qw3dBvMLZN7waTMWCtKST6WpQsQ9MSPSlikMzDapod3eNzAV8AfWkcIyMqhJj_0_K55XHZEI2j_me0LHxfRPeIxGNqn453BJ8iJAkyQ4Ll8zStGb6ASRhKT_5sjgOdE_GG5QVtsBBctHnzSlkeJlLwb0liihLNDuAT4_BsmWEcVxXvuvKkCQZvCAtq5W62Bs2dSlLdy1]--></g></svg>