<?xml version="1.0" encoding="us-ascii" standalone="no"?><svg xmlns="http://www.w3.org/2000/svg" xmlns:xlink="http://www.w3.org/1999/xlink" contentStyleType="text/css" height="830px" preserveAspectRatio="none" style="width:707px;height:830px;background:#FFFFFF;" version="1.1" viewBox="0 0 707 830" width="707px" zoomAndPan="magnify"><defs/><g><!--class PlanController--><g id="elem_PlanController"><rect codeLine="8" fill="#F1F1F1" height="63.2422" id="PlanController" rx="2.5" ry="2.5" style="stroke:#181818;stroke-width:0.5;" width="250" x="227.5" y="7"/><text fill="#000000" font-family="sans-serif" font-size="14" lengthAdjust="spacing" textLength="90" x="307.5" y="27.1074">PlanController</text><line style="stroke:#181818;stroke-width:0.5;" x1="228.5" x2="476.5" y1="35.6211" y2="35.6211"/><line style="stroke:#181818;stroke-width:0.5;" x1="228.5" x2="476.5" y1="43.6211" y2="43.6211"/><text fill="#000000" font-family="sans-serif" font-size="14" lengthAdjust="spacing" textLength="238" x="233.5" y="62.7285">+upsert(): ResponseEntity&lt;PlanView&gt;</text></g><!--class PlanService--><g id="elem_PlanService"><rect codeLine="14" fill="#F1F1F1" height="63.2422" id="PlanService" rx="2.5" ry="2.5" style="stroke:#181818;stroke-width:0.5;" width="375" x="165" y="131"/><text fill="#000000" font-family="sans-serif" font-size="14" lengthAdjust="spacing" textLength="75" x="315" y="151.1074">PlanService</text><line style="stroke:#181818;stroke-width:0.5;" x1="166" x2="539" y1="159.6211" y2="159.6211"/><line style="stroke:#181818;stroke-width:0.5;" x1="166" x2="539" y1="167.6211" y2="167.6211"/><text fill="#000000" font-family="sans-serif" font-size="14" lengthAdjust="spacing" textLength="363" x="171" y="186.7285">+create(String planType,EditPlanRequest resource): Plan</text></g><!--class ProductServiceImpl--><g id="elem_ProductServiceImpl"><rect codeLine="17" fill="#F1F1F1" height="63.2422" id="ProductServiceImpl" rx="2.5" ry="2.5" style="stroke:#181818;stroke-width:0.5;" width="375" x="45" y="255"/><text fill="#000000" font-family="sans-serif" font-size="14" lengthAdjust="spacing" textLength="121" x="172" y="275.1074">ProductServiceImpl</text><line style="stroke:#181818;stroke-width:0.5;" x1="46" x2="419" y1="283.6211" y2="283.6211"/><line style="stroke:#181818;stroke-width:0.5;" x1="46" x2="419" y1="291.6211" y2="291.6211"/><text fill="#000000" font-family="sans-serif" font-size="14" lengthAdjust="spacing" textLength="363" x="51" y="310.7285">+create(String planType,EditPlanRequest resource): Plan</text></g><!--class PlanRepository--><g id="elem_PlanRepository"><rect codeLine="21" fill="#F1F1F1" height="79.2031" id="PlanRepository" rx="2.5" ry="2.5" style="stroke:#181818;stroke-width:0.5;" width="135" x="165" y="379"/><text fill="#000000" font-family="sans-serif" font-size="12" font-style="italic" lengthAdjust="spacing" textLength="61" x="202" y="396.9492">&#171;interface&#187;</text><text fill="#000000" font-family="sans-serif" font-size="14" font-style="italic" lengthAdjust="spacing" textLength="96" x="184.5" y="415.0684">PlanRepository</text><line style="stroke:#181818;stroke-width:0.5;" x1="166" x2="299" y1="423.582" y2="423.582"/><line style="stroke:#181818;stroke-width:0.5;" x1="166" x2="299" y1="431.582" y2="431.582"/><text fill="#000000" font-family="sans-serif" font-size="14" lengthAdjust="spacing" textLength="123" x="171" y="450.6895">+save(plan): Result</text></g><!--class Plan--><g id="elem_Plan"><rect codeLine="26" fill="#F1F1F1" height="286.6953" id="Plan" rx="2.5" ry="2.5" style="stroke:#181818;stroke-width:0.5;" width="693" x="7" y="537"/><text fill="#000000" font-family="sans-serif" font-size="14" lengthAdjust="spacing" textLength="28" x="339.5" y="557.1074">Plan</text><line style="stroke:#181818;stroke-width:0.5;" x1="8" x2="699" y1="565.6211" y2="565.6211"/><text fill="#000000" font-family="sans-serif" font-size="14" lengthAdjust="spacing" textLength="42" x="13" y="584.7285">-nMins</text><text fill="#000000" font-family="sans-serif" font-size="14" lengthAdjust="spacing" textLength="80" x="13" y="603.3496">-maxDevices</text><text fill="#000000" font-family="sans-serif" font-size="14" lengthAdjust="spacing" textLength="110" x="13" y="621.9707">-musicCollections</text><text fill="#000000" font-family="sans-serif" font-size="14" lengthAdjust="spacing" textLength="119" x="13" y="640.5918">-musicSuggestions</text><text fill="#000000" font-family="sans-serif" font-size="14" lengthAdjust="spacing" textLength="79" x="13" y="659.2129">-monthlyFee</text><text fill="#000000" font-family="sans-serif" font-size="14" lengthAdjust="spacing" textLength="73" x="13" y="677.834">-annualFee</text><text fill="#000000" font-family="sans-serif" font-size="14" lengthAdjust="spacing" textLength="65" x="13" y="696.4551">-planState</text><text fill="#000000" font-family="sans-serif" font-size="14" lengthAdjust="spacing" textLength="64" x="13" y="715.0762">-planType</text><text fill="#000000" font-family="sans-serif" font-size="14" lengthAdjust="spacing" textLength="85" x="13" y="733.6973">-planPromote</text><text fill="#000000" font-family="sans-serif" font-size="14" lengthAdjust="spacing" textLength="111" x="13" y="752.3184">-HTMLdescription</text><text fill="#000000" font-family="sans-serif" font-size="14" lengthAdjust="spacing" textLength="503" x="13" y="770.9395">final String musicSuggestions, final Integer monthlyFee, final Integer annualFee,</text><line style="stroke:#181818;stroke-width:0.5;" x1="8" x2="699" y1="778.4531" y2="778.4531"/><text fill="#000000" font-family="sans-serif" font-size="14" lengthAdjust="spacing" textLength="681" x="13" y="797.5605">Plan(final String planType, final Integer numMinutes, final Integer maxDevices, final Integer musicCollections,</text><text fill="#000000" font-family="sans-serif" font-size="14" lengthAdjust="spacing" textLength="173" x="13" y="816.1816">final String htmlDescription)</text></g><!--link PlanRepository to Plan--><g id="link_PlanRepository_Plan"><path codeLine="43" d="M250.48,458.14 C259.94,478.47 272.21,504.82 284.96,532.21 " fill="none" id="PlanRepository-to-Plan" style="stroke:#181818;stroke-width:1.0;"/><polygon fill="#181818" points="287.17,536.98,287.0126,527.1324,285.0665,532.444,279.755,530.4979,287.17,536.98" style="stroke:#181818;stroke-width:1.0;"/><text fill="#000000" font-family="sans-serif" font-size="13" lengthAdjust="spacing" textLength="43" x="273.5" y="503.0283">records</text><text fill="#000000" font-family="sans-serif" font-size="13" lengthAdjust="spacing" textLength="7" x="245.8782" y="480.1488">1</text><text fill="#000000" font-family="sans-serif" font-size="13" lengthAdjust="spacing" textLength="20" x="262.9957" y="525.711">0..*</text></g><!--link PlanController to PlanService--><g id="link_PlanController_PlanService"><path codeLine="44" d="M352.5,70.29 C352.5,87.05 352.5,107.88 352.5,125.4 " fill="none" id="PlanController-to-PlanService" style="stroke:#181818;stroke-width:1.0;stroke-dasharray:7.0,7.0;"/><polygon fill="#181818" points="352.5,130.72,356.5,121.72,352.5,125.72,348.5,121.72,352.5,130.72" style="stroke:#181818;stroke-width:1.0;"/></g><!--link ProductServiceImpl to PlanRepository--><g id="link_ProductServiceImpl_PlanRepository"><path codeLine="45" d="M232.5,318.31 C232.5,334.92 232.5,355.69 232.5,373.93 " fill="none" id="ProductServiceImpl-to-PlanRepository" style="stroke:#181818;stroke-width:1.0;stroke-dasharray:7.0,7.0;"/><polygon fill="#181818" points="232.5,379,236.5,370,232.5,374,228.5,370,232.5,379" style="stroke:#181818;stroke-width:1.0;"/></g><!--link ProductServiceImpl to Plan--><g id="link_ProductServiceImpl_Plan"><path codeLine="47" d="M270.59,318.36 C287.84,334.53 306.74,355.79 317.5,379 C339.28,426.01 349.63,481.4 354.11,531.72 " fill="none" id="ProductServiceImpl-to-Plan" style="stroke:#181818;stroke-width:1.0;stroke-dasharray:7.0,7.0;"/><polygon fill="#181818" points="354.55,536.89,357.7645,527.5805,354.1218,531.9084,349.7939,528.2656,354.55,536.89" style="stroke:#181818;stroke-width:1.0;"/></g><!--link PlanService to Plan--><g id="link_PlanService_Plan"><path codeLine="48" d="M392.26,194.25 C409.67,210.25 428.23,231.39 437.5,255 C472.31,343.61 452.07,448.52 422.76,531.87 " fill="none" id="PlanService-to-Plan" style="stroke:#181818;stroke-width:1.0;stroke-dasharray:7.0,7.0;"/><polygon fill="#181818" points="420.99,536.83,427.7675,529.684,422.6608,532.1174,420.2274,527.0107,420.99,536.83" style="stroke:#181818;stroke-width:1.0;"/></g><!--reverse link PlanService to ProductServiceImpl--><g id="link_PlanService_ProductServiceImpl"><path codeLine="49" d="M307.81,208.93 C292.8,224.2 276.41,240.85 262.77,254.72 " fill="none" id="PlanService-backto-ProductServiceImpl" style="stroke:#181818;stroke-width:1.0;stroke-dasharray:7.0,7.0;"/><polygon fill="none" points="303.2,203.64,322.22,194.29,313.18,213.45,303.2,203.64" style="stroke:#181818;stroke-width:1.0;"/></g><!--SRC=[fLDDJ-Cm4BtxLrYzK1QQijUgYeJu49L0GWJjtJX3Qk7OnXwpMtRtl-_OWQHDqGe9dp8VUVFUy_XWZUZ2OZvtMXYChIwaRUTIYn1cjHAD5orZQrK3byfB3ImyAUC4fNbkEaNqwY4YhAGrbNe5ViBev1g_9SmpQz1RhS7ptumVHHV0u_HmmUyWE6i2N1XKk5cctXyAVfRixov01Vv5ISX_Imy2OLhHJDFmHFb-u-3uebQOMk_WEK90xY7Ow2NGb9Gcn3SuR-ieyGrnrJhz9L2c389_54IkQtGsABH-mvVBlbIMcNaGBp1Ds9tog37h76IcBZepSwDCw3vRyUiS4jFtE0ObpvAN4fKrszagDWsHtCgIxMkzkGJeOc5C5BeF4vCAIVOG9j53H5QrzhryTNzpNKEGNhaq8YSJv-cZCaBpiNEyIw_8WeQktSIMDD6AX75b4BXN6KazpZC_EZiKnbximVQkZ2kzFv-SjCPMdm-M7ERR76t1vFk4psObdvmKnRT9Tcp1QO-azNLWeyTH5ENskhFzNUrRXX7iVsri-_KCoGz-YAxuiplz7m00]--></g></svg>