<?xml version="1.0" encoding="us-ascii" standalone="no"?><svg xmlns="http://www.w3.org/2000/svg" xmlns:xlink="http://www.w3.org/1999/xlink" contentStyleType="text/css" height="574px" preserveAspectRatio="none" style="width:1873px;height:574px;background:#FFFFFF;" version="1.1" viewBox="0 0 1873 574" width="1873px" zoomAndPan="magnify"><defs/><g><rect fill="#FFFFFF" height="388.8223" style="stroke:#181818;stroke-width:1.0;" width="10" x="60" y="93.6211"/><rect fill="#FFFFFF" height="356.5313" style="stroke:#181818;stroke-width:1.0;" width="10" x="286" y="116.9121"/><rect fill="#FFFFFF" height="293.9492" style="stroke:#181818;stroke-width:1.0;" width="10" x="615" y="148.2031"/><rect fill="#FFFFFF" height="231.3672" style="stroke:#181818;stroke-width:1.0;" width="10" x="944" y="179.4941"/><rect fill="#FFFFFF" height="168.7852" style="stroke:#181818;stroke-width:1.0;" width="10" x="1273" y="210.7852"/><rect fill="#FFFFFF" height="31.291" style="stroke:#181818;stroke-width:1.0;" width="10" x="1758" y="316.9883"/><line style="stroke:#181818;stroke-width:0.5;stroke-dasharray:5.0,5.0;" x1="65" x2="65" y1="83.6211" y2="491.4434"/><line style="stroke:#181818;stroke-width:0.5;stroke-dasharray:5.0,5.0;" x1="291" x2="291" y1="83.6211" y2="491.4434"/><line style="stroke:#181818;stroke-width:0.5;stroke-dasharray:5.0,5.0;" x1="619.5" x2="619.5" y1="83.6211" y2="491.4434"/><line style="stroke:#181818;stroke-width:0.5;stroke-dasharray:5.0,5.0;" x1="948.5" x2="948.5" y1="83.6211" y2="491.4434"/><line style="stroke:#181818;stroke-width:0.5;stroke-dasharray:5.0,5.0;" x1="1277.5" x2="1277.5" y1="83.6211" y2="491.4434"/><line style="stroke:#181818;stroke-width:0.5;stroke-dasharray:5.0,5.0;" x1="1628" x2="1628" y1="250.5957" y2="491.4434"/><line style="stroke:#181818;stroke-width:0.5;stroke-dasharray:5.0,5.0;" x1="1763" x2="1763" y1="83.6211" y2="491.4434"/><text fill="#000000" font-family="sans-serif" font-size="14" lengthAdjust="spacing" textLength="114" x="5" y="80.1074">Marketing director</text><ellipse cx="65" cy="13.5" fill="#E2E2F0" rx="8" ry="8" style="stroke:#181818;stroke-width:0.5;"/><path d="M65,21.5 L65,48.5 M52,29.5 L78,29.5 M65,48.5 L52,63.5 M65,48.5 L78,63.5 " fill="none" style="stroke:#181818;stroke-width:0.5;"/><text fill="#000000" font-family="sans-serif" font-size="14" lengthAdjust="spacing" textLength="114" x="5" y="505.5508">Marketing director</text><ellipse cx="65" cy="517.5645" fill="#E2E2F0" rx="8" ry="8" style="stroke:#181818;stroke-width:0.5;"/><path d="M65,525.5645 L65,552.5645 M52,533.5645 L78,533.5645 M65,552.5645 L52,567.5645 M65,552.5645 L78,567.5645 " fill="none" style="stroke:#181818;stroke-width:0.5;"/><rect fill="#E2E2F0" height="32.6211" rx="2.5" ry="2.5" style="stroke:#181818;stroke-width:0.5;" width="108" x="237" y="50"/><text fill="#000000" font-family="sans-serif" font-size="14" lengthAdjust="spacing" textLength="94" x="244" y="72.1074">:PlanController</text><rect fill="#E2E2F0" height="32.6211" rx="2.5" ry="2.5" style="stroke:#181818;stroke-width:0.5;" width="108" x="237" y="490.4434"/><text fill="#000000" font-family="sans-serif" font-size="14" lengthAdjust="spacing" textLength="94" x="244" y="512.5508">:PlanController</text><rect fill="#E2E2F0" height="32.6211" rx="2.5" ry="2.5" style="stroke:#181818;stroke-width:0.5;" width="167" x="536.5" y="50"/><text fill="#000000" font-family="sans-serif" font-size="14" lengthAdjust="spacing" textLength="153" x="543.5" y="72.1074">planService:PlanService</text><rect fill="#E2E2F0" height="32.6211" rx="2.5" ry="2.5" style="stroke:#181818;stroke-width:0.5;" width="167" x="536.5" y="490.4434"/><text fill="#000000" font-family="sans-serif" font-size="14" lengthAdjust="spacing" textLength="153" x="543.5" y="512.5508">planService:PlanService</text><rect fill="#E2E2F0" height="32.6211" rx="2.5" ry="2.5" style="stroke:#181818;stroke-width:0.5;" width="217" x="840.5" y="50"/><text fill="#000000" font-family="sans-serif" font-size="14" lengthAdjust="spacing" textLength="203" x="847.5" y="72.1074">planServiceImpl:PlanServiceImpl</text><rect fill="#E2E2F0" height="32.6211" rx="2.5" ry="2.5" style="stroke:#181818;stroke-width:0.5;" width="217" x="840.5" y="490.4434"/><text fill="#000000" font-family="sans-serif" font-size="14" lengthAdjust="spacing" textLength="203" x="847.5" y="512.5508">planServiceImpl:PlanServiceImpl</text><rect fill="#E2E2F0" height="32.6211" rx="2.5" ry="2.5" style="stroke:#181818;stroke-width:0.5;" width="217" x="1169.5" y="50"/><text fill="#000000" font-family="sans-serif" font-size="14" lengthAdjust="spacing" textLength="203" x="1176.5" y="72.1074">editPlanMapper:EditPlanMapper</text><rect fill="#E2E2F0" height="32.6211" rx="2.5" ry="2.5" style="stroke:#181818;stroke-width:0.5;" width="217" x="1169.5" y="490.4434"/><text fill="#000000" font-family="sans-serif" font-size="14" lengthAdjust="spacing" textLength="203" x="1176.5" y="512.5508">editPlanMapper:EditPlanMapper</text><rect fill="#E2E2F0" height="32.6211" rx="2.5" ry="2.5" style="stroke:#181818;stroke-width:0.5;" width="42" x="1607" y="490.4434"/><text fill="#000000" font-family="sans-serif" font-size="14" lengthAdjust="spacing" textLength="28" x="1614" y="512.5508">Plan</text><rect fill="#E2E2F0" height="32.6211" rx="2.5" ry="2.5" style="stroke:#181818;stroke-width:0.5;" width="208" x="1659" y="50"/><text fill="#000000" font-family="sans-serif" font-size="14" lengthAdjust="spacing" textLength="194" x="1666" y="72.1074">planRepository:planRepository</text><rect fill="#E2E2F0" height="32.6211" rx="2.5" ry="2.5" style="stroke:#181818;stroke-width:0.5;" width="208" x="1659" y="490.4434"/><text fill="#000000" font-family="sans-serif" font-size="14" lengthAdjust="spacing" textLength="194" x="1666" y="512.5508">planRepository:planRepository</text><rect fill="#FFFFFF" height="388.8223" style="stroke:#181818;stroke-width:1.0;" width="10" x="60" y="93.6211"/><rect fill="#FFFFFF" height="356.5313" style="stroke:#181818;stroke-width:1.0;" width="10" x="286" y="116.9121"/><rect fill="#FFFFFF" height="293.9492" style="stroke:#181818;stroke-width:1.0;" width="10" x="615" y="148.2031"/><rect fill="#FFFFFF" height="231.3672" style="stroke:#181818;stroke-width:1.0;" width="10" x="944" y="179.4941"/><rect fill="#FFFFFF" height="168.7852" style="stroke:#181818;stroke-width:1.0;" width="10" x="1273" y="210.7852"/><rect fill="#FFFFFF" height="31.291" style="stroke:#181818;stroke-width:1.0;" width="10" x="1758" y="316.9883"/><polygon fill="#181818" points="274,112.9121,284,116.9121,274,120.9121,278,116.9121" style="stroke:#181818;stroke-width:1.0;"/><line style="stroke:#181818;stroke-width:1.0;" x1="70" x2="280" y1="116.9121" y2="116.9121"/><text fill="#000000" font-family="sans-serif" font-size="13" font-weight="bold" lengthAdjust="spacing" textLength="7" x="77" y="111.6494">1</text><text fill="#000000" font-family="sans-serif" font-size="13" lengthAdjust="spacing" textLength="186" x="88" y="111.6494">PUT(/api/plan/create/{planType})</text><polygon fill="#181818" points="603,144.2031,613,148.2031,603,152.2031,607,148.2031" style="stroke:#181818;stroke-width:1.0;"/><line style="stroke:#181818;stroke-width:1.0;" x1="296" x2="609" y1="148.2031" y2="148.2031"/><text fill="#000000" font-family="sans-serif" font-size="13" font-weight="bold" lengthAdjust="spacing" textLength="7" x="303" y="142.9404">2</text><text fill="#000000" font-family="sans-serif" font-size="13" lengthAdjust="spacing" textLength="289" x="314" y="142.9404">create(String planType,EditPlanRequest resource)</text><polygon fill="#181818" points="932,175.4941,942,179.4941,932,183.4941,936,179.4941" style="stroke:#181818;stroke-width:1.0;"/><line style="stroke:#181818;stroke-width:1.0;" x1="625" x2="938" y1="179.4941" y2="179.4941"/><text fill="#000000" font-family="sans-serif" font-size="13" font-weight="bold" lengthAdjust="spacing" textLength="7" x="632" y="174.2314">3</text><text fill="#000000" font-family="sans-serif" font-size="13" lengthAdjust="spacing" textLength="289" x="643" y="174.2314">create(String planType,EditPlanRequest resource)</text><polygon fill="#181818" points="1261,206.7852,1271,210.7852,1261,214.7852,1265,210.7852" style="stroke:#181818;stroke-width:1.0;"/><line style="stroke:#181818;stroke-width:1.0;" x1="954" x2="1267" y1="210.7852" y2="210.7852"/><text fill="#000000" font-family="sans-serif" font-size="13" font-weight="bold" lengthAdjust="spacing" textLength="7" x="961" y="205.5225">4</text><text fill="#000000" font-family="sans-serif" font-size="13" lengthAdjust="spacing" textLength="289" x="972" y="205.5225">create(String planType,EditPlanRequest resource)</text><polygon fill="#181818" points="1595,238.0762,1605,242.0762,1595,246.0762,1599,242.0762" style="stroke:#181818;stroke-width:1.0;"/><line style="stroke:#181818;stroke-width:1.0;" x1="1283" x2="1601" y1="242.0762" y2="242.0762"/><text fill="#000000" font-family="sans-serif" font-size="13" font-weight="bold" lengthAdjust="spacing" textLength="7" x="1290" y="236.8135">5</text><text fill="#000000" font-family="sans-serif" font-size="13" lengthAdjust="spacing" textLength="289" x="1301" y="236.8135">create(String planType,EditPlanRequest resource)</text><rect fill="#E2E2F0" height="32.6211" rx="2.5" ry="2.5" style="stroke:#181818;stroke-width:0.5;" width="42" x="1607" y="218.7852"/><text fill="#000000" font-family="sans-serif" font-size="14" lengthAdjust="spacing" textLength="28" x="1614" y="240.8926">Plan</text><polygon fill="#181818" points="1294,281.6973,1284,285.6973,1294,289.6973,1290,285.6973" style="stroke:#181818;stroke-width:1.0;"/><line style="stroke:#181818;stroke-width:1.0;stroke-dasharray:2.0,2.0;" x1="1288" x2="1627" y1="285.6973" y2="285.6973"/><text fill="#000000" font-family="sans-serif" font-size="13" font-weight="bold" lengthAdjust="spacing" textLength="7" x="1300" y="280.4346">6</text><text fill="#000000" font-family="sans-serif" font-size="13" lengthAdjust="spacing" textLength="24" x="1311" y="280.4346">plan</text><polygon fill="#181818" points="1746,312.9883,1756,316.9883,1746,320.9883,1750,316.9883" style="stroke:#181818;stroke-width:1.0;"/><line style="stroke:#181818;stroke-width:1.0;" x1="1283" x2="1752" y1="316.9883" y2="316.9883"/><text fill="#000000" font-family="sans-serif" font-size="13" font-weight="bold" lengthAdjust="spacing" textLength="7" x="1290" y="311.7256">7</text><text fill="#000000" font-family="sans-serif" font-size="13" lengthAdjust="spacing" textLength="58" x="1301" y="311.7256">save(plan)</text><polygon fill="#181818" points="1294,344.2793,1284,348.2793,1294,352.2793,1290,348.2793" style="stroke:#181818;stroke-width:1.0;"/><line style="stroke:#181818;stroke-width:1.0;stroke-dasharray:2.0,2.0;" x1="1288" x2="1762" y1="348.2793" y2="348.2793"/><text fill="#000000" font-family="sans-serif" font-size="13" font-weight="bold" lengthAdjust="spacing" textLength="7" x="1300" y="343.0166">8</text><text fill="#000000" font-family="sans-serif" font-size="13" lengthAdjust="spacing" textLength="14" x="1311" y="343.0166">ok</text><polygon fill="#181818" points="965,375.5703,955,379.5703,965,383.5703,961,379.5703" style="stroke:#181818;stroke-width:1.0;"/><line style="stroke:#181818;stroke-width:1.0;stroke-dasharray:2.0,2.0;" x1="959" x2="1277" y1="379.5703" y2="379.5703"/><text fill="#000000" font-family="sans-serif" font-size="13" font-weight="bold" lengthAdjust="spacing" textLength="7" x="971" y="374.3076">9</text><text fill="#000000" font-family="sans-serif" font-size="13" lengthAdjust="spacing" textLength="14" x="982" y="374.3076">ok</text><polygon fill="#181818" points="636,406.8613,626,410.8613,636,414.8613,632,410.8613" style="stroke:#181818;stroke-width:1.0;"/><line style="stroke:#181818;stroke-width:1.0;stroke-dasharray:2.0,2.0;" x1="630" x2="948" y1="410.8613" y2="410.8613"/><text fill="#000000" font-family="sans-serif" font-size="13" font-weight="bold" lengthAdjust="spacing" textLength="14" x="642" y="405.5986">10</text><text fill="#000000" font-family="sans-serif" font-size="13" lengthAdjust="spacing" textLength="14" x="660" y="405.5986">ok</text><polygon fill="#181818" points="307,438.1523,297,442.1523,307,446.1523,303,442.1523" style="stroke:#181818;stroke-width:1.0;"/><line style="stroke:#181818;stroke-width:1.0;stroke-dasharray:2.0,2.0;" x1="301" x2="619" y1="442.1523" y2="442.1523"/><text fill="#000000" font-family="sans-serif" font-size="13" font-weight="bold" lengthAdjust="spacing" textLength="14" x="313" y="436.8896">11</text><text fill="#000000" font-family="sans-serif" font-size="13" lengthAdjust="spacing" textLength="14" x="331" y="436.8896">ok</text><polygon fill="#181818" points="81,469.4434,71,473.4434,81,477.4434,77,473.4434" style="stroke:#181818;stroke-width:1.0;"/><line style="stroke:#181818;stroke-width:1.0;stroke-dasharray:2.0,2.0;" x1="75" x2="290" y1="473.4434" y2="473.4434"/><text fill="#000000" font-family="sans-serif" font-size="13" font-weight="bold" lengthAdjust="spacing" textLength="14" x="87" y="468.1807">12</text><text fill="#000000" font-family="sans-serif" font-size="13" lengthAdjust="spacing" textLength="70" x="105" y="468.1807">201:Created</text><!--SRC=[dP6_Ri8m4CPtFuN5qe1AqtRqq0Lrw824-FC0hdC2YoHspvT8gEgxr-T08A0EPOdkldo_i_tTmux81vNdljGrDLNvP5oL1_Xge3OmBQpUegw4RiXfGxRL1DBLgQ-RwXDGYAWxbAEvnZsGhRUoi0YiZQGESXEYnsiaQwoFHyYHMiIZPgucT6K9dMj6M0vTV9yLO6iD9E1O9_Un_XFug7nv2N6VG2w651IMs3dNtWEgzq6R69QwTaYoBHcukBtA4hmBDgPmKCCsCToAFj2KaU2ldBwbB9HSRDPPhhrDYyaDGZJctzoi3nv-ne9jR3-593jFjYBa9PoSZwSdBNcdWIH2S0qQ68iZoKDIOl-Vm1ZZvupk67A6UHHx9fCxnh0gfrUNOUxg08vUoQ1RoFZlMB1m0xhz0EiZYdhtwClaezXdsIymYjsAeiAhLVBr-KNDqhEANm00]--></g></svg>