<?xml version="1.0" encoding="us-ascii" standalone="no"?><svg xmlns="http://www.w3.org/2000/svg" xmlns:xlink="http://www.w3.org/1999/xlink" contentStyleType="text/css" height="888px" preserveAspectRatio="none" style="width:588px;height:888px;background:#FFFFFF;" version="1.1" viewBox="0 0 588 888" width="588px" zoomAndPan="magnify"><defs/><g><!--class Plan--><g id="elem_Plan"><rect codeLine="3" fill="#F1F1F1" height="234.2109" id="Plan" rx="2.5" ry="2.5" style="stroke:#181818;stroke-width:0.5;" width="131" x="110.5" y="208"/><ellipse cx="157.75" cy="224" fill="#ADD1B2" rx="11" ry="11" style="stroke:#181818;stroke-width:1.0;"/><path d="M160.5156,219.875 Q160.6719,219.6563 160.8594,219.5469 Q161.0469,219.4375 161.2656,219.4375 Q161.6406,219.4375 161.875,219.7031 Q162.1094,219.9531 162.1094,220.5625 L162.1094,222.0156 Q162.1094,222.625 161.875,222.8906 Q161.6406,223.1563 161.2656,223.1563 Q160.9219,223.1563 160.7188,222.9531 Q160.5156,222.7656 160.4063,222.25 Q160.3594,221.8906 160.1719,221.7031 Q159.8438,221.3281 159.2344,221.1094 Q158.625,220.8906 158,220.8906 Q157.2344,220.8906 156.5938,221.2188 Q155.9688,221.5469 155.4688,222.2969 Q154.9844,223.0469 154.9844,224.0781 L154.9844,225.1719 Q154.9844,226.4063 155.875,227.2344 Q156.7656,228.0469 158.3594,228.0469 Q159.2969,228.0469 159.9531,227.7969 Q160.3438,227.6406 160.7656,227.2031 Q161.0313,226.9375 161.1719,226.8594 Q161.3281,226.7813 161.5313,226.7813 Q161.8594,226.7813 162.1094,227.0469 Q162.375,227.2969 162.375,227.6406 Q162.375,227.9844 162.0313,228.3906 Q161.5313,228.9688 160.7344,229.2969 Q159.6563,229.75 158.3594,229.75 Q156.8438,229.75 155.6406,229.125 Q154.6563,228.625 153.9688,227.5625 Q153.2813,226.4844 153.2813,225.2031 L153.2813,224.0469 Q153.2813,222.7188 153.8906,221.5781 Q154.5156,220.4219 155.6094,219.8125 Q156.7031,219.1875 157.9375,219.1875 Q158.6719,219.1875 159.3125,219.3594 Q159.9688,219.5156 160.5156,219.875 Z " fill="#000000"/><text fill="#000000" font-family="sans-serif" font-size="14" lengthAdjust="spacing" textLength="28" x="178.25" y="229.7969">Plan</text><line style="stroke:#181818;stroke-width:0.5;" x1="111.5" x2="240.5" y1="240" y2="240"/><text fill="#000000" font-family="sans-serif" font-size="14" lengthAdjust="spacing" textLength="42" x="116.5" y="259.1074">-nMins</text><text fill="#000000" font-family="sans-serif" font-size="14" lengthAdjust="spacing" textLength="80" x="116.5" y="277.7285">-maxDevices</text><text fill="#000000" font-family="sans-serif" font-size="14" lengthAdjust="spacing" textLength="110" x="116.5" y="296.3496">-musicCollections</text><text fill="#000000" font-family="sans-serif" font-size="14" lengthAdjust="spacing" textLength="119" x="116.5" y="314.9707">-musicSuggestions</text><text fill="#000000" font-family="sans-serif" font-size="14" lengthAdjust="spacing" textLength="79" x="116.5" y="333.5918">-monthlyFee</text><text fill="#000000" font-family="sans-serif" font-size="14" lengthAdjust="spacing" textLength="73" x="116.5" y="352.2129">-annualFee</text><text fill="#000000" font-family="sans-serif" font-size="14" lengthAdjust="spacing" textLength="65" x="116.5" y="370.834">-planState</text><text fill="#000000" font-family="sans-serif" font-size="14" lengthAdjust="spacing" textLength="64" x="116.5" y="389.4551">-planType</text><text fill="#000000" font-family="sans-serif" font-size="14" lengthAdjust="spacing" textLength="111" x="116.5" y="408.0762">-HTMLdescription</text><text fill="#000000" font-family="sans-serif" font-size="14" lengthAdjust="spacing" textLength="85" x="116.5" y="426.6973">-planPromote</text><line style="stroke:#181818;stroke-width:0.5;" x1="111.5" x2="240.5" y1="434.2109" y2="434.2109"/></g><!--class PriceHistory--><g id="elem_PriceHistory"><rect codeLine="16" fill="#F1F1F1" height="141.1055" id="PriceHistory" rx="2.5" ry="2.5" style="stroke:#181818;stroke-width:0.5;" width="156" x="58" y="7"/><ellipse cx="95.05" cy="23" fill="#ADD1B2" rx="11" ry="11" style="stroke:#181818;stroke-width:1.0;"/><path d="M97.8156,18.875 Q97.9719,18.6563 98.1594,18.5469 Q98.3469,18.4375 98.5656,18.4375 Q98.9406,18.4375 99.175,18.7031 Q99.4094,18.9531 99.4094,19.5625 L99.4094,21.0156 Q99.4094,21.625 99.175,21.8906 Q98.9406,22.1563 98.5656,22.1563 Q98.2219,22.1563 98.0188,21.9531 Q97.8156,21.7656 97.7063,21.25 Q97.6594,20.8906 97.4719,20.7031 Q97.1438,20.3281 96.5344,20.1094 Q95.925,19.8906 95.3,19.8906 Q94.5344,19.8906 93.8938,20.2188 Q93.2688,20.5469 92.7688,21.2969 Q92.2844,22.0469 92.2844,23.0781 L92.2844,24.1719 Q92.2844,25.4063 93.175,26.2344 Q94.0656,27.0469 95.6594,27.0469 Q96.5969,27.0469 97.2531,26.7969 Q97.6438,26.6406 98.0656,26.2031 Q98.3313,25.9375 98.4719,25.8594 Q98.6281,25.7813 98.8313,25.7813 Q99.1594,25.7813 99.4094,26.0469 Q99.675,26.2969 99.675,26.6406 Q99.675,26.9844 99.3313,27.3906 Q98.8313,27.9688 98.0344,28.2969 Q96.9563,28.75 95.6594,28.75 Q94.1438,28.75 92.9406,28.125 Q91.9563,27.625 91.2688,26.5625 Q90.5813,25.4844 90.5813,24.2031 L90.5813,23.0469 Q90.5813,21.7188 91.1906,20.5781 Q91.8156,19.4219 92.9094,18.8125 Q94.0031,18.1875 95.2375,18.1875 Q95.9719,18.1875 96.6125,18.3594 Q97.2688,18.5156 97.8156,18.875 Z " fill="#000000"/><text fill="#000000" font-family="sans-serif" font-size="14" lengthAdjust="spacing" textLength="75" x="113.95" y="28.7969">PriceHistory</text><line style="stroke:#181818;stroke-width:0.5;" x1="59" x2="213" y1="39" y2="39"/><text fill="#000000" font-family="sans-serif" font-size="14" lengthAdjust="spacing" textLength="138" x="64" y="58.1074">-oldPrice_monthlyFee</text><text fill="#000000" font-family="sans-serif" font-size="14" lengthAdjust="spacing" textLength="144" x="64" y="76.7285">-newPrice_monthlyFee</text><text fill="#000000" font-family="sans-serif" font-size="14" lengthAdjust="spacing" textLength="132" x="64" y="95.3496">-oldPrice_annualFee</text><text fill="#000000" font-family="sans-serif" font-size="14" lengthAdjust="spacing" textLength="138" x="64" y="113.9707">-newPrice_annualFee</text><text fill="#000000" font-family="sans-serif" font-size="14" lengthAdjust="spacing" textLength="82" x="64" y="132.5918">-changeDate</text><line style="stroke:#181818;stroke-width:0.5;" x1="59" x2="213" y1="140.1055" y2="140.1055"/></g><!--class Subscription--><g id="elem_Subscription"><rect codeLine="24" fill="#F1F1F1" height="178.3477" id="Subscription" rx="2.5" ry="2.5" style="stroke:#181818;stroke-width:0.5;" width="110" x="203" y="502"/><ellipse cx="218" cy="518" fill="#ADD1B2" rx="11" ry="11" style="stroke:#181818;stroke-width:1.0;"/><path d="M220.7656,513.875 Q220.9219,513.6563 221.1094,513.5469 Q221.2969,513.4375 221.5156,513.4375 Q221.8906,513.4375 222.125,513.7031 Q222.3594,513.9531 222.3594,514.5625 L222.3594,516.0156 Q222.3594,516.625 222.125,516.8906 Q221.8906,517.1563 221.5156,517.1563 Q221.1719,517.1563 220.9688,516.9531 Q220.7656,516.7656 220.6563,516.25 Q220.6094,515.8906 220.4219,515.7031 Q220.0938,515.3281 219.4844,515.1094 Q218.875,514.8906 218.25,514.8906 Q217.4844,514.8906 216.8438,515.2188 Q216.2188,515.5469 215.7188,516.2969 Q215.2344,517.0469 215.2344,518.0781 L215.2344,519.1719 Q215.2344,520.4063 216.125,521.2344 Q217.0156,522.0469 218.6094,522.0469 Q219.5469,522.0469 220.2031,521.7969 Q220.5938,521.6406 221.0156,521.2031 Q221.2813,520.9375 221.4219,520.8594 Q221.5781,520.7813 221.7813,520.7813 Q222.1094,520.7813 222.3594,521.0469 Q222.625,521.2969 222.625,521.6406 Q222.625,521.9844 222.2813,522.3906 Q221.7813,522.9688 220.9844,523.2969 Q219.9063,523.75 218.6094,523.75 Q217.0938,523.75 215.8906,523.125 Q214.9063,522.625 214.2188,521.5625 Q213.5313,520.4844 213.5313,519.2031 L213.5313,518.0469 Q213.5313,516.7188 214.1406,515.5781 Q214.7656,514.4219 215.8594,513.8125 Q216.9531,513.1875 218.1875,513.1875 Q218.9219,513.1875 219.5625,513.3594 Q220.2188,513.5156 220.7656,513.875 Z " fill="#000000"/><text fill="#000000" font-family="sans-serif" font-size="14" lengthAdjust="spacing" textLength="78" x="232" y="523.7969">Subscription</text><line style="stroke:#181818;stroke-width:0.5;" x1="204" x2="312" y1="534" y2="534"/><text fill="#000000" font-family="sans-serif" font-size="14" lengthAdjust="spacing" textLength="16" x="209" y="553.1074">-id</text><text fill="#000000" font-family="sans-serif" font-size="14" lengthAdjust="spacing" textLength="60" x="209" y="571.7285">-subType</text><text fill="#000000" font-family="sans-serif" font-size="14" lengthAdjust="spacing" textLength="33" x="209" y="590.3496">-date</text><text fill="#000000" font-family="sans-serif" font-size="14" lengthAdjust="spacing" textLength="61" x="209" y="608.9707">-subState</text><text fill="#000000" font-family="sans-serif" font-size="14" lengthAdjust="spacing" textLength="57" x="209" y="627.5918">-feeType</text><text fill="#000000" font-family="sans-serif" font-size="14" lengthAdjust="spacing" textLength="87" x="209" y="646.2129">-cancellations</text><text fill="#000000" font-family="sans-serif" font-size="14" lengthAdjust="spacing" textLength="88" x="209" y="664.834">-subscriptions</text><line style="stroke:#181818;stroke-width:0.5;" x1="204" x2="312" y1="672.3477" y2="672.3477"/></g><!--class Device--><g id="elem_Device"><rect codeLine="34" fill="#F1F1F1" height="141.1055" id="Device" rx="2.5" ry="2.5" style="stroke:#181818;stroke-width:0.5;" width="95" x="284.5" y="740"/><ellipse cx="308.5" cy="756" fill="#ADD1B2" rx="11" ry="11" style="stroke:#181818;stroke-width:1.0;"/><path d="M311.2656,751.875 Q311.4219,751.6563 311.6094,751.5469 Q311.7969,751.4375 312.0156,751.4375 Q312.3906,751.4375 312.625,751.7031 Q312.8594,751.9531 312.8594,752.5625 L312.8594,754.0156 Q312.8594,754.625 312.625,754.8906 Q312.3906,755.1563 312.0156,755.1563 Q311.6719,755.1563 311.4688,754.9531 Q311.2656,754.7656 311.1563,754.25 Q311.1094,753.8906 310.9219,753.7031 Q310.5938,753.3281 309.9844,753.1094 Q309.375,752.8906 308.75,752.8906 Q307.9844,752.8906 307.3438,753.2188 Q306.7188,753.5469 306.2188,754.2969 Q305.7344,755.0469 305.7344,756.0781 L305.7344,757.1719 Q305.7344,758.4063 306.625,759.2344 Q307.5156,760.0469 309.1094,760.0469 Q310.0469,760.0469 310.7031,759.7969 Q311.0938,759.6406 311.5156,759.2031 Q311.7813,758.9375 311.9219,758.8594 Q312.0781,758.7813 312.2813,758.7813 Q312.6094,758.7813 312.8594,759.0469 Q313.125,759.2969 313.125,759.6406 Q313.125,759.9844 312.7813,760.3906 Q312.2813,760.9688 311.4844,761.2969 Q310.4063,761.75 309.1094,761.75 Q307.5938,761.75 306.3906,761.125 Q305.4063,760.625 304.7188,759.5625 Q304.0313,758.4844 304.0313,757.2031 L304.0313,756.0469 Q304.0313,754.7188 304.6406,753.5781 Q305.2656,752.4219 306.3594,751.8125 Q307.4531,751.1875 308.6875,751.1875 Q309.4219,751.1875 310.0625,751.3594 Q310.7188,751.5156 311.2656,751.875 Z " fill="#000000"/><text fill="#000000" font-family="sans-serif" font-size="14" lengthAdjust="spacing" textLength="43" x="324.5" y="761.7969">Device</text><line style="stroke:#181818;stroke-width:0.5;" x1="285.5" x2="378.5" y1="772" y2="772"/><text fill="#000000" font-family="sans-serif" font-size="14" lengthAdjust="spacing" textLength="59" x="290.5" y="791.1074">-idDevice</text><text fill="#000000" font-family="sans-serif" font-size="14" lengthAdjust="spacing" textLength="81" x="290.5" y="809.7285">-subscription</text><text fill="#000000" font-family="sans-serif" font-size="14" lengthAdjust="spacing" textLength="83" x="290.5" y="828.3496">-macAddress</text><text fill="#000000" font-family="sans-serif" font-size="14" lengthAdjust="spacing" textLength="40" x="290.5" y="846.9707">-name</text><text fill="#000000" font-family="sans-serif" font-size="14" lengthAdjust="spacing" textLength="74" x="290.5" y="865.5918">-description</text><line style="stroke:#181818;stroke-width:0.5;" x1="285.5" x2="378.5" y1="873.1055" y2="873.1055"/></g><!--class IDPlanCashFlow--><g id="elem_IDPlanCashFlow"><rect codeLine="41" fill="#F1F1F1" height="85.2422" id="IDPlanCashFlow" rx="2.5" ry="2.5" style="stroke:#181818;stroke-width:0.5;" width="135" x="403.5" y="35"/><ellipse cx="418.5" cy="51" fill="#ADD1B2" rx="11" ry="11" style="stroke:#181818;stroke-width:1.0;"/><path d="M421.2656,46.875 Q421.4219,46.6563 421.6094,46.5469 Q421.7969,46.4375 422.0156,46.4375 Q422.3906,46.4375 422.625,46.7031 Q422.8594,46.9531 422.8594,47.5625 L422.8594,49.0156 Q422.8594,49.625 422.625,49.8906 Q422.3906,50.1563 422.0156,50.1563 Q421.6719,50.1563 421.4688,49.9531 Q421.2656,49.7656 421.1563,49.25 Q421.1094,48.8906 420.9219,48.7031 Q420.5938,48.3281 419.9844,48.1094 Q419.375,47.8906 418.75,47.8906 Q417.9844,47.8906 417.3438,48.2188 Q416.7188,48.5469 416.2188,49.2969 Q415.7344,50.0469 415.7344,51.0781 L415.7344,52.1719 Q415.7344,53.4063 416.625,54.2344 Q417.5156,55.0469 419.1094,55.0469 Q420.0469,55.0469 420.7031,54.7969 Q421.0938,54.6406 421.5156,54.2031 Q421.7813,53.9375 421.9219,53.8594 Q422.0781,53.7813 422.2813,53.7813 Q422.6094,53.7813 422.8594,54.0469 Q423.125,54.2969 423.125,54.6406 Q423.125,54.9844 422.7813,55.3906 Q422.2813,55.9688 421.4844,56.2969 Q420.4063,56.75 419.1094,56.75 Q417.5938,56.75 416.3906,56.125 Q415.4063,55.625 414.7188,54.5625 Q414.0313,53.4844 414.0313,52.2031 L414.0313,51.0469 Q414.0313,49.7188 414.6406,48.5781 Q415.2656,47.4219 416.3594,46.8125 Q417.4531,46.1875 418.6875,46.1875 Q419.4219,46.1875 420.0625,46.3594 Q420.7188,46.5156 421.2656,46.875 Z " fill="#000000"/><text fill="#000000" font-family="sans-serif" font-size="14" lengthAdjust="spacing" textLength="103" x="432.5" y="56.7969">IDPlanCashFlow</text><line style="stroke:#181818;stroke-width:0.5;" x1="404.5" x2="537.5" y1="67" y2="67"/><text fill="#000000" font-family="sans-serif" font-size="14" lengthAdjust="spacing" textLength="64" x="409.5" y="86.1074">-planType</text><text fill="#000000" font-family="sans-serif" font-size="14" lengthAdjust="spacing" textLength="66" x="409.5" y="104.7285">-cashflows</text><line style="stroke:#181818;stroke-width:0.5;" x1="404.5" x2="537.5" y1="112.2422" y2="112.2422"/></g><!--class PlanType_CashFlow--><g id="elem_PlanType_CashFlow"><rect codeLine="45" fill="#F1F1F1" height="103.8633" id="PlanType_CashFlow" rx="2.5" ry="2.5" style="stroke:#181818;stroke-width:0.5;" width="162" x="419" y="273"/><ellipse cx="434" cy="289" fill="#ADD1B2" rx="11" ry="11" style="stroke:#181818;stroke-width:1.0;"/><path d="M436.7656,284.875 Q436.9219,284.6563 437.1094,284.5469 Q437.2969,284.4375 437.5156,284.4375 Q437.8906,284.4375 438.125,284.7031 Q438.3594,284.9531 438.3594,285.5625 L438.3594,287.0156 Q438.3594,287.625 438.125,287.8906 Q437.8906,288.1563 437.5156,288.1563 Q437.1719,288.1563 436.9688,287.9531 Q436.7656,287.7656 436.6563,287.25 Q436.6094,286.8906 436.4219,286.7031 Q436.0938,286.3281 435.4844,286.1094 Q434.875,285.8906 434.25,285.8906 Q433.4844,285.8906 432.8438,286.2188 Q432.2188,286.5469 431.7188,287.2969 Q431.2344,288.0469 431.2344,289.0781 L431.2344,290.1719 Q431.2344,291.4063 432.125,292.2344 Q433.0156,293.0469 434.6094,293.0469 Q435.5469,293.0469 436.2031,292.7969 Q436.5938,292.6406 437.0156,292.2031 Q437.2813,291.9375 437.4219,291.8594 Q437.5781,291.7813 437.7813,291.7813 Q438.1094,291.7813 438.3594,292.0469 Q438.625,292.2969 438.625,292.6406 Q438.625,292.9844 438.2813,293.3906 Q437.7813,293.9688 436.9844,294.2969 Q435.9063,294.75 434.6094,294.75 Q433.0938,294.75 431.8906,294.125 Q430.9063,293.625 430.2188,292.5625 Q429.5313,291.4844 429.5313,290.2031 L429.5313,289.0469 Q429.5313,287.7188 430.1406,286.5781 Q430.7656,285.4219 431.8594,284.8125 Q432.9531,284.1875 434.1875,284.1875 Q434.9219,284.1875 435.5625,284.3594 Q436.2188,284.5156 436.7656,284.875 Z " fill="#000000"/><text fill="#000000" font-family="sans-serif" font-size="14" lengthAdjust="spacing" textLength="130" x="448" y="294.7969">PlanType_CashFlow</text><line style="stroke:#181818;stroke-width:0.5;" x1="420" x2="580" y1="305" y2="305"/><text fill="#000000" font-family="sans-serif" font-size="14" lengthAdjust="spacing" textLength="44" x="425" y="324.1074">-month</text><text fill="#000000" font-family="sans-serif" font-size="14" lengthAdjust="spacing" textLength="59" x="425" y="342.7285">-cashflow</text><text fill="#000000" font-family="sans-serif" font-size="14" lengthAdjust="spacing" textLength="33" x="425" y="361.3496">-year</text><line style="stroke:#181818;stroke-width:0.5;" x1="420" x2="580" y1="368.8633" y2="368.8633"/></g><!--class Roles--><g id="elem_Roles"><rect codeLine="52" fill="#F1F1F1" height="48" id="Roles" rx="2.5" ry="2.5" style="stroke:#181818;stroke-width:0.5;" width="68" x="7" y="301"/><ellipse cx="22" cy="317" fill="#ADD1B2" rx="11" ry="11" style="stroke:#181818;stroke-width:1.0;"/><path d="M24.7656,312.875 Q24.9219,312.6563 25.1094,312.5469 Q25.2969,312.4375 25.5156,312.4375 Q25.8906,312.4375 26.125,312.7031 Q26.3594,312.9531 26.3594,313.5625 L26.3594,315.0156 Q26.3594,315.625 26.125,315.8906 Q25.8906,316.1563 25.5156,316.1563 Q25.1719,316.1563 24.9688,315.9531 Q24.7656,315.7656 24.6563,315.25 Q24.6094,314.8906 24.4219,314.7031 Q24.0938,314.3281 23.4844,314.1094 Q22.875,313.8906 22.25,313.8906 Q21.4844,313.8906 20.8438,314.2188 Q20.2188,314.5469 19.7188,315.2969 Q19.2344,316.0469 19.2344,317.0781 L19.2344,318.1719 Q19.2344,319.4063 20.125,320.2344 Q21.0156,321.0469 22.6094,321.0469 Q23.5469,321.0469 24.2031,320.7969 Q24.5938,320.6406 25.0156,320.2031 Q25.2813,319.9375 25.4219,319.8594 Q25.5781,319.7813 25.7813,319.7813 Q26.1094,319.7813 26.3594,320.0469 Q26.625,320.2969 26.625,320.6406 Q26.625,320.9844 26.2813,321.3906 Q25.7813,321.9688 24.9844,322.2969 Q23.9063,322.75 22.6094,322.75 Q21.0938,322.75 19.8906,322.125 Q18.9063,321.625 18.2188,320.5625 Q17.5313,319.4844 17.5313,318.2031 L17.5313,317.0469 Q17.5313,315.7188 18.1406,314.5781 Q18.7656,313.4219 19.8594,312.8125 Q20.9531,312.1875 22.1875,312.1875 Q22.9219,312.1875 23.5625,312.3594 Q24.2188,312.5156 24.7656,312.875 Z " fill="#000000"/><text fill="#000000" font-family="sans-serif" font-size="14" lengthAdjust="spacing" textLength="36" x="36" y="322.7969">Roles</text><line style="stroke:#181818;stroke-width:0.5;" x1="8" x2="74" y1="333" y2="333"/><line style="stroke:#181818;stroke-width:0.5;" x1="8" x2="74" y1="341" y2="341"/></g><!--class User--><g id="elem_User"><rect codeLine="56" fill="#F1F1F1" height="141.1055" id="User" rx="2.5" ry="2.5" style="stroke:#181818;stroke-width:0.5;" width="91" x="249.5" y="7"/><ellipse cx="278" cy="23" fill="#ADD1B2" rx="11" ry="11" style="stroke:#181818;stroke-width:1.0;"/><path d="M280.7656,18.875 Q280.9219,18.6563 281.1094,18.5469 Q281.2969,18.4375 281.5156,18.4375 Q281.8906,18.4375 282.125,18.7031 Q282.3594,18.9531 282.3594,19.5625 L282.3594,21.0156 Q282.3594,21.625 282.125,21.8906 Q281.8906,22.1563 281.5156,22.1563 Q281.1719,22.1563 280.9688,21.9531 Q280.7656,21.7656 280.6563,21.25 Q280.6094,20.8906 280.4219,20.7031 Q280.0938,20.3281 279.4844,20.1094 Q278.875,19.8906 278.25,19.8906 Q277.4844,19.8906 276.8438,20.2188 Q276.2188,20.5469 275.7188,21.2969 Q275.2344,22.0469 275.2344,23.0781 L275.2344,24.1719 Q275.2344,25.4063 276.125,26.2344 Q277.0156,27.0469 278.6094,27.0469 Q279.5469,27.0469 280.2031,26.7969 Q280.5938,26.6406 281.0156,26.2031 Q281.2813,25.9375 281.4219,25.8594 Q281.5781,25.7813 281.7813,25.7813 Q282.1094,25.7813 282.3594,26.0469 Q282.625,26.2969 282.625,26.6406 Q282.625,26.9844 282.2813,27.3906 Q281.7813,27.9688 280.9844,28.2969 Q279.9063,28.75 278.6094,28.75 Q277.0938,28.75 275.8906,28.125 Q274.9063,27.625 274.2188,26.5625 Q273.5313,25.4844 273.5313,24.2031 L273.5313,23.0469 Q273.5313,21.7188 274.1406,20.5781 Q274.7656,19.4219 275.8594,18.8125 Q276.9531,18.1875 278.1875,18.1875 Q278.9219,18.1875 279.5625,18.3594 Q280.2188,18.5156 280.7656,18.875 Z " fill="#000000"/><text fill="#000000" font-family="sans-serif" font-size="14" lengthAdjust="spacing" textLength="29" x="295" y="28.7969">User</text><line style="stroke:#181818;stroke-width:0.5;" x1="250.5" x2="339.5" y1="39" y2="39"/><text fill="#000000" font-family="sans-serif" font-size="14" lengthAdjust="spacing" textLength="68" x="255.5" y="58.1074">-username</text><text fill="#000000" font-family="sans-serif" font-size="14" lengthAdjust="spacing" textLength="59" x="255.5" y="76.7285">-fullName</text><text fill="#000000" font-family="sans-serif" font-size="14" lengthAdjust="spacing" textLength="65" x="255.5" y="95.3496">-password</text><text fill="#000000" font-family="sans-serif" font-size="14" lengthAdjust="spacing" textLength="79" x="255.5" y="113.9707">-rePassword</text><text fill="#000000" font-family="sans-serif" font-size="14" lengthAdjust="spacing" textLength="71" x="255.5" y="132.5918">-authorities</text><line style="stroke:#181818;stroke-width:0.5;" x1="250.5" x2="339.5" y1="140.1055" y2="140.1055"/></g><!--class RevenueByPlan--><g id="elem_RevenueByPlan"><rect codeLine="63" fill="#F1F1F1" height="85.2422" id="RevenueByPlan" rx="2.5" ry="2.5" style="stroke:#181818;stroke-width:0.5;" width="133" x="83.5" y="768"/><ellipse cx="98.5" cy="784" fill="#ADD1B2" rx="11" ry="11" style="stroke:#181818;stroke-width:1.0;"/><path d="M101.2656,779.875 Q101.4219,779.6563 101.6094,779.5469 Q101.7969,779.4375 102.0156,779.4375 Q102.3906,779.4375 102.625,779.7031 Q102.8594,779.9531 102.8594,780.5625 L102.8594,782.0156 Q102.8594,782.625 102.625,782.8906 Q102.3906,783.1563 102.0156,783.1563 Q101.6719,783.1563 101.4688,782.9531 Q101.2656,782.7656 101.1563,782.25 Q101.1094,781.8906 100.9219,781.7031 Q100.5938,781.3281 99.9844,781.1094 Q99.375,780.8906 98.75,780.8906 Q97.9844,780.8906 97.3438,781.2188 Q96.7188,781.5469 96.2188,782.2969 Q95.7344,783.0469 95.7344,784.0781 L95.7344,785.1719 Q95.7344,786.4063 96.625,787.2344 Q97.5156,788.0469 99.1094,788.0469 Q100.0469,788.0469 100.7031,787.7969 Q101.0938,787.6406 101.5156,787.2031 Q101.7813,786.9375 101.9219,786.8594 Q102.0781,786.7813 102.2813,786.7813 Q102.6094,786.7813 102.8594,787.0469 Q103.125,787.2969 103.125,787.6406 Q103.125,787.9844 102.7813,788.3906 Q102.2813,788.9688 101.4844,789.2969 Q100.4063,789.75 99.1094,789.75 Q97.5938,789.75 96.3906,789.125 Q95.4063,788.625 94.7188,787.5625 Q94.0313,786.4844 94.0313,785.2031 L94.0313,784.0469 Q94.0313,782.7188 94.6406,781.5781 Q95.2656,780.4219 96.3594,779.8125 Q97.4531,779.1875 98.6875,779.1875 Q99.4219,779.1875 100.0625,779.3594 Q100.7188,779.5156 101.2656,779.875 Z " fill="#000000"/><text fill="#000000" font-family="sans-serif" font-size="14" lengthAdjust="spacing" textLength="101" x="112.5" y="789.7969">RevenueByPlan</text><line style="stroke:#181818;stroke-width:0.5;" x1="84.5" x2="215.5" y1="800" y2="800"/><text fill="#000000" font-family="sans-serif" font-size="14" lengthAdjust="spacing" textLength="64" x="89.5" y="819.1074">-planType</text><text fill="#000000" font-family="sans-serif" font-size="14" lengthAdjust="spacing" textLength="89" x="89.5" y="837.7285">-totalRevenue</text><line style="stroke:#181818;stroke-width:0.5;" x1="84.5" x2="215.5" y1="845.2422" y2="845.2422"/></g><!--link User to Plan--><g id="link_User_Plan"><path codeLine="69" d="M261.22,148.19 C252.92,165.31 243.79,184.14 234.7,202.91 " fill="none" id="User-to-Plan" style="stroke:#181818;stroke-width:1.0;"/><polygon fill="#181818" points="232.38,207.68,239.9102,201.332,234.5645,203.1825,232.7141,197.8368,232.38,207.68" style="stroke:#181818;stroke-width:1.0;"/></g><!--link User to Roles--><g id="link_User_Roles"><path codeLine="70" d="M249.3,133.62 C243.77,138.82 237.96,143.74 232,148 C177.27,187.15 140.91,160.75 93,208 C68.55,232.12 54.61,269.78 47.44,295.61 " fill="none" id="User-to-Roles" style="stroke:#181818;stroke-width:1.0;"/><polygon fill="#181818" points="46.09,300.61,52.2922,292.9594,47.3899,295.7819,44.5673,290.8796,46.09,300.61" style="stroke:#181818;stroke-width:1.0;"/></g><!--link User to Subscription--><g id="link_User_Subscription"><path codeLine="71" d="M289.97,148.02 C283.44,238.27 272.03,396.11 264.75,496.72 " fill="none" id="User-to-Subscription" style="stroke:#181818;stroke-width:1.0;"/><polygon fill="#181818" points="264.38,501.76,269.0128,493.0688,264.7373,496.7728,261.0333,492.4972,264.38,501.76" style="stroke:#181818;stroke-width:1.0;"/></g><!--link User to Device--><g id="link_User_Device"><path codeLine="72" d="M302.67,148.08 C311.5,231.9 325.5,377.05 331,502 C334.5,581.37 334.27,672.37 333.46,734.67 " fill="none" id="User-to-Device" style="stroke:#181818;stroke-width:1.0;"/><polygon fill="#181818" points="333.39,739.85,337.4926,730.8963,333.4471,734.8503,329.4931,730.8049,333.39,739.85" style="stroke:#181818;stroke-width:1.0;"/></g><!--link Plan to Subscription--><g id="link_Plan_Subscription"><path codeLine="73" d="M212.09,442.18 C217.78,460.51 223.6,479.26 229.11,496.98 " fill="none" id="Plan-to-Subscription" style="stroke:#181818;stroke-width:1.0;"/><polygon fill="#181818" points="230.65,501.95,231.8202,492.1709,229.1766,497.172,224.1754,494.5284,230.65,501.95" style="stroke:#181818;stroke-width:1.0;"/><text fill="#000000" font-family="sans-serif" font-size="13" lengthAdjust="spacing" textLength="7" x="207.1778" y="464.2623">1</text><text fill="#000000" font-family="sans-serif" font-size="13" lengthAdjust="spacing" textLength="5" x="223.0848" y="490.5927">*</text></g><!--link Subscription to Device--><g id="link_Subscription_Device"><path codeLine="74" d="M287.99,680.15 C294.18,698.34 300.64,717.33 306.65,734.98 " fill="none" id="Subscription-to-Device" style="stroke:#181818;stroke-width:1.0;"/><polygon fill="#181818" points="308.33,739.92,309.2078,730.1103,306.7146,735.1881,301.6368,732.695,308.33,739.92" style="stroke:#181818;stroke-width:1.0;"/><text fill="#000000" font-family="sans-serif" font-size="13" lengthAdjust="spacing" textLength="7" x="283.1837" y="702.2626">1</text><text fill="#000000" font-family="sans-serif" font-size="13" lengthAdjust="spacing" textLength="5" x="300.6312" y="728.8028">*</text></g><!--link PriceHistory to Plan--><g id="link_PriceHistory_Plan"><path codeLine="75" d="M147.36,148.19 C150.12,165.17 153.16,183.82 156.19,202.43 " fill="none" id="PriceHistory-to-Plan" style="stroke:#181818;stroke-width:1.0;"/><polygon fill="#181818" points="157.05,207.68,159.5294,198.1483,156.235,202.7469,151.6364,199.4524,157.05,207.68" style="stroke:#181818;stroke-width:1.0;"/><text fill="#000000" font-family="sans-serif" font-size="13" lengthAdjust="spacing" textLength="5" x="143.2322" y="170.0227">*</text><text fill="#000000" font-family="sans-serif" font-size="13" lengthAdjust="spacing" textLength="7" x="148.6118" y="196.6505">1</text></g><!--link IDPlanCashFlow to Plan--><g id="link_IDPlanCashFlow_Plan"><path codeLine="76" d="M420.96,120.15 C372.72,160.29 299.3,221.39 245.42,266.23 " fill="none" id="IDPlanCashFlow-to-Plan" style="stroke:#181818;stroke-width:1.0;"/><polygon fill="#181818" points="241.58,269.43,251.0557,266.7447,245.4223,266.2305,245.9365,260.597,241.58,269.43" style="stroke:#181818;stroke-width:1.0;"/></g><!--link IDPlanCashFlow to PlanType_CashFlow--><g id="link_IDPlanCashFlow_PlanType_CashFlow"><path codeLine="77" d="M475.92,120.15 C480.71,160.72 488.03,222.68 493.34,267.65 " fill="none" id="IDPlanCashFlow-to-PlanType_CashFlow" style="stroke:#181818;stroke-width:1.0;"/><polygon fill="#181818" points="493.95,272.77,496.8695,263.3638,493.365,267.8043,488.9244,264.2998,493.95,272.77" style="stroke:#181818;stroke-width:1.0;"/><text fill="#000000" font-family="sans-serif" font-size="13" lengthAdjust="spacing" textLength="7" x="469.1463" y="142.3342">1</text><text fill="#000000" font-family="sans-serif" font-size="13" lengthAdjust="spacing" textLength="5" x="487.8011" y="261.6665">*</text></g><!--link Plan to RevenueByPlan--><g id="link_Plan_RevenueByPlan"><path codeLine="78" d="M169.76,442.12 C164.24,544.71 156.47,689.1 152.52,762.58 " fill="none" id="Plan-to-RevenueByPlan" style="stroke:#181818;stroke-width:1.0;"/><polygon fill="#181818" points="152.25,767.74,156.7333,758.9708,152.5218,762.7474,148.7452,758.5359,152.25,767.74" style="stroke:#181818;stroke-width:1.0;"/></g><!--reverse link PriceHistory to User--><g id="link_PriceHistory_User"><path codeLine="79" d="M219.45,77.5 C229.39,77.5 239.33,77.5 249.27,77.5 " fill="none" id="PriceHistory-backto-User" style="stroke:#181818;stroke-width:1.0;"/><polygon fill="#181818" points="214.26,77.5,223.26,81.5,219.26,77.5,223.26,73.5,214.26,77.5" style="stroke:#181818;stroke-width:1.0;"/></g><!--SRC=[RLBRRi8m37tlLqGyJaBQVc0I0qsRD2O4x1c5rD1e8QdY1DOX_dr9cgPfHn_Q7jl7FhxWDvSrrVH4cA28CsCqtri3xqp93Vy5ybWKmKDMWifhGTmpbKikiVqzqPy5d3c33blaRAw406QuahbrOuz7mDogfAb4ymhGOYgbfIB1sXNS66eok6tgYDwsouyIa6bU-unzo4ghasevjyAzetZj9BvnD4etiGcYH1dCkx4E8k5otvCe8wc9CBApYieZBDeURjqaDtQVX4Snl6o_QFTzZsNgtPcpIHm0-Y169GCXQ3PNpF9ZaSgsUqe5M_YVqUsLpSfI0yQSafuwLTdKRp7r-y9VnvnYzIhKXOGQWuKvcLWTd0yJPnNTkn4jp7p02Q01gdqlaRrM0l3gSJHy8UZOctM_lTw35U8peTh5NfIEuzQm6c1gJQKqDnnwdMiuWxJmqdZ1v7hl68qoLCIumelqOiXq-XoQx54GtSFy3dfht4keDdcQ1DlaOJACpi4WgcDdznximU_YWg3HkeBphYVF_6zVhKJdBzL5-kxoGNNz23WOFuTCpny0]--></g></svg>