<?xml version="1.0" encoding="us-ascii" standalone="no"?><svg xmlns="http://www.w3.org/2000/svg" xmlns:xlink="http://www.w3.org/1999/xlink" contentStyleType="text/css" height="709px" preserveAspectRatio="none" style="width:1034px;height:709px;background:#FFFFFF;" version="1.1" viewBox="0 0 1034 709" width="1034px" zoomAndPan="magnify"><defs/><g><!--class DeviceView--><g id="elem_DeviceView"><rect codeLine="6" fill="#F1F1F1" height="44.6211" id="DeviceView" rx="2.5" ry="2.5" style="stroke:#181818;stroke-width:0.5;" width="78" x="637.5" y="7"/><text fill="#000000" font-family="sans-serif" font-size="14" lengthAdjust="spacing" textLength="72" x="640.5" y="27.1074">DeviceView</text><line style="stroke:#181818;stroke-width:0.5;" x1="638.5" x2="714.5" y1="35.6211" y2="35.6211"/><line style="stroke:#181818;stroke-width:0.5;" x1="638.5" x2="714.5" y1="43.6211" y2="43.6211"/></g><!--class DeviceController--><g id="elem_DeviceController"><rect codeLine="9" fill="#F1F1F1" height="100.4844" id="DeviceController" rx="2.5" ry="2.5" style="stroke:#181818;stroke-width:0.5;" width="379" x="349" y="113"/><text fill="#000000" font-family="sans-serif" font-size="14" lengthAdjust="spacing" textLength="105" x="486" y="133.1074">DeviceController</text><line style="stroke:#181818;stroke-width:0.5;" x1="350" x2="727" y1="141.6211" y2="141.6211"/><line style="stroke:#181818;stroke-width:0.5;" x1="350" x2="727" y1="149.6211" y2="149.6211"/><text fill="#000000" font-family="sans-serif" font-size="14" lengthAdjust="spacing" textLength="142" x="355" y="168.7285">+getAll(): List&lt;Device&gt;</text><text fill="#000000" font-family="sans-serif" font-size="14" lengthAdjust="spacing" textLength="257" x="355" y="187.3496">+getSubDevices(int idSub): List&lt;Device&gt;</text><text fill="#000000" font-family="sans-serif" font-size="14" lengthAdjust="spacing" textLength="367" x="355" y="205.9707">+updateDevice(int id, string name, string description): void</text></g><!--class ACME--><g id="elem_ACME"><rect codeLine="15" fill="#F1F1F1" height="63.2422" id="ACME" rx="2.5" ry="2.5" style="stroke:#181818;stroke-width:0.5;" width="245" x="28" y="302"/><text fill="#000000" font-family="sans-serif" font-size="14" lengthAdjust="spacing" textLength="39" x="131" y="322.1074">ACME</text><line style="stroke:#181818;stroke-width:0.5;" x1="29" x2="272" y1="330.6211" y2="330.6211"/><line style="stroke:#181818;stroke-width:0.5;" x1="29" x2="272" y1="338.6211" y2="338.6211"/><text fill="#000000" font-family="sans-serif" font-size="14" lengthAdjust="spacing" textLength="233" x="34" y="357.7285">+getDevicesService(): DeviceService</text></g><!--class DeviceService--><g id="elem_DeviceService"><rect codeLine="19" fill="#F1F1F1" height="119.1055" id="DeviceService" rx="2.5" ry="2.5" style="stroke:#181818;stroke-width:0.5;" width="379" x="349" y="274"/><text fill="#000000" font-family="sans-serif" font-size="14" lengthAdjust="spacing" textLength="90" x="493.5" y="294.1074">DeviceService</text><line style="stroke:#181818;stroke-width:0.5;" x1="350" x2="727" y1="302.6211" y2="302.6211"/><line style="stroke:#181818;stroke-width:0.5;" x1="350" x2="727" y1="310.6211" y2="310.6211"/><text fill="#000000" font-family="sans-serif" font-size="14" lengthAdjust="spacing" textLength="287" x="355" y="329.7285">+DeviceService(DeviceRepository devsRepo)</text><text fill="#000000" font-family="sans-serif" font-size="14" lengthAdjust="spacing" textLength="142" x="355" y="348.3496">+getAll(): List&lt;Device&gt;</text><text fill="#000000" font-family="sans-serif" font-size="14" lengthAdjust="spacing" textLength="257" x="355" y="366.9707">+getSubDevices(int idSub): List&lt;Device&gt;</text><text fill="#000000" font-family="sans-serif" font-size="14" lengthAdjust="spacing" textLength="367" x="355" y="385.5918">+updateDevice(int id, string name, string description): void</text></g><!--class DeviceRepository--><g id="elem_DeviceRepository"><rect codeLine="26" fill="#F1F1F1" height="116.4453" id="DeviceRepository" rx="2.5" ry="2.5" style="stroke:#181818;stroke-width:0.5;" width="262" x="329.5" y="529.5"/><text fill="#000000" font-family="sans-serif" font-size="12" font-style="italic" lengthAdjust="spacing" textLength="61" x="430" y="547.4492">&#171;interface&#187;</text><text fill="#000000" font-family="sans-serif" font-size="14" font-style="italic" lengthAdjust="spacing" textLength="110" x="405.5" y="565.5684">DeviceRepository</text><line style="stroke:#181818;stroke-width:0.5;" x1="330.5" x2="590.5" y1="574.082" y2="574.082"/><line style="stroke:#181818;stroke-width:0.5;" x1="330.5" x2="590.5" y1="582.082" y2="582.082"/><text fill="#000000" font-family="sans-serif" font-size="14" lengthAdjust="spacing" textLength="142" x="335.5" y="601.1895">+getAll(): List&lt;Device&gt;</text><text fill="#000000" font-family="sans-serif" font-size="14" lengthAdjust="spacing" textLength="148" x="335.5" y="619.8105">+getByID(int id): Device</text><text fill="#000000" font-family="sans-serif" font-size="14" lengthAdjust="spacing" textLength="250" x="335.5" y="638.4316">+getSubDevice(int idSub): List&lt;Device&gt;</text></g><!--class RepositoryFactory--><g id="elem_RepositoryFactory"><rect codeLine="32" fill="#F1F1F1" height="79.2031" id="RepositoryFactory" rx="2.5" ry="2.5" style="stroke:#181818;stroke-width:0.5;" width="287" x="7" y="548"/><text fill="#000000" font-family="sans-serif" font-size="12" font-style="italic" lengthAdjust="spacing" textLength="61" x="120" y="565.9492">&#171;interface&#187;</text><text fill="#000000" font-family="sans-serif" font-size="14" font-style="italic" lengthAdjust="spacing" textLength="116" x="92.5" y="584.0684">RepositoryFactory</text><line style="stroke:#181818;stroke-width:0.5;" x1="8" x2="293" y1="592.582" y2="592.582"/><line style="stroke:#181818;stroke-width:0.5;" x1="8" x2="293" y1="600.582" y2="600.582"/><text fill="#000000" font-family="sans-serif" font-size="14" lengthAdjust="spacing" textLength="275" x="13" y="619.6895">+getDevicesRepository(): DeviceRepository</text></g><!--class Device--><g id="elem_Device"><rect codeLine="36" fill="#F1F1F1" height="230.832" id="Device" rx="2.5" ry="2.5" style="stroke:#181818;stroke-width:0.5;" width="356" x="671.5" y="472"/><text fill="#000000" font-family="sans-serif" font-size="14" lengthAdjust="spacing" textLength="43" x="828" y="492.1074">Device</text><line style="stroke:#181818;stroke-width:0.5;" x1="672.5" x2="1026.5" y1="500.6211" y2="500.6211"/><text fill="#000000" font-family="sans-serif" font-size="14" lengthAdjust="spacing" textLength="16" x="677.5" y="519.7285">-id</text><text fill="#000000" font-family="sans-serif" font-size="14" lengthAdjust="spacing" textLength="41" x="677.5" y="538.3496">-idSub</text><text fill="#000000" font-family="sans-serif" font-size="14" lengthAdjust="spacing" textLength="40" x="677.5" y="556.9707">-name</text><text fill="#000000" font-family="sans-serif" font-size="14" lengthAdjust="spacing" textLength="74" x="677.5" y="575.5918">-description</text><line style="stroke:#181818;stroke-width:0.5;" x1="672.5" x2="1026.5" y1="583.1055" y2="583.1055"/><text fill="#000000" font-family="sans-serif" font-size="14" lengthAdjust="spacing" textLength="344" x="677.5" y="602.2129">Device(int id, int idSub, string name, string description)</text><text fill="#000000" font-family="sans-serif" font-size="14" lengthAdjust="spacing" textLength="74" x="677.5" y="620.834">+getID(): int</text><text fill="#000000" font-family="sans-serif" font-size="14" lengthAdjust="spacing" textLength="99" x="677.5" y="639.4551">+getIDSub(): int</text><text fill="#000000" font-family="sans-serif" font-size="14" lengthAdjust="spacing" textLength="117" x="677.5" y="658.0762">+getName(): string</text><text fill="#000000" font-family="sans-serif" font-size="14" lengthAdjust="spacing" textLength="152" x="677.5" y="676.6973">+getDescription(): string</text><text fill="#000000" font-family="sans-serif" font-size="14" lengthAdjust="spacing" textLength="343" x="677.5" y="695.3184">+updateDevice(string name, string description): Result</text></g><!--link ACME to RepositoryFactory--><g id="link_ACME_RepositoryFactory"><path codeLine="50" d="M150.5,365.4 C150.5,409.87 150.5,492.13 150.5,542.81 " fill="none" id="ACME-to-RepositoryFactory" style="stroke:#181818;stroke-width:1.0;"/><polygon fill="#181818" points="150.5,547.92,154.5,538.92,150.5,542.92,146.5,538.92,150.5,547.92" style="stroke:#181818;stroke-width:1.0;"/><text fill="#000000" font-family="sans-serif" font-size="13" lengthAdjust="spacing" textLength="28" x="151.5" y="438.0283">uses</text><text fill="#000000" font-family="sans-serif" font-size="13" lengthAdjust="spacing" textLength="7" x="142.8109" y="387.3869">1</text><text fill="#000000" font-family="sans-serif" font-size="13" lengthAdjust="spacing" textLength="7" x="142.8984" y="536.6921">1</text></g><!--link DeviceRepository to Device--><g id="link_DeviceRepository_Device"><path codeLine="51" d="M591.66,587.5 C615.64,587.5 641.07,587.5 666.25,587.5 " fill="none" id="DeviceRepository-to-Device" style="stroke:#181818;stroke-width:1.0;"/><polygon fill="#181818" points="671.28,587.5,662.28,583.5,666.28,587.5,662.28,591.5,671.28,587.5" style="stroke:#181818;stroke-width:1.0;"/><text fill="#000000" font-family="sans-serif" font-size="13" lengthAdjust="spacing" textLength="43" x="610" y="580.5283">records</text><text fill="#000000" font-family="sans-serif" font-size="13" lengthAdjust="spacing" textLength="7" x="599.445" y="584.0325">1</text><text fill="#000000" font-family="sans-serif" font-size="13" lengthAdjust="spacing" textLength="20" x="643.3395" y="601.8966">0..*</text></g><!--link DeviceView to DeviceController--><g id="link_DeviceView_DeviceController"><path codeLine="54" d="M653.71,52.21 C637.36,67.8 614.59,89.49 593.61,109.48 " fill="none" id="DeviceView-to-DeviceController" style="stroke:#181818;stroke-width:1.0;stroke-dasharray:7.0,7.0;"/><polygon fill="#181818" points="589.99,112.93,599.2587,109.5996,593.6032,109.4739,593.7289,103.8184,589.99,112.93" style="stroke:#181818;stroke-width:1.0;"/></g><!--link DeviceView to Device--><g id="link_DeviceView_Device"><path codeLine="55" d="M699.73,52.18 C714.98,67.7 734.14,89.87 745.5,113 C800.85,225.75 827.01,367.94 839.2,466.95 " fill="none" id="DeviceView-to-Device" style="stroke:#181818;stroke-width:1.0;stroke-dasharray:7.0,7.0;"/><polygon fill="#181818" points="839.81,471.92,842.6996,462.5046,839.2092,466.9562,834.7575,463.4659,839.81,471.92" style="stroke:#181818;stroke-width:1.0;"/></g><!--link DeviceController to ACME--><g id="link_DeviceController_ACME"><path codeLine="56" d="M425.49,213.08 C361.19,241 282.43,275.21 225.7,299.84 " fill="none" id="DeviceController-to-ACME" style="stroke:#181818;stroke-width:1.0;stroke-dasharray:7.0,7.0;"/><polygon fill="#181818" points="220.97,301.9,230.8186,301.9685,225.5531,299.9012,227.6205,294.6356,220.97,301.9" style="stroke:#181818;stroke-width:1.0;"/></g><!--link DeviceController to DeviceService--><g id="link_DeviceController_DeviceService"><path codeLine="57" d="M538.5,213.19 C538.5,230.5 538.5,250.22 538.5,268.57 " fill="none" id="DeviceController-to-DeviceService" style="stroke:#181818;stroke-width:1.0;stroke-dasharray:7.0,7.0;"/><polygon fill="#181818" points="538.5,273.71,542.5,264.71,538.5,268.71,534.5,264.71,538.5,273.71" style="stroke:#181818;stroke-width:1.0;"/></g><!--link DeviceService to DeviceRepository--><g id="link_DeviceService_DeviceRepository"><path codeLine="58" d="M520.31,393.26 C508.11,432.68 492.07,484.5 479.67,524.56 " fill="none" id="DeviceService-to-DeviceRepository" style="stroke:#181818;stroke-width:1.0;stroke-dasharray:7.0,7.0;"/><polygon fill="#181818" points="478.18,529.38,484.6546,521.9584,479.6534,524.602,477.0098,519.6009,478.18,529.38" style="stroke:#181818;stroke-width:1.0;"/></g><!--link ACME to DeviceService--><g id="link_ACME_DeviceService"><path codeLine="60" d="M273.27,333.5 C295.75,333.5 319.73,333.5 343.71,333.5 " fill="none" id="ACME-to-DeviceService" style="stroke:#181818;stroke-width:1.0;"/><polygon fill="#181818" points="348.83,333.5,339.83,329.5,343.83,333.5,339.83,337.5,348.83,333.5" style="stroke:#181818;stroke-width:1.0;"/><text fill="#000000" font-family="sans-serif" font-size="13" lengthAdjust="spacing" textLength="39" x="291.5" y="326.5283">adopts</text></g><!--link RepositoryFactory to DeviceRepository--><g id="link_RepositoryFactory_DeviceRepository"><path codeLine="61" d="M294.3,587.5 C304.25,587.5 314.2,587.5 324.15,587.5 " fill="none" id="RepositoryFactory-to-DeviceRepository" style="stroke:#181818;stroke-width:1.0;stroke-dasharray:7.0,7.0;"/><polygon fill="#181818" points="329.36,587.5,320.36,583.5,324.36,587.5,320.36,591.5,329.36,587.5" style="stroke:#181818;stroke-width:1.0;"/></g><!--SRC=[pLJBJW8n5DttAnesWig0Mq8cGT24H5r0uhvqhaDZQITj1uB6V_VET9otmQLiQCzzp3ddjhtQEvVOsMIIIAPSUf01ruS9bypQSIHORDY1aBs8W79Xk0HYtuLA6C8qJreuPyGkTR3cMct51z0f8Nc4hk0eEBmAED5FyjL4brevewK4Wp6AlviOt4BAuMX6duHrSvyMbh5jklEG7Ghbg8WGwCrDauWvy52HUaijabGnLUm0vIO2our8dD0A6nsrY2gIY-NpGurOyUKjcBmhfdka0DhY2lYdGGCS-jq64cs5q-QCF8ussux-bGzO0UQDeOeEuVcy38RX7yTtVrwl2XQbUrrDlqjgCAguF3BUIwasj2gvcbk5jKTNo1cZ2SK_al7Bp3I_gZcM0osJIn6N_IujG7UG7LRM4EpG1b-mKORvLhNpMRPiHnl7uFBuDs1JwKXcItu71dS3rAjFQXpcwuxrCqfJ2vPqJabUQKIyTrdfD0Yk1uLHM6A0QnDPGaZjaGY2iFCwzCT9vn79OXdX_aZpjZOlQHMldGelVjogd54MwSHPqZs0GQwqhzKt]--></g></svg>