<?xml version="1.0" encoding="us-ascii" standalone="no"?><svg xmlns="http://www.w3.org/2000/svg" xmlns:xlink="http://www.w3.org/1999/xlink" contentStyleType="text/css" height="1372px" preserveAspectRatio="none" style="width:1645px;height:1372px;background:#FFFFFF;" version="1.1" viewBox="0 0 1645 1372" width="1645px" zoomAndPan="magnify"><defs/><g><rect fill="#FFFFFF" height="1186.3887" style="stroke:#181818;stroke-width:1.0;" width="10" x="37" y="93.6211"/><rect fill="#FFFFFF" height="387.8223" style="stroke:#181818;stroke-width:1.0;" width="10" x="391" y="134.2031"/><rect fill="#FFFFFF" height="279.6191" style="stroke:#181818;stroke-width:1.0;" width="10" x="391" y="553.3164"/><rect fill="#FFFFFF" height="42.291" style="stroke:#181818;stroke-width:1.0;" width="10" x="396" y="592.6074"/><rect fill="#FFFFFF" height="406.7832" style="stroke:#181818;stroke-width:1.0;" width="10" x="391" y="864.2266"/><rect fill="#FFFFFF" height="325.2402" style="stroke:#181818;stroke-width:1.0;" width="10" x="644" y="165.4941"/><rect fill="#FFFFFF" height="281.6191" style="stroke:#181818;stroke-width:1.0;" width="10" x="644" y="958.0996"/><rect fill="#FFFFFF" height="137.4941" style="stroke:#181818;stroke-width:1.0;" width="10" x="797" y="196.7852"/><rect fill="#FFFFFF" height="93.873" style="stroke:#181818;stroke-width:1.0;" width="10" x="982.5" y="365.5703"/><rect fill="#FFFFFF" height="219.0371" style="stroke:#181818;stroke-width:1.0;" width="10" x="982.5" y="989.3906"/><rect fill="#FFFFFF" height="31.291" style="stroke:#181818;stroke-width:1.0;" width="10" x="1157.5" y="228.0762"/><rect fill="#FFFFFF" height="31.291" style="stroke:#181818;stroke-width:1.0;" width="10" x="1335" y="396.8613"/><rect fill="#FFFFFF" height="31.291" style="stroke:#181818;stroke-width:1.0;" width="10" x="1335" y="1020.6816"/><rect fill="#FFFFFF" height="31.291" style="stroke:#181818;stroke-width:1.0;" width="10" x="1335" y="1145.8457"/><rect fill="#FFFFFF" height="31.291" style="stroke:#181818;stroke-width:1.0;" width="10" x="1592" y="673.1895"/><rect fill="#FFFFFF" height="31.291" style="stroke:#181818;stroke-width:1.0;" width="10" x="1592" y="735.7715"/><rect fill="#FFFFFF" height="31.291" style="stroke:#181818;stroke-width:1.0;" width="10" x="1592" y="895.5176"/><rect fill="#FFFFFF" height="31.291" style="stroke:#181818;stroke-width:1.0;" width="10" x="1592" y="1083.2637"/><line style="stroke:#181818;stroke-width:0.5;stroke-dasharray:5.0,5.0;" x1="42" x2="42" y1="83.6211" y2="1289.0098"/><line style="stroke:#181818;stroke-width:0.5;stroke-dasharray:5.0,5.0;" x1="396" x2="396" y1="83.6211" y2="1289.0098"/><line style="stroke:#181818;stroke-width:0.5;stroke-dasharray:5.0,5.0;" x1="648.5" x2="648.5" y1="83.6211" y2="1289.0098"/><line style="stroke:#181818;stroke-width:0.5;stroke-dasharray:5.0,5.0;" x1="801.5" x2="801.5" y1="83.6211" y2="1289.0098"/><line style="stroke:#181818;stroke-width:0.5;stroke-dasharray:5.0,5.0;" x1="987" x2="987" y1="299.1777" y2="1289.0098"/><line style="stroke:#181818;stroke-width:0.5;stroke-dasharray:5.0,5.0;" x1="1162" x2="1162" y1="83.6211" y2="1289.0098"/><line style="stroke:#181818;stroke-width:0.5;stroke-dasharray:5.0,5.0;" x1="1340" x2="1340" y1="83.6211" y2="1289.0098"/><line style="stroke:#181818;stroke-width:0.5;stroke-dasharray:5.0,5.0;" x1="1487" x2="1487" y1="83.6211" y2="1289.0098"/><line style="stroke:#181818;stroke-width:0.5;stroke-dasharray:5.0,5.0;" x1="1597" x2="1597" y1="83.6211" y2="1289.0098"/><text fill="#000000" font-family="sans-serif" font-size="14" lengthAdjust="spacing" textLength="68" x="5" y="80.1074">Subscriber</text><ellipse cx="42" cy="13.5" fill="#E2E2F0" rx="8" ry="8" style="stroke:#181818;stroke-width:0.5;"/><path d="M42,21.5 L42,48.5 M29,29.5 L55,29.5 M42,48.5 L29,63.5 M42,48.5 L55,63.5 " fill="none" style="stroke:#181818;stroke-width:0.5;"/><text fill="#000000" font-family="sans-serif" font-size="14" lengthAdjust="spacing" textLength="68" x="5" y="1303.1172">Subscriber</text><ellipse cx="42" cy="1315.1309" fill="#E2E2F0" rx="8" ry="8" style="stroke:#181818;stroke-width:0.5;"/><path d="M42,1323.1309 L42,1350.1309 M29,1331.1309 L55,1331.1309 M42,1350.1309 L29,1365.1309 M42,1350.1309 L55,1365.1309 " fill="none" style="stroke:#181818;stroke-width:0.5;"/><rect fill="#E2E2F0" height="32.6211" rx="2.5" ry="2.5" style="stroke:#181818;stroke-width:0.5;" width="90" x="351" y="50"/><text fill="#000000" font-family="sans-serif" font-size="14" lengthAdjust="spacing" textLength="76" x="358" y="72.1074">:DeviceView</text><rect fill="#E2E2F0" height="32.6211" rx="2.5" ry="2.5" style="stroke:#181818;stroke-width:0.5;" width="90" x="351" y="1288.0098"/><text fill="#000000" font-family="sans-serif" font-size="14" lengthAdjust="spacing" textLength="76" x="358" y="1310.1172">:DeviceView</text><rect fill="#E2E2F0" height="32.6211" rx="2.5" ry="2.5" style="stroke:#181818;stroke-width:0.5;" width="123" x="587.5" y="50"/><text fill="#000000" font-family="sans-serif" font-size="14" lengthAdjust="spacing" textLength="109" x="594.5" y="72.1074">:DeviceController</text><rect fill="#E2E2F0" height="32.6211" rx="2.5" ry="2.5" style="stroke:#181818;stroke-width:0.5;" width="123" x="587.5" y="1288.0098"/><text fill="#000000" font-family="sans-serif" font-size="14" lengthAdjust="spacing" textLength="109" x="594.5" y="1310.1172">:DeviceController</text><rect fill="#E2E2F0" height="32.6211" rx="2.5" ry="2.5" style="stroke:#181818;stroke-width:0.5;" width="57" x="773.5" y="50"/><text fill="#000000" font-family="sans-serif" font-size="14" lengthAdjust="spacing" textLength="43" x="780.5" y="72.1074">:ACME</text><rect fill="#E2E2F0" height="32.6211" rx="2.5" ry="2.5" style="stroke:#181818;stroke-width:0.5;" width="57" x="773.5" y="1288.0098"/><text fill="#000000" font-family="sans-serif" font-size="14" lengthAdjust="spacing" textLength="43" x="780.5" y="1310.1172">:ACME</text><rect fill="#E2E2F0" height="32.6211" rx="2.5" ry="2.5" style="stroke:#181818;stroke-width:0.5;" width="153" x="911" y="1288.0098"/><text fill="#000000" font-family="sans-serif" font-size="14" lengthAdjust="spacing" textLength="139" x="918" y="1310.1172">service:DeviceService</text><rect fill="#E2E2F0" height="32.6211" rx="2.5" ry="2.5" style="stroke:#181818;stroke-width:0.5;" width="177" x="1074" y="50"/><text fill="#000000" font-family="sans-serif" font-size="14" lengthAdjust="spacing" textLength="163" x="1081" y="72.1074">factory:RepositoryFactory</text><rect fill="#E2E2F0" height="32.6211" rx="2.5" ry="2.5" style="stroke:#181818;stroke-width:0.5;" width="177" x="1074" y="1288.0098"/><text fill="#000000" font-family="sans-serif" font-size="14" lengthAdjust="spacing" textLength="163" x="1081" y="1310.1172">factory:RepositoryFactory</text><rect fill="#E2E2F0" height="32.6211" rx="2.5" ry="2.5" style="stroke:#181818;stroke-width:0.5;" width="158" x="1261" y="50"/><text fill="#000000" font-family="sans-serif" font-size="14" lengthAdjust="spacing" textLength="144" x="1268" y="72.1074">repo:DeviceRepository</text><rect fill="#E2E2F0" height="32.6211" rx="2.5" ry="2.5" style="stroke:#181818;stroke-width:0.5;" width="158" x="1261" y="1288.0098"/><text fill="#000000" font-family="sans-serif" font-size="14" lengthAdjust="spacing" textLength="144" x="1268" y="1310.1172">repo:DeviceRepository</text><rect fill="#E2E2F0" height="32.6211" rx="2.5" ry="2.5" style="stroke:#181818;stroke-width:0.5;" width="116" x="1429" y="50"/><text fill="#000000" font-family="sans-serif" font-size="14" lengthAdjust="spacing" textLength="102" x="1436" y="72.1074">list:List&lt;Device&gt;</text><rect fill="#E2E2F0" height="32.6211" rx="2.5" ry="2.5" style="stroke:#181818;stroke-width:0.5;" width="116" x="1429" y="1288.0098"/><text fill="#000000" font-family="sans-serif" font-size="14" lengthAdjust="spacing" textLength="102" x="1436" y="1310.1172">list:List&lt;Device&gt;</text><rect fill="#E2E2F0" height="32.6211" rx="2.5" ry="2.5" style="stroke:#181818;stroke-width:0.5;" width="84" x="1555" y="50"/><text fill="#000000" font-family="sans-serif" font-size="14" lengthAdjust="spacing" textLength="70" x="1562" y="72.1074">dev:Device</text><rect fill="#E2E2F0" height="32.6211" rx="2.5" ry="2.5" style="stroke:#181818;stroke-width:0.5;" width="84" x="1555" y="1288.0098"/><text fill="#000000" font-family="sans-serif" font-size="14" lengthAdjust="spacing" textLength="70" x="1562" y="1310.1172">dev:Device</text><rect fill="#FFFFFF" height="1186.3887" style="stroke:#181818;stroke-width:1.0;" width="10" x="37" y="93.6211"/><rect fill="#FFFFFF" height="387.8223" style="stroke:#181818;stroke-width:1.0;" width="10" x="391" y="134.2031"/><rect fill="#FFFFFF" height="279.6191" style="stroke:#181818;stroke-width:1.0;" width="10" x="391" y="553.3164"/><rect fill="#FFFFFF" height="42.291" style="stroke:#181818;stroke-width:1.0;" width="10" x="396" y="592.6074"/><rect fill="#FFFFFF" height="406.7832" style="stroke:#181818;stroke-width:1.0;" width="10" x="391" y="864.2266"/><rect fill="#FFFFFF" height="325.2402" style="stroke:#181818;stroke-width:1.0;" width="10" x="644" y="165.4941"/><rect fill="#FFFFFF" height="281.6191" style="stroke:#181818;stroke-width:1.0;" width="10" x="644" y="958.0996"/><rect fill="#FFFFFF" height="137.4941" style="stroke:#181818;stroke-width:1.0;" width="10" x="797" y="196.7852"/><rect fill="#FFFFFF" height="93.873" style="stroke:#181818;stroke-width:1.0;" width="10" x="982.5" y="365.5703"/><rect fill="#FFFFFF" height="219.0371" style="stroke:#181818;stroke-width:1.0;" width="10" x="982.5" y="989.3906"/><rect fill="#FFFFFF" height="31.291" style="stroke:#181818;stroke-width:1.0;" width="10" x="1157.5" y="228.0762"/><rect fill="#FFFFFF" height="31.291" style="stroke:#181818;stroke-width:1.0;" width="10" x="1335" y="396.8613"/><rect fill="#FFFFFF" height="31.291" style="stroke:#181818;stroke-width:1.0;" width="10" x="1335" y="1020.6816"/><rect fill="#FFFFFF" height="31.291" style="stroke:#181818;stroke-width:1.0;" width="10" x="1335" y="1145.8457"/><rect fill="#FFFFFF" height="31.291" style="stroke:#181818;stroke-width:1.0;" width="10" x="1592" y="673.1895"/><rect fill="#FFFFFF" height="31.291" style="stroke:#181818;stroke-width:1.0;" width="10" x="1592" y="735.7715"/><rect fill="#FFFFFF" height="31.291" style="stroke:#181818;stroke-width:1.0;" width="10" x="1592" y="895.5176"/><rect fill="#FFFFFF" height="31.291" style="stroke:#181818;stroke-width:1.0;" width="10" x="1592" y="1083.2637"/><polygon fill="#181818" points="379,130.2031,389,134.2031,379,138.2031,383,134.2031" style="stroke:#181818;stroke-width:1.0;"/><line style="stroke:#181818;stroke-width:1.0;" x1="47" x2="385" y1="134.2031" y2="134.2031"/><text fill="#000000" font-family="sans-serif" font-size="13" font-weight="bold" lengthAdjust="spacing" textLength="7" x="54" y="120.2949">1</text><text fill="#000000" font-family="sans-serif" font-size="13" lengthAdjust="spacing" textLength="184" x="65" y="111.6494">asks to update the name and/or</text><text fill="#000000" font-family="sans-serif" font-size="13" lengthAdjust="spacing" textLength="150" x="65" y="128.9404">the description of a device</text><polygon fill="#181818" points="632,161.4941,642,165.4941,632,169.4941,636,165.4941" style="stroke:#181818;stroke-width:1.0;"/><line style="stroke:#181818;stroke-width:1.0;" x1="401" x2="638" y1="165.4941" y2="165.4941"/><text fill="#000000" font-family="sans-serif" font-size="13" font-weight="bold" lengthAdjust="spacing" textLength="7" x="408" y="160.2314">2</text><text fill="#000000" font-family="sans-serif" font-size="13" lengthAdjust="spacing" textLength="41" x="419" y="160.2314">getAll()</text><polygon fill="#181818" points="785,192.7852,795,196.7852,785,200.7852,789,196.7852" style="stroke:#181818;stroke-width:1.0;"/><line style="stroke:#181818;stroke-width:1.0;" x1="654" x2="791" y1="196.7852" y2="196.7852"/><text fill="#000000" font-family="sans-serif" font-size="13" font-weight="bold" lengthAdjust="spacing" textLength="7" x="661" y="191.5225">3</text><text fill="#000000" font-family="sans-serif" font-size="13" lengthAdjust="spacing" textLength="113" x="672" y="191.5225">getDevicesService()</text><polygon fill="#181818" points="1145.5,224.0762,1155.5,228.0762,1145.5,232.0762,1149.5,228.0762" style="stroke:#181818;stroke-width:1.0;"/><line style="stroke:#181818;stroke-width:1.0;" x1="807" x2="1151.5" y1="228.0762" y2="228.0762"/><text fill="#000000" font-family="sans-serif" font-size="13" font-weight="bold" lengthAdjust="spacing" textLength="7" x="814" y="222.8135">4</text><text fill="#000000" font-family="sans-serif" font-size="13" lengthAdjust="spacing" textLength="133" x="825" y="222.8135">getDevicesRepository()</text><polygon fill="#181818" points="818,255.3672,808,259.3672,818,263.3672,814,259.3672" style="stroke:#181818;stroke-width:1.0;"/><line style="stroke:#181818;stroke-width:1.0;stroke-dasharray:2.0,2.0;" x1="812" x2="1161.5" y1="259.3672" y2="259.3672"/><text fill="#000000" font-family="sans-serif" font-size="13" font-weight="bold" lengthAdjust="spacing" textLength="7" x="824" y="254.1045">5</text><text fill="#000000" font-family="sans-serif" font-size="13" lengthAdjust="spacing" textLength="25" x="835" y="254.1045">repo</text><polygon fill="#181818" points="899,286.6582,909,290.6582,899,294.6582,903,290.6582" style="stroke:#181818;stroke-width:1.0;"/><line style="stroke:#181818;stroke-width:1.0;stroke-dasharray:2.0,2.0;" x1="807" x2="905" y1="290.6582" y2="290.6582"/><text fill="#000000" font-family="sans-serif" font-size="13" font-weight="bold" lengthAdjust="spacing" textLength="7" x="814" y="285.3955">6</text><text fill="#000000" font-family="sans-serif" font-size="13" lengthAdjust="spacing" textLength="69" x="825" y="285.3955">create(repo)</text><rect fill="#E2E2F0" height="32.6211" rx="2.5" ry="2.5" style="stroke:#181818;stroke-width:0.5;" width="153" x="911" y="267.3672"/><text fill="#000000" font-family="sans-serif" font-size="14" lengthAdjust="spacing" textLength="139" x="918" y="289.4746">service:DeviceService</text><polygon fill="#181818" points="665,330.2793,655,334.2793,665,338.2793,661,334.2793" style="stroke:#181818;stroke-width:1.0;"/><line style="stroke:#181818;stroke-width:1.0;stroke-dasharray:2.0,2.0;" x1="659" x2="801" y1="334.2793" y2="334.2793"/><text fill="#000000" font-family="sans-serif" font-size="13" font-weight="bold" lengthAdjust="spacing" textLength="7" x="671" y="329.0166">7</text><text fill="#000000" font-family="sans-serif" font-size="13" lengthAdjust="spacing" textLength="40" x="682" y="329.0166">service</text><polygon fill="#181818" points="970.5,361.5703,980.5,365.5703,970.5,369.5703,974.5,365.5703" style="stroke:#181818;stroke-width:1.0;"/><line style="stroke:#181818;stroke-width:1.0;" x1="654" x2="976.5" y1="365.5703" y2="365.5703"/><text fill="#000000" font-family="sans-serif" font-size="13" font-weight="bold" lengthAdjust="spacing" textLength="7" x="661" y="360.3076">8</text><text fill="#000000" font-family="sans-serif" font-size="13" lengthAdjust="spacing" textLength="127" x="672" y="360.3076">getSubDevices(idSub)</text><polygon fill="#181818" points="1323,392.8613,1333,396.8613,1323,400.8613,1327,396.8613" style="stroke:#181818;stroke-width:1.0;"/><line style="stroke:#181818;stroke-width:1.0;" x1="992.5" x2="1329" y1="396.8613" y2="396.8613"/><text fill="#000000" font-family="sans-serif" font-size="13" font-weight="bold" lengthAdjust="spacing" textLength="7" x="999.5" y="391.5986">9</text><text fill="#000000" font-family="sans-serif" font-size="13" lengthAdjust="spacing" textLength="127" x="1010.5" y="391.5986">getSubDevices(idSub)</text><polygon fill="#181818" points="1003.5,424.1523,993.5,428.1523,1003.5,432.1523,999.5,428.1523" style="stroke:#181818;stroke-width:1.0;"/><line style="stroke:#181818;stroke-width:1.0;stroke-dasharray:2.0,2.0;" x1="997.5" x2="1339" y1="428.1523" y2="428.1523"/><text fill="#000000" font-family="sans-serif" font-size="13" font-weight="bold" lengthAdjust="spacing" textLength="14" x="1009.5" y="422.8896">10</text><text fill="#000000" font-family="sans-serif" font-size="13" lengthAdjust="spacing" textLength="17" x="1027.5" y="422.8896">list</text><polygon fill="#181818" points="665,455.4434,655,459.4434,665,463.4434,661,459.4434" style="stroke:#181818;stroke-width:1.0;"/><line style="stroke:#181818;stroke-width:1.0;stroke-dasharray:2.0,2.0;" x1="659" x2="986.5" y1="459.4434" y2="459.4434"/><text fill="#000000" font-family="sans-serif" font-size="13" font-weight="bold" lengthAdjust="spacing" textLength="14" x="671" y="454.1807">11</text><text fill="#000000" font-family="sans-serif" font-size="13" lengthAdjust="spacing" textLength="17" x="689" y="454.1807">list</text><polygon fill="#181818" points="412,486.7344,402,490.7344,412,494.7344,408,490.7344" style="stroke:#181818;stroke-width:1.0;"/><line style="stroke:#181818;stroke-width:1.0;stroke-dasharray:2.0,2.0;" x1="406" x2="648" y1="490.7344" y2="490.7344"/><text fill="#000000" font-family="sans-serif" font-size="13" font-weight="bold" lengthAdjust="spacing" textLength="14" x="418" y="485.4717">12</text><text fill="#000000" font-family="sans-serif" font-size="13" lengthAdjust="spacing" textLength="17" x="436" y="485.4717">list</text><polygon fill="#181818" points="58,518.0254,48,522.0254,58,526.0254,54,522.0254" style="stroke:#181818;stroke-width:1.0;"/><line style="stroke:#181818;stroke-width:1.0;stroke-dasharray:2.0,2.0;" x1="52" x2="395" y1="522.0254" y2="522.0254"/><text fill="#000000" font-family="sans-serif" font-size="13" font-weight="bold" lengthAdjust="spacing" textLength="14" x="64" y="516.7627">13</text><text fill="#000000" font-family="sans-serif" font-size="13" lengthAdjust="spacing" textLength="302" x="82" y="516.7627">shows all the devices associated with a subscription</text><polygon fill="#181818" points="379,549.3164,389,553.3164,379,557.3164,383,553.3164" style="stroke:#181818;stroke-width:1.0;"/><line style="stroke:#181818;stroke-width:1.0;" x1="47" x2="385" y1="553.3164" y2="553.3164"/><text fill="#000000" font-family="sans-serif" font-size="13" font-weight="bold" lengthAdjust="spacing" textLength="14" x="54" y="548.0537">14</text><text fill="#000000" font-family="sans-serif" font-size="13" lengthAdjust="spacing" textLength="277" x="72" y="548.0537">selects the device that the user wants to update</text><line style="stroke:#181818;stroke-width:1.0;" x1="401" x2="448" y1="579.6074" y2="579.6074"/><line style="stroke:#181818;stroke-width:1.0;" x1="448" x2="448" y1="579.6074" y2="592.6074"/><line style="stroke:#181818;stroke-width:1.0;" x1="407" x2="448" y1="592.6074" y2="592.6074"/><polygon fill="#181818" points="417,588.6074,407,592.6074,417,596.6074,413,592.6074" style="stroke:#181818;stroke-width:1.0;"/><text fill="#000000" font-family="sans-serif" font-size="13" font-weight="bold" lengthAdjust="spacing" textLength="14" x="413" y="574.3447">15</text><text fill="#000000" font-family="sans-serif" font-size="13" lengthAdjust="spacing" textLength="117" x="431" y="574.3447">findSelectedDevice()</text><line style="stroke:#181818;stroke-width:1.0;stroke-dasharray:2.0,2.0;" x1="406" x2="448" y1="633.8984" y2="633.8984"/><line style="stroke:#181818;stroke-width:1.0;stroke-dasharray:2.0,2.0;" x1="448" x2="448" y1="633.8984" y2="646.8984"/><line style="stroke:#181818;stroke-width:1.0;stroke-dasharray:2.0,2.0;" x1="401" x2="448" y1="646.8984" y2="646.8984"/><polygon fill="#181818" points="411,642.8984,401,646.8984,411,650.8984,407,646.8984" style="stroke:#181818;stroke-width:1.0;"/><text fill="#000000" font-family="sans-serif" font-size="13" font-weight="bold" lengthAdjust="spacing" textLength="14" x="413" y="628.6357">16</text><text fill="#000000" font-family="sans-serif" font-size="13" lengthAdjust="spacing" textLength="36" x="431" y="628.6357">device</text><polygon fill="#181818" points="1580,669.1895,1590,673.1895,1580,677.1895,1584,673.1895" style="stroke:#181818;stroke-width:1.0;"/><line style="stroke:#181818;stroke-width:1.0;" x1="401" x2="1586" y1="673.1895" y2="673.1895"/><text fill="#000000" font-family="sans-serif" font-size="13" font-weight="bold" lengthAdjust="spacing" textLength="14" x="408" y="667.9268">17</text><text fill="#000000" font-family="sans-serif" font-size="13" lengthAdjust="spacing" textLength="60" x="426" y="667.9268">getName()</text><polygon fill="#181818" points="412,700.4805,402,704.4805,412,708.4805,408,704.4805" style="stroke:#181818;stroke-width:1.0;"/><line style="stroke:#181818;stroke-width:1.0;stroke-dasharray:2.0,2.0;" x1="406" x2="1596" y1="704.4805" y2="704.4805"/><text fill="#000000" font-family="sans-serif" font-size="13" font-weight="bold" lengthAdjust="spacing" textLength="14" x="418" y="699.2178">18</text><text fill="#000000" font-family="sans-serif" font-size="13" lengthAdjust="spacing" textLength="32" x="436" y="699.2178">name</text><polygon fill="#181818" points="1580,731.7715,1590,735.7715,1580,739.7715,1584,735.7715" style="stroke:#181818;stroke-width:1.0;"/><line style="stroke:#181818;stroke-width:1.0;" x1="401" x2="1586" y1="735.7715" y2="735.7715"/><text fill="#000000" font-family="sans-serif" font-size="13" font-weight="bold" lengthAdjust="spacing" textLength="14" x="408" y="730.5088">19</text><text fill="#000000" font-family="sans-serif" font-size="13" lengthAdjust="spacing" textLength="91" x="426" y="730.5088">getDescription()</text><polygon fill="#181818" points="412,763.0625,402,767.0625,412,771.0625,408,767.0625" style="stroke:#181818;stroke-width:1.0;"/><line style="stroke:#181818;stroke-width:1.0;stroke-dasharray:2.0,2.0;" x1="406" x2="1596" y1="767.0625" y2="767.0625"/><text fill="#000000" font-family="sans-serif" font-size="13" font-weight="bold" lengthAdjust="spacing" textLength="14" x="418" y="761.7998">20</text><text fill="#000000" font-family="sans-serif" font-size="13" lengthAdjust="spacing" textLength="63" x="436" y="761.7998">description</text><polygon fill="#181818" points="58,828.9355,48,832.9355,58,836.9355,54,832.9355" style="stroke:#181818;stroke-width:1.0;"/><line style="stroke:#181818;stroke-width:1.0;stroke-dasharray:2.0,2.0;" x1="52" x2="395" y1="832.9355" y2="832.9355"/><text fill="#000000" font-family="sans-serif" font-size="13" font-weight="bold" lengthAdjust="spacing" textLength="14" x="64" y="810.3818">21</text><text fill="#000000" font-family="sans-serif" font-size="13" lengthAdjust="spacing" textLength="260" x="82" y="793.0908">shoes the actual name and description of the</text><text fill="#000000" font-family="sans-serif" font-size="13" lengthAdjust="spacing" textLength="242" x="82" y="810.3818">selected device and ask for the new name</text><text fill="#000000" font-family="sans-serif" font-size="13" lengthAdjust="spacing" textLength="103" x="82" y="827.6729">and/or description</text><polygon fill="#181818" points="379,860.2266,389,864.2266,379,868.2266,383,864.2266" style="stroke:#181818;stroke-width:1.0;"/><line style="stroke:#181818;stroke-width:1.0;" x1="47" x2="385" y1="864.2266" y2="864.2266"/><text fill="#000000" font-family="sans-serif" font-size="13" font-weight="bold" lengthAdjust="spacing" textLength="14" x="54" y="858.9639">22</text><text fill="#000000" font-family="sans-serif" font-size="13" lengthAdjust="spacing" textLength="122" x="72" y="858.9639">types requested data</text><polygon fill="#181818" points="1580,891.5176,1590,895.5176,1580,899.5176,1584,895.5176" style="stroke:#181818;stroke-width:1.0;"/><line style="stroke:#181818;stroke-width:1.0;" x1="401" x2="1586" y1="895.5176" y2="895.5176"/><text fill="#000000" font-family="sans-serif" font-size="13" font-weight="bold" lengthAdjust="spacing" textLength="14" x="408" y="890.2549">23</text><text fill="#000000" font-family="sans-serif" font-size="13" lengthAdjust="spacing" textLength="38" x="426" y="890.2549">getID()</text><polygon fill="#181818" points="412,922.8086,402,926.8086,412,930.8086,408,926.8086" style="stroke:#181818;stroke-width:1.0;"/><line style="stroke:#181818;stroke-width:1.0;stroke-dasharray:2.0,2.0;" x1="406" x2="1596" y1="926.8086" y2="926.8086"/><text fill="#000000" font-family="sans-serif" font-size="13" font-weight="bold" lengthAdjust="spacing" textLength="14" x="418" y="921.5459">24</text><text fill="#000000" font-family="sans-serif" font-size="13" lengthAdjust="spacing" textLength="10" x="436" y="921.5459">id</text><polygon fill="#181818" points="632,954.0996,642,958.0996,632,962.0996,636,958.0996" style="stroke:#181818;stroke-width:1.0;"/><line style="stroke:#181818;stroke-width:1.0;" x1="401" x2="638" y1="958.0996" y2="958.0996"/><text fill="#000000" font-family="sans-serif" font-size="13" font-weight="bold" lengthAdjust="spacing" textLength="14" x="408" y="952.8369">25</text><text fill="#000000" font-family="sans-serif" font-size="13" lengthAdjust="spacing" textLength="206" x="426" y="952.8369">updateDevice(id, name, description)</text><polygon fill="#181818" points="970.5,985.3906,980.5,989.3906,970.5,993.3906,974.5,989.3906" style="stroke:#181818;stroke-width:1.0;"/><line style="stroke:#181818;stroke-width:1.0;" x1="654" x2="976.5" y1="989.3906" y2="989.3906"/><text fill="#000000" font-family="sans-serif" font-size="13" font-weight="bold" lengthAdjust="spacing" textLength="14" x="661" y="984.1279">26</text><text fill="#000000" font-family="sans-serif" font-size="13" lengthAdjust="spacing" textLength="206" x="679" y="984.1279">updateDevice(id, name, description)</text><polygon fill="#181818" points="1323,1016.6816,1333,1020.6816,1323,1024.6816,1327,1020.6816" style="stroke:#181818;stroke-width:1.0;"/><line style="stroke:#181818;stroke-width:1.0;" x1="992.5" x2="1329" y1="1020.6816" y2="1020.6816"/><text fill="#000000" font-family="sans-serif" font-size="13" font-weight="bold" lengthAdjust="spacing" textLength="14" x="999.5" y="1015.4189">27</text><text fill="#000000" font-family="sans-serif" font-size="13" lengthAdjust="spacing" textLength="62" x="1017.5" y="1015.4189">getById(id)</text><polygon fill="#181818" points="1003.5,1047.9727,993.5,1051.9727,1003.5,1055.9727,999.5,1051.9727" style="stroke:#181818;stroke-width:1.0;"/><line style="stroke:#181818;stroke-width:1.0;stroke-dasharray:2.0,2.0;" x1="997.5" x2="1339" y1="1051.9727" y2="1051.9727"/><text fill="#000000" font-family="sans-serif" font-size="13" font-weight="bold" lengthAdjust="spacing" textLength="14" x="1009.5" y="1046.71">28</text><text fill="#000000" font-family="sans-serif" font-size="13" lengthAdjust="spacing" textLength="19" x="1027.5" y="1046.71">dev</text><polygon fill="#181818" points="1580,1079.2637,1590,1083.2637,1580,1087.2637,1584,1083.2637" style="stroke:#181818;stroke-width:1.0;"/><line style="stroke:#181818;stroke-width:1.0;" x1="992.5" x2="1586" y1="1083.2637" y2="1083.2637"/><text fill="#000000" font-family="sans-serif" font-size="13" font-weight="bold" lengthAdjust="spacing" textLength="14" x="999.5" y="1078.001">29</text><text fill="#000000" font-family="sans-serif" font-size="13" lengthAdjust="spacing" textLength="188" x="1017.5" y="1078.001">updateDevice(name, description)</text><polygon fill="#181818" points="1003.5,1110.5547,993.5,1114.5547,1003.5,1118.5547,999.5,1114.5547" style="stroke:#181818;stroke-width:1.0;"/><line style="stroke:#181818;stroke-width:1.0;stroke-dasharray:2.0,2.0;" x1="997.5" x2="1596" y1="1114.5547" y2="1114.5547"/><text fill="#000000" font-family="sans-serif" font-size="13" font-weight="bold" lengthAdjust="spacing" textLength="14" x="1009.5" y="1109.292">30</text><text fill="#000000" font-family="sans-serif" font-size="13" lengthAdjust="spacing" textLength="14" x="1027.5" y="1109.292">ok</text><polygon fill="#181818" points="1323,1141.8457,1333,1145.8457,1323,1149.8457,1327,1145.8457" style="stroke:#181818;stroke-width:1.0;"/><line style="stroke:#181818;stroke-width:1.0;" x1="992.5" x2="1329" y1="1145.8457" y2="1145.8457"/><text fill="#000000" font-family="sans-serif" font-size="13" font-weight="bold" lengthAdjust="spacing" textLength="14" x="999.5" y="1140.583">31</text><text fill="#000000" font-family="sans-serif" font-size="13" lengthAdjust="spacing" textLength="53" x="1017.5" y="1140.583">save(dev)</text><polygon fill="#181818" points="1003.5,1173.1367,993.5,1177.1367,1003.5,1181.1367,999.5,1177.1367" style="stroke:#181818;stroke-width:1.0;"/><line style="stroke:#181818;stroke-width:1.0;stroke-dasharray:2.0,2.0;" x1="997.5" x2="1339" y1="1177.1367" y2="1177.1367"/><text fill="#000000" font-family="sans-serif" font-size="13" font-weight="bold" lengthAdjust="spacing" textLength="14" x="1009.5" y="1171.874">32</text><text fill="#000000" font-family="sans-serif" font-size="13" lengthAdjust="spacing" textLength="14" x="1027.5" y="1171.874">ok</text><polygon fill="#181818" points="665,1204.4277,655,1208.4277,665,1212.4277,661,1208.4277" style="stroke:#181818;stroke-width:1.0;"/><line style="stroke:#181818;stroke-width:1.0;stroke-dasharray:2.0,2.0;" x1="659" x2="986.5" y1="1208.4277" y2="1208.4277"/><text fill="#000000" font-family="sans-serif" font-size="13" font-weight="bold" lengthAdjust="spacing" textLength="14" x="671" y="1203.165">33</text><text fill="#000000" font-family="sans-serif" font-size="13" lengthAdjust="spacing" textLength="14" x="689" y="1203.165">ok</text><polygon fill="#181818" points="412,1235.7188,402,1239.7188,412,1243.7188,408,1239.7188" style="stroke:#181818;stroke-width:1.0;"/><line style="stroke:#181818;stroke-width:1.0;stroke-dasharray:2.0,2.0;" x1="406" x2="648" y1="1239.7188" y2="1239.7188"/><text fill="#000000" font-family="sans-serif" font-size="13" font-weight="bold" lengthAdjust="spacing" textLength="14" x="418" y="1234.4561">34</text><text fill="#000000" font-family="sans-serif" font-size="13" lengthAdjust="spacing" textLength="14" x="436" y="1234.4561">ok</text><polygon fill="#181818" points="58,1267.0098,48,1271.0098,58,1275.0098,54,1271.0098" style="stroke:#181818;stroke-width:1.0;"/><line style="stroke:#181818;stroke-width:1.0;stroke-dasharray:2.0,2.0;" x1="52" x2="395" y1="1271.0098" y2="1271.0098"/><text fill="#000000" font-family="sans-serif" font-size="13" font-weight="bold" lengthAdjust="spacing" textLength="14" x="64" y="1265.7471">35</text><text fill="#000000" font-family="sans-serif" font-size="13" lengthAdjust="spacing" textLength="152" x="82" y="1265.7471">informs operation success</text><!--SRC=[ZLJ1Rjim3BtxAuHUbXJDSZU605dI0GNM7HPifrnKYsc4of9doGdozoCfnP5Z3zZ5aCZ7H_AHygTZ28qlbyl6I1kwsdokNBtqyAS3My52QVdUoheeP1USh88-oG32MRxRhdw35drLSArus7LllcercXw4zEANHryZsw0htI2tU2YtSD8L_DPmPiJkuWFKavYDiw5rnYIkJMZD7MwzUNrct_fryppqOMBYI5IxU8iPuta8Ft3zb_8dDCvhEdwB5Wv9vs58Yz14VujYE5s7MADzAB_ZvqiCM36E34ESWbEYP40yihXHTDQpeAzOh99s9I8_l0XET8qYK3Y2iB868QrQub3sbYmAQ31DqCuATn0I3KmUIOYE12x5EuIrCRDvGLSoaxPiZjNuf1yYo4E898_8KJT947W5B7ew4Y_5BrQ9yV6n55KBsCACtFFUdofB8-qBIs6S5VSk9PvfXPTvaRm4f5h-WI8Nf-Z9Q5Itu3uvcsFcJFa8JWgYdIQ3XHxTsGjfZ8Z2SqQSadULnkwKEEjmn0du-5Xu9iLuh1uCLC5d97YKWUyTOS-uCzdWir5UAGxQgXtJW8gTupIoUg-uqIv4C8ls0rS9ew9b44LBDXsplItRT6YsZPFwGMmRzwQJfj_c-oKcoDxwrE1L90BYan07t7r-2t2E37kRNaIUVIHxk3IOlQM_dsTM6UHqbo_RwUQqkdzLSK1f0bezSJrFUHtpyLh_Jz3Kbd-zl2Z4JoqtAfI7N7iPP9h8alUOealXFiRPlJp139DCvSxn_RD2u-XH4V1-9RJ5QTPUk0PQoUFtNOMloXT_0G00]--></g></svg>