<?xml version="1.0" encoding="UTF-8" standalone="no"?><svg xmlns="http://www.w3.org/2000/svg" xmlns:xlink="http://www.w3.org/1999/xlink" contentStyleType="text/css" height="826px" preserveAspectRatio="none" style="width:552px;height:826px;background:#FFFFFF;" version="1.1" viewBox="0 0 552 826" width="552px" zoomAndPan="magnify"><defs/><g><!--MD5=[a0d94b09b17b306fb81c487dc7673e5c]
class SubscriptionController--><g id="elem_SubscriptionController"><rect codeLine="1" fill="#F1F1F1" height="66.6211" id="SubscriptionController" rx="2.5" ry="2.5" style="stroke:#181818;stroke-width:0.5;" width="172" x="171" y="7"/><ellipse cx="186" cy="23" fill="#ADD1B2" rx="11" ry="11" style="stroke:#181818;stroke-width:1.0;"/><path d="M188.7656,18.875 Q188.9219,18.6563 189.1094,18.5469 Q189.2969,18.4375 189.5156,18.4375 Q189.8906,18.4375 190.125,18.7031 Q190.3594,18.9531 190.3594,19.5625 L190.3594,21.0156 Q190.3594,21.625 190.125,21.8906 Q189.8906,22.1563 189.5156,22.1563 Q189.1719,22.1563 188.9688,21.9531 Q188.7656,21.7656 188.6563,21.25 Q188.6094,20.8906 188.4219,20.7031 Q188.0938,20.3281 187.4844,20.1094 Q186.875,19.8906 186.25,19.8906 Q185.4844,19.8906 184.8438,20.2188 Q184.2188,20.5469 183.7188,21.2969 Q183.2344,22.0469 183.2344,23.0781 L183.2344,24.1719 Q183.2344,25.4063 184.125,26.2344 Q185.0156,27.0469 186.6094,27.0469 Q187.5469,27.0469 188.2031,26.7969 Q188.5938,26.6406 189.0156,26.2031 Q189.2813,25.9375 189.4219,25.8594 Q189.5781,25.7813 189.7813,25.7813 Q190.1094,25.7813 190.3594,26.0469 Q190.625,26.2969 190.625,26.6406 Q190.625,26.9844 190.2813,27.3906 Q189.7813,27.9688 188.9844,28.2969 Q187.9063,28.75 186.6094,28.75 Q185.0938,28.75 183.8906,28.125 Q182.9063,27.625 182.2188,26.5625 Q181.5313,25.4844 181.5313,24.2031 L181.5313,23.0469 Q181.5313,21.7188 182.1406,20.5781 Q182.7656,19.4219 183.8594,18.8125 Q184.9531,18.1875 186.1875,18.1875 Q186.9219,18.1875 187.5625,18.3594 Q188.2188,18.5156 188.7656,18.875 Z " fill="#000000"/><text fill="#000000" font-family="sans-serif" font-size="14" lengthAdjust="spacing" textLength="140" x="200" y="28.7969">SubscriptionController</text><line style="stroke:#181818;stroke-width:0.5;" x1="172" x2="342" y1="39" y2="39"/><line style="stroke:#181818;stroke-width:0.5;" x1="172" x2="342" y1="47" y2="47"/><ellipse cx="182" cy="61.8105" fill="#84BE84" rx="3" ry="3" style="stroke:#038048;stroke-width:1.0;"/><text fill="#000000" font-family="sans-serif" font-size="14" lengthAdjust="spacing" textLength="134" x="191" y="66.1074">updateState(Long id)</text></g><!--MD5=[0dcc03df3314187238fb9500a6ba3a42]
class SubscriptionService--><g id="elem_SubscriptionService"><rect codeLine="7" fill="#F1F1F1" height="66.6211" id="SubscriptionService" rx="2.5" ry="2.5" style="stroke:#181818;stroke-width:0.5;" width="208" x="153" y="135"/><ellipse cx="190.95" cy="151" fill="#ADD1B2" rx="11" ry="11" style="stroke:#181818;stroke-width:1.0;"/><path d="M193.7156,146.875 Q193.8719,146.6563 194.0594,146.5469 Q194.2469,146.4375 194.4656,146.4375 Q194.8406,146.4375 195.075,146.7031 Q195.3094,146.9531 195.3094,147.5625 L195.3094,149.0156 Q195.3094,149.625 195.075,149.8906 Q194.8406,150.1563 194.4656,150.1563 Q194.1219,150.1563 193.9188,149.9531 Q193.7156,149.7656 193.6063,149.25 Q193.5594,148.8906 193.3719,148.7031 Q193.0438,148.3281 192.4344,148.1094 Q191.825,147.8906 191.2,147.8906 Q190.4344,147.8906 189.7938,148.2188 Q189.1688,148.5469 188.6688,149.2969 Q188.1844,150.0469 188.1844,151.0781 L188.1844,152.1719 Q188.1844,153.4063 189.075,154.2344 Q189.9656,155.0469 191.5594,155.0469 Q192.4969,155.0469 193.1531,154.7969 Q193.5438,154.6406 193.9656,154.2031 Q194.2313,153.9375 194.3719,153.8594 Q194.5281,153.7813 194.7313,153.7813 Q195.0594,153.7813 195.3094,154.0469 Q195.575,154.2969 195.575,154.6406 Q195.575,154.9844 195.2313,155.3906 Q194.7313,155.9688 193.9344,156.2969 Q192.8563,156.75 191.5594,156.75 Q190.0438,156.75 188.8406,156.125 Q187.8563,155.625 187.1688,154.5625 Q186.4813,153.4844 186.4813,152.2031 L186.4813,151.0469 Q186.4813,149.7188 187.0906,148.5781 Q187.7156,147.4219 188.8094,146.8125 Q189.9031,146.1875 191.1375,146.1875 Q191.8719,146.1875 192.5125,146.3594 Q193.1688,146.5156 193.7156,146.875 Z " fill="#000000"/><text fill="#000000" font-family="sans-serif" font-size="14" lengthAdjust="spacing" textLength="125" x="210.05" y="156.7969">SubscriptionService</text><line style="stroke:#181818;stroke-width:0.5;" x1="154" x2="360" y1="167" y2="167"/><line style="stroke:#181818;stroke-width:0.5;" x1="154" x2="360" y1="175" y2="175"/><ellipse cx="164" cy="189.8105" fill="#84BE84" rx="3" ry="3" style="stroke:#038048;stroke-width:1.0;"/><text fill="#000000" font-family="sans-serif" font-size="14" lengthAdjust="spacing" textLength="182" x="173" y="194.1074">updateState(Long id): Result</text></g><!--MD5=[d845121cb320b282bcbc82de8d275a60]
class SubscriptionServiceImpl--><g id="elem_SubscriptionServiceImpl"><rect codeLine="10" fill="#F1F1F1" height="85.2422" id="SubscriptionServiceImpl" rx="2.5" ry="2.5" style="stroke:#181818;stroke-width:0.5;" width="298" x="7" y="263"/><ellipse cx="76.75" cy="279" fill="#ADD1B2" rx="11" ry="11" style="stroke:#181818;stroke-width:1.0;"/><path d="M79.5156,274.875 Q79.6719,274.6563 79.8594,274.5469 Q80.0469,274.4375 80.2656,274.4375 Q80.6406,274.4375 80.875,274.7031 Q81.1094,274.9531 81.1094,275.5625 L81.1094,277.0156 Q81.1094,277.625 80.875,277.8906 Q80.6406,278.1563 80.2656,278.1563 Q79.9219,278.1563 79.7188,277.9531 Q79.5156,277.7656 79.4063,277.25 Q79.3594,276.8906 79.1719,276.7031 Q78.8438,276.3281 78.2344,276.1094 Q77.625,275.8906 77,275.8906 Q76.2344,275.8906 75.5938,276.2188 Q74.9688,276.5469 74.4688,277.2969 Q73.9844,278.0469 73.9844,279.0781 L73.9844,280.1719 Q73.9844,281.4063 74.875,282.2344 Q75.7656,283.0469 77.3594,283.0469 Q78.2969,283.0469 78.9531,282.7969 Q79.3438,282.6406 79.7656,282.2031 Q80.0313,281.9375 80.1719,281.8594 Q80.3281,281.7813 80.5313,281.7813 Q80.8594,281.7813 81.1094,282.0469 Q81.375,282.2969 81.375,282.6406 Q81.375,282.9844 81.0313,283.3906 Q80.5313,283.9688 79.7344,284.2969 Q78.6563,284.75 77.3594,284.75 Q75.8438,284.75 74.6406,284.125 Q73.6563,283.625 72.9688,282.5625 Q72.2813,281.4844 72.2813,280.2031 L72.2813,279.0469 Q72.2813,277.7188 72.8906,276.5781 Q73.5156,275.4219 74.6094,274.8125 Q75.7031,274.1875 76.9375,274.1875 Q77.6719,274.1875 78.3125,274.3594 Q78.9688,274.5156 79.5156,274.875 Z " fill="#000000"/><text fill="#000000" font-family="sans-serif" font-size="14" lengthAdjust="spacing" textLength="150" x="97.25" y="284.7969">SubscriptionServiceImpl</text><line style="stroke:#181818;stroke-width:0.5;" x1="8" x2="304" y1="295" y2="295"/><line style="stroke:#181818;stroke-width:0.5;" x1="8" x2="304" y1="303" y2="303"/><ellipse cx="18" cy="317.8105" fill="#84BE84" rx="3" ry="3" style="stroke:#038048;stroke-width:1.0;"/><text fill="#000000" font-family="sans-serif" font-size="14" lengthAdjust="spacing" textLength="88" x="27" y="322.1074">getSubState()</text><ellipse cx="18" cy="336.4316" fill="#84BE84" rx="3" ry="3" style="stroke:#038048;stroke-width:1.0;"/><text fill="#000000" font-family="sans-serif" font-size="14" lengthAdjust="spacing" textLength="272" x="27" y="340.7285">setSubState(SubscriptionStatus.Cancelled)</text></g><!--MD5=[8cb61edb30e29c1e32ddb687c0ab6f7a]
class SubscriptionRepository--><g id="elem_SubscriptionRepository"><rect codeLine="15" fill="#F1F1F1" height="79.2031" id="SubscriptionRepository" rx="2.5" ry="2.5" style="stroke:#181818;stroke-width:0.5;" width="196" x="38" y="409"/><ellipse cx="61.1" cy="431.291" fill="#B4A7E5" rx="11" ry="11" style="stroke:#181818;stroke-width:1.0;"/><path d="M62.0531,427.9316 L62.0531,434.5879 L63.7719,434.5879 Q64.3813,434.5879 64.6469,434.8223 Q64.9125,435.0566 64.9125,435.4473 Q64.9125,435.8223 64.6469,436.0566 Q64.3813,436.291 63.7719,436.291 L58.6313,436.291 Q58.0219,436.291 57.7563,436.0566 Q57.4906,435.8223 57.4906,435.4316 Q57.4906,435.0566 57.7563,434.8223 Q58.0219,434.5879 58.6313,434.5879 L60.35,434.5879 L60.35,427.9316 L58.6313,427.9316 Q58.0219,427.9316 57.7563,427.6973 Q57.4906,427.4629 57.4906,427.0723 Q57.4906,426.6973 57.7563,426.4629 Q58.0219,426.2285 58.6313,426.2285 L63.7719,426.2285 Q64.3813,426.2285 64.6469,426.4629 Q64.9125,426.6973 64.9125,427.0723 Q64.9125,427.4629 64.6469,427.6973 Q64.3813,427.9316 63.7719,427.9316 L62.0531,427.9316 Z " fill="#000000"/><text fill="#000000" font-family="sans-serif" font-size="12" font-style="italic" lengthAdjust="spacing" textLength="61" x="119.4" y="426.9492">«interface»</text><text fill="#000000" font-family="sans-serif" font-size="14" font-style="italic" lengthAdjust="spacing" textLength="146" x="76.9" y="445.0684">SubscriptionRepository</text><line style="stroke:#181818;stroke-width:0.5;" x1="39" x2="233" y1="453.582" y2="453.582"/><line style="stroke:#181818;stroke-width:0.5;" x1="39" x2="233" y1="461.582" y2="461.582"/><ellipse cx="49" cy="476.3926" fill="#84BE84" rx="3" ry="3" style="stroke:#038048;stroke-width:1.0;"/><text fill="#000000" font-family="sans-serif" font-size="14" lengthAdjust="spacing" textLength="170" x="58" y="480.6895">save( Subscription): Result</text></g><!--MD5=[545507b7baa8aade59e57dce916f0187]
class Subscription--><g id="elem_Subscription"><rect codeLine="20" fill="#F1F1F1" height="252.832" id="Subscription" rx="2.5" ry="2.5" style="stroke:#181818;stroke-width:0.5;" width="516" x="29" y="567"/><ellipse cx="243.75" cy="583" fill="#ADD1B2" rx="11" ry="11" style="stroke:#181818;stroke-width:1.0;"/><path d="M246.5156,578.875 Q246.6719,578.6563 246.8594,578.5469 Q247.0469,578.4375 247.2656,578.4375 Q247.6406,578.4375 247.875,578.7031 Q248.1094,578.9531 248.1094,579.5625 L248.1094,581.0156 Q248.1094,581.625 247.875,581.8906 Q247.6406,582.1563 247.2656,582.1563 Q246.9219,582.1563 246.7188,581.9531 Q246.5156,581.7656 246.4063,581.25 Q246.3594,580.8906 246.1719,580.7031 Q245.8438,580.3281 245.2344,580.1094 Q244.625,579.8906 244,579.8906 Q243.2344,579.8906 242.5938,580.2188 Q241.9688,580.5469 241.4688,581.2969 Q240.9844,582.0469 240.9844,583.0781 L240.9844,584.1719 Q240.9844,585.4063 241.875,586.2344 Q242.7656,587.0469 244.3594,587.0469 Q245.2969,587.0469 245.9531,586.7969 Q246.3438,586.6406 246.7656,586.2031 Q247.0313,585.9375 247.1719,585.8594 Q247.3281,585.7813 247.5313,585.7813 Q247.8594,585.7813 248.1094,586.0469 Q248.375,586.2969 248.375,586.6406 Q248.375,586.9844 248.0313,587.3906 Q247.5313,587.9688 246.7344,588.2969 Q245.6563,588.75 244.3594,588.75 Q242.8438,588.75 241.6406,588.125 Q240.6563,587.625 239.9688,586.5625 Q239.2813,585.4844 239.2813,584.2031 L239.2813,583.0469 Q239.2813,581.7188 239.8906,580.5781 Q240.5156,579.4219 241.6094,578.8125 Q242.7031,578.1875 243.9375,578.1875 Q244.6719,578.1875 245.3125,578.3594 Q245.9688,578.5156 246.5156,578.875 Z " fill="#000000"/><text fill="#000000" font-family="sans-serif" font-size="14" lengthAdjust="spacing" textLength="78" x="264.25" y="588.7969">Subscription</text><line style="stroke:#181818;stroke-width:0.5;" x1="30" x2="544" y1="599" y2="599"/><rect fill="none" height="6" style="stroke:#C82930;stroke-width:1.0;" width="6" x="37" y="610.8105"/><text fill="#000000" font-family="sans-serif" font-size="14" lengthAdjust="spacing" textLength="11" x="49" y="618.1074">id</text><rect fill="none" height="6" style="stroke:#C82930;stroke-width:1.0;" width="6" x="37" y="629.4316"/><text fill="#000000" font-family="sans-serif" font-size="14" lengthAdjust="spacing" textLength="55" x="49" y="636.7285">subType</text><rect fill="none" height="6" style="stroke:#C82930;stroke-width:1.0;" width="6" x="37" y="648.0527"/><text fill="#000000" font-family="sans-serif" font-size="14" lengthAdjust="spacing" textLength="28" x="49" y="655.3496">date</text><rect fill="none" height="6" style="stroke:#C82930;stroke-width:1.0;" width="6" x="37" y="666.6738"/><text fill="#000000" font-family="sans-serif" font-size="14" lengthAdjust="spacing" textLength="56" x="49" y="673.9707">subState</text><rect fill="none" height="6" style="stroke:#C82930;stroke-width:1.0;" width="6" x="37" y="685.2949"/><text fill="#000000" font-family="sans-serif" font-size="14" lengthAdjust="spacing" textLength="52" x="49" y="692.5918">feeType</text><line style="stroke:#181818;stroke-width:0.5;" x1="30" x2="544" y1="700.1055" y2="700.1055"/><text fill="#000000" font-family="sans-serif" font-size="14" lengthAdjust="spacing" textLength="490" x="49" y="719.2129">Subscription(int id, string subType, date date, string subState, string feeType)</text><ellipse cx="40" cy="733.5371" fill="#84BE84" rx="3" ry="3" style="stroke:#038048;stroke-width:1.0;"/><text fill="#000000" font-family="sans-serif" font-size="14" lengthAdjust="spacing" textLength="66" x="49" y="737.834">getID(): int</text><ellipse cx="40" cy="752.1582" fill="#84BE84" rx="3" ry="3" style="stroke:#038048;stroke-width:1.0;"/><text fill="#000000" font-family="sans-serif" font-size="14" lengthAdjust="spacing" textLength="130" x="49" y="756.4551">getSubType(): string</text><ellipse cx="40" cy="770.7793" fill="#84BE84" rx="3" ry="3" style="stroke:#038048;stroke-width:1.0;"/><text fill="#000000" font-family="sans-serif" font-size="14" lengthAdjust="spacing" textLength="96" x="49" y="775.0762">getDate(): date</text><ellipse cx="40" cy="789.4004" fill="#84BE84" rx="3" ry="3" style="stroke:#038048;stroke-width:1.0;"/><text fill="#000000" font-family="sans-serif" font-size="14" lengthAdjust="spacing" textLength="131" x="49" y="793.6973">getSubState(): string</text><ellipse cx="40" cy="808.0215" fill="#84BE84" rx="3" ry="3" style="stroke:#038048;stroke-width:1.0;"/><text fill="#000000" font-family="sans-serif" font-size="14" lengthAdjust="spacing" textLength="130" x="49" y="812.3184">getFeeType(): string</text></g><!--MD5=[735a3ef7641b41d5ec8e9b2441552fb7]
link SubscriptionRepository to Subscription--><g id="link_SubscriptionRepository_Subscription"><path codeLine="35" d="M159.93,488 C172.71,508.58 189.28,535.25 206.21,562.48 " fill="none" id="SubscriptionRepository-to-Subscription" style="stroke:#181818;stroke-width:1.0;"/><polygon fill="#181818" points="208.93,566.86,207.5668,557.1059,206.2864,562.616,200.7764,561.3357,208.93,566.86" style="stroke:#181818;stroke-width:1.0;"/><text fill="#000000" font-family="sans-serif" font-size="13" lengthAdjust="spacing" textLength="43" x="191" y="533.0283">records</text><text fill="#000000" font-family="sans-serif" font-size="13" lengthAdjust="spacing" textLength="7" x="156.4414" y="510.2859">1</text><text fill="#000000" font-family="sans-serif" font-size="13" lengthAdjust="spacing" textLength="20" x="183.5632" y="555.6672">0..*</text></g><!--MD5=[7c0a5013189dd744519452e23d34a89f]
link SubscriptionController to SubscriptionService--><g id="link_SubscriptionController_SubscriptionService"><path codeLine="36" d="M257,74.28 C257,91.19 257,111.92 257,129.53 " fill="none" id="SubscriptionController-to-SubscriptionService" style="stroke:#181818;stroke-width:1.0;stroke-dasharray:7.0,7.0;"/><polygon fill="#181818" points="257,134.89,261,125.89,257,129.89,253,125.89,257,134.89" style="stroke:#181818;stroke-width:1.0;"/></g><!--MD5=[a463dccd8de9a3cde3f12b9a78431812]
link SubscriptionServiceImpl to SubscriptionRepository--><g id="link_SubscriptionServiceImpl_SubscriptionRepository"><path codeLine="37" d="M150.11,348.04 C147.64,365.42 144.78,385.63 142.27,403.28 " fill="none" id="SubscriptionServiceImpl-to-SubscriptionRepository" style="stroke:#181818;stroke-width:1.0;stroke-dasharray:7.0,7.0;"/><polygon fill="#181818" points="141.51,408.67,146.7325,400.3198,142.2111,403.7194,138.8115,399.198,141.51,408.67" style="stroke:#181818;stroke-width:1.0;"/></g><!--MD5=[86081a14726a75d9e6fe321749ef4ce7]
link SubscriptionServiceImpl to Subscription--><g id="link_SubscriptionServiceImpl_Subscription"><path codeLine="38" d="M205.91,348.31 C222.98,365.34 240.43,386.36 251,409 C272.97,456.05 282.99,512.01 287.17,561.73 " fill="none" id="SubscriptionServiceImpl-to-Subscription" style="stroke:#181818;stroke-width:1.0;stroke-dasharray:7.0,7.0;"/><polygon fill="#181818" points="287.58,566.83,290.8474,557.5389,287.1801,561.846,282.8731,558.1787,287.58,566.83" style="stroke:#181818;stroke-width:1.0;"/></g><!--MD5=[1106b8449e6ce895e821e5b0220feefa]
link SubscriptionService to Subscription--><g id="link_SubscriptionService_Subscription"><path codeLine="39" d="M287.68,202.24 C301.33,219.04 315.91,240.65 323,263 C353.74,359.85 341.74,474.8 323.69,561.4 " fill="none" id="SubscriptionService-to-Subscription" style="stroke:#181818;stroke-width:1.0;stroke-dasharray:7.0,7.0;"/><polygon fill="#181818" points="322.6,566.54,328.3683,558.5571,323.6301,561.6473,320.5399,556.909,322.6,566.54" style="stroke:#181818;stroke-width:1.0;"/></g><!--MD5=[bd4fa322b08aba60ea02c44d11c186c0]
reverse link SubscriptionService to SubscriptionServiceImpl--><g id="link_SubscriptionService_SubscriptionServiceImpl"><path codeLine="40" d="M220.33,218.52 C209.44,233.07 197.62,248.87 187.11,262.91 " fill="none" id="SubscriptionService-backto-SubscriptionServiceImpl" style="stroke:#181818;stroke-width:1.0;stroke-dasharray:7.0,7.0;"/><polygon fill="none" points="214.96,214,232.55,202.18,226.17,222.39,214.96,214" style="stroke:#181818;stroke-width:1.0;"/></g><!--MD5=[d7d4f699b8cac508e82344b64cf15fac]
@startuml
class SubscriptionController {
 +updateState(Long id)
}



class SubscriptionService {
 +updateState(Long id): Result
}
class SubscriptionServiceImpl{
+getSubState()
+setSubState(SubscriptionStatus.Cancelled)
}

interface SubscriptionRepository <<interface>> {
 +save( Subscription): Result
}


class Subscription {
    -id
    -subType
    -date
    -subState
    -feeType
    Subscription(int id, string subType, date date, string subState, string feeType)
    +getID(): int
    +getSubType(): string
    +getDate(): date
    +getSubState(): string
    +getFeeType(): string

}

SubscriptionRepository "1" - -> "0..*" Subscription:  records
SubscriptionController ..> SubscriptionService
SubscriptionServiceImpl ..> SubscriptionRepository
SubscriptionServiceImpl ..> Subscription
SubscriptionService ..> Subscription
SubscriptionServiceImpl .up.|> SubscriptionService
@enduml

PlantUML version 1.2022.13(Sat Nov 19 13:22:17 WET 2022)
(GPL source distribution)
Java Runtime: OpenJDK Runtime Environment
JVM: OpenJDK 64-Bit Server VM
Default Encoding: Cp1252
Language: pt
Country: PT
--></g></svg>