<?xml version="1.0" encoding="us-ascii" standalone="no"?><svg xmlns="http://www.w3.org/2000/svg" xmlns:xlink="http://www.w3.org/1999/xlink" contentStyleType="text/css" height="749px" preserveAspectRatio="none" style="width:1608px;height:749px;background:#FFFFFF;" version="1.1" viewBox="0 0 1608 749" width="1608px" zoomAndPan="magnify"><defs/><g><rect fill="#FFFFFF" height="564.2383" style="stroke:#181818;stroke-width:1.0;" width="10" x="37" y="93.6211"/><rect fill="#FFFFFF" height="531.9473" style="stroke:#181818;stroke-width:1.0;" width="10" x="222" y="116.9121"/><rect fill="#FFFFFF" height="469.3652" style="stroke:#181818;stroke-width:1.0;" width="10" x="455" y="148.2031"/><rect fill="#FFFFFF" height="406.7832" style="stroke:#181818;stroke-width:1.0;" width="10" x="688" y="179.4941"/><rect fill="#FFFFFF" height="31.291" style="stroke:#181818;stroke-width:1.0;" width="10" x="1014" y="335.9492"/><rect fill="#FFFFFF" height="31.291" style="stroke:#181818;stroke-width:1.0;" width="10" x="1014" y="398.5313"/><rect fill="#FFFFFF" height="31.291" style="stroke:#181818;stroke-width:1.0;" width="10" x="1014" y="461.1133"/><rect fill="#FFFFFF" height="31.291" style="stroke:#181818;stroke-width:1.0;" width="10" x="1224" y="210.7852"/><rect fill="#FFFFFF" height="31.291" style="stroke:#181818;stroke-width:1.0;" width="10" x="1224" y="523.6953"/><rect fill="#FFFFFF" height="31.291" style="stroke:#181818;stroke-width:1.0;" width="10" x="1492.5" y="273.3672"/><line style="stroke:#181818;stroke-width:0.5;stroke-dasharray:5.0,5.0;" x1="42" x2="42" y1="83.6211" y2="666.8594"/><line style="stroke:#181818;stroke-width:0.5;stroke-dasharray:5.0,5.0;" x1="227" x2="227" y1="83.6211" y2="666.8594"/><line style="stroke:#181818;stroke-width:0.5;stroke-dasharray:5.0,5.0;" x1="460" x2="460" y1="83.6211" y2="666.8594"/><line style="stroke:#181818;stroke-width:0.5;stroke-dasharray:5.0,5.0;" x1="693" x2="693" y1="83.6211" y2="666.8594"/><line style="stroke:#181818;stroke-width:0.5;stroke-dasharray:5.0,5.0;" x1="1019" x2="1019" y1="83.6211" y2="666.8594"/><line style="stroke:#181818;stroke-width:0.5;stroke-dasharray:5.0,5.0;" x1="1229" x2="1229" y1="83.6211" y2="666.8594"/><line style="stroke:#181818;stroke-width:0.5;stroke-dasharray:5.0,5.0;" x1="1497" x2="1497" y1="83.6211" y2="666.8594"/><text fill="#000000" font-family="sans-serif" font-size="14" lengthAdjust="spacing" textLength="68" x="5" y="80.1074">Subscriber</text><ellipse cx="42" cy="13.5" fill="#E2E2F0" rx="8" ry="8" style="stroke:#181818;stroke-width:0.5;"/><path d="M42,21.5 L42,48.5 M29,29.5 L55,29.5 M42,48.5 L29,63.5 M42,48.5 L55,63.5 " fill="none" style="stroke:#181818;stroke-width:0.5;"/><text fill="#000000" font-family="sans-serif" font-size="14" lengthAdjust="spacing" textLength="68" x="5" y="680.9668">Subscriber</text><ellipse cx="42" cy="692.9805" fill="#E2E2F0" rx="8" ry="8" style="stroke:#181818;stroke-width:0.5;"/><path d="M42,700.9805 L42,727.9805 M29,708.9805 L55,708.9805 M42,727.9805 L29,742.9805 M42,727.9805 L55,742.9805 " fill="none" style="stroke:#181818;stroke-width:0.5;"/><rect fill="#E2E2F0" height="32.6211" rx="2.5" ry="2.5" style="stroke:#181818;stroke-width:0.5;" width="154" x="150" y="50"/><text fill="#000000" font-family="sans-serif" font-size="14" lengthAdjust="spacing" textLength="140" x="157" y="72.1074">SubscriptionController</text><rect fill="#E2E2F0" height="32.6211" rx="2.5" ry="2.5" style="stroke:#181818;stroke-width:0.5;" width="154" x="150" y="665.8594"/><text fill="#000000" font-family="sans-serif" font-size="14" lengthAdjust="spacing" textLength="140" x="157" y="687.9668">SubscriptionController</text><rect fill="#E2E2F0" height="32.6211" rx="2.5" ry="2.5" style="stroke:#181818;stroke-width:0.5;" width="266" x="327" y="50"/><text fill="#000000" font-family="sans-serif" font-size="14" lengthAdjust="spacing" textLength="252" x="334" y="72.1074">subscriptionService:SubscriptionService</text><rect fill="#E2E2F0" height="32.6211" rx="2.5" ry="2.5" style="stroke:#181818;stroke-width:0.5;" width="266" x="327" y="665.8594"/><text fill="#000000" font-family="sans-serif" font-size="14" lengthAdjust="spacing" textLength="252" x="334" y="687.9668">subscriptionService:SubscriptionService</text><rect fill="#E2E2F0" height="32.6211" rx="2.5" ry="2.5" style="stroke:#181818;stroke-width:0.5;" width="164" x="611" y="50"/><text fill="#000000" font-family="sans-serif" font-size="14" lengthAdjust="spacing" textLength="150" x="618" y="72.1074">SubscriptionServiceImpl</text><rect fill="#E2E2F0" height="32.6211" rx="2.5" ry="2.5" style="stroke:#181818;stroke-width:0.5;" width="164" x="611" y="665.8594"/><text fill="#000000" font-family="sans-serif" font-size="14" lengthAdjust="spacing" textLength="150" x="618" y="687.9668">SubscriptionServiceImpl</text><rect fill="#E2E2F0" height="32.6211" rx="2.5" ry="2.5" style="stroke:#181818;stroke-width:0.5;" width="92" x="973" y="50"/><text fill="#000000" font-family="sans-serif" font-size="14" lengthAdjust="spacing" textLength="78" x="980" y="72.1074">Subscription</text><rect fill="#E2E2F0" height="32.6211" rx="2.5" ry="2.5" style="stroke:#181818;stroke-width:0.5;" width="92" x="973" y="665.8594"/><text fill="#000000" font-family="sans-serif" font-size="14" lengthAdjust="spacing" textLength="78" x="980" y="687.9668">Subscription</text><rect fill="#E2E2F0" height="32.6211" rx="2.5" ry="2.5" style="stroke:#181818;stroke-width:0.5;" width="308" x="1075" y="50"/><text fill="#000000" font-family="sans-serif" font-size="14" lengthAdjust="spacing" textLength="294" x="1082" y="72.1074">subscriptionRepository:SubscriptionRepository</text><rect fill="#E2E2F0" height="32.6211" rx="2.5" ry="2.5" style="stroke:#181818;stroke-width:0.5;" width="308" x="1075" y="665.8594"/><text fill="#000000" font-family="sans-serif" font-size="14" lengthAdjust="spacing" textLength="294" x="1082" y="687.9668">subscriptionRepository:SubscriptionRepository</text><rect fill="#E2E2F0" height="32.6211" rx="2.5" ry="2.5" style="stroke:#181818;stroke-width:0.5;" width="209" x="1393" y="50"/><text fill="#000000" font-family="sans-serif" font-size="14" lengthAdjust="spacing" textLength="195" x="1400" y="72.1074">planRepository:PlanRepository</text><rect fill="#E2E2F0" height="32.6211" rx="2.5" ry="2.5" style="stroke:#181818;stroke-width:0.5;" width="209" x="1393" y="665.8594"/><text fill="#000000" font-family="sans-serif" font-size="14" lengthAdjust="spacing" textLength="195" x="1400" y="687.9668">planRepository:PlanRepository</text><rect fill="#FFFFFF" height="564.2383" style="stroke:#181818;stroke-width:1.0;" width="10" x="37" y="93.6211"/><rect fill="#FFFFFF" height="531.9473" style="stroke:#181818;stroke-width:1.0;" width="10" x="222" y="116.9121"/><rect fill="#FFFFFF" height="469.3652" style="stroke:#181818;stroke-width:1.0;" width="10" x="455" y="148.2031"/><rect fill="#FFFFFF" height="406.7832" style="stroke:#181818;stroke-width:1.0;" width="10" x="688" y="179.4941"/><rect fill="#FFFFFF" height="31.291" style="stroke:#181818;stroke-width:1.0;" width="10" x="1014" y="335.9492"/><rect fill="#FFFFFF" height="31.291" style="stroke:#181818;stroke-width:1.0;" width="10" x="1014" y="398.5313"/><rect fill="#FFFFFF" height="31.291" style="stroke:#181818;stroke-width:1.0;" width="10" x="1014" y="461.1133"/><rect fill="#FFFFFF" height="31.291" style="stroke:#181818;stroke-width:1.0;" width="10" x="1224" y="210.7852"/><rect fill="#FFFFFF" height="31.291" style="stroke:#181818;stroke-width:1.0;" width="10" x="1224" y="523.6953"/><rect fill="#FFFFFF" height="31.291" style="stroke:#181818;stroke-width:1.0;" width="10" x="1492.5" y="273.3672"/><polygon fill="#181818" points="210,112.9121,220,116.9121,210,120.9121,214,116.9121" style="stroke:#181818;stroke-width:1.0;"/><line style="stroke:#181818;stroke-width:1.0;" x1="47" x2="216" y1="116.9121" y2="116.9121"/><text fill="#000000" font-family="sans-serif" font-size="13" font-weight="bold" lengthAdjust="spacing" textLength="7" x="54" y="111.6494">1</text><text fill="#000000" font-family="sans-serif" font-size="13" lengthAdjust="spacing" textLength="145" x="65" y="111.6494">PATCH(/api/sub/{idPlan})</text><polygon fill="#181818" points="443,144.2031,453,148.2031,443,152.2031,447,148.2031" style="stroke:#181818;stroke-width:1.0;"/><line style="stroke:#181818;stroke-width:1.0;" x1="232" x2="449" y1="148.2031" y2="148.2031"/><text fill="#000000" font-family="sans-serif" font-size="13" font-weight="bold" lengthAdjust="spacing" textLength="7" x="239" y="142.9404">2</text><text fill="#000000" font-family="sans-serif" font-size="13" lengthAdjust="spacing" textLength="193" x="250" y="142.9404">switchPlan(Long idPlan, Long id);</text><polygon fill="#181818" points="676,175.4941,686,179.4941,676,183.4941,680,179.4941" style="stroke:#181818;stroke-width:1.0;"/><line style="stroke:#181818;stroke-width:1.0;" x1="465" x2="682" y1="179.4941" y2="179.4941"/><text fill="#000000" font-family="sans-serif" font-size="13" font-weight="bold" lengthAdjust="spacing" textLength="7" x="472" y="174.2314">3</text><text fill="#000000" font-family="sans-serif" font-size="13" lengthAdjust="spacing" textLength="193" x="483" y="174.2314">switchPlan(Long idPlan, Long id);</text><polygon fill="#181818" points="1212,206.7852,1222,210.7852,1212,214.7852,1216,210.7852" style="stroke:#181818;stroke-width:1.0;"/><line style="stroke:#181818;stroke-width:1.0;" x1="698" x2="1218" y1="210.7852" y2="210.7852"/><text fill="#000000" font-family="sans-serif" font-size="13" font-weight="bold" lengthAdjust="spacing" textLength="7" x="705" y="205.5225">4</text><text fill="#000000" font-family="sans-serif" font-size="13" lengthAdjust="spacing" textLength="173" x="716" y="205.5225">findSubscriptionIdByUserId(id)</text><polygon fill="#181818" points="709,238.0762,699,242.0762,709,246.0762,705,242.0762" style="stroke:#181818;stroke-width:1.0;"/><line style="stroke:#181818;stroke-width:1.0;stroke-dasharray:2.0,2.0;" x1="703" x2="1228" y1="242.0762" y2="242.0762"/><text fill="#000000" font-family="sans-serif" font-size="13" font-weight="bold" lengthAdjust="spacing" textLength="7" x="715" y="236.8135">5</text><text fill="#000000" font-family="sans-serif" font-size="13" lengthAdjust="spacing" textLength="69" x="726" y="236.8135">Long UserId</text><polygon fill="#181818" points="1480.5,269.3672,1490.5,273.3672,1480.5,277.3672,1484.5,273.3672" style="stroke:#181818;stroke-width:1.0;"/><line style="stroke:#181818;stroke-width:1.0;" x1="698" x2="1486.5" y1="273.3672" y2="273.3672"/><text fill="#000000" font-family="sans-serif" font-size="13" font-weight="bold" lengthAdjust="spacing" textLength="7" x="705" y="268.1045">6</text><text fill="#000000" font-family="sans-serif" font-size="13" lengthAdjust="spacing" textLength="90" x="716" y="268.1045">findById(idPlan)</text><polygon fill="#181818" points="709,300.6582,699,304.6582,709,308.6582,705,304.6582" style="stroke:#181818;stroke-width:1.0;"/><line style="stroke:#181818;stroke-width:1.0;stroke-dasharray:2.0,2.0;" x1="703" x2="1496.5" y1="304.6582" y2="304.6582"/><text fill="#000000" font-family="sans-serif" font-size="13" font-weight="bold" lengthAdjust="spacing" textLength="7" x="715" y="299.3955">7</text><text fill="#000000" font-family="sans-serif" font-size="13" lengthAdjust="spacing" textLength="24" x="726" y="299.3955">plan</text><polygon fill="#181818" points="1002,331.9492,1012,335.9492,1002,339.9492,1006,335.9492" style="stroke:#181818;stroke-width:1.0;"/><line style="stroke:#181818;stroke-width:1.0;" x1="698" x2="1008" y1="335.9492" y2="335.9492"/><text fill="#000000" font-family="sans-serif" font-size="13" font-weight="bold" lengthAdjust="spacing" textLength="7" x="705" y="330.6865">8</text><text fill="#000000" font-family="sans-serif" font-size="13" lengthAdjust="spacing" textLength="270" x="716" y="330.6865">setRenewDate(LocalDate.now().plusYears(1)));</text><polygon fill="#181818" points="709,363.2402,699,367.2402,709,371.2402,705,367.2402" style="stroke:#181818;stroke-width:1.0;"/><line style="stroke:#181818;stroke-width:1.0;stroke-dasharray:2.0,2.0;" x1="703" x2="1018" y1="367.2402" y2="367.2402"/><text fill="#000000" font-family="sans-serif" font-size="13" font-weight="bold" lengthAdjust="spacing" textLength="7" x="715" y="361.9775">9</text><text fill="#000000" font-family="sans-serif" font-size="13" lengthAdjust="spacing" textLength="17" x="726" y="361.9775">Ok</text><polygon fill="#181818" points="1002,394.5313,1012,398.5313,1002,402.5313,1006,398.5313" style="stroke:#181818;stroke-width:1.0;"/><line style="stroke:#181818;stroke-width:1.0;" x1="698" x2="1008" y1="398.5313" y2="398.5313"/><text fill="#000000" font-family="sans-serif" font-size="13" font-weight="bold" lengthAdjust="spacing" textLength="14" x="705" y="393.2686">10</text><text fill="#000000" font-family="sans-serif" font-size="13" lengthAdjust="spacing" textLength="279" x="723" y="393.2686">setRenewDate(LocalDate.now().plusMonths(1)));</text><polygon fill="#181818" points="709,425.8223,699,429.8223,709,433.8223,705,429.8223" style="stroke:#181818;stroke-width:1.0;"/><line style="stroke:#181818;stroke-width:1.0;stroke-dasharray:2.0,2.0;" x1="703" x2="1018" y1="429.8223" y2="429.8223"/><text fill="#000000" font-family="sans-serif" font-size="13" font-weight="bold" lengthAdjust="spacing" textLength="14" x="715" y="424.5596">11</text><text fill="#000000" font-family="sans-serif" font-size="13" lengthAdjust="spacing" textLength="17" x="733" y="424.5596">Ok</text><polygon fill="#181818" points="1002,457.1133,1012,461.1133,1002,465.1133,1006,461.1133" style="stroke:#181818;stroke-width:1.0;"/><line style="stroke:#181818;stroke-width:1.0;" x1="698" x2="1008" y1="461.1133" y2="461.1133"/><text fill="#000000" font-family="sans-serif" font-size="13" font-weight="bold" lengthAdjust="spacing" textLength="14" x="705" y="455.8506">12</text><text fill="#000000" font-family="sans-serif" font-size="13" lengthAdjust="spacing" textLength="80" x="723" y="455.8506">setPlan(plan);</text><polygon fill="#181818" points="709,488.4043,699,492.4043,709,496.4043,705,492.4043" style="stroke:#181818;stroke-width:1.0;"/><line style="stroke:#181818;stroke-width:1.0;stroke-dasharray:2.0,2.0;" x1="703" x2="1018" y1="492.4043" y2="492.4043"/><text fill="#000000" font-family="sans-serif" font-size="13" font-weight="bold" lengthAdjust="spacing" textLength="14" x="715" y="487.1416">13</text><text fill="#000000" font-family="sans-serif" font-size="13" lengthAdjust="spacing" textLength="17" x="733" y="487.1416">Ok</text><polygon fill="#181818" points="1212,519.6953,1222,523.6953,1212,527.6953,1216,523.6953" style="stroke:#181818;stroke-width:1.0;"/><line style="stroke:#181818;stroke-width:1.0;" x1="698" x2="1218" y1="523.6953" y2="523.6953"/><text fill="#000000" font-family="sans-serif" font-size="13" font-weight="bold" lengthAdjust="spacing" textLength="14" x="705" y="518.4326">14</text><text fill="#000000" font-family="sans-serif" font-size="13" lengthAdjust="spacing" textLength="182" x="723" y="518.4326">save(subscriptionOptional.get())</text><polygon fill="#181818" points="709,550.9863,699,554.9863,709,558.9863,705,554.9863" style="stroke:#181818;stroke-width:1.0;"/><line style="stroke:#181818;stroke-width:1.0;stroke-dasharray:2.0,2.0;" x1="703" x2="1228" y1="554.9863" y2="554.9863"/><text fill="#000000" font-family="sans-serif" font-size="13" font-weight="bold" lengthAdjust="spacing" textLength="14" x="715" y="549.7236">15</text><text fill="#000000" font-family="sans-serif" font-size="13" lengthAdjust="spacing" textLength="14" x="733" y="549.7236">ok</text><polygon fill="#181818" points="476,582.2773,466,586.2773,476,590.2773,472,586.2773" style="stroke:#181818;stroke-width:1.0;"/><line style="stroke:#181818;stroke-width:1.0;stroke-dasharray:2.0,2.0;" x1="470" x2="692" y1="586.2773" y2="586.2773"/><text fill="#000000" font-family="sans-serif" font-size="13" font-weight="bold" lengthAdjust="spacing" textLength="14" x="482" y="581.0146">16</text><text fill="#000000" font-family="sans-serif" font-size="13" lengthAdjust="spacing" textLength="14" x="500" y="581.0146">ok</text><polygon fill="#181818" points="243,613.5684,233,617.5684,243,621.5684,239,617.5684" style="stroke:#181818;stroke-width:1.0;"/><line style="stroke:#181818;stroke-width:1.0;stroke-dasharray:2.0,2.0;" x1="237" x2="459" y1="617.5684" y2="617.5684"/><text fill="#000000" font-family="sans-serif" font-size="13" font-weight="bold" lengthAdjust="spacing" textLength="14" x="249" y="612.3057">17</text><text fill="#000000" font-family="sans-serif" font-size="13" lengthAdjust="spacing" textLength="14" x="267" y="612.3057">ok</text><polygon fill="#181818" points="58,644.8594,48,648.8594,58,652.8594,54,648.8594" style="stroke:#181818;stroke-width:1.0;"/><line style="stroke:#181818;stroke-width:1.0;stroke-dasharray:2.0,2.0;" x1="52" x2="226" y1="648.8594" y2="648.8594"/><text fill="#000000" font-family="sans-serif" font-size="13" font-weight="bold" lengthAdjust="spacing" textLength="14" x="64" y="643.5967">18</text><text fill="#000000" font-family="sans-serif" font-size="13" lengthAdjust="spacing" textLength="41" x="82" y="643.5967">200:0K</text><!--SRC=[fLB1JW8n5BptAnekxYR2eiSrCH4yIDH0G0yUIxT2OxUjRHT2ZFzkNxii9OP8ucNpEczc-ZhxBjREQLiMXHP4kgOM0whgmhBFXadA-XKdAqDgX11fd2BKyGrn32iP0TdKIsPyJPqokBTebfOQxg4U9XQ_Mj_Jn3XEkVRk7K4xhkHOIMUK42rvx8mu9jk4l61cmoah5x-ne6xhqxUrX4cjHH10SPeTFHFWz6HpffNb_lcxe-4ESF22ux47v9rePqV7eDb3AEGRWm-H8lZY_ct8hCIpkvVnGrOGpGi_MF75Ar1-vmZQGDk7X-sMExg6RlQav0f7vYLk3_aDQgcWWeJEaG0F-31gYT-vhD8S9jLe1-DEgiop4P3wdNamYTtEPlzg7Br6kw04D4TTxs01CNRQzE8IOylSd4cslVV9-Uaf4L0DfDfc-K2BnhunOcnsbUVmyaIR-4y_JhZ_QVxiztlz3_UGEJplB7bCtv8DozBjd8Ol4OCLSraUyqyCrDuWtH8FTclGBPa7upfv1FvOYQ-7mtBu-0C0]--></g></svg>