<?xml version="1.0" encoding="UTF-8" standalone="no"?><svg xmlns="http://www.w3.org/2000/svg" xmlns:xlink="http://www.w3.org/1999/xlink" contentStyleType="text/css" height="808px" preserveAspectRatio="none" style="width:636px;height:808px;background:#FFFFFF;" version="1.1" viewBox="0 0 636 808" width="636px" zoomAndPan="magnify"><defs/><g><!--MD5=[a0d94b09b17b306fb81c487dc7673e5c]
class SubscriptionController--><g id="elem_SubscriptionController"><rect codeLine="1" fill="#F1F1F1" height="66.6211" id="SubscriptionController" rx="2.5" ry="2.5" style="stroke:#181818;stroke-width:0.5;" width="310" x="198" y="7"/><ellipse cx="278.75" cy="23" fill="#ADD1B2" rx="11" ry="11" style="stroke:#181818;stroke-width:1.0;"/><path d="M281.5156,18.875 Q281.6719,18.6563 281.8594,18.5469 Q282.0469,18.4375 282.2656,18.4375 Q282.6406,18.4375 282.875,18.7031 Q283.1094,18.9531 283.1094,19.5625 L283.1094,21.0156 Q283.1094,21.625 282.875,21.8906 Q282.6406,22.1563 282.2656,22.1563 Q281.9219,22.1563 281.7188,21.9531 Q281.5156,21.7656 281.4063,21.25 Q281.3594,20.8906 281.1719,20.7031 Q280.8438,20.3281 280.2344,20.1094 Q279.625,19.8906 279,19.8906 Q278.2344,19.8906 277.5938,20.2188 Q276.9688,20.5469 276.4688,21.2969 Q275.9844,22.0469 275.9844,23.0781 L275.9844,24.1719 Q275.9844,25.4063 276.875,26.2344 Q277.7656,27.0469 279.3594,27.0469 Q280.2969,27.0469 280.9531,26.7969 Q281.3438,26.6406 281.7656,26.2031 Q282.0313,25.9375 282.1719,25.8594 Q282.3281,25.7813 282.5313,25.7813 Q282.8594,25.7813 283.1094,26.0469 Q283.375,26.2969 283.375,26.6406 Q283.375,26.9844 283.0313,27.3906 Q282.5313,27.9688 281.7344,28.2969 Q280.6563,28.75 279.3594,28.75 Q277.8438,28.75 276.6406,28.125 Q275.6563,27.625 274.9688,26.5625 Q274.2813,25.4844 274.2813,24.2031 L274.2813,23.0469 Q274.2813,21.7188 274.8906,20.5781 Q275.5156,19.4219 276.6094,18.8125 Q277.7031,18.1875 278.9375,18.1875 Q279.6719,18.1875 280.3125,18.3594 Q280.9688,18.5156 281.5156,18.875 Z " fill="#000000"/><text fill="#000000" font-family="sans-serif" font-size="14" lengthAdjust="spacing" textLength="140" x="299.25" y="28.7969">SubscriptionController</text><line style="stroke:#181818;stroke-width:0.5;" x1="199" x2="507" y1="39" y2="39"/><line style="stroke:#181818;stroke-width:0.5;" x1="199" x2="507" y1="47" y2="47"/><ellipse cx="209" cy="61.8105" fill="#84BE84" rx="3" ry="3" style="stroke:#038048;stroke-width:1.0;"/><text fill="#000000" font-family="sans-serif" font-size="14" lengthAdjust="spacing" textLength="284" x="218" y="66.1074">create(CreateSubscriptionRequest resource)</text></g><!--MD5=[0dcc03df3314187238fb9500a6ba3a42]
class SubscriptionService--><g id="elem_SubscriptionService"><rect codeLine="7" fill="#F1F1F1" height="66.6211" id="SubscriptionService" rx="2.5" ry="2.5" style="stroke:#181818;stroke-width:0.5;" width="358" x="174" y="135"/><ellipse cx="286.25" cy="151" fill="#ADD1B2" rx="11" ry="11" style="stroke:#181818;stroke-width:1.0;"/><path d="M289.0156,146.875 Q289.1719,146.6563 289.3594,146.5469 Q289.5469,146.4375 289.7656,146.4375 Q290.1406,146.4375 290.375,146.7031 Q290.6094,146.9531 290.6094,147.5625 L290.6094,149.0156 Q290.6094,149.625 290.375,149.8906 Q290.1406,150.1563 289.7656,150.1563 Q289.4219,150.1563 289.2188,149.9531 Q289.0156,149.7656 288.9063,149.25 Q288.8594,148.8906 288.6719,148.7031 Q288.3438,148.3281 287.7344,148.1094 Q287.125,147.8906 286.5,147.8906 Q285.7344,147.8906 285.0938,148.2188 Q284.4688,148.5469 283.9688,149.2969 Q283.4844,150.0469 283.4844,151.0781 L283.4844,152.1719 Q283.4844,153.4063 284.375,154.2344 Q285.2656,155.0469 286.8594,155.0469 Q287.7969,155.0469 288.4531,154.7969 Q288.8438,154.6406 289.2656,154.2031 Q289.5313,153.9375 289.6719,153.8594 Q289.8281,153.7813 290.0313,153.7813 Q290.3594,153.7813 290.6094,154.0469 Q290.875,154.2969 290.875,154.6406 Q290.875,154.9844 290.5313,155.3906 Q290.0313,155.9688 289.2344,156.2969 Q288.1563,156.75 286.8594,156.75 Q285.3438,156.75 284.1406,156.125 Q283.1563,155.625 282.4688,154.5625 Q281.7813,153.4844 281.7813,152.2031 L281.7813,151.0469 Q281.7813,149.7188 282.3906,148.5781 Q283.0156,147.4219 284.1094,146.8125 Q285.2031,146.1875 286.4375,146.1875 Q287.1719,146.1875 287.8125,146.3594 Q288.4688,146.5156 289.0156,146.875 Z " fill="#000000"/><text fill="#000000" font-family="sans-serif" font-size="14" lengthAdjust="spacing" textLength="125" x="306.75" y="156.7969">SubscriptionService</text><line style="stroke:#181818;stroke-width:0.5;" x1="175" x2="531" y1="167" y2="167"/><line style="stroke:#181818;stroke-width:0.5;" x1="175" x2="531" y1="175" y2="175"/><ellipse cx="185" cy="189.8105" fill="#84BE84" rx="3" ry="3" style="stroke:#038048;stroke-width:1.0;"/><text fill="#000000" font-family="sans-serif" font-size="14" lengthAdjust="spacing" textLength="332" x="194" y="194.1074">create(CreateSubscriptionRequest resource): Result</text></g><!--MD5=[d845121cb320b282bcbc82de8d275a60]
class SubscriptionServiceImpl--><g id="elem_SubscriptionServiceImpl"><rect codeLine="10" fill="#F1F1F1" height="66.6211" id="SubscriptionServiceImpl" rx="2.5" ry="2.5" style="stroke:#181818;stroke-width:0.5;" width="426" x="7" y="263"/><ellipse cx="140.75" cy="279" fill="#ADD1B2" rx="11" ry="11" style="stroke:#181818;stroke-width:1.0;"/><path d="M143.5156,274.875 Q143.6719,274.6563 143.8594,274.5469 Q144.0469,274.4375 144.2656,274.4375 Q144.6406,274.4375 144.875,274.7031 Q145.1094,274.9531 145.1094,275.5625 L145.1094,277.0156 Q145.1094,277.625 144.875,277.8906 Q144.6406,278.1563 144.2656,278.1563 Q143.9219,278.1563 143.7188,277.9531 Q143.5156,277.7656 143.4063,277.25 Q143.3594,276.8906 143.1719,276.7031 Q142.8438,276.3281 142.2344,276.1094 Q141.625,275.8906 141,275.8906 Q140.2344,275.8906 139.5938,276.2188 Q138.9688,276.5469 138.4688,277.2969 Q137.9844,278.0469 137.9844,279.0781 L137.9844,280.1719 Q137.9844,281.4063 138.875,282.2344 Q139.7656,283.0469 141.3594,283.0469 Q142.2969,283.0469 142.9531,282.7969 Q143.3438,282.6406 143.7656,282.2031 Q144.0313,281.9375 144.1719,281.8594 Q144.3281,281.7813 144.5313,281.7813 Q144.8594,281.7813 145.1094,282.0469 Q145.375,282.2969 145.375,282.6406 Q145.375,282.9844 145.0313,283.3906 Q144.5313,283.9688 143.7344,284.2969 Q142.6563,284.75 141.3594,284.75 Q139.8438,284.75 138.6406,284.125 Q137.6563,283.625 136.9688,282.5625 Q136.2813,281.4844 136.2813,280.2031 L136.2813,279.0469 Q136.2813,277.7188 136.8906,276.5781 Q137.5156,275.4219 138.6094,274.8125 Q139.7031,274.1875 140.9375,274.1875 Q141.6719,274.1875 142.3125,274.3594 Q142.9688,274.5156 143.5156,274.875 Z " fill="#000000"/><text fill="#000000" font-family="sans-serif" font-size="14" lengthAdjust="spacing" textLength="150" x="161.25" y="284.7969">SubscriptionServiceImpl</text><line style="stroke:#181818;stroke-width:0.5;" x1="8" x2="432" y1="295" y2="295"/><line style="stroke:#181818;stroke-width:0.5;" x1="8" x2="432" y1="303" y2="303"/><ellipse cx="18" cy="317.8105" fill="#84BE84" rx="3" ry="3" style="stroke:#038048;stroke-width:1.0;"/><text fill="#000000" font-family="sans-serif" font-size="14" lengthAdjust="spacing" textLength="400" x="27" y="322.1074">create(final CreateSubscriptionRequest resource): Subscription</text></g><!--MD5=[8cb61edb30e29c1e32ddb687c0ab6f7a]
class SubscriptionRepository--><g id="elem_SubscriptionRepository"><rect codeLine="14" fill="#F1F1F1" height="79.2031" id="SubscriptionRepository" rx="2.5" ry="2.5" style="stroke:#181818;stroke-width:0.5;" width="196" x="122" y="391"/><ellipse cx="145.1" cy="413.291" fill="#B4A7E5" rx="11" ry="11" style="stroke:#181818;stroke-width:1.0;"/><path d="M146.0531,409.9316 L146.0531,416.5879 L147.7719,416.5879 Q148.3813,416.5879 148.6469,416.8223 Q148.9125,417.0566 148.9125,417.4473 Q148.9125,417.8223 148.6469,418.0566 Q148.3813,418.291 147.7719,418.291 L142.6313,418.291 Q142.0219,418.291 141.7563,418.0566 Q141.4906,417.8223 141.4906,417.4316 Q141.4906,417.0566 141.7563,416.8223 Q142.0219,416.5879 142.6313,416.5879 L144.35,416.5879 L144.35,409.9316 L142.6313,409.9316 Q142.0219,409.9316 141.7563,409.6973 Q141.4906,409.4629 141.4906,409.0723 Q141.4906,408.6973 141.7563,408.4629 Q142.0219,408.2285 142.6313,408.2285 L147.7719,408.2285 Q148.3813,408.2285 148.6469,408.4629 Q148.9125,408.6973 148.9125,409.0723 Q148.9125,409.4629 148.6469,409.6973 Q148.3813,409.9316 147.7719,409.9316 L146.0531,409.9316 Z " fill="#000000"/><text fill="#000000" font-family="sans-serif" font-size="12" font-style="italic" lengthAdjust="spacing" textLength="61" x="203.4" y="408.9492">«interface»</text><text fill="#000000" font-family="sans-serif" font-size="14" font-style="italic" lengthAdjust="spacing" textLength="146" x="160.9" y="427.0684">SubscriptionRepository</text><line style="stroke:#181818;stroke-width:0.5;" x1="123" x2="317" y1="435.582" y2="435.582"/><line style="stroke:#181818;stroke-width:0.5;" x1="123" x2="317" y1="443.582" y2="443.582"/><ellipse cx="133" cy="458.3926" fill="#84BE84" rx="3" ry="3" style="stroke:#038048;stroke-width:1.0;"/><text fill="#000000" font-family="sans-serif" font-size="14" lengthAdjust="spacing" textLength="170" x="142" y="462.6895">save( Subscription): Result</text></g><!--MD5=[545507b7baa8aade59e57dce916f0187]
class Subscription--><g id="elem_Subscription"><rect codeLine="19" fill="#F1F1F1" height="252.832" id="Subscription" rx="2.5" ry="2.5" style="stroke:#181818;stroke-width:0.5;" width="516" x="113" y="549"/><ellipse cx="327.75" cy="565" fill="#ADD1B2" rx="11" ry="11" style="stroke:#181818;stroke-width:1.0;"/><path d="M330.5156,560.875 Q330.6719,560.6563 330.8594,560.5469 Q331.0469,560.4375 331.2656,560.4375 Q331.6406,560.4375 331.875,560.7031 Q332.1094,560.9531 332.1094,561.5625 L332.1094,563.0156 Q332.1094,563.625 331.875,563.8906 Q331.6406,564.1563 331.2656,564.1563 Q330.9219,564.1563 330.7188,563.9531 Q330.5156,563.7656 330.4063,563.25 Q330.3594,562.8906 330.1719,562.7031 Q329.8438,562.3281 329.2344,562.1094 Q328.625,561.8906 328,561.8906 Q327.2344,561.8906 326.5938,562.2188 Q325.9688,562.5469 325.4688,563.2969 Q324.9844,564.0469 324.9844,565.0781 L324.9844,566.1719 Q324.9844,567.4063 325.875,568.2344 Q326.7656,569.0469 328.3594,569.0469 Q329.2969,569.0469 329.9531,568.7969 Q330.3438,568.6406 330.7656,568.2031 Q331.0313,567.9375 331.1719,567.8594 Q331.3281,567.7813 331.5313,567.7813 Q331.8594,567.7813 332.1094,568.0469 Q332.375,568.2969 332.375,568.6406 Q332.375,568.9844 332.0313,569.3906 Q331.5313,569.9688 330.7344,570.2969 Q329.6563,570.75 328.3594,570.75 Q326.8438,570.75 325.6406,570.125 Q324.6563,569.625 323.9688,568.5625 Q323.2813,567.4844 323.2813,566.2031 L323.2813,565.0469 Q323.2813,563.7188 323.8906,562.5781 Q324.5156,561.4219 325.6094,560.8125 Q326.7031,560.1875 327.9375,560.1875 Q328.6719,560.1875 329.3125,560.3594 Q329.9688,560.5156 330.5156,560.875 Z " fill="#000000"/><text fill="#000000" font-family="sans-serif" font-size="14" lengthAdjust="spacing" textLength="78" x="348.25" y="570.7969">Subscription</text><line style="stroke:#181818;stroke-width:0.5;" x1="114" x2="628" y1="581" y2="581"/><rect fill="none" height="6" style="stroke:#C82930;stroke-width:1.0;" width="6" x="121" y="592.8105"/><text fill="#000000" font-family="sans-serif" font-size="14" lengthAdjust="spacing" textLength="11" x="133" y="600.1074">id</text><rect fill="none" height="6" style="stroke:#C82930;stroke-width:1.0;" width="6" x="121" y="611.4316"/><text fill="#000000" font-family="sans-serif" font-size="14" lengthAdjust="spacing" textLength="55" x="133" y="618.7285">subType</text><rect fill="none" height="6" style="stroke:#C82930;stroke-width:1.0;" width="6" x="121" y="630.0527"/><text fill="#000000" font-family="sans-serif" font-size="14" lengthAdjust="spacing" textLength="28" x="133" y="637.3496">date</text><rect fill="none" height="6" style="stroke:#C82930;stroke-width:1.0;" width="6" x="121" y="648.6738"/><text fill="#000000" font-family="sans-serif" font-size="14" lengthAdjust="spacing" textLength="56" x="133" y="655.9707">subState</text><rect fill="none" height="6" style="stroke:#C82930;stroke-width:1.0;" width="6" x="121" y="667.2949"/><text fill="#000000" font-family="sans-serif" font-size="14" lengthAdjust="spacing" textLength="52" x="133" y="674.5918">feeType</text><line style="stroke:#181818;stroke-width:0.5;" x1="114" x2="628" y1="682.1055" y2="682.1055"/><text fill="#000000" font-family="sans-serif" font-size="14" lengthAdjust="spacing" textLength="490" x="133" y="701.2129">Subscription(int id, string subType, date date, string subState, string feeType)</text><ellipse cx="124" cy="715.5371" fill="#84BE84" rx="3" ry="3" style="stroke:#038048;stroke-width:1.0;"/><text fill="#000000" font-family="sans-serif" font-size="14" lengthAdjust="spacing" textLength="66" x="133" y="719.834">getID(): int</text><ellipse cx="124" cy="734.1582" fill="#84BE84" rx="3" ry="3" style="stroke:#038048;stroke-width:1.0;"/><text fill="#000000" font-family="sans-serif" font-size="14" lengthAdjust="spacing" textLength="130" x="133" y="738.4551">getSubType(): string</text><ellipse cx="124" cy="752.7793" fill="#84BE84" rx="3" ry="3" style="stroke:#038048;stroke-width:1.0;"/><text fill="#000000" font-family="sans-serif" font-size="14" lengthAdjust="spacing" textLength="96" x="133" y="757.0762">getDate(): date</text><ellipse cx="124" cy="771.4004" fill="#84BE84" rx="3" ry="3" style="stroke:#038048;stroke-width:1.0;"/><text fill="#000000" font-family="sans-serif" font-size="14" lengthAdjust="spacing" textLength="131" x="133" y="775.6973">getSubState(): string</text><ellipse cx="124" cy="790.0215" fill="#84BE84" rx="3" ry="3" style="stroke:#038048;stroke-width:1.0;"/><text fill="#000000" font-family="sans-serif" font-size="14" lengthAdjust="spacing" textLength="130" x="133" y="794.3184">getFeeType(): string</text></g><!--MD5=[735a3ef7641b41d5ec8e9b2441552fb7]
link SubscriptionRepository to Subscription--><g id="link_SubscriptionRepository_Subscription"><path codeLine="34" d="M243.93,470 C256.71,490.58 273.28,517.25 290.21,544.48 " fill="none" id="SubscriptionRepository-to-Subscription" style="stroke:#181818;stroke-width:1.0;"/><polygon fill="#181818" points="292.93,548.86,291.5668,539.1059,290.2864,544.616,284.7764,543.3357,292.93,548.86" style="stroke:#181818;stroke-width:1.0;"/><text fill="#000000" font-family="sans-serif" font-size="13" lengthAdjust="spacing" textLength="43" x="275" y="515.0283">records</text><text fill="#000000" font-family="sans-serif" font-size="13" lengthAdjust="spacing" textLength="7" x="240.4414" y="492.2859">1</text><text fill="#000000" font-family="sans-serif" font-size="13" lengthAdjust="spacing" textLength="20" x="267.5632" y="537.6672">0..*</text></g><!--MD5=[7c0a5013189dd744519452e23d34a89f]
link SubscriptionController to SubscriptionService--><g id="link_SubscriptionController_SubscriptionService"><path codeLine="35" d="M353,74.28 C353,91.19 353,111.92 353,129.53 " fill="none" id="SubscriptionController-to-SubscriptionService" style="stroke:#181818;stroke-width:1.0;stroke-dasharray:7.0,7.0;"/><polygon fill="#181818" points="353,134.89,357,125.89,353,129.89,349,125.89,353,134.89" style="stroke:#181818;stroke-width:1.0;"/></g><!--MD5=[a463dccd8de9a3cde3f12b9a78431812]
link SubscriptionServiceImpl to SubscriptionRepository--><g id="link_SubscriptionServiceImpl_SubscriptionRepository"><path codeLine="36" d="M220,330.13 C220,346.88 220,367.52 220,385.64 " fill="none" id="SubscriptionServiceImpl-to-SubscriptionRepository" style="stroke:#181818;stroke-width:1.0;stroke-dasharray:7.0,7.0;"/><polygon fill="#181818" points="220,390.68,224,381.68,220,385.68,216,381.68,220,390.68" style="stroke:#181818;stroke-width:1.0;"/></g><!--MD5=[86081a14726a75d9e6fe321749ef4ce7]
link SubscriptionServiceImpl to Subscription--><g id="link_SubscriptionServiceImpl_Subscription"><path codeLine="37" d="M276.43,330.12 C298.3,345.71 321.31,366.37 335,391 C360.51,436.91 371.08,493.33 374.7,543.72 " fill="none" id="SubscriptionServiceImpl-to-Subscription" style="stroke:#181818;stroke-width:1.0;stroke-dasharray:7.0,7.0;"/><polygon fill="#181818" points="375.05,548.89,378.4231,539.6368,374.707,543.9018,370.442,540.1856,375.05,548.89" style="stroke:#181818;stroke-width:1.0;"/></g><!--MD5=[1106b8449e6ce895e821e5b0220feefa]
link SubscriptionService to Subscription--><g id="link_SubscriptionService_Subscription"><path codeLine="38" d="M401.56,202.2 C420.76,218.05 440.68,238.9 451,263 C489.33,352.54 465.72,460.93 434.45,543.98 " fill="none" id="SubscriptionService-to-Subscription" style="stroke:#181818;stroke-width:1.0;stroke-dasharray:7.0,7.0;"/><polygon fill="#181818" points="432.58,548.92,439.5112,541.923,434.3528,544.2448,432.031,539.0865,432.58,548.92" style="stroke:#181818;stroke-width:1.0;"/></g><!--MD5=[bd4fa322b08aba60ea02c44d11c186c0]
reverse link SubscriptionService to SubscriptionServiceImpl--><g id="link_SubscriptionService_SubscriptionServiceImpl"><path codeLine="39" d="M303.87,216.05 C287.44,231.61 269.49,248.62 254.42,262.89 " fill="none" id="SubscriptionService-backto-SubscriptionServiceImpl" style="stroke:#181818;stroke-width:1.0;stroke-dasharray:7.0,7.0;"/><polygon fill="none" points="299.07,210.95,318.4,202.28,308.7,221.11,299.07,210.95" style="stroke:#181818;stroke-width:1.0;"/></g><!--MD5=[8d160c68885f0a166647230213773b89]
@startuml
class SubscriptionController {
 +create(CreateSubscriptionRequest resource)
}



class SubscriptionService {
 +create(CreateSubscriptionRequest resource): Result
}
class SubscriptionServiceImpl{
+create(final CreateSubscriptionRequest resource): Subscription
}

interface SubscriptionRepository <<interface>> {
 +save( Subscription): Result
}


class Subscription {
    -id
    -subType
    -date
    -subState
    -feeType
    Subscription(int id, string subType, date date, string subState, string feeType)
    +getID(): int
    +getSubType(): string
    +getDate(): date
    +getSubState(): string
    +getFeeType(): string

}

SubscriptionRepository "1" - -> "0..*" Subscription:  records
SubscriptionController ..> SubscriptionService
SubscriptionServiceImpl ..> SubscriptionRepository
SubscriptionServiceImpl ..> Subscription
SubscriptionService ..> Subscription
SubscriptionServiceImpl .up.|> SubscriptionService
@enduml

PlantUML version 1.2022.13(Sat Nov 19 13:22:17 WET 2022)
(GPL source distribution)
Java Runtime: OpenJDK Runtime Environment
JVM: OpenJDK 64-Bit Server VM
Default Encoding: Cp1252
Language: pt
Country: PT
--></g></svg>