<?xml version="1.0" encoding="us-ascii" standalone="no"?><svg xmlns="http://www.w3.org/2000/svg" xmlns:xlink="http://www.w3.org/1999/xlink" contentStyleType="text/css" height="1276px" preserveAspectRatio="none" style="width:2870px;height:1276px;background:#FFFFFF;" version="1.1" viewBox="0 0 2870 1276" width="2870px" zoomAndPan="magnify"><defs/><g><rect fill="#FFFFFF" height="1091.2246" style="stroke:#181818;stroke-width:1.0;" width="10" x="60" y="93.6211"/><rect fill="#FFFFFF" height="1058.9336" style="stroke:#181818;stroke-width:1.0;" width="10" x="589" y="116.9121"/><rect fill="#FFFFFF" height="996.3516" style="stroke:#181818;stroke-width:1.0;" width="10" x="1141" y="148.2031"/><rect fill="#FFFFFF" height="1005.3516" style="stroke:#181818;stroke-width:1.0;" width="10" x="1693" y="179.4941"/><rect fill="#FFFFFF" height="871.1875" style="stroke:#181818;stroke-width:1.0;" width="10" x="1698" y="242.0762"/><rect fill="#FFFFFF" height="974.0605" style="stroke:#181818;stroke-width:1.0;" width="10" x="1915.5" y="210.7852"/><rect fill="#FFFFFF" height="31.291" style="stroke:#181818;stroke-width:1.0;" width="10" x="2183.5" y="383.5313"/><rect fill="#FFFFFF" height="31.291" style="stroke:#181818;stroke-width:1.0;" width="10" x="2183.5" y="446.1133"/><rect fill="#FFFFFF" height="31.291" style="stroke:#181818;stroke-width:1.0;" width="10" x="2183.5" y="548.9863"/><rect fill="#FFFFFF" height="31.291" style="stroke:#181818;stroke-width:1.0;" width="10" x="2183.5" y="611.5684"/><rect fill="#FFFFFF" height="31.291" style="stroke:#181818;stroke-width:1.0;" width="10" x="2183.5" y="733.7324"/><rect fill="#FFFFFF" height="31.291" style="stroke:#181818;stroke-width:1.0;" width="10" x="2183.5" y="796.3145"/><rect fill="#FFFFFF" height="31.291" style="stroke:#181818;stroke-width:1.0;" width="10" x="2183.5" y="899.1875"/><rect fill="#FFFFFF" height="31.291" style="stroke:#181818;stroke-width:1.0;" width="10" x="2183.5" y="961.7695"/><rect fill="#FFFFFF" height="911.4785" style="stroke:#181818;stroke-width:1.0;" width="10" x="2459.5" y="273.3672"/><rect fill="none" height="719.6934" style="stroke:#000000;stroke-width:1.5;" width="813" x="1559.5" y="288.3672"/><rect fill="none" height="177.7461" style="stroke:#000000;stroke-width:1.5;" width="793" x="1569.5" y="314.6582"/><rect fill="none" height="144.4551" style="stroke:#000000;stroke-width:1.5;" width="773" x="1579.5" y="340.9492"/><rect fill="none" height="144.4551" style="stroke:#000000;stroke-width:1.5;" width="773" x="1579.5" y="506.4043"/><rect fill="none" height="177.7461" style="stroke:#000000;stroke-width:1.5;" width="793" x="1569.5" y="664.8594"/><rect fill="none" height="144.4551" style="stroke:#000000;stroke-width:1.5;" width="773" x="1579.5" y="691.1504"/><rect fill="none" height="144.4551" style="stroke:#000000;stroke-width:1.5;" width="773" x="1579.5" y="856.6055"/><line style="stroke:#181818;stroke-width:0.5;stroke-dasharray:5.0,5.0;" x1="65" x2="65" y1="83.6211" y2="1193.8457"/><line style="stroke:#181818;stroke-width:0.5;stroke-dasharray:5.0,5.0;" x1="594" x2="594" y1="83.6211" y2="1193.8457"/><line style="stroke:#181818;stroke-width:0.5;stroke-dasharray:5.0,5.0;" x1="1145.5" x2="1145.5" y1="83.6211" y2="1193.8457"/><line style="stroke:#181818;stroke-width:0.5;stroke-dasharray:5.0,5.0;" x1="1697.5" x2="1697.5" y1="83.6211" y2="1193.8457"/><line style="stroke:#181818;stroke-width:0.5;stroke-dasharray:5.0,5.0;" x1="1920.5" x2="1920.5" y1="83.6211" y2="1193.8457"/><line style="stroke:#181818;stroke-width:0.5;stroke-dasharray:5.0,5.0;" x1="2188.5" x2="2188.5" y1="83.6211" y2="1193.8457"/><line style="stroke:#181818;stroke-width:0.5;stroke-dasharray:5.0,5.0;" x1="2464.5" x2="2464.5" y1="83.6211" y2="1193.8457"/><line style="stroke:#181818;stroke-width:0.5;stroke-dasharray:5.0,5.0;" x1="2725.5" x2="2725.5" y1="1046.8711" y2="1193.8457"/><text fill="#000000" font-family="sans-serif" font-size="14" lengthAdjust="spacing" textLength="114" x="5" y="80.1074">Marketing director</text><ellipse cx="65" cy="13.5" fill="#E2E2F0" rx="8" ry="8" style="stroke:#181818;stroke-width:0.5;"/><path d="M65,21.5 L65,48.5 M52,29.5 L78,29.5 M65,48.5 L52,63.5 M65,48.5 L78,63.5 " fill="none" style="stroke:#181818;stroke-width:0.5;"/><text fill="#000000" font-family="sans-serif" font-size="14" lengthAdjust="spacing" textLength="114" x="5" y="1207.9531">Marketing director</text><ellipse cx="65" cy="1219.9668" fill="#E2E2F0" rx="8" ry="8" style="stroke:#181818;stroke-width:0.5;"/><path d="M65,1227.9668 L65,1254.9668 M52,1235.9668 L78,1235.9668 M65,1254.9668 L52,1269.9668 M65,1254.9668 L78,1269.9668 " fill="none" style="stroke:#181818;stroke-width:0.5;"/><rect fill="#E2E2F0" height="32.6211" rx="2.5" ry="2.5" style="stroke:#181818;stroke-width:0.5;" width="108" x="540" y="50"/><text fill="#000000" font-family="sans-serif" font-size="14" lengthAdjust="spacing" textLength="94" x="547" y="72.1074">:PlanController</text><rect fill="#E2E2F0" height="32.6211" rx="2.5" ry="2.5" style="stroke:#181818;stroke-width:0.5;" width="108" x="540" y="1192.8457"/><text fill="#000000" font-family="sans-serif" font-size="14" lengthAdjust="spacing" textLength="94" x="547" y="1214.9531">:PlanController</text><rect fill="#E2E2F0" height="32.6211" rx="2.5" ry="2.5" style="stroke:#181818;stroke-width:0.5;" width="167" x="1062.5" y="50"/><text fill="#000000" font-family="sans-serif" font-size="14" lengthAdjust="spacing" textLength="153" x="1069.5" y="72.1074">planService:PlanService</text><rect fill="#E2E2F0" height="32.6211" rx="2.5" ry="2.5" style="stroke:#181818;stroke-width:0.5;" width="167" x="1062.5" y="1192.8457"/><text fill="#000000" font-family="sans-serif" font-size="14" lengthAdjust="spacing" textLength="153" x="1069.5" y="1214.9531">planService:PlanService</text><rect fill="#E2E2F0" height="32.6211" rx="2.5" ry="2.5" style="stroke:#181818;stroke-width:0.5;" width="217" x="1589.5" y="50"/><text fill="#000000" font-family="sans-serif" font-size="14" lengthAdjust="spacing" textLength="203" x="1596.5" y="72.1074">planServiceImpl:PlanServiceImpl</text><rect fill="#E2E2F0" height="32.6211" rx="2.5" ry="2.5" style="stroke:#181818;stroke-width:0.5;" width="217" x="1589.5" y="1192.8457"/><text fill="#000000" font-family="sans-serif" font-size="14" lengthAdjust="spacing" textLength="203" x="1596.5" y="1214.9531">planServiceImpl:PlanServiceImpl</text><rect fill="#E2E2F0" height="32.6211" rx="2.5" ry="2.5" style="stroke:#181818;stroke-width:0.5;" width="208" x="1816.5" y="50"/><text fill="#000000" font-family="sans-serif" font-size="14" lengthAdjust="spacing" textLength="194" x="1823.5" y="72.1074">planRepository:planRepository</text><rect fill="#E2E2F0" height="32.6211" rx="2.5" ry="2.5" style="stroke:#181818;stroke-width:0.5;" width="208" x="1816.5" y="1192.8457"/><text fill="#000000" font-family="sans-serif" font-size="14" lengthAdjust="spacing" textLength="194" x="1823.5" y="1214.9531">planRepository:planRepository</text><rect fill="#E2E2F0" height="32.6211" rx="2.5" ry="2.5" style="stroke:#181818;stroke-width:0.5;" width="308" x="2034.5" y="50"/><text fill="#000000" font-family="sans-serif" font-size="14" lengthAdjust="spacing" textLength="294" x="2041.5" y="72.1074">subscriptionRepository:SubscriptionRepository</text><rect fill="#E2E2F0" height="32.6211" rx="2.5" ry="2.5" style="stroke:#181818;stroke-width:0.5;" width="308" x="2034.5" y="1192.8457"/><text fill="#000000" font-family="sans-serif" font-size="14" lengthAdjust="spacing" textLength="294" x="2041.5" y="1214.9531">subscriptionRepository:SubscriptionRepository</text><rect fill="#E2E2F0" height="32.6211" rx="2.5" ry="2.5" style="stroke:#181818;stroke-width:0.5;" width="224" x="2352.5" y="50"/><text fill="#000000" font-family="sans-serif" font-size="14" lengthAdjust="spacing" textLength="210" x="2359.5" y="72.1074">iDPlanCashFlow:IDPlanCashFlow</text><rect fill="#E2E2F0" height="32.6211" rx="2.5" ry="2.5" style="stroke:#181818;stroke-width:0.5;" width="224" x="2352.5" y="1192.8457"/><text fill="#000000" font-family="sans-serif" font-size="14" lengthAdjust="spacing" textLength="210" x="2359.5" y="1214.9531">iDPlanCashFlow:IDPlanCashFlow</text><rect fill="#E2E2F0" height="32.6211" rx="2.5" ry="2.5" style="stroke:#181818;stroke-width:0.5;" width="278" x="2586.5" y="1192.8457"/><text fill="#000000" font-family="sans-serif" font-size="14" lengthAdjust="spacing" textLength="264" x="2593.5" y="1214.9531">PlanType_CashFlow:PlanType_CashFlow</text><rect fill="#FFFFFF" height="1091.2246" style="stroke:#181818;stroke-width:1.0;" width="10" x="60" y="93.6211"/><rect fill="#FFFFFF" height="1058.9336" style="stroke:#181818;stroke-width:1.0;" width="10" x="589" y="116.9121"/><rect fill="#FFFFFF" height="996.3516" style="stroke:#181818;stroke-width:1.0;" width="10" x="1141" y="148.2031"/><rect fill="#FFFFFF" height="1005.3516" style="stroke:#181818;stroke-width:1.0;" width="10" x="1693" y="179.4941"/><rect fill="#FFFFFF" height="871.1875" style="stroke:#181818;stroke-width:1.0;" width="10" x="1698" y="242.0762"/><rect fill="#FFFFFF" height="974.0605" style="stroke:#181818;stroke-width:1.0;" width="10" x="1915.5" y="210.7852"/><rect fill="#FFFFFF" height="31.291" style="stroke:#181818;stroke-width:1.0;" width="10" x="2183.5" y="383.5313"/><rect fill="#FFFFFF" height="31.291" style="stroke:#181818;stroke-width:1.0;" width="10" x="2183.5" y="446.1133"/><rect fill="#FFFFFF" height="31.291" style="stroke:#181818;stroke-width:1.0;" width="10" x="2183.5" y="548.9863"/><rect fill="#FFFFFF" height="31.291" style="stroke:#181818;stroke-width:1.0;" width="10" x="2183.5" y="611.5684"/><rect fill="#FFFFFF" height="31.291" style="stroke:#181818;stroke-width:1.0;" width="10" x="2183.5" y="733.7324"/><rect fill="#FFFFFF" height="31.291" style="stroke:#181818;stroke-width:1.0;" width="10" x="2183.5" y="796.3145"/><rect fill="#FFFFFF" height="31.291" style="stroke:#181818;stroke-width:1.0;" width="10" x="2183.5" y="899.1875"/><rect fill="#FFFFFF" height="31.291" style="stroke:#181818;stroke-width:1.0;" width="10" x="2183.5" y="961.7695"/><rect fill="#FFFFFF" height="911.4785" style="stroke:#181818;stroke-width:1.0;" width="10" x="2459.5" y="273.3672"/><polygon fill="#181818" points="577,112.9121,587,116.9121,577,120.9121,581,116.9121" style="stroke:#181818;stroke-width:1.0;"/><line style="stroke:#181818;stroke-width:1.0;" x1="70" x2="583" y1="116.9121" y2="116.9121"/><text fill="#000000" font-family="sans-serif" font-size="13" font-weight="bold" lengthAdjust="spacing" textLength="7" x="77" y="111.6494">1</text><text fill="#000000" font-family="sans-serif" font-size="13" lengthAdjust="spacing" textLength="489" x="88" y="111.6494">GET(/api/plan/dashboard/futureCashFlowsByPlan?numberOfMonths=&amp;page=&amp;size=)</text><polygon fill="#181818" points="1129,144.2031,1139,148.2031,1129,152.2031,1133,148.2031" style="stroke:#181818;stroke-width:1.0;"/><line style="stroke:#181818;stroke-width:1.0;" x1="599" x2="1135" y1="148.2031" y2="148.2031"/><text fill="#000000" font-family="sans-serif" font-size="13" font-weight="bold" lengthAdjust="spacing" textLength="7" x="606" y="142.9404">2</text><text fill="#000000" font-family="sans-serif" font-size="13" lengthAdjust="spacing" textLength="512" x="617" y="142.9404">forDashBoardFutureCashflows(Integer numberOfMonths, Integer page, Integer batchSize)</text><polygon fill="#181818" points="1681,175.4941,1691,179.4941,1681,183.4941,1685,179.4941" style="stroke:#181818;stroke-width:1.0;"/><line style="stroke:#181818;stroke-width:1.0;" x1="1151" x2="1687" y1="179.4941" y2="179.4941"/><text fill="#000000" font-family="sans-serif" font-size="13" font-weight="bold" lengthAdjust="spacing" textLength="7" x="1158" y="174.2314">3</text><text fill="#000000" font-family="sans-serif" font-size="13" lengthAdjust="spacing" textLength="512" x="1169" y="174.2314">forDashBoardFutureCashflows(Integer numberOfMonths, Integer page, Integer batchSize)</text><polygon fill="#181818" points="1903.5,206.7852,1913.5,210.7852,1903.5,214.7852,1907.5,210.7852" style="stroke:#181818;stroke-width:1.0;"/><line style="stroke:#181818;stroke-width:1.0;" x1="1703" x2="1909.5" y1="210.7852" y2="210.7852"/><text fill="#000000" font-family="sans-serif" font-size="13" font-weight="bold" lengthAdjust="spacing" textLength="7" x="1710" y="205.5225">4</text><text fill="#000000" font-family="sans-serif" font-size="13" lengthAdjust="spacing" textLength="147" x="1721" y="205.5225">findSomePlans(pageable)</text><polygon fill="#181818" points="1719,238.0762,1709,242.0762,1719,246.0762,1715,242.0762" style="stroke:#181818;stroke-width:1.0;"/><line style="stroke:#181818;stroke-width:1.0;" x1="1713" x2="1914.5" y1="242.0762" y2="242.0762"/><text fill="#000000" font-family="sans-serif" font-size="13" font-weight="bold" lengthAdjust="spacing" textLength="7" x="1725" y="236.8135">5</text><text fill="#000000" font-family="sans-serif" font-size="13" lengthAdjust="spacing" textLength="31" x="1736" y="236.8135">plans</text><polygon fill="#181818" points="2447.5,269.3672,2457.5,273.3672,2447.5,277.3672,2451.5,273.3672" style="stroke:#181818;stroke-width:1.0;"/><line style="stroke:#181818;stroke-width:1.0;" x1="1708" x2="2453.5" y1="273.3672" y2="273.3672"/><text fill="#000000" font-family="sans-serif" font-size="13" font-weight="bold" lengthAdjust="spacing" textLength="7" x="1715" y="268.1045">6</text><text fill="#000000" font-family="sans-serif" font-size="13" lengthAdjust="spacing" textLength="171" x="1726" y="268.1045">ArrayList&lt;IDPlanCashFlow&gt;()</text><path d="M1559.5,288.3672 L1632.5,288.3672 L1632.5,297.6582 L1622.5,307.6582 L1559.5,307.6582 L1559.5,288.3672 " fill="#EEEEEE" style="stroke:#000000;stroke-width:1.5;"/><rect fill="none" height="719.6934" style="stroke:#000000;stroke-width:1.5;" width="813" x="1559.5" y="288.3672"/><text fill="#000000" font-family="sans-serif" font-size="13" font-weight="bold" lengthAdjust="spacing" textLength="28" x="1574.5" y="303.3955">loop</text><text fill="#000000" font-family="sans-serif" font-size="11" font-weight="bold" lengthAdjust="spacing" textLength="191" x="1647.5" y="302.2373">[for each item in idPlanCashFlows]</text><path d="M1569.5,314.6582 L1642.5,314.6582 L1642.5,323.9492 L1632.5,333.9492 L1569.5,333.9492 L1569.5,314.6582 " fill="#EEEEEE" style="stroke:#000000;stroke-width:1.5;"/><rect fill="none" height="177.7461" style="stroke:#000000;stroke-width:1.5;" width="793" x="1569.5" y="314.6582"/><text fill="#000000" font-family="sans-serif" font-size="13" font-weight="bold" lengthAdjust="spacing" textLength="28" x="1584.5" y="329.6865">loop</text><text fill="#000000" font-family="sans-serif" font-size="11" font-weight="bold" lengthAdjust="spacing" textLength="319" x="1657.5" y="328.5283">[months "of" previous years month until the current year]</text><path d="M1579.5,340.9492 L1652.5,340.9492 L1652.5,350.2402 L1642.5,360.2402 L1579.5,360.2402 L1579.5,340.9492 " fill="#EEEEEE" style="stroke:#000000;stroke-width:1.5;"/><rect fill="none" height="144.4551" style="stroke:#000000;stroke-width:1.5;" width="773" x="1579.5" y="340.9492"/><text fill="#000000" font-family="sans-serif" font-size="13" font-weight="bold" lengthAdjust="spacing" textLength="28" x="1594.5" y="355.9775">loop</text><text fill="#000000" font-family="sans-serif" font-size="11" font-weight="bold" lengthAdjust="spacing" textLength="285" x="1667.5" y="354.8193">[previousYearsMonths until the "end" "of" the year]</text><polygon fill="#181818" points="2171.5,379.5313,2181.5,383.5313,2171.5,387.5313,2175.5,383.5313" style="stroke:#181818;stroke-width:1.0;"/><line style="stroke:#181818;stroke-width:1.0;" x1="1708" x2="2177.5" y1="383.5313" y2="383.5313"/><text fill="#000000" font-family="sans-serif" font-size="13" font-weight="bold" lengthAdjust="spacing" textLength="7" x="1715" y="378.2686">7</text><text fill="#000000" font-family="sans-serif" font-size="13" lengthAdjust="spacing" textLength="161" x="1726" y="378.2686">calculateRevenueByMonth()</text><polygon fill="#181818" points="1719,410.8223,1709,414.8223,1719,418.8223,1715,414.8223" style="stroke:#181818;stroke-width:1.0;"/><line style="stroke:#181818;stroke-width:1.0;stroke-dasharray:2.0,2.0;" x1="1713" x2="2187.5" y1="414.8223" y2="414.8223"/><text fill="#000000" font-family="sans-serif" font-size="13" font-weight="bold" lengthAdjust="spacing" textLength="7" x="1725" y="409.5596">8</text><text fill="#000000" font-family="sans-serif" font-size="13" lengthAdjust="spacing" textLength="44" x="1736" y="409.5596">revenue</text><polygon fill="#181818" points="2171.5,442.1133,2181.5,446.1133,2171.5,450.1133,2175.5,446.1133" style="stroke:#181818;stroke-width:1.0;"/><line style="stroke:#181818;stroke-width:1.0;" x1="1708" x2="2177.5" y1="446.1133" y2="446.1133"/><text fill="#000000" font-family="sans-serif" font-size="13" font-weight="bold" lengthAdjust="spacing" textLength="7" x="1715" y="440.8506">9</text><text fill="#000000" font-family="sans-serif" font-size="13" lengthAdjust="spacing" textLength="161" x="1726" y="440.8506">calculateRevenueByMonth()</text><polygon fill="#181818" points="1719,473.4043,1709,477.4043,1719,481.4043,1715,477.4043" style="stroke:#181818;stroke-width:1.0;"/><line style="stroke:#181818;stroke-width:1.0;stroke-dasharray:2.0,2.0;" x1="1713" x2="2187.5" y1="477.4043" y2="477.4043"/><text fill="#000000" font-family="sans-serif" font-size="13" font-weight="bold" lengthAdjust="spacing" textLength="14" x="1725" y="472.1416">10</text><text fill="#000000" font-family="sans-serif" font-size="13" lengthAdjust="spacing" textLength="51" x="1743" y="472.1416">revenue1</text><path d="M1579.5,506.4043 L1652.5,506.4043 L1652.5,515.6953 L1642.5,525.6953 L1579.5,525.6953 L1579.5,506.4043 " fill="#EEEEEE" style="stroke:#000000;stroke-width:1.5;"/><rect fill="none" height="144.4551" style="stroke:#000000;stroke-width:1.5;" width="773" x="1579.5" y="506.4043"/><text fill="#000000" font-family="sans-serif" font-size="13" font-weight="bold" lengthAdjust="spacing" textLength="28" x="1594.5" y="521.4326">loop</text><text fill="#000000" font-family="sans-serif" font-size="11" font-weight="bold" lengthAdjust="spacing" textLength="196" x="1667.5" y="520.2744">[for month 1 until currentMonth + 1]</text><polygon fill="#181818" points="2171.5,544.9863,2181.5,548.9863,2171.5,552.9863,2175.5,548.9863" style="stroke:#181818;stroke-width:1.0;"/><line style="stroke:#181818;stroke-width:1.0;" x1="1708" x2="2177.5" y1="548.9863" y2="548.9863"/><text fill="#000000" font-family="sans-serif" font-size="13" font-weight="bold" lengthAdjust="spacing" textLength="14" x="1715" y="543.7236">11</text><text fill="#000000" font-family="sans-serif" font-size="13" lengthAdjust="spacing" textLength="161" x="1733" y="543.7236">calculateRevenueByMonth()</text><polygon fill="#181818" points="1719,576.2773,1709,580.2773,1719,584.2773,1715,580.2773" style="stroke:#181818;stroke-width:1.0;"/><line style="stroke:#181818;stroke-width:1.0;stroke-dasharray:2.0,2.0;" x1="1713" x2="2187.5" y1="580.2773" y2="580.2773"/><text fill="#000000" font-family="sans-serif" font-size="13" font-weight="bold" lengthAdjust="spacing" textLength="14" x="1725" y="575.0146">12</text><text fill="#000000" font-family="sans-serif" font-size="13" lengthAdjust="spacing" textLength="44" x="1743" y="575.0146">revenue</text><polygon fill="#181818" points="2171.5,607.5684,2181.5,611.5684,2171.5,615.5684,2175.5,611.5684" style="stroke:#181818;stroke-width:1.0;"/><line style="stroke:#181818;stroke-width:1.0;" x1="1708" x2="2177.5" y1="611.5684" y2="611.5684"/><text fill="#000000" font-family="sans-serif" font-size="13" font-weight="bold" lengthAdjust="spacing" textLength="14" x="1715" y="606.3057">13</text><text fill="#000000" font-family="sans-serif" font-size="13" lengthAdjust="spacing" textLength="161" x="1733" y="606.3057">calculateRevenueByMonth()</text><polygon fill="#181818" points="1719,638.8594,1709,642.8594,1719,646.8594,1715,642.8594" style="stroke:#181818;stroke-width:1.0;"/><line style="stroke:#181818;stroke-width:1.0;stroke-dasharray:2.0,2.0;" x1="1713" x2="2187.5" y1="642.8594" y2="642.8594"/><text fill="#000000" font-family="sans-serif" font-size="13" font-weight="bold" lengthAdjust="spacing" textLength="14" x="1725" y="637.5967">14</text><text fill="#000000" font-family="sans-serif" font-size="13" lengthAdjust="spacing" textLength="51" x="1743" y="637.5967">revenue1</text><path d="M1569.5,664.8594 L1642.5,664.8594 L1642.5,674.1504 L1632.5,684.1504 L1569.5,684.1504 L1569.5,664.8594 " fill="#EEEEEE" style="stroke:#000000;stroke-width:1.5;"/><rect fill="none" height="177.7461" style="stroke:#000000;stroke-width:1.5;" width="793" x="1569.5" y="664.8594"/><text fill="#000000" font-family="sans-serif" font-size="13" font-weight="bold" lengthAdjust="spacing" textLength="28" x="1584.5" y="679.8877">loop</text><text fill="#000000" font-family="sans-serif" font-size="11" font-weight="bold" lengthAdjust="spacing" textLength="280" x="1657.5" y="678.7295">[months "of" previous years until the current year]</text><path d="M1579.5,691.1504 L1652.5,691.1504 L1652.5,700.4414 L1642.5,710.4414 L1579.5,710.4414 L1579.5,691.1504 " fill="#EEEEEE" style="stroke:#000000;stroke-width:1.5;"/><rect fill="none" height="144.4551" style="stroke:#000000;stroke-width:1.5;" width="773" x="1579.5" y="691.1504"/><text fill="#000000" font-family="sans-serif" font-size="13" font-weight="bold" lengthAdjust="spacing" textLength="28" x="1594.5" y="706.1787">loop</text><text fill="#000000" font-family="sans-serif" font-size="11" font-weight="bold" lengthAdjust="spacing" textLength="285" x="1667.5" y="705.0205">[previousYearsMonths until the "end" "of" the year]</text><polygon fill="#181818" points="2171.5,729.7324,2181.5,733.7324,2171.5,737.7324,2175.5,733.7324" style="stroke:#181818;stroke-width:1.0;"/><line style="stroke:#181818;stroke-width:1.0;" x1="1708" x2="2177.5" y1="733.7324" y2="733.7324"/><text fill="#000000" font-family="sans-serif" font-size="13" font-weight="bold" lengthAdjust="spacing" textLength="14" x="1715" y="728.4697">15</text><text fill="#000000" font-family="sans-serif" font-size="13" lengthAdjust="spacing" textLength="149" x="1733" y="728.4697">calculateAnnualRevenue()</text><polygon fill="#181818" points="1719,761.0234,1709,765.0234,1719,769.0234,1715,765.0234" style="stroke:#181818;stroke-width:1.0;"/><line style="stroke:#181818;stroke-width:1.0;stroke-dasharray:2.0,2.0;" x1="1713" x2="2187.5" y1="765.0234" y2="765.0234"/><text fill="#000000" font-family="sans-serif" font-size="13" font-weight="bold" lengthAdjust="spacing" textLength="14" x="1725" y="759.7607">16</text><text fill="#000000" font-family="sans-serif" font-size="13" lengthAdjust="spacing" textLength="146" x="1743" y="759.7607">annualRevenue_LastYear</text><polygon fill="#181818" points="2171.5,792.3145,2181.5,796.3145,2171.5,800.3145,2175.5,796.3145" style="stroke:#181818;stroke-width:1.0;"/><line style="stroke:#181818;stroke-width:1.0;" x1="1708" x2="2177.5" y1="796.3145" y2="796.3145"/><text fill="#000000" font-family="sans-serif" font-size="13" font-weight="bold" lengthAdjust="spacing" textLength="14" x="1715" y="791.0518">17</text><text fill="#000000" font-family="sans-serif" font-size="13" lengthAdjust="spacing" textLength="149" x="1733" y="791.0518">calculateAnnualRevenue()</text><polygon fill="#181818" points="1719,823.6055,1709,827.6055,1719,831.6055,1715,827.6055" style="stroke:#181818;stroke-width:1.0;"/><line style="stroke:#181818;stroke-width:1.0;stroke-dasharray:2.0,2.0;" x1="1713" x2="2187.5" y1="827.6055" y2="827.6055"/><text fill="#000000" font-family="sans-serif" font-size="13" font-weight="bold" lengthAdjust="spacing" textLength="14" x="1725" y="822.3428">18</text><text fill="#000000" font-family="sans-serif" font-size="13" lengthAdjust="spacing" textLength="153" x="1743" y="822.3428">annualRevenue_LastYear1</text><path d="M1579.5,856.6055 L1652.5,856.6055 L1652.5,865.8965 L1642.5,875.8965 L1579.5,875.8965 L1579.5,856.6055 " fill="#EEEEEE" style="stroke:#000000;stroke-width:1.5;"/><rect fill="none" height="144.4551" style="stroke:#000000;stroke-width:1.5;" width="773" x="1579.5" y="856.6055"/><text fill="#000000" font-family="sans-serif" font-size="13" font-weight="bold" lengthAdjust="spacing" textLength="28" x="1594.5" y="871.6338">loop</text><text fill="#000000" font-family="sans-serif" font-size="11" font-weight="bold" lengthAdjust="spacing" textLength="196" x="1667.5" y="870.4756">[for month 1 until currentMonth + 1]</text><polygon fill="#181818" points="2171.5,895.1875,2181.5,899.1875,2171.5,903.1875,2175.5,899.1875" style="stroke:#181818;stroke-width:1.0;"/><line style="stroke:#181818;stroke-width:1.0;" x1="1708" x2="2177.5" y1="899.1875" y2="899.1875"/><text fill="#000000" font-family="sans-serif" font-size="13" font-weight="bold" lengthAdjust="spacing" textLength="14" x="1715" y="893.9248">19</text><text fill="#000000" font-family="sans-serif" font-size="13" lengthAdjust="spacing" textLength="149" x="1733" y="893.9248">calculateAnnualRevenue()</text><polygon fill="#181818" points="1719,926.4785,1709,930.4785,1719,934.4785,1715,930.4785" style="stroke:#181818;stroke-width:1.0;"/><line style="stroke:#181818;stroke-width:1.0;stroke-dasharray:2.0,2.0;" x1="1713" x2="2187.5" y1="930.4785" y2="930.4785"/><text fill="#000000" font-family="sans-serif" font-size="13" font-weight="bold" lengthAdjust="spacing" textLength="14" x="1725" y="925.2158">20</text><text fill="#000000" font-family="sans-serif" font-size="13" lengthAdjust="spacing" textLength="145" x="1743" y="925.2158">annualRevenue_ThisYear</text><polygon fill="#181818" points="2171.5,957.7695,2181.5,961.7695,2171.5,965.7695,2175.5,961.7695" style="stroke:#181818;stroke-width:1.0;"/><line style="stroke:#181818;stroke-width:1.0;" x1="1708" x2="2177.5" y1="961.7695" y2="961.7695"/><text fill="#000000" font-family="sans-serif" font-size="13" font-weight="bold" lengthAdjust="spacing" textLength="14" x="1715" y="956.5068">21</text><text fill="#000000" font-family="sans-serif" font-size="13" lengthAdjust="spacing" textLength="149" x="1733" y="956.5068">calculateAnnualRevenue()</text><polygon fill="#181818" points="1719,989.0605,1709,993.0605,1719,997.0605,1715,993.0605" style="stroke:#181818;stroke-width:1.0;"/><line style="stroke:#181818;stroke-width:1.0;stroke-dasharray:2.0,2.0;" x1="1713" x2="2187.5" y1="993.0605" y2="993.0605"/><text fill="#000000" font-family="sans-serif" font-size="13" font-weight="bold" lengthAdjust="spacing" textLength="14" x="1725" y="987.7979">22</text><text fill="#000000" font-family="sans-serif" font-size="13" lengthAdjust="spacing" textLength="152" x="1743" y="987.7979">annualRevenue_ThisYear1</text><polygon fill="#181818" points="2574.5,1034.3516,2584.5,1038.3516,2574.5,1042.3516,2578.5,1038.3516" style="stroke:#181818;stroke-width:1.0;"/><line style="stroke:#181818;stroke-width:1.0;" x1="1708" x2="2580.5" y1="1038.3516" y2="1038.3516"/><text fill="#000000" font-family="sans-serif" font-size="13" font-weight="bold" lengthAdjust="spacing" textLength="14" x="1715" y="1033.0889">23</text><text fill="#000000" font-family="sans-serif" font-size="13" lengthAdjust="spacing" textLength="36" x="1733" y="1033.0889">create</text><rect fill="#E2E2F0" height="32.6211" rx="2.5" ry="2.5" style="stroke:#181818;stroke-width:0.5;" width="278" x="2586.5" y="1015.0605"/><text fill="#000000" font-family="sans-serif" font-size="14" lengthAdjust="spacing" textLength="264" x="2593.5" y="1037.168">PlanType_CashFlow:PlanType_CashFlow</text><polygon fill="#181818" points="1719,1077.9727,1709,1081.9727,1719,1085.9727,1715,1081.9727" style="stroke:#181818;stroke-width:1.0;"/><line style="stroke:#181818;stroke-width:1.0;stroke-dasharray:2.0,2.0;" x1="1713" x2="2724.5" y1="1081.9727" y2="1081.9727"/><text fill="#000000" font-family="sans-serif" font-size="13" font-weight="bold" lengthAdjust="spacing" textLength="14" x="1725" y="1076.71">24</text><text fill="#000000" font-family="sans-serif" font-size="13" lengthAdjust="spacing" textLength="249" x="1743" y="1076.71">cashFlow (add to Array&lt;IDPlanCashFlow&gt;)</text><polygon fill="#181818" points="1162,1109.2637,1152,1113.2637,1162,1117.2637,1158,1113.2637" style="stroke:#181818;stroke-width:1.0;"/><line style="stroke:#181818;stroke-width:1.0;stroke-dasharray:2.0,2.0;" x1="1156" x2="1692" y1="1113.2637" y2="1113.2637"/><text fill="#000000" font-family="sans-serif" font-size="13" font-weight="bold" lengthAdjust="spacing" textLength="14" x="1168" y="1108.001">25</text><text fill="#000000" font-family="sans-serif" font-size="13" lengthAdjust="spacing" textLength="14" x="1186" y="1108.001">ok</text><polygon fill="#181818" points="610,1140.5547,600,1144.5547,610,1148.5547,606,1144.5547" style="stroke:#181818;stroke-width:1.0;"/><line style="stroke:#181818;stroke-width:1.0;stroke-dasharray:2.0,2.0;" x1="604" x2="1145" y1="1144.5547" y2="1144.5547"/><text fill="#000000" font-family="sans-serif" font-size="13" font-weight="bold" lengthAdjust="spacing" textLength="14" x="616" y="1139.292">26</text><text fill="#000000" font-family="sans-serif" font-size="13" lengthAdjust="spacing" textLength="4" x="634" y="1139.292">&#160;</text><polygon fill="#181818" points="81,1171.8457,71,1175.8457,81,1179.8457,77,1175.8457" style="stroke:#181818;stroke-width:1.0;"/><line style="stroke:#181818;stroke-width:1.0;stroke-dasharray:2.0,2.0;" x1="75" x2="593" y1="1175.8457" y2="1175.8457"/><text fill="#000000" font-family="sans-serif" font-size="13" font-weight="bold" lengthAdjust="spacing" textLength="14" x="87" y="1170.583">27</text><text fill="#000000" font-family="sans-serif" font-size="13" lengthAdjust="spacing" textLength="44" x="105" y="1170.583">200:OK</text><!--SRC=[pLLRRzCm57xFhpZAm-W6eokF4HlQXQ69JKFhUE1fSfFJnffZ1r-Aog_7ntRIPWLf21N8G-HpxE_xpatsYzhQrXJZSIkOjAuHhqlLZ0r-TIXBFAmuMsZMP1bpLh7IyYMp24e6MxfcXjhlbLPfo6-OVaJBvG8ghf5yEJ03duq_qp9jUSbRhm5vySbhdIjfjH82uwbpgyNm50KqHRta9GP0MeVJQVrBm5NJYaqGsG58YstK7RRAS1_mgXYQ0KFc46FSp9IQjvQhJUpqf-wUmsyFQVX5A0GpzQLGtughWHd33QuXYZptgnOVUk2M9rOq6LbeK6nSw4L6VpWy2JKluCFx-z6OjJnCmBZog9bYkXhFdNKQEnPpjYAPTx7dj_CRtxxQ7E-rR877UuP_n-FzZ0Y9k6iRp9M-y0HdH7ZPyys9RtGbBIvy84F6Lz3vYNbjpPWjwwcNsSyIEmc5Fkz6XQX9WZhd9RYifgf1ge4P4OZDX3z5k-j0g8AcHyRc5N2gDLjTSsFV3ZjyCjhFCg5KIma0ih86Rh41Be5NcmTDbW5zuMmJ4e1SpNDeDIwvSWPMoBI9M-2avG9iZL0whT6F3EqcYlG5fWxzXS2nBXlW76MLHnaojpdesooI7syee6IYTCBFsXqkKJeyMmLcd-fJR8SvxCkd8-Jlg4o6sVXiawDVzQs9TPsaugIg1a5u2PFjglnHmBzHbntff8n27PutUF_9o9rAwPX8cJzh5jWcuk6Q6KkH_GlD7OxZ3gE_hxdvsnNhD2VhAGt_NhExDWyElAf6BvdrlfurH9Hy8rPLO5Myg9zUqlwEZiJhTyrZrUFw6KelQNhzl4NlQm5lZewAsu_P3m00]--></g></svg>