<?xml version="1.0" encoding="us-ascii" standalone="no"?><svg xmlns="http://www.w3.org/2000/svg" xmlns:xlink="http://www.w3.org/1999/xlink" contentStyleType="text/css" height="1166px" preserveAspectRatio="none" style="width:1480px;height:1166px;background:#FFFFFF;" version="1.1" viewBox="0 0 1480 1166" width="1480px" zoomAndPan="magnify"><defs/><g><!--class PlanController--><g id="elem_PlanController"><rect codeLine="8" fill="#F1F1F1" height="63.2422" id="PlanController" rx="2.5" ry="2.5" style="stroke:#181818;stroke-width:0.5;" width="440" x="695.5" y="7"/><text fill="#000000" font-family="sans-serif" font-size="14" lengthAdjust="spacing" textLength="90" x="870.5" y="27.1074">PlanController</text><line style="stroke:#181818;stroke-width:0.5;" x1="696.5" x2="1134.5" y1="35.6211" y2="35.6211"/><line style="stroke:#181818;stroke-width:0.5;" x1="696.5" x2="1134.5" y1="43.6211" y2="43.6211"/><text fill="#000000" font-family="sans-serif" font-size="14" lengthAdjust="spacing" textLength="428" x="701.5" y="62.7285">+getFutureCashflows(): ResponseEntity&lt;Iterable&lt;PlanViewFLOW&gt;&gt;</text></g><!--class PlanService--><g id="elem_PlanService"><rect codeLine="14" fill="#F1F1F1" height="63.2422" id="PlanService" rx="2.5" ry="2.5" style="stroke:#181818;stroke-width:0.5;" width="735" x="548" y="131"/><text fill="#000000" font-family="sans-serif" font-size="14" lengthAdjust="spacing" textLength="75" x="878" y="151.1074">PlanService</text><line style="stroke:#181818;stroke-width:0.5;" x1="549" x2="1282" y1="159.6211" y2="159.6211"/><line style="stroke:#181818;stroke-width:0.5;" x1="549" x2="1282" y1="167.6211" y2="167.6211"/><text fill="#000000" font-family="sans-serif" font-size="14" lengthAdjust="spacing" textLength="723" x="554" y="186.7285">+forDashBoardFutureCashflows(Integer numberOfMonths, Integer page, Integer batchSize): List&lt;IDPlanCashFlow&gt;</text></g><!--class PlanServiceImpl--><g id="elem_PlanServiceImpl"><rect codeLine="17" fill="#F1F1F1" height="63.2422" id="PlanServiceImpl" rx="2.5" ry="2.5" style="stroke:#181818;stroke-width:0.5;" width="735" x="338" y="255"/><text fill="#000000" font-family="sans-serif" font-size="14" lengthAdjust="spacing" textLength="100" x="655.5" y="275.1074">PlanServiceImpl</text><line style="stroke:#181818;stroke-width:0.5;" x1="339" x2="1072" y1="283.6211" y2="283.6211"/><line style="stroke:#181818;stroke-width:0.5;" x1="339" x2="1072" y1="291.6211" y2="291.6211"/><text fill="#000000" font-family="sans-serif" font-size="14" lengthAdjust="spacing" textLength="723" x="344" y="310.7285">+forDashBoardFutureCashflows(Integer numberOfMonths, Integer page, Integer batchSize): List&lt;IDPlanCashFlow&gt;</text></g><!--class PlanRepository--><g id="elem_PlanRepository"><rect codeLine="24" fill="#F1F1F1" height="79.2031" id="PlanRepository" rx="2.5" ry="2.5" style="stroke:#181818;stroke-width:0.5;" width="219" x="841" y="389.5"/><text fill="#000000" font-family="sans-serif" font-size="12" font-style="italic" lengthAdjust="spacing" textLength="61" x="920" y="407.4492">&#171;interface&#187;</text><text fill="#000000" font-family="sans-serif" font-size="14" font-style="italic" lengthAdjust="spacing" textLength="96" x="902.5" y="425.5684">PlanRepository</text><line style="stroke:#181818;stroke-width:0.5;" x1="842" x2="1059" y1="434.082" y2="434.082"/><line style="stroke:#181818;stroke-width:0.5;" x1="842" x2="1059" y1="442.082" y2="442.082"/><text fill="#000000" font-family="sans-serif" font-size="14" lengthAdjust="spacing" textLength="207" x="847" y="461.1895">+findSomePlans(pageable): Plan</text></g><!--class SubscriptionRepository--><g id="elem_SubscriptionRepository"><rect codeLine="27" fill="#F1F1F1" height="97.8242" id="SubscriptionRepository" rx="2.5" ry="2.5" style="stroke:#181818;stroke-width:0.5;" width="251" x="7" y="509"/><text fill="#000000" font-family="sans-serif" font-size="12" font-style="italic" lengthAdjust="spacing" textLength="61" x="102" y="526.9492">&#171;interface&#187;</text><text fill="#000000" font-family="sans-serif" font-size="14" font-style="italic" lengthAdjust="spacing" textLength="146" x="59.5" y="545.0684">SubscriptionRepository</text><line style="stroke:#181818;stroke-width:0.5;" x1="8" x2="257" y1="553.582" y2="553.582"/><line style="stroke:#181818;stroke-width:0.5;" x1="8" x2="257" y1="561.582" y2="561.582"/><text fill="#000000" font-family="sans-serif" font-size="14" lengthAdjust="spacing" textLength="239" x="13" y="580.6895">+calculateRevenueByMonth(): Double</text><text fill="#000000" font-family="sans-serif" font-size="14" lengthAdjust="spacing" textLength="228" x="13" y="599.3105">+calculateAnnualRevenue(): Double</text></g><!--class Subscription--><g id="elem_Subscription"><rect codeLine="32" fill="#F1F1F1" height="156.3477" id="Subscription" rx="2.5" ry="2.5" style="stroke:#181818;stroke-width:0.5;" width="502" x="30.5" y="1003"/><text fill="#000000" font-family="sans-serif" font-size="14" lengthAdjust="spacing" textLength="78" x="242.5" y="1023.1074">Subscription</text><line style="stroke:#181818;stroke-width:0.5;" x1="31.5" x2="531.5" y1="1031.6211" y2="1031.6211"/><text fill="#000000" font-family="sans-serif" font-size="14" lengthAdjust="spacing" textLength="16" x="36.5" y="1050.7285">-id</text><text fill="#000000" font-family="sans-serif" font-size="14" lengthAdjust="spacing" textLength="60" x="36.5" y="1069.3496">-subType</text><text fill="#000000" font-family="sans-serif" font-size="14" lengthAdjust="spacing" textLength="33" x="36.5" y="1087.9707">-date</text><text fill="#000000" font-family="sans-serif" font-size="14" lengthAdjust="spacing" textLength="61" x="36.5" y="1106.5918">-subState</text><text fill="#000000" font-family="sans-serif" font-size="14" lengthAdjust="spacing" textLength="57" x="36.5" y="1125.2129">-feeType</text><line style="stroke:#181818;stroke-width:0.5;" x1="31.5" x2="531.5" y1="1132.7266" y2="1132.7266"/><text fill="#000000" font-family="sans-serif" font-size="14" lengthAdjust="spacing" textLength="490" x="36.5" y="1151.834">Subscription(int id, string subType, date date, string subState, string feeType)</text></g><!--class Plan--><g id="elem_Plan"><rect codeLine="41" fill="#F1F1F1" height="305.3164" id="Plan" rx="2.5" ry="2.5" style="stroke:#181818;stroke-width:0.5;" width="693" x="780" y="637"/><text fill="#000000" font-family="sans-serif" font-size="14" lengthAdjust="spacing" textLength="28" x="1112.5" y="657.1074">Plan</text><line style="stroke:#181818;stroke-width:0.5;" x1="781" x2="1472" y1="665.6211" y2="665.6211"/><text fill="#000000" font-family="sans-serif" font-size="14" lengthAdjust="spacing" textLength="42" x="786" y="684.7285">-nMins</text><text fill="#000000" font-family="sans-serif" font-size="14" lengthAdjust="spacing" textLength="80" x="786" y="703.3496">-maxDevices</text><text fill="#000000" font-family="sans-serif" font-size="14" lengthAdjust="spacing" textLength="110" x="786" y="721.9707">-musicCollections</text><text fill="#000000" font-family="sans-serif" font-size="14" lengthAdjust="spacing" textLength="119" x="786" y="740.5918">-musicSuggestions</text><text fill="#000000" font-family="sans-serif" font-size="14" lengthAdjust="spacing" textLength="79" x="786" y="759.2129">-monthlyFee</text><text fill="#000000" font-family="sans-serif" font-size="14" lengthAdjust="spacing" textLength="73" x="786" y="777.834">-annualFee</text><text fill="#000000" font-family="sans-serif" font-size="14" lengthAdjust="spacing" textLength="65" x="786" y="796.4551">-planState</text><text fill="#000000" font-family="sans-serif" font-size="14" lengthAdjust="spacing" textLength="64" x="786" y="815.0762">-planType</text><text fill="#000000" font-family="sans-serif" font-size="14" lengthAdjust="spacing" textLength="85" x="786" y="833.6973">-planPromote</text><text fill="#000000" font-family="sans-serif" font-size="14" lengthAdjust="spacing" textLength="111" x="786" y="852.3184">-HTMLdescription</text><text fill="#000000" font-family="sans-serif" font-size="14" lengthAdjust="spacing" textLength="503" x="786" y="870.9395">final String musicSuggestions, final Integer monthlyFee, final Integer annualFee,</text><line style="stroke:#181818;stroke-width:0.5;" x1="781" x2="1472" y1="878.4531" y2="878.4531"/><text fill="#000000" font-family="sans-serif" font-size="14" lengthAdjust="spacing" textLength="681" x="786" y="897.5605">Plan(final String planType, final Integer numMinutes, final Integer maxDevices, final Integer musicCollections,</text><text fill="#000000" font-family="sans-serif" font-size="14" lengthAdjust="spacing" textLength="173" x="786" y="916.1816">final String htmlDescription)</text><text fill="#000000" font-family="sans-serif" font-size="14" lengthAdjust="spacing" textLength="90" x="786" y="934.8027">getPlanType()</text></g><!--class IDPlanCashFlow--><g id="elem_IDPlanCashFlow"><rect codeLine="57" fill="#F1F1F1" height="100.4844" id="IDPlanCashFlow" rx="2.5" ry="2.5" style="stroke:#181818;stroke-width:0.5;" width="214" x="445.5" y="379"/><text fill="#000000" font-family="sans-serif" font-size="14" lengthAdjust="spacing" textLength="103" x="501" y="399.1074">IDPlanCashFlow</text><line style="stroke:#181818;stroke-width:0.5;" x1="446.5" x2="658.5" y1="407.6211" y2="407.6211"/><text fill="#000000" font-family="sans-serif" font-size="14" lengthAdjust="spacing" textLength="64" x="451.5" y="426.7285">-planType</text><text fill="#000000" font-family="sans-serif" font-size="14" lengthAdjust="spacing" textLength="66" x="451.5" y="445.3496">-cashflows</text><line style="stroke:#181818;stroke-width:0.5;" x1="446.5" x2="658.5" y1="452.8633" y2="452.8633"/><text fill="#000000" font-family="sans-serif" font-size="14" lengthAdjust="spacing" textLength="202" x="451.5" y="471.9707">IDPlanCashFlow(final Plan plan)</text></g><!--class PlanType_CashFlow--><g id="elem_PlanType_CashFlow"><rect codeLine="64" fill="#F1F1F1" height="100.4844" id="PlanType_CashFlow" rx="2.5" ry="2.5" style="stroke:#181818;stroke-width:0.5;" width="410" x="334.5" y="739.5"/><text fill="#000000" font-family="sans-serif" font-size="14" lengthAdjust="spacing" textLength="130" x="474.5" y="759.6074">PlanType_CashFlow</text><line style="stroke:#181818;stroke-width:0.5;" x1="335.5" x2="743.5" y1="768.1211" y2="768.1211"/><text fill="#000000" font-family="sans-serif" font-size="14" lengthAdjust="spacing" textLength="44" x="340.5" y="787.2285">-month</text><text fill="#000000" font-family="sans-serif" font-size="14" lengthAdjust="spacing" textLength="59" x="340.5" y="805.8496">-cashflow</text><line style="stroke:#181818;stroke-width:0.5;" x1="335.5" x2="743.5" y1="813.3633" y2="813.3633"/><text fill="#000000" font-family="sans-serif" font-size="14" lengthAdjust="spacing" textLength="398" x="340.5" y="832.4707">PlanType_CashFlow(final Integer month, final Double cashflow)</text></g><!--link PlanRepository to Plan--><g id="link_PlanRepository_Plan"><path codeLine="70" d="M969.5,468.71 C988.86,508.14 1020.17,571.91 1049.75,632.16 " fill="none" id="PlanRepository-to-Plan" style="stroke:#181818;stroke-width:1.0;"/><polygon fill="#181818" points="1052.06,636.86,1051.6631,627.0191,1049.8468,632.3765,1044.4895,630.5603,1052.06,636.86" style="stroke:#181818;stroke-width:1.0;"/><text fill="#000000" font-family="sans-serif" font-size="13" lengthAdjust="spacing" textLength="43" x="1034.5" y="563.5283">records</text><text fill="#000000" font-family="sans-serif" font-size="13" lengthAdjust="spacing" textLength="7" x="965.0672" y="490.7304">1</text><text fill="#000000" font-family="sans-serif" font-size="13" lengthAdjust="spacing" textLength="20" x="1027.7061" y="625.5789">0..*</text></g><!--link PlanController to PlanService--><g id="link_PlanController_PlanService"><path codeLine="71" d="M915.5,70.29 C915.5,87.05 915.5,107.88 915.5,125.4 " fill="none" id="PlanController-to-PlanService" style="stroke:#181818;stroke-width:1.0;stroke-dasharray:7.0,7.0;"/><polygon fill="#181818" points="915.5,130.72,919.5,121.72,915.5,125.72,911.5,121.72,915.5,130.72" style="stroke:#181818;stroke-width:1.0;"/></g><!--link PlanServiceImpl to PlanRepository--><g id="link_PlanServiceImpl_PlanRepository"><path codeLine="72" d="M758.96,318.16 C794.01,338.26 840.24,364.77 878.5,386.71 " fill="none" id="PlanServiceImpl-to-PlanRepository" style="stroke:#181818;stroke-width:1.0;stroke-dasharray:7.0,7.0;"/><polygon fill="#181818" points="883.13,389.36,877.3173,381.4094,878.7941,386.8701,873.3334,388.3469,883.13,389.36" style="stroke:#181818;stroke-width:1.0;"/></g><!--link PlanServiceImpl to Plan--><g id="link_PlanServiceImpl_Plan"><path codeLine="74" d="M721.55,318.05 C742.63,357.03 781.89,425.77 823.5,479 C864.91,531.97 914.36,585.7 961.18,633.2 " fill="none" id="PlanServiceImpl-to-Plan" style="stroke:#181818;stroke-width:1.0;stroke-dasharray:7.0,7.0;"/><polygon fill="#181818" points="964.84,636.89,961.3602,627.6764,961.326,633.3331,955.6692,633.2988,964.84,636.89" style="stroke:#181818;stroke-width:1.0;"/></g><!--link PlanService to Plan--><g id="link_PlanService_Plan"><path codeLine="75" d="M1014.97,194.19 C1044.01,208.09 1072.7,227.72 1090.5,255 C1162.74,365.69 1165.76,518.29 1154.21,631.93 " fill="none" id="PlanService-to-Plan" style="stroke:#181818;stroke-width:1.0;stroke-dasharray:7.0,7.0;"/><polygon fill="#181818" points="1153.68,636.97,1158.5849,628.4294,1154.1945,631.9965,1150.6273,627.6062,1153.68,636.97" style="stroke:#181818;stroke-width:1.0;"/></g><!--reverse link PlanService to PlanServiceImpl--><g id="link_PlanService_PlanServiceImpl"><path codeLine="76" d="M845.22,204.33 C816.81,220.83 784.58,239.56 758.24,254.86 " fill="none" id="PlanService-backto-PlanServiceImpl" style="stroke:#181818;stroke-width:1.0;stroke-dasharray:7.0,7.0;"/><polygon fill="none" points="841.97,198.12,862.78,194.13,849,210.23,841.97,198.12" style="stroke:#181818;stroke-width:1.0;"/></g><!--link SubscriptionRepository to Subscription--><g id="link_SubscriptionRepository_Subscription"><path codeLine="80" d="M138.02,607.3 C147.4,681.06 169.54,825.49 210.5,942 C217.09,960.75 225.78,980.14 234.8,998.26 " fill="none" id="SubscriptionRepository-to-Subscription" style="stroke:#181818;stroke-width:1.0;"/><polygon fill="#181818" points="237.1,1002.84,236.6402,993.0019,234.8582,998.3707,229.4894,996.5887,237.1,1002.84" style="stroke:#181818;stroke-width:1.0;"/><text fill="#000000" font-family="sans-serif" font-size="13" lengthAdjust="spacing" textLength="43" x="211.5" y="795.0283">records</text><text fill="#000000" font-family="sans-serif" font-size="13" lengthAdjust="spacing" textLength="7" x="131.2788" y="628.7638">1</text><text fill="#000000" font-family="sans-serif" font-size="13" lengthAdjust="spacing" textLength="20" x="211.915" y="991.6058">0..*</text></g><!--link PlanServiceImpl to SubscriptionRepository--><g id="link_PlanServiceImpl_SubscriptionRepository"><path codeLine="81" d="M345.38,318.01 C306.33,325.85 274.05,335.68 255.5,348 C200.4,384.59 166.61,454.99 148.72,503.91 " fill="none" id="PlanServiceImpl-to-SubscriptionRepository" style="stroke:#181818;stroke-width:1.0;stroke-dasharray:7.0,7.0;"/><polygon fill="#181818" points="146.93,508.87,153.7336,501.7488,148.618,504.1636,146.2033,499.048,146.93,508.87" style="stroke:#181818;stroke-width:1.0;"/></g><!--link IDPlanCashFlow to Plan--><g id="link_IDPlanCashFlow_Plan"><path codeLine="82" d="M595.29,479.3 C630.42,517.63 682.93,570.29 736.5,607 C750.04,616.28 764.13,625.3 778.57,634.04 " fill="none" id="IDPlanCashFlow-to-Plan" style="stroke:#181818;stroke-width:1.0;"/><polygon fill="#181818" points="783.06,636.75,777.4005,628.6896,778.7725,634.1775,773.2846,635.5495,783.06,636.75" style="stroke:#181818;stroke-width:1.0;"/><text fill="#000000" font-family="sans-serif" font-size="13" lengthAdjust="spacing" textLength="5" x="595.9558" y="501.5835">*</text><text fill="#000000" font-family="sans-serif" font-size="13" lengthAdjust="spacing" textLength="7" x="764.676" y="628.4869">1</text></g><!--link IDPlanCashFlow to PlanType_CashFlow--><g id="link_IDPlanCashFlow_PlanType_CashFlow"><path codeLine="83" d="M550.72,479.1 C548.3,545.82 543.99,664.74 541.47,734.1 " fill="none" id="IDPlanCashFlow-to-PlanType_CashFlow" style="stroke:#181818;stroke-width:1.0;"/><polygon fill="#181818" points="541.28,739.42,545.6113,730.5747,541.4656,734.4234,537.6168,730.2777,541.28,739.42" style="stroke:#181818;stroke-width:1.0;"/><text fill="#000000" font-family="sans-serif" font-size="13" lengthAdjust="spacing" textLength="7" x="542.9775" y="501.3553">1</text><text fill="#000000" font-family="sans-serif" font-size="13" lengthAdjust="spacing" textLength="5" x="536.1787" y="728.1969">*</text></g><!--link Plan to Subscription--><g id="link_Plan_Subscription"><path codeLine="84" d="M779.59,935.58 C773.52,937.76 767.49,939.9 761.5,942 C689.67,967.14 610.67,991.27 537.86,1012.11 " fill="none" id="Plan-to-Subscription" style="stroke:#181818;stroke-width:1.0;"/><polygon fill="#181818" points="532.63,1013.61,542.3815,1014.9913,537.4387,1012.2402,540.1898,1007.2973,532.63,1013.61" style="stroke:#181818;stroke-width:1.0;"/><text fill="#000000" font-family="sans-serif" font-size="13" lengthAdjust="spacing" textLength="7" x="765.4723" y="935.4027">1</text><text fill="#000000" font-family="sans-serif" font-size="13" lengthAdjust="spacing" textLength="5" x="540.1596" y="1008.3845">*</text></g><!--link PlanServiceImpl to Subscription--><g id="link_PlanServiceImpl_Subscription"><path codeLine="85" d="M536.67,318.11 C497.32,331.61 458.05,351.04 427.5,379 C252.6,539.1 257.28,849.77 271.03,997.77 " fill="none" id="PlanServiceImpl-to-Subscription" style="stroke:#181818;stroke-width:1.0;stroke-dasharray:7.0,7.0;"/><polygon fill="#181818" points="271.52,1002.97,274.6525,993.6326,271.048,997.9923,266.6882,994.3878,271.52,1002.97" style="stroke:#181818;stroke-width:1.0;"/></g><!--SRC=[lLJBRXiX5Dtp5SYRsgdj9Dl8ifJ4jMefKQ9Cr2uhp5oFKHaOyKZgFlwzmBmOx2XTbOKzzy6vznmkVDWRK-chy_EA4s5ioUTKbkUK4wrdEIE58YL2UvO3fanH3aX_Pw8Yper3qhKnYcsjWGsL8cC_0LyWjq8CFphCMocCafo3mhyG_bY0MLjZ5TmIlTzn-Qh7aoly1BgIGiCdOPWvB3O65DboM7Y0BmnUrtSFNvTBz6S8dO5wOHG2xawgbKEyaKJbQO6DC52u-iAMMr0FktlNqbvFSUklI06zjIM6xZqJrzSTqsQnMGKU3cxju7mNHorioeh_vouG3cembwzsnAdWmqzGISsCL0UyM7IXvT9BvBfZ8iza2JvJZtqzBx8hu1sELe-LsQscYbM6oNSmAU7KScBW2Lv0MBWv15x-K5VIEdWKvLmBOGblCgEKF-sfndK3FiOpbjV_scwV3nNKHkxGEdTcEci7q2N5O6FNE6Rv56ithgB03TWKUw3m4uS2OETeC2TzcrwljZrnpuIkFqloOmL-75hRQaPl_UnJtqFipMnHW8wzNZL-M4D3X0IfEjFVpeYcDtinlFMeP2dRyEVd-xiSElB1wNiUkmaW76SrhnPaYcjtDA2EaxlIEetq18yY2TLfg7bg3Lf8jJY2xLH98vq-_rXfRqg-wYMPX5tkCNfiH1XFkdizl6drEGyKdz7sKdjhcDv872R4xvcWuTXuZ6y9Tc0v04RDWGsonoUqQMMfBn9kzuTPJHw4qUK8psPBFBgOpyz60VuAOmLKgboZvAcUpvVn-uQIjwwBz_ZepPmuSD9PPzjg_djOrAqt7gA4IvoLS4eREWs8aZCVdJNubxLGH_6sVYFau9n2tK5ANFJThlu2]--></g></svg>