<?xml version="1.0" encoding="UTF-8" standalone="no"?><svg xmlns="http://www.w3.org/2000/svg" xmlns:xlink="http://www.w3.org/1999/xlink" contentStyleType="text/css" height="288px" preserveAspectRatio="none" style="width:448px;height:288px;background:#FFFFFF;" version="1.1" viewBox="0 0 448 288" width="448px" zoomAndPan="magnify"><defs/><g><text fill="#000000" font-family="sans-serif" font-size="14" font-weight="bold" lengthAdjust="spacing" textLength="420" x="10" y="30.1074">o migrate all subscribers of a certain plan to a different plan</text><rect fill="#FFFFFF" height="63.582" style="stroke:#181818;stroke-width:1.0;" width="10" x="168.5" y="133.2422"/><rect fill="#FFFFFF" height="31.291" style="stroke:#181818;stroke-width:1.0;" width="10" x="291.5" y="156.5332"/><line style="stroke:#181818;stroke-width:0.5;stroke-dasharray:5.0,5.0;" x1="173.5" x2="173.5" y1="123.2422" y2="205.8242"/><line style="stroke:#181818;stroke-width:0.5;stroke-dasharray:5.0,5.0;" x1="296.5" x2="296.5" y1="123.2422" y2="205.8242"/><text fill="#000000" font-family="sans-serif" font-size="14" lengthAdjust="spacing" textLength="116" x="112.5" y="119.7285">Marketing Director</text><ellipse cx="173.5" cy="53.1211" fill="#E2E2F0" rx="8" ry="8" style="stroke:#181818;stroke-width:0.5;"/><path d="M173.5,61.1211 L173.5,88.1211 M160.5,69.1211 L186.5,69.1211 M173.5,88.1211 L160.5,103.1211 M173.5,88.1211 L186.5,103.1211 " fill="none" style="stroke:#181818;stroke-width:0.5;"/><text fill="#000000" font-family="sans-serif" font-size="14" lengthAdjust="spacing" textLength="116" x="112.5" y="219.9316">Marketing Director</text><ellipse cx="173.5" cy="231.9453" fill="#E2E2F0" rx="8" ry="8" style="stroke:#181818;stroke-width:0.5;"/><path d="M173.5,239.9453 L173.5,266.9453 M160.5,247.9453 L186.5,247.9453 M173.5,266.9453 L160.5,281.9453 M173.5,266.9453 L186.5,281.9453 " fill="none" style="stroke:#181818;stroke-width:0.5;"/><rect fill="#E2E2F0" height="32.6211" rx="2.5" ry="2.5" style="stroke:#181818;stroke-width:0.5;" width="64" x="264.5" y="89.6211"/><text fill="#000000" font-family="sans-serif" font-size="14" lengthAdjust="spacing" textLength="50" x="271.5" y="111.7285">:System</text><rect fill="#E2E2F0" height="32.6211" rx="2.5" ry="2.5" style="stroke:#181818;stroke-width:0.5;" width="64" x="264.5" y="204.8242"/><text fill="#000000" font-family="sans-serif" font-size="14" lengthAdjust="spacing" textLength="50" x="271.5" y="226.9316">:System</text><rect fill="#FFFFFF" height="63.582" style="stroke:#181818;stroke-width:1.0;" width="10" x="168.5" y="133.2422"/><rect fill="#FFFFFF" height="31.291" style="stroke:#181818;stroke-width:1.0;" width="10" x="291.5" y="156.5332"/><polygon fill="#181818" points="279.5,152.5332,289.5,156.5332,279.5,160.5332,283.5,156.5332" style="stroke:#181818;stroke-width:1.0;"/><line style="stroke:#181818;stroke-width:1.0;" x1="178.5" x2="285.5" y1="156.5332" y2="156.5332"/><text fill="#000000" font-family="sans-serif" font-size="13" font-weight="bold" lengthAdjust="spacing" textLength="7" x="185.5" y="151.2705">1</text><text fill="#000000" font-family="sans-serif" font-size="13" lengthAdjust="spacing" textLength="83" x="196.5" y="151.2705">PUT(/api/sub/)</text><polygon fill="#181818" points="189.5,183.8242,179.5,187.8242,189.5,191.8242,185.5,187.8242" style="stroke:#181818;stroke-width:1.0;"/><line style="stroke:#181818;stroke-width:1.0;stroke-dasharray:2.0,2.0;" x1="183.5" x2="295.5" y1="187.8242" y2="187.8242"/><text fill="#000000" font-family="sans-serif" font-size="13" font-weight="bold" lengthAdjust="spacing" textLength="7" x="195.5" y="182.5615">2</text><text fill="#000000" font-family="sans-serif" font-size="13" lengthAdjust="spacing" textLength="42" x="206.5" y="182.5615">200:Ok</text><!--MD5=[5afa7c2d0952ecd2024a5ca5d0589294]
@startuml
'https://plantuml.com/sequence-diagram

title o migrate all subscribers of a certain plan to a different plan


autoactivate on
autonumber

actor "Marketing Director" as MarketingDirector
participant ":System" as System

activate MarketingDirector

MarketingDirector -> System: PUT(/api/sub/)
System - -> MarketingDirector: 200:Ok

@enduml

@startuml

title o migrate all subscribers of a certain plan to a different plan


autoactivate on
autonumber

actor "Marketing Director" as MarketingDirector
participant ":System" as System

activate MarketingDirector

MarketingDirector -> System: PUT(/api/sub/)
System - -> MarketingDirector: 200:Ok

@enduml

PlantUML version 1.2022.13(Sat Nov 19 13:22:17 WET 2022)
(GPL source distribution)
Java Runtime: OpenJDK Runtime Environment
JVM: OpenJDK 64-Bit Server VM
Default Encoding: Cp1252
Language: pt
Country: PT
--></g></svg>