<?xml version="1.0" encoding="us-ascii" standalone="no"?><svg xmlns="http://www.w3.org/2000/svg" xmlns:xlink="http://www.w3.org/1999/xlink" contentStyleType="text/css" height="660.96px" preserveAspectRatio="none" style="width:1581px;height:660px;background:#FFFFFF;" version="1.1" viewBox="0 0 1581 660" width="1581.93px" zoomAndPan="magnify"><defs/><g><rect fill="#FFFFFF" height="510.9645" style="stroke:#181818;stroke-width:0.81;" width="8.1" x="47.79" y="75.8331"/><rect fill="#FFFFFF" height="484.8087" style="stroke:#181818;stroke-width:0.81;" width="8.1" x="166.05" y="94.6988"/><rect fill="#FFFFFF" height="434.1173" style="stroke:#181818;stroke-width:0.81;" width="8.1" x="559.71" y="120.0445"/><rect fill="#FFFFFF" height="383.4258" style="stroke:#181818;stroke-width:0.81;" width="8.1" x="953.37" y="145.3903"/><rect fill="#FFFFFF" height="25.3457" style="stroke:#181818;stroke-width:0.81;" width="8.1" x="1065.15" y="365.4018"/><rect fill="#FFFFFF" height="25.3457" style="stroke:#181818;stroke-width:0.81;" width="8.1" x="1270.89" y="293.4146"/><rect fill="#FFFFFF" height="25.3457" style="stroke:#181818;stroke-width:0.81;" width="8.1" x="1270.89" y="421.7632"/><rect fill="#FFFFFF" height="25.3457" style="stroke:#181818;stroke-width:0.81;" width="8.1" x="1270.89" y="478.1246"/><rect fill="#FFFFFF" height="25.3457" style="stroke:#181818;stroke-width:0.81;" width="8.1" x="1488.375" y="170.736"/><rect fill="#FFFFFF" height="25.3457" style="stroke:#181818;stroke-width:0.81;" width="8.1" x="1488.375" y="221.4274"/><rect fill="none" height="194.6658" style="stroke:#000000;stroke-width:1.215;" width="532.98" x="874.8" y="258.9231"/><rect fill="none" height="66.3172" style="stroke:#000000;stroke-width:1.215;" width="231.66" x="882.9" y="330.9103"/><line style="stroke:#181818;stroke-width:0.405;stroke-dasharray:5.0,5.0;" x1="51.84" x2="51.84" y1="67.7331" y2="594.0875"/><line style="stroke:#181818;stroke-width:0.405;stroke-dasharray:5.0,5.0;" x1="170.1" x2="170.1" y1="67.7331" y2="594.0875"/><line style="stroke:#181818;stroke-width:0.405;stroke-dasharray:5.0,5.0;" x1="563.76" x2="563.76" y1="67.7331" y2="594.0875"/><line style="stroke:#181818;stroke-width:0.405;stroke-dasharray:5.0,5.0;" x1="957.42" x2="957.42" y1="67.7331" y2="594.0875"/><line style="stroke:#181818;stroke-width:0.405;stroke-dasharray:5.0,5.0;" x1="1069.2" x2="1069.2" y1="67.7331" y2="594.0875"/><line style="stroke:#181818;stroke-width:0.405;stroke-dasharray:5.0,5.0;" x1="1274.94" x2="1274.94" y1="67.7331" y2="594.0875"/><line style="stroke:#181818;stroke-width:0.405;stroke-dasharray:5.0,5.0;" x1="1492.02" x2="1492.02" y1="67.7331" y2="594.0875"/><text fill="#000000" font-family="sans-serif" font-size="11.34" lengthAdjust="spacing" textLength="90.72" x="4.05" y="64.887">MarketingDirector</text><ellipse cx="51.84" cy="10.935" fill="#E2E2F0" rx="6.48" ry="6.48" style="stroke:#181818;stroke-width:0.405;"/><path d="M51.84,17.415 L51.84,39.285 M41.31,23.895 L62.37,23.895 M51.84,39.285 L41.31,51.435 M51.84,39.285 L62.37,51.435 " fill="none" style="stroke:#181818;stroke-width:0.405;"/><text fill="#000000" font-family="sans-serif" font-size="11.34" lengthAdjust="spacing" textLength="90.72" x="4.05" y="605.5146">MarketingDirector</text><ellipse cx="51.84" cy="615.2456" fill="#E2E2F0" rx="6.48" ry="6.48" style="stroke:#181818;stroke-width:0.405;"/><path d="M51.84,621.7256 L51.84,643.5956 M41.31,628.2056 L62.37,628.2056 M51.84,643.5956 L41.31,655.7456 M51.84,643.5956 L62.37,655.7456 " fill="none" style="stroke:#181818;stroke-width:0.405;"/><rect fill="#E2E2F0" height="26.4231" rx="2.025" ry="2.025" style="stroke:#181818;stroke-width:0.405;" width="124.74" x="107.73" y="40.5"/><text fill="#000000" font-family="sans-serif" font-size="11.34" lengthAdjust="spacing" textLength="113.4" x="113.4" y="58.407">SubscriptionController</text><rect fill="#E2E2F0" height="26.4231" rx="2.025" ry="2.025" style="stroke:#181818;stroke-width:0.405;" width="124.74" x="107.73" y="593.2775"/><text fill="#000000" font-family="sans-serif" font-size="11.34" lengthAdjust="spacing" textLength="113.4" x="113.4" y="611.1846">SubscriptionController</text><rect fill="#E2E2F0" height="26.4231" rx="2.025" ry="2.025" style="stroke:#181818;stroke-width:0.405;" width="215.46" x="456.03" y="40.5"/><text fill="#000000" font-family="sans-serif" font-size="11.34" lengthAdjust="spacing" textLength="204.12" x="461.7" y="58.407">subscriptionService:SubscriptionService</text><rect fill="#E2E2F0" height="26.4231" rx="2.025" ry="2.025" style="stroke:#181818;stroke-width:0.405;" width="215.46" x="456.03" y="593.2775"/><text fill="#000000" font-family="sans-serif" font-size="11.34" lengthAdjust="spacing" textLength="204.12" x="461.7" y="611.1846">subscriptionService:SubscriptionService</text><rect fill="#E2E2F0" height="26.4231" rx="2.025" ry="2.025" style="stroke:#181818;stroke-width:0.405;" width="132.84" x="891" y="40.5"/><text fill="#000000" font-family="sans-serif" font-size="11.34" lengthAdjust="spacing" textLength="121.5" x="896.67" y="58.407">SubscriptionServiceImpl</text><rect fill="#E2E2F0" height="26.4231" rx="2.025" ry="2.025" style="stroke:#181818;stroke-width:0.405;" width="132.84" x="891" y="593.2775"/><text fill="#000000" font-family="sans-serif" font-size="11.34" lengthAdjust="spacing" textLength="121.5" x="896.67" y="611.1846">SubscriptionServiceImpl</text><rect fill="#E2E2F0" height="26.4231" rx="2.025" ry="2.025" style="stroke:#181818;stroke-width:0.405;" width="74.52" x="1031.94" y="40.5"/><text fill="#000000" font-family="sans-serif" font-size="11.34" lengthAdjust="spacing" textLength="63.18" x="1037.61" y="58.407">Subscription</text><rect fill="#E2E2F0" height="26.4231" rx="2.025" ry="2.025" style="stroke:#181818;stroke-width:0.405;" width="74.52" x="1031.94" y="593.2775"/><text fill="#000000" font-family="sans-serif" font-size="11.34" lengthAdjust="spacing" textLength="63.18" x="1037.61" y="611.1846">Subscription</text><rect fill="#E2E2F0" height="26.4231" rx="2.025" ry="2.025" style="stroke:#181818;stroke-width:0.405;" width="249.48" x="1150.2" y="40.5"/><text fill="#000000" font-family="sans-serif" font-size="11.34" lengthAdjust="spacing" textLength="238.14" x="1155.87" y="58.407">subscriptionRepository:SubscriptionRepository</text><rect fill="#E2E2F0" height="26.4231" rx="2.025" ry="2.025" style="stroke:#181818;stroke-width:0.405;" width="249.48" x="1150.2" y="593.2775"/><text fill="#000000" font-family="sans-serif" font-size="11.34" lengthAdjust="spacing" textLength="238.14" x="1155.87" y="611.1846">subscriptionRepository:SubscriptionRepository</text><rect fill="#E2E2F0" height="26.4231" rx="2.025" ry="2.025" style="stroke:#181818;stroke-width:0.405;" width="169.29" x="1407.78" y="40.5"/><text fill="#000000" font-family="sans-serif" font-size="11.34" lengthAdjust="spacing" textLength="157.95" x="1413.45" y="58.407">planRepository:PlanRepository</text><rect fill="#E2E2F0" height="26.4231" rx="2.025" ry="2.025" style="stroke:#181818;stroke-width:0.405;" width="169.29" x="1407.78" y="593.2775"/><text fill="#000000" font-family="sans-serif" font-size="11.34" lengthAdjust="spacing" textLength="157.95" x="1413.45" y="611.1846">planRepository:PlanRepository</text><rect fill="#FFFFFF" height="510.9645" style="stroke:#181818;stroke-width:0.81;" width="8.1" x="47.79" y="75.8331"/><rect fill="#FFFFFF" height="484.8087" style="stroke:#181818;stroke-width:0.81;" width="8.1" x="166.05" y="94.6988"/><rect fill="#FFFFFF" height="434.1173" style="stroke:#181818;stroke-width:0.81;" width="8.1" x="559.71" y="120.0445"/><rect fill="#FFFFFF" height="383.4258" style="stroke:#181818;stroke-width:0.81;" width="8.1" x="953.37" y="145.3903"/><rect fill="#FFFFFF" height="25.3457" style="stroke:#181818;stroke-width:0.81;" width="8.1" x="1065.15" y="365.4018"/><rect fill="#FFFFFF" height="25.3457" style="stroke:#181818;stroke-width:0.81;" width="8.1" x="1270.89" y="293.4146"/><rect fill="#FFFFFF" height="25.3457" style="stroke:#181818;stroke-width:0.81;" width="8.1" x="1270.89" y="421.7632"/><rect fill="#FFFFFF" height="25.3457" style="stroke:#181818;stroke-width:0.81;" width="8.1" x="1270.89" y="478.1246"/><rect fill="#FFFFFF" height="25.3457" style="stroke:#181818;stroke-width:0.81;" width="8.1" x="1488.375" y="170.736"/><rect fill="#FFFFFF" height="25.3457" style="stroke:#181818;stroke-width:0.81;" width="8.1" x="1488.375" y="221.4274"/><polygon fill="#181818" points="156.33,91.4588,164.43,94.6988,156.33,97.9388,159.57,94.6988" style="stroke:#181818;stroke-width:0.81;"/><line style="stroke:#181818;stroke-width:0.81;" x1="55.89" x2="161.19" y1="94.6988" y2="94.6988"/><text fill="#000000" font-family="sans-serif" font-size="10.53" font-weight="bold" lengthAdjust="spacing" textLength="5.67" x="61.56" y="90.436">1</text><text fill="#000000" font-family="sans-serif" font-size="10.53" lengthAdjust="spacing" textLength="67.23" x="70.47" y="90.436">PUT(/api/sub/)</text><polygon fill="#181818" points="549.99,116.8045,558.09,120.0445,549.99,123.2845,553.23,120.0445" style="stroke:#181818;stroke-width:0.81;"/><line style="stroke:#181818;stroke-width:0.81;" x1="174.15" x2="554.85" y1="120.0445" y2="120.0445"/><text fill="#000000" font-family="sans-serif" font-size="10.53" font-weight="bold" lengthAdjust="spacing" textLength="5.67" x="179.82" y="115.7817">2</text><text fill="#000000" font-family="sans-serif" font-size="10.53" lengthAdjust="spacing" textLength="361.26" x="188.73" y="115.7817">migrateAllSubscribers(resource.getCurrentPlanId(), resource.getNewPlanId());</text><polygon fill="#181818" points="943.65,142.1503,951.75,145.3903,943.65,148.6303,946.89,145.3903" style="stroke:#181818;stroke-width:0.81;"/><line style="stroke:#181818;stroke-width:0.81;" x1="567.81" x2="948.51" y1="145.3903" y2="145.3903"/><text fill="#000000" font-family="sans-serif" font-size="10.53" font-weight="bold" lengthAdjust="spacing" textLength="5.67" x="573.48" y="141.1275">3</text><text fill="#000000" font-family="sans-serif" font-size="10.53" lengthAdjust="spacing" textLength="361.26" x="582.39" y="141.1275">migrateAllSubscribers(resource.getCurrentPlanId(), resource.getNewPlanId());</text><polygon fill="#181818" points="1478.655,167.496,1486.755,170.736,1478.655,173.976,1481.895,170.736" style="stroke:#181818;stroke-width:0.81;"/><line style="stroke:#181818;stroke-width:0.81;" x1="961.47" x2="1483.515" y1="170.736" y2="170.736"/><text fill="#000000" font-family="sans-serif" font-size="10.53" font-weight="bold" lengthAdjust="spacing" textLength="5.67" x="967.14" y="166.4732">4</text><text fill="#000000" font-family="sans-serif" font-size="10.53" lengthAdjust="spacing" textLength="91.53" x="976.05" y="166.4732">findById(newPlanId)</text><polygon fill="#181818" points="970.38,192.8417,962.28,196.0817,970.38,199.3217,967.14,196.0817" style="stroke:#181818;stroke-width:0.81;"/><line style="stroke:#181818;stroke-width:0.81;stroke-dasharray:2.0,2.0;" x1="965.52" x2="1491.615" y1="196.0817" y2="196.0817"/><text fill="#000000" font-family="sans-serif" font-size="10.53" font-weight="bold" lengthAdjust="spacing" textLength="5.67" x="975.24" y="191.8189">5</text><text fill="#000000" font-family="sans-serif" font-size="10.53" lengthAdjust="spacing" textLength="19.44" x="984.15" y="191.8189">plan</text><polygon fill="#181818" points="1478.655,218.1874,1486.755,221.4274,1478.655,224.6674,1481.895,221.4274" style="stroke:#181818;stroke-width:0.81;"/><line style="stroke:#181818;stroke-width:0.81;" x1="961.47" x2="1483.515" y1="221.4274" y2="221.4274"/><text fill="#000000" font-family="sans-serif" font-size="10.53" font-weight="bold" lengthAdjust="spacing" textLength="5.67" x="967.14" y="217.1646">6</text><text fill="#000000" font-family="sans-serif" font-size="10.53" lengthAdjust="spacing" textLength="105.3" x="976.05" y="217.1646">findById(currentPlanId)</text><polygon fill="#181818" points="970.38,243.5331,962.28,246.7731,970.38,250.0131,967.14,246.7731" style="stroke:#181818;stroke-width:0.81;"/><line style="stroke:#181818;stroke-width:0.81;stroke-dasharray:2.0,2.0;" x1="965.52" x2="1491.615" y1="246.7731" y2="246.7731"/><text fill="#000000" font-family="sans-serif" font-size="10.53" font-weight="bold" lengthAdjust="spacing" textLength="5.67" x="975.24" y="242.5104">7</text><text fill="#000000" font-family="sans-serif" font-size="10.53" lengthAdjust="spacing" textLength="25.11" x="984.15" y="242.5104">plan1</text><path d="M874.8,258.9231 L933.93,258.9231 L933.93,266.4489 L925.83,274.5489 L874.8,274.5489 L874.8,258.9231 " fill="#EEEEEE" style="stroke:#000000;stroke-width:1.215;"/><rect fill="none" height="194.6658" style="stroke:#000000;stroke-width:1.215;" width="532.98" x="874.8" y="258.9231"/><text fill="#000000" font-family="sans-serif" font-size="10.53" font-weight="bold" lengthAdjust="spacing" textLength="22.68" x="886.95" y="271.0961">loop</text><text fill="#000000" font-family="sans-serif" font-size="8.91" font-weight="bold" lengthAdjust="spacing" textLength="90.72" x="946.08" y="270.1579">[until ther "is" subs]</text><polygon fill="#181818" points="1261.17,290.1746,1269.27,293.4146,1261.17,296.6546,1264.41,293.4146" style="stroke:#181818;stroke-width:0.81;"/><line style="stroke:#181818;stroke-width:0.81;" x1="961.47" x2="1266.03" y1="293.4146" y2="293.4146"/><text fill="#000000" font-family="sans-serif" font-size="10.53" font-weight="bold" lengthAdjust="spacing" textLength="5.67" x="967.14" y="289.1518">8</text><text fill="#000000" font-family="sans-serif" font-size="10.53" lengthAdjust="spacing" textLength="285.12" x="976.05" y="289.1518">findSubscriptionsByPlanType(plan1.getPlanType(), pageable)</text><polygon fill="#181818" points="970.38,315.5203,962.28,318.7603,970.38,322.0003,967.14,318.7603" style="stroke:#181818;stroke-width:0.81;"/><line style="stroke:#181818;stroke-width:0.81;stroke-dasharray:2.0,2.0;" x1="965.52" x2="1274.13" y1="318.7603" y2="318.7603"/><text fill="#000000" font-family="sans-serif" font-size="10.53" font-weight="bold" lengthAdjust="spacing" textLength="5.67" x="975.24" y="314.4975">9</text><text fill="#000000" font-family="sans-serif" font-size="10.53" lengthAdjust="spacing" textLength="88.29" x="984.15" y="314.4975">subs with that plan</text><path d="M882.9,330.9103 L942.03,330.9103 L942.03,338.436 L933.93,346.536 L882.9,346.536 L882.9,330.9103 " fill="#EEEEEE" style="stroke:#000000;stroke-width:1.215;"/><rect fill="none" height="66.3172" style="stroke:#000000;stroke-width:1.215;" width="231.66" x="882.9" y="330.9103"/><text fill="#000000" font-family="sans-serif" font-size="10.53" font-weight="bold" lengthAdjust="spacing" textLength="22.68" x="895.05" y="343.0833">loop</text><text fill="#000000" font-family="sans-serif" font-size="8.91" font-weight="bold" lengthAdjust="spacing" textLength="63.99" x="954.18" y="342.1451">[for the  subs]</text><polygon fill="#181818" points="1055.43,362.1618,1063.53,365.4018,1055.43,368.6418,1058.67,365.4018" style="stroke:#181818;stroke-width:0.81;"/><line style="stroke:#181818;stroke-width:0.81;" x1="961.47" x2="1060.29" y1="365.4018" y2="365.4018"/><text fill="#000000" font-family="sans-serif" font-size="10.53" font-weight="bold" lengthAdjust="spacing" textLength="11.34" x="967.14" y="361.139">10</text><text fill="#000000" font-family="sans-serif" font-size="10.53" lengthAdjust="spacing" textLength="61.56" x="981.72" y="361.139">setPlan(plan)</text><polygon fill="#181818" points="970.38,387.5075,962.28,390.7475,970.38,393.9875,967.14,390.7475" style="stroke:#181818;stroke-width:0.81;"/><line style="stroke:#181818;stroke-width:0.81;stroke-dasharray:2.0,2.0;" x1="965.52" x2="1068.39" y1="390.7475" y2="390.7475"/><text fill="#000000" font-family="sans-serif" font-size="10.53" font-weight="bold" lengthAdjust="spacing" textLength="11.34" x="975.24" y="386.4847">11</text><text fill="#000000" font-family="sans-serif" font-size="10.53" lengthAdjust="spacing" textLength="15.39" x="989.82" y="386.4847">OK</text><polygon fill="#181818" points="1261.17,418.5232,1269.27,421.7632,1261.17,425.0032,1264.41,421.7632" style="stroke:#181818;stroke-width:0.81;"/><line style="stroke:#181818;stroke-width:0.81;" x1="961.47" x2="1266.03" y1="421.7632" y2="421.7632"/><text fill="#000000" font-family="sans-serif" font-size="10.53" font-weight="bold" lengthAdjust="spacing" textLength="11.34" x="967.14" y="417.5004">12</text><text fill="#000000" font-family="sans-serif" font-size="10.53" lengthAdjust="spacing" textLength="102.06" x="981.72" y="417.5004">saveAll(subscriptions)</text><polygon fill="#181818" points="970.38,443.8689,962.28,447.1089,970.38,450.3489,967.14,447.1089" style="stroke:#181818;stroke-width:0.81;"/><line style="stroke:#181818;stroke-width:0.81;stroke-dasharray:2.0,2.0;" x1="965.52" x2="1274.13" y1="447.1089" y2="447.1089"/><text fill="#000000" font-family="sans-serif" font-size="10.53" font-weight="bold" lengthAdjust="spacing" textLength="11.34" x="975.24" y="442.8461">13</text><text fill="#000000" font-family="sans-serif" font-size="10.53" lengthAdjust="spacing" textLength="15.39" x="989.82" y="442.8461">OK</text><polygon fill="#181818" points="1261.17,474.8846,1269.27,478.1246,1261.17,481.3646,1264.41,478.1246" style="stroke:#181818;stroke-width:0.81;"/><line style="stroke:#181818;stroke-width:0.81;" x1="961.47" x2="1266.03" y1="478.1246" y2="478.1246"/><text fill="#000000" font-family="sans-serif" font-size="10.53" font-weight="bold" lengthAdjust="spacing" textLength="11.34" x="967.14" y="473.8619">14</text><text fill="#000000" font-family="sans-serif" font-size="10.53" lengthAdjust="spacing" textLength="34.83" x="981.72" y="473.8619">findAll()</text><polygon fill="#181818" points="970.38,500.2304,962.28,503.4704,970.38,506.7104,967.14,503.4704" style="stroke:#181818;stroke-width:0.81;"/><line style="stroke:#181818;stroke-width:0.81;stroke-dasharray:2.0,2.0;" x1="965.52" x2="1274.13" y1="503.4704" y2="503.4704"/><text fill="#000000" font-family="sans-serif" font-size="10.53" font-weight="bold" lengthAdjust="spacing" textLength="11.34" x="975.24" y="499.2076">15</text><text fill="#000000" font-family="sans-serif" font-size="10.53" lengthAdjust="spacing" textLength="15.39" x="989.82" y="499.2076">OK</text><polygon fill="#181818" points="576.72,525.5761,568.62,528.8161,576.72,532.0561,573.48,528.8161" style="stroke:#181818;stroke-width:0.81;"/><line style="stroke:#181818;stroke-width:0.81;stroke-dasharray:2.0,2.0;" x1="571.86" x2="956.61" y1="528.8161" y2="528.8161"/><text fill="#000000" font-family="sans-serif" font-size="10.53" font-weight="bold" lengthAdjust="spacing" textLength="11.34" x="581.58" y="524.5533">16</text><text fill="#000000" font-family="sans-serif" font-size="10.53" lengthAdjust="spacing" textLength="11.34" x="596.16" y="524.5533">ok</text><polygon fill="#181818" points="183.06,550.9218,174.96,554.1618,183.06,557.4018,179.82,554.1618" style="stroke:#181818;stroke-width:0.81;"/><line style="stroke:#181818;stroke-width:0.81;stroke-dasharray:2.0,2.0;" x1="178.2" x2="562.95" y1="554.1618" y2="554.1618"/><text fill="#000000" font-family="sans-serif" font-size="10.53" font-weight="bold" lengthAdjust="spacing" textLength="11.34" x="187.92" y="549.899">17</text><text fill="#000000" font-family="sans-serif" font-size="10.53" lengthAdjust="spacing" textLength="11.34" x="202.5" y="549.899">ok</text><polygon fill="#181818" points="64.8,576.2675,56.7,579.5075,64.8,582.7475,61.56,579.5075" style="stroke:#181818;stroke-width:0.81;"/><line style="stroke:#181818;stroke-width:0.81;stroke-dasharray:2.0,2.0;" x1="59.94" x2="169.29" y1="579.5075" y2="579.5075"/><text fill="#000000" font-family="sans-serif" font-size="10.53" font-weight="bold" lengthAdjust="spacing" textLength="11.34" x="69.66" y="575.2448">18</text><text fill="#000000" font-family="sans-serif" font-size="10.53" lengthAdjust="spacing" textLength="34.02" x="84.24" y="575.2448">200:Ok</text><!--SRC=[hLF1Rjim3BthAmXVQWDBtUte0GFMz58CMukb_G35OHCXigH9T8hy_KGvTkGjsMa-61Rv-FZuHD_iY5newjffQQZlz6rhkphWhnvDYukDabilEo5aJrQsf0wI4An9PzDtQ_GnrvBrK7oNVe-apFP1UUHG0JB0QuWG9psfLhdO0efLlmwjLuwKDKjho5kjSG0loUivE6JW5Vg3Qh5P_HrBrQVlwzrEWCVEwLJ07zVH0sSMkAxi9peRL1pvE1Dt3YSkFiuvsFIizdbsJ3LZI4pc9qC5ls7n9JdMmFFhIrbBf-eeggu41pav6WQTYhT8-5NhaxnuRw7q66plMxpT8Yrxxz4GjtlSbDK7o9C_y7rCL9_5YPKRi87_cPqfcNeSl84tPJRtnvWs8x0IOnOMamhsyb_LRQxXAiD78RIr3df3IWFjeik52WNmRGi1yHbRfEA1Fx_pS7zawfUZmp8HyeXJ98xkv1RbMcELs6OI8XttWNT5kzXRqZ1K0YPLR_4_YveWavDBodKmrz0uoQWcy0nq7lxfsy27PdDnpY0FVCDbllRXmWmD4p791P-ulX9_k1xn0pHVMBi_hzcqvJ4uR7QCyFutyEdkhddQ_mO0]--></g></svg>