<?xml version="1.0" encoding="us-ascii" standalone="no"?><svg xmlns="http://www.w3.org/2000/svg" xmlns:xlink="http://www.w3.org/1999/xlink" contentStyleType="text/css" height="1534px" preserveAspectRatio="none" style="width:2114px;height:1534px;background:#FFFFFF;" version="1.1" viewBox="0 0 2114 1534" width="2114px" zoomAndPan="magnify"><defs/><g><rect fill="#FFFFFF" height="1348.5137" style="stroke:#181818;stroke-width:1.0;" width="10" x="60" y="93.6211"/><rect fill="#FFFFFF" height="1316.2227" style="stroke:#181818;stroke-width:1.0;" width="10" x="255" y="116.9121"/><rect fill="#FFFFFF" height="1253.6406" style="stroke:#181818;stroke-width:1.0;" width="10" x="580" y="148.2031"/><rect fill="#FFFFFF" height="1191.0586" style="stroke:#181818;stroke-width:1.0;" width="10" x="905" y="179.4941"/><rect fill="#FFFFFF" height="31.291" style="stroke:#181818;stroke-width:1.0;" width="10" x="1193" y="210.7852"/><rect fill="#FFFFFF" height="31.291" style="stroke:#181818;stroke-width:1.0;" width="10" x="1193" y="586.2773"/><rect fill="#FFFFFF" height="31.291" style="stroke:#181818;stroke-width:1.0;" width="10" x="1193" y="1307.9707"/><rect fill="#FFFFFF" height="31.291" style="stroke:#181818;stroke-width:1.0;" width="10" x="1465" y="398.5313"/><rect fill="#FFFFFF" height="31.291" style="stroke:#181818;stroke-width:1.0;" width="10" x="1786" y="273.3672"/><rect fill="#FFFFFF" height="31.291" style="stroke:#181818;stroke-width:1.0;" width="10" x="1786" y="335.9492"/><rect fill="#FFFFFF" height="31.291" style="stroke:#181818;stroke-width:1.0;" width="10" x="1786" y="1238.3887"/><rect fill="#FFFFFF" height="31.291" style="stroke:#181818;stroke-width:1.0;" width="10" x="1970" y="461.1133"/><rect fill="#FFFFFF" height="31.291" style="stroke:#181818;stroke-width:1.0;" width="10" x="1970" y="523.6953"/><rect fill="#FFFFFF" height="31.291" style="stroke:#181818;stroke-width:1.0;" width="10" x="1970" y="737.7324"/><rect fill="#FFFFFF" height="31.291" style="stroke:#181818;stroke-width:1.0;" width="10" x="1970" y="862.8965"/><rect fill="#FFFFFF" height="31.291" style="stroke:#181818;stroke-width:1.0;" width="10" x="1970" y="988.0605"/><rect fill="#FFFFFF" height="31.291" style="stroke:#181818;stroke-width:1.0;" width="10" x="1970" y="1113.2246"/><rect fill="#FFFFFF" height="31.291" style="stroke:#181818;stroke-width:1.0;" width="10" x="2047" y="675.1504"/><rect fill="#FFFFFF" height="31.291" style="stroke:#181818;stroke-width:1.0;" width="10" x="2047" y="800.3145"/><rect fill="#FFFFFF" height="31.291" style="stroke:#181818;stroke-width:1.0;" width="10" x="2047" y="925.4785"/><rect fill="#FFFFFF" height="31.291" style="stroke:#181818;stroke-width:1.0;" width="10" x="2047" y="1050.6426"/><rect fill="#FFFFFF" height="31.291" style="stroke:#181818;stroke-width:1.0;" width="10" x="2047" y="1175.8066"/><rect fill="none" height="645.1113" style="stroke:#000000;stroke-width:1.5;" width="1316.5" x="791.5" y="632.5684"/><line style="stroke:#181818;stroke-width:0.5;stroke-dasharray:5.0,5.0;" x1="65" x2="65" y1="83.6211" y2="1451.1348"/><line style="stroke:#181818;stroke-width:0.5;stroke-dasharray:5.0,5.0;" x1="260" x2="260" y1="83.6211" y2="1451.1348"/><line style="stroke:#181818;stroke-width:0.5;stroke-dasharray:5.0,5.0;" x1="584.5" x2="584.5" y1="83.6211" y2="1451.1348"/><line style="stroke:#181818;stroke-width:0.5;stroke-dasharray:5.0,5.0;" x1="909.5" x2="909.5" y1="83.6211" y2="1451.1348"/><line style="stroke:#181818;stroke-width:0.5;stroke-dasharray:5.0,5.0;" x1="1198" x2="1198" y1="83.6211" y2="1451.1348"/><line style="stroke:#181818;stroke-width:0.5;stroke-dasharray:5.0,5.0;" x1="1470" x2="1470" y1="83.6211" y2="1451.1348"/><line style="stroke:#181818;stroke-width:0.5;stroke-dasharray:5.0,5.0;" x1="1791" x2="1791" y1="83.6211" y2="1451.1348"/><line style="stroke:#181818;stroke-width:0.5;stroke-dasharray:5.0,5.0;" x1="1975" x2="1975" y1="83.6211" y2="1451.1348"/><line style="stroke:#181818;stroke-width:0.5;stroke-dasharray:5.0,5.0;" x1="2052" x2="2052" y1="83.6211" y2="1451.1348"/><text fill="#000000" font-family="sans-serif" font-size="14" lengthAdjust="spacing" textLength="114" x="5" y="80.1074">Marketing director</text><ellipse cx="65" cy="13.5" fill="#E2E2F0" rx="8" ry="8" style="stroke:#181818;stroke-width:0.5;"/><path d="M65,21.5 L65,48.5 M52,29.5 L78,29.5 M65,48.5 L52,63.5 M65,48.5 L78,63.5 " fill="none" style="stroke:#181818;stroke-width:0.5;"/><text fill="#000000" font-family="sans-serif" font-size="14" lengthAdjust="spacing" textLength="114" x="5" y="1465.2422">Marketing director</text><ellipse cx="65" cy="1477.2559" fill="#E2E2F0" rx="8" ry="8" style="stroke:#181818;stroke-width:0.5;"/><path d="M65,1485.2559 L65,1512.2559 M52,1493.2559 L78,1493.2559 M65,1512.2559 L52,1527.2559 M65,1512.2559 L78,1527.2559 " fill="none" style="stroke:#181818;stroke-width:0.5;"/><rect fill="#E2E2F0" height="32.6211" rx="2.5" ry="2.5" style="stroke:#181818;stroke-width:0.5;" width="108" x="206" y="50"/><text fill="#000000" font-family="sans-serif" font-size="14" lengthAdjust="spacing" textLength="94" x="213" y="72.1074">:PlanController</text><rect fill="#E2E2F0" height="32.6211" rx="2.5" ry="2.5" style="stroke:#181818;stroke-width:0.5;" width="108" x="206" y="1450.1348"/><text fill="#000000" font-family="sans-serif" font-size="14" lengthAdjust="spacing" textLength="94" x="213" y="1472.2422">:PlanController</text><rect fill="#E2E2F0" height="32.6211" rx="2.5" ry="2.5" style="stroke:#181818;stroke-width:0.5;" width="167" x="501.5" y="50"/><text fill="#000000" font-family="sans-serif" font-size="14" lengthAdjust="spacing" textLength="153" x="508.5" y="72.1074">planService:PlanService</text><rect fill="#E2E2F0" height="32.6211" rx="2.5" ry="2.5" style="stroke:#181818;stroke-width:0.5;" width="167" x="501.5" y="1450.1348"/><text fill="#000000" font-family="sans-serif" font-size="14" lengthAdjust="spacing" textLength="153" x="508.5" y="1472.2422">planService:PlanService</text><rect fill="#E2E2F0" height="32.6211" rx="2.5" ry="2.5" style="stroke:#181818;stroke-width:0.5;" width="217" x="801.5" y="50"/><text fill="#000000" font-family="sans-serif" font-size="14" lengthAdjust="spacing" textLength="203" x="808.5" y="72.1074">planServiceImpl:PlanServiceImpl</text><rect fill="#E2E2F0" height="32.6211" rx="2.5" ry="2.5" style="stroke:#181818;stroke-width:0.5;" width="217" x="801.5" y="1450.1348"/><text fill="#000000" font-family="sans-serif" font-size="14" lengthAdjust="spacing" textLength="203" x="808.5" y="1472.2422">planServiceImpl:PlanServiceImpl</text><rect fill="#E2E2F0" height="32.6211" rx="2.5" ry="2.5" style="stroke:#181818;stroke-width:0.5;" width="208" x="1094" y="50"/><text fill="#000000" font-family="sans-serif" font-size="14" lengthAdjust="spacing" textLength="194" x="1101" y="72.1074">planRepository:planRepository</text><rect fill="#E2E2F0" height="32.6211" rx="2.5" ry="2.5" style="stroke:#181818;stroke-width:0.5;" width="208" x="1094" y="1450.1348"/><text fill="#000000" font-family="sans-serif" font-size="14" lengthAdjust="spacing" textLength="194" x="1101" y="1472.2422">planRepository:planRepository</text><rect fill="#E2E2F0" height="32.6211" rx="2.5" ry="2.5" style="stroke:#181818;stroke-width:0.5;" width="316" x="1312" y="50"/><text fill="#000000" font-family="sans-serif" font-size="14" lengthAdjust="spacing" textLength="302" x="1319" y="72.1074">ceasedPlansRepository:ceasedPlansRepository</text><rect fill="#E2E2F0" height="32.6211" rx="2.5" ry="2.5" style="stroke:#181818;stroke-width:0.5;" width="316" x="1312" y="1450.1348"/><text fill="#000000" font-family="sans-serif" font-size="14" lengthAdjust="spacing" textLength="302" x="1319" y="1472.2422">ceasedPlansRepository:ceasedPlansRepository</text><rect fill="#E2E2F0" height="32.6211" rx="2.5" ry="2.5" style="stroke:#181818;stroke-width:0.5;" width="306" x="1638" y="50"/><text fill="#000000" font-family="sans-serif" font-size="14" lengthAdjust="spacing" textLength="292" x="1645" y="72.1074">subscriptionRepository:subscriptionRepository</text><rect fill="#E2E2F0" height="32.6211" rx="2.5" ry="2.5" style="stroke:#181818;stroke-width:0.5;" width="306" x="1638" y="1450.1348"/><text fill="#000000" font-family="sans-serif" font-size="14" lengthAdjust="spacing" textLength="292" x="1645" y="1472.2422">subscriptionRepository:subscriptionRepository</text><rect fill="#E2E2F0" height="32.6211" rx="2.5" ry="2.5" style="stroke:#181818;stroke-width:0.5;" width="42" x="1954" y="50"/><text fill="#000000" font-family="sans-serif" font-size="14" lengthAdjust="spacing" textLength="28" x="1961" y="72.1074">Plan</text><rect fill="#E2E2F0" height="32.6211" rx="2.5" ry="2.5" style="stroke:#181818;stroke-width:0.5;" width="42" x="1954" y="1450.1348"/><text fill="#000000" font-family="sans-serif" font-size="14" lengthAdjust="spacing" textLength="28" x="1961" y="1472.2422">Plan</text><rect fill="#E2E2F0" height="32.6211" rx="2.5" ry="2.5" style="stroke:#181818;stroke-width:0.5;" width="92" x="2006" y="50"/><text fill="#000000" font-family="sans-serif" font-size="14" lengthAdjust="spacing" textLength="78" x="2013" y="72.1074">Subscription</text><rect fill="#E2E2F0" height="32.6211" rx="2.5" ry="2.5" style="stroke:#181818;stroke-width:0.5;" width="92" x="2006" y="1450.1348"/><text fill="#000000" font-family="sans-serif" font-size="14" lengthAdjust="spacing" textLength="78" x="2013" y="1472.2422">Subscription</text><rect fill="#FFFFFF" height="1348.5137" style="stroke:#181818;stroke-width:1.0;" width="10" x="60" y="93.6211"/><rect fill="#FFFFFF" height="1316.2227" style="stroke:#181818;stroke-width:1.0;" width="10" x="255" y="116.9121"/><rect fill="#FFFFFF" height="1253.6406" style="stroke:#181818;stroke-width:1.0;" width="10" x="580" y="148.2031"/><rect fill="#FFFFFF" height="1191.0586" style="stroke:#181818;stroke-width:1.0;" width="10" x="905" y="179.4941"/><rect fill="#FFFFFF" height="31.291" style="stroke:#181818;stroke-width:1.0;" width="10" x="1193" y="210.7852"/><rect fill="#FFFFFF" height="31.291" style="stroke:#181818;stroke-width:1.0;" width="10" x="1193" y="586.2773"/><rect fill="#FFFFFF" height="31.291" style="stroke:#181818;stroke-width:1.0;" width="10" x="1193" y="1307.9707"/><rect fill="#FFFFFF" height="31.291" style="stroke:#181818;stroke-width:1.0;" width="10" x="1465" y="398.5313"/><rect fill="#FFFFFF" height="31.291" style="stroke:#181818;stroke-width:1.0;" width="10" x="1786" y="273.3672"/><rect fill="#FFFFFF" height="31.291" style="stroke:#181818;stroke-width:1.0;" width="10" x="1786" y="335.9492"/><rect fill="#FFFFFF" height="31.291" style="stroke:#181818;stroke-width:1.0;" width="10" x="1786" y="1238.3887"/><rect fill="#FFFFFF" height="31.291" style="stroke:#181818;stroke-width:1.0;" width="10" x="1970" y="461.1133"/><rect fill="#FFFFFF" height="31.291" style="stroke:#181818;stroke-width:1.0;" width="10" x="1970" y="523.6953"/><rect fill="#FFFFFF" height="31.291" style="stroke:#181818;stroke-width:1.0;" width="10" x="1970" y="737.7324"/><rect fill="#FFFFFF" height="31.291" style="stroke:#181818;stroke-width:1.0;" width="10" x="1970" y="862.8965"/><rect fill="#FFFFFF" height="31.291" style="stroke:#181818;stroke-width:1.0;" width="10" x="1970" y="988.0605"/><rect fill="#FFFFFF" height="31.291" style="stroke:#181818;stroke-width:1.0;" width="10" x="1970" y="1113.2246"/><rect fill="#FFFFFF" height="31.291" style="stroke:#181818;stroke-width:1.0;" width="10" x="2047" y="675.1504"/><rect fill="#FFFFFF" height="31.291" style="stroke:#181818;stroke-width:1.0;" width="10" x="2047" y="800.3145"/><rect fill="#FFFFFF" height="31.291" style="stroke:#181818;stroke-width:1.0;" width="10" x="2047" y="925.4785"/><rect fill="#FFFFFF" height="31.291" style="stroke:#181818;stroke-width:1.0;" width="10" x="2047" y="1050.6426"/><rect fill="#FFFFFF" height="31.291" style="stroke:#181818;stroke-width:1.0;" width="10" x="2047" y="1175.8066"/><polygon fill="#181818" points="243,112.9121,253,116.9121,243,120.9121,247,116.9121" style="stroke:#181818;stroke-width:1.0;"/><line style="stroke:#181818;stroke-width:1.0;" x1="70" x2="249" y1="116.9121" y2="116.9121"/><text fill="#000000" font-family="sans-serif" font-size="13" font-weight="bold" lengthAdjust="spacing" textLength="7" x="77" y="111.6494">1</text><text fill="#000000" font-family="sans-serif" font-size="13" lengthAdjust="spacing" textLength="155" x="88" y="111.6494">DELETE(/api/plan/{idPlan})</text><polygon fill="#181818" points="568,144.2031,578,148.2031,568,152.2031,572,148.2031" style="stroke:#181818;stroke-width:1.0;"/><line style="stroke:#181818;stroke-width:1.0;" x1="265" x2="574" y1="148.2031" y2="148.2031"/><text fill="#000000" font-family="sans-serif" font-size="13" font-weight="bold" lengthAdjust="spacing" textLength="7" x="272" y="142.9404">2</text><text fill="#000000" font-family="sans-serif" font-size="13" lengthAdjust="spacing" textLength="285" x="283" y="142.9404">ceasePlanById(Long idPlan, long desiredVersion)</text><polygon fill="#181818" points="893,175.4941,903,179.4941,893,183.4941,897,179.4941" style="stroke:#181818;stroke-width:1.0;"/><line style="stroke:#181818;stroke-width:1.0;" x1="590" x2="899" y1="179.4941" y2="179.4941"/><text fill="#000000" font-family="sans-serif" font-size="13" font-weight="bold" lengthAdjust="spacing" textLength="7" x="597" y="174.2314">3</text><text fill="#000000" font-family="sans-serif" font-size="13" lengthAdjust="spacing" textLength="285" x="608" y="174.2314">ceasePlanById(Long idPlan, long desiredVersion)</text><polygon fill="#181818" points="1181,206.7852,1191,210.7852,1181,214.7852,1185,210.7852" style="stroke:#181818;stroke-width:1.0;"/><line style="stroke:#181818;stroke-width:1.0;" x1="915" x2="1187" y1="210.7852" y2="210.7852"/><text fill="#000000" font-family="sans-serif" font-size="13" font-weight="bold" lengthAdjust="spacing" textLength="7" x="922" y="205.5225">4</text><text fill="#000000" font-family="sans-serif" font-size="13" lengthAdjust="spacing" textLength="90" x="933" y="205.5225">findById(idPlan)</text><polygon fill="#181818" points="926,238.0762,916,242.0762,926,246.0762,922,242.0762" style="stroke:#181818;stroke-width:1.0;"/><line style="stroke:#181818;stroke-width:1.0;stroke-dasharray:2.0,2.0;" x1="920" x2="1197" y1="242.0762" y2="242.0762"/><text fill="#000000" font-family="sans-serif" font-size="13" font-weight="bold" lengthAdjust="spacing" textLength="7" x="932" y="236.8135">5</text><text fill="#000000" font-family="sans-serif" font-size="13" lengthAdjust="spacing" textLength="24" x="943" y="236.8135">plan</text><polygon fill="#181818" points="1774,269.3672,1784,273.3672,1774,277.3672,1778,273.3672" style="stroke:#181818;stroke-width:1.0;"/><line style="stroke:#181818;stroke-width:1.0;" x1="915" x2="1780" y1="273.3672" y2="273.3672"/><text fill="#000000" font-family="sans-serif" font-size="13" font-weight="bold" lengthAdjust="spacing" textLength="7" x="922" y="268.1045">6</text><text fill="#000000" font-family="sans-serif" font-size="13" lengthAdjust="spacing" textLength="354" x="933" y="268.1045">countSubscriptionsByPlan(idPlan, SubscriptionStatus.Active)</text><polygon fill="#181818" points="926,300.6582,916,304.6582,926,308.6582,922,304.6582" style="stroke:#181818;stroke-width:1.0;"/><line style="stroke:#181818;stroke-width:1.0;stroke-dasharray:2.0,2.0;" x1="920" x2="1790" y1="304.6582" y2="304.6582"/><text fill="#000000" font-family="sans-serif" font-size="13" font-weight="bold" lengthAdjust="spacing" textLength="7" x="932" y="299.3955">7</text><text fill="#000000" font-family="sans-serif" font-size="13" lengthAdjust="spacing" textLength="32" x="943" y="299.3955">count</text><polygon fill="#181818" points="1774,331.9492,1784,335.9492,1774,339.9492,1778,335.9492" style="stroke:#181818;stroke-width:1.0;"/><line style="stroke:#181818;stroke-width:1.0;" x1="915" x2="1780" y1="335.9492" y2="335.9492"/><text fill="#000000" font-family="sans-serif" font-size="13" font-weight="bold" lengthAdjust="spacing" textLength="7" x="922" y="330.6865">8</text><text fill="#000000" font-family="sans-serif" font-size="13" lengthAdjust="spacing" textLength="205" x="933" y="330.6865">findSubscriptionIdsByIdPlan(idPlan)</text><polygon fill="#181818" points="926,363.2402,916,367.2402,926,371.2402,922,367.2402" style="stroke:#181818;stroke-width:1.0;"/><line style="stroke:#181818;stroke-width:1.0;stroke-dasharray:2.0,2.0;" x1="920" x2="1790" y1="367.2402" y2="367.2402"/><text fill="#000000" font-family="sans-serif" font-size="13" font-weight="bold" lengthAdjust="spacing" textLength="7" x="932" y="361.9775">9</text><text fill="#000000" font-family="sans-serif" font-size="13" lengthAdjust="spacing" textLength="154" x="943" y="361.9775">List&lt;Long&gt;SubscriptionIds</text><polygon fill="#181818" points="1453,394.5313,1463,398.5313,1453,402.5313,1457,398.5313" style="stroke:#181818;stroke-width:1.0;"/><line style="stroke:#181818;stroke-width:1.0;" x1="915" x2="1459" y1="398.5313" y2="398.5313"/><text fill="#000000" font-family="sans-serif" font-size="13" font-weight="bold" lengthAdjust="spacing" textLength="14" x="922" y="393.2686">10</text><text fill="#000000" font-family="sans-serif" font-size="13" lengthAdjust="spacing" textLength="58" x="940" y="393.2686">save(plan)</text><polygon fill="#181818" points="926,425.8223,916,429.8223,926,433.8223,922,429.8223" style="stroke:#181818;stroke-width:1.0;"/><line style="stroke:#181818;stroke-width:1.0;stroke-dasharray:2.0,2.0;" x1="920" x2="1469" y1="429.8223" y2="429.8223"/><text fill="#000000" font-family="sans-serif" font-size="13" font-weight="bold" lengthAdjust="spacing" textLength="14" x="932" y="424.5596">11</text><text fill="#000000" font-family="sans-serif" font-size="13" lengthAdjust="spacing" textLength="14" x="950" y="424.5596">ok</text><polygon fill="#181818" points="1958,457.1133,1968,461.1133,1958,465.1133,1962,461.1133" style="stroke:#181818;stroke-width:1.0;"/><line style="stroke:#181818;stroke-width:1.0;" x1="915" x2="1964" y1="461.1133" y2="461.1133"/><text fill="#000000" font-family="sans-serif" font-size="13" font-weight="bold" lengthAdjust="spacing" textLength="14" x="922" y="455.8506">12</text><text fill="#000000" font-family="sans-serif" font-size="13" lengthAdjust="spacing" textLength="958" x="940" y="455.8506">Plan: new Plan(planType + " - Ceased " + randomNumber, numMinutes, maxDevices, musicCollections, musicSuggestions, monthlyFee, annualFee, htmlDescription)</text><polygon fill="#181818" points="926,488.4043,916,492.4043,926,496.4043,922,492.4043" style="stroke:#181818;stroke-width:1.0;"/><line style="stroke:#181818;stroke-width:1.0;stroke-dasharray:2.0,2.0;" x1="920" x2="1974" y1="492.4043" y2="492.4043"/><text fill="#000000" font-family="sans-serif" font-size="13" font-weight="bold" lengthAdjust="spacing" textLength="14" x="932" y="487.1416">13</text><text fill="#000000" font-family="sans-serif" font-size="13" lengthAdjust="spacing" textLength="24" x="950" y="487.1416">plan</text><polygon fill="#181818" points="1958,519.6953,1968,523.6953,1958,527.6953,1962,523.6953" style="stroke:#181818;stroke-width:1.0;"/><line style="stroke:#181818;stroke-width:1.0;" x1="915" x2="1964" y1="523.6953" y2="523.6953"/><text fill="#000000" font-family="sans-serif" font-size="13" font-weight="bold" lengthAdjust="spacing" textLength="14" x="922" y="518.4326">14</text><text fill="#000000" font-family="sans-serif" font-size="13" lengthAdjust="spacing" textLength="137" x="940" y="518.4326">setPlanState("Ceased")</text><polygon fill="#181818" points="926,550.9863,916,554.9863,926,558.9863,922,554.9863" style="stroke:#181818;stroke-width:1.0;"/><line style="stroke:#181818;stroke-width:1.0;stroke-dasharray:2.0,2.0;" x1="920" x2="1974" y1="554.9863" y2="554.9863"/><text fill="#000000" font-family="sans-serif" font-size="13" font-weight="bold" lengthAdjust="spacing" textLength="14" x="932" y="549.7236">15</text><text fill="#000000" font-family="sans-serif" font-size="13" lengthAdjust="spacing" textLength="14" x="950" y="549.7236">ok</text><polygon fill="#181818" points="1181,582.2773,1191,586.2773,1181,590.2773,1185,586.2773" style="stroke:#181818;stroke-width:1.0;"/><line style="stroke:#181818;stroke-width:1.0;" x1="915" x2="1187" y1="586.2773" y2="586.2773"/><text fill="#000000" font-family="sans-serif" font-size="13" font-weight="bold" lengthAdjust="spacing" textLength="14" x="922" y="581.0146">16</text><text fill="#000000" font-family="sans-serif" font-size="13" lengthAdjust="spacing" textLength="58" x="940" y="581.0146">save(plan)</text><polygon fill="#181818" points="926,613.5684,916,617.5684,926,621.5684,922,617.5684" style="stroke:#181818;stroke-width:1.0;"/><line style="stroke:#181818;stroke-width:1.0;stroke-dasharray:2.0,2.0;" x1="920" x2="1197" y1="617.5684" y2="617.5684"/><text fill="#000000" font-family="sans-serif" font-size="13" font-weight="bold" lengthAdjust="spacing" textLength="14" x="932" y="612.3057">17</text><text fill="#000000" font-family="sans-serif" font-size="13" lengthAdjust="spacing" textLength="14" x="950" y="612.3057">ok</text><path d="M791.5,632.5684 L864.5,632.5684 L864.5,641.8594 L854.5,651.8594 L791.5,651.8594 L791.5,632.5684 " fill="#EEEEEE" style="stroke:#000000;stroke-width:1.5;"/><rect fill="none" height="645.1113" style="stroke:#000000;stroke-width:1.5;" width="1316.5" x="791.5" y="632.5684"/><text fill="#000000" font-family="sans-serif" font-size="13" font-weight="bold" lengthAdjust="spacing" textLength="28" x="806.5" y="647.5967">loop</text><text fill="#000000" font-family="sans-serif" font-size="11" font-weight="bold" lengthAdjust="spacing" textLength="95" x="879.5" y="646.4385">[SubscriptionIds]</text><polygon fill="#181818" points="2035,671.1504,2045,675.1504,2035,679.1504,2039,675.1504" style="stroke:#181818;stroke-width:1.0;"/><line style="stroke:#181818;stroke-width:1.0;" x1="915" x2="2041" y1="675.1504" y2="675.1504"/><text fill="#000000" font-family="sans-serif" font-size="13" font-weight="bold" lengthAdjust="spacing" textLength="14" x="922" y="669.8877">18</text><text fill="#000000" font-family="sans-serif" font-size="13" lengthAdjust="spacing" textLength="52" x="940" y="669.8877">getPlan()</text><polygon fill="#181818" points="926,702.4414,916,706.4414,926,710.4414,922,706.4414" style="stroke:#181818;stroke-width:1.0;"/><line style="stroke:#181818;stroke-width:1.0;stroke-dasharray:2.0,2.0;" x1="920" x2="2051" y1="706.4414" y2="706.4414"/><text fill="#000000" font-family="sans-serif" font-size="13" font-weight="bold" lengthAdjust="spacing" textLength="14" x="932" y="701.1787">19</text><text fill="#000000" font-family="sans-serif" font-size="13" lengthAdjust="spacing" textLength="24" x="950" y="701.1787">plan</text><polygon fill="#181818" points="1958,733.7324,1968,737.7324,1958,741.7324,1962,737.7324" style="stroke:#181818;stroke-width:1.0;"/><line style="stroke:#181818;stroke-width:1.0;" x1="915" x2="1964" y1="737.7324" y2="737.7324"/><text fill="#000000" font-family="sans-serif" font-size="13" font-weight="bold" lengthAdjust="spacing" textLength="14" x="922" y="732.4697">20</text><text fill="#000000" font-family="sans-serif" font-size="13" lengthAdjust="spacing" textLength="94" x="940" y="732.4697">getMonthlyFee()</text><polygon fill="#181818" points="926,765.0234,916,769.0234,926,773.0234,922,769.0234" style="stroke:#181818;stroke-width:1.0;"/><line style="stroke:#181818;stroke-width:1.0;stroke-dasharray:2.0,2.0;" x1="920" x2="1974" y1="769.0234" y2="769.0234"/><text fill="#000000" font-family="sans-serif" font-size="13" font-weight="bold" lengthAdjust="spacing" textLength="14" x="932" y="763.7607">21</text><text fill="#000000" font-family="sans-serif" font-size="13" lengthAdjust="spacing" textLength="68" x="950" y="763.7607">MonthlyFee</text><polygon fill="#181818" points="2035,796.3145,2045,800.3145,2035,804.3145,2039,800.3145" style="stroke:#181818;stroke-width:1.0;"/><line style="stroke:#181818;stroke-width:1.0;" x1="915" x2="2041" y1="800.3145" y2="800.3145"/><text fill="#000000" font-family="sans-serif" font-size="13" font-weight="bold" lengthAdjust="spacing" textLength="14" x="922" y="795.0518">22</text><text fill="#000000" font-family="sans-serif" font-size="13" lengthAdjust="spacing" textLength="52" x="940" y="795.0518">getPlan()</text><polygon fill="#181818" points="926,827.6055,916,831.6055,926,835.6055,922,831.6055" style="stroke:#181818;stroke-width:1.0;"/><line style="stroke:#181818;stroke-width:1.0;stroke-dasharray:2.0,2.0;" x1="920" x2="2051" y1="831.6055" y2="831.6055"/><text fill="#000000" font-family="sans-serif" font-size="13" font-weight="bold" lengthAdjust="spacing" textLength="14" x="932" y="826.3428">23</text><text fill="#000000" font-family="sans-serif" font-size="13" lengthAdjust="spacing" textLength="24" x="950" y="826.3428">plan</text><polygon fill="#181818" points="1958,858.8965,1968,862.8965,1958,866.8965,1962,862.8965" style="stroke:#181818;stroke-width:1.0;"/><line style="stroke:#181818;stroke-width:1.0;" x1="915" x2="1964" y1="862.8965" y2="862.8965"/><text fill="#000000" font-family="sans-serif" font-size="13" font-weight="bold" lengthAdjust="spacing" textLength="14" x="922" y="857.6338">24</text><text fill="#000000" font-family="sans-serif" font-size="13" lengthAdjust="spacing" textLength="94" x="940" y="857.6338">getMonthlyFee()</text><polygon fill="#181818" points="926,890.1875,916,894.1875,926,898.1875,922,894.1875" style="stroke:#181818;stroke-width:1.0;"/><line style="stroke:#181818;stroke-width:1.0;stroke-dasharray:2.0,2.0;" x1="920" x2="1974" y1="894.1875" y2="894.1875"/><text fill="#000000" font-family="sans-serif" font-size="13" font-weight="bold" lengthAdjust="spacing" textLength="14" x="932" y="888.9248">25</text><text fill="#000000" font-family="sans-serif" font-size="13" lengthAdjust="spacing" textLength="68" x="950" y="888.9248">MonthlyFee</text><polygon fill="#181818" points="2035,921.4785,2045,925.4785,2035,929.4785,2039,925.4785" style="stroke:#181818;stroke-width:1.0;"/><line style="stroke:#181818;stroke-width:1.0;" x1="915" x2="2041" y1="925.4785" y2="925.4785"/><text fill="#000000" font-family="sans-serif" font-size="13" font-weight="bold" lengthAdjust="spacing" textLength="14" x="922" y="920.2158">26</text><text fill="#000000" font-family="sans-serif" font-size="13" lengthAdjust="spacing" textLength="52" x="940" y="920.2158">getPlan()</text><polygon fill="#181818" points="926,952.7695,916,956.7695,926,960.7695,922,956.7695" style="stroke:#181818;stroke-width:1.0;"/><line style="stroke:#181818;stroke-width:1.0;stroke-dasharray:2.0,2.0;" x1="920" x2="2051" y1="956.7695" y2="956.7695"/><text fill="#000000" font-family="sans-serif" font-size="13" font-weight="bold" lengthAdjust="spacing" textLength="14" x="932" y="951.5068">27</text><text fill="#000000" font-family="sans-serif" font-size="13" lengthAdjust="spacing" textLength="24" x="950" y="951.5068">plan</text><polygon fill="#181818" points="1958,984.0605,1968,988.0605,1958,992.0605,1962,988.0605" style="stroke:#181818;stroke-width:1.0;"/><line style="stroke:#181818;stroke-width:1.0;" x1="915" x2="1964" y1="988.0605" y2="988.0605"/><text fill="#000000" font-family="sans-serif" font-size="13" font-weight="bold" lengthAdjust="spacing" textLength="14" x="922" y="982.7979">28</text><text fill="#000000" font-family="sans-serif" font-size="13" lengthAdjust="spacing" textLength="88" x="940" y="982.7979">getAnnualFee()</text><polygon fill="#181818" points="926,1015.3516,916,1019.3516,926,1023.3516,922,1019.3516" style="stroke:#181818;stroke-width:1.0;"/><line style="stroke:#181818;stroke-width:1.0;stroke-dasharray:2.0,2.0;" x1="920" x2="1974" y1="1019.3516" y2="1019.3516"/><text fill="#000000" font-family="sans-serif" font-size="13" font-weight="bold" lengthAdjust="spacing" textLength="14" x="932" y="1014.0889">29</text><text fill="#000000" font-family="sans-serif" font-size="13" lengthAdjust="spacing" textLength="62" x="950" y="1014.0889">AnnualFee</text><polygon fill="#181818" points="2035,1046.6426,2045,1050.6426,2035,1054.6426,2039,1050.6426" style="stroke:#181818;stroke-width:1.0;"/><line style="stroke:#181818;stroke-width:1.0;" x1="915" x2="2041" y1="1050.6426" y2="1050.6426"/><text fill="#000000" font-family="sans-serif" font-size="13" font-weight="bold" lengthAdjust="spacing" textLength="14" x="922" y="1045.3799">30</text><text fill="#000000" font-family="sans-serif" font-size="13" lengthAdjust="spacing" textLength="52" x="940" y="1045.3799">getPlan()</text><polygon fill="#181818" points="926,1077.9336,916,1081.9336,926,1085.9336,922,1081.9336" style="stroke:#181818;stroke-width:1.0;"/><line style="stroke:#181818;stroke-width:1.0;stroke-dasharray:2.0,2.0;" x1="920" x2="2051" y1="1081.9336" y2="1081.9336"/><text fill="#000000" font-family="sans-serif" font-size="13" font-weight="bold" lengthAdjust="spacing" textLength="14" x="932" y="1076.6709">31</text><text fill="#000000" font-family="sans-serif" font-size="13" lengthAdjust="spacing" textLength="24" x="950" y="1076.6709">plan</text><polygon fill="#181818" points="1958,1109.2246,1968,1113.2246,1958,1117.2246,1962,1113.2246" style="stroke:#181818;stroke-width:1.0;"/><line style="stroke:#181818;stroke-width:1.0;" x1="915" x2="1964" y1="1113.2246" y2="1113.2246"/><text fill="#000000" font-family="sans-serif" font-size="13" font-weight="bold" lengthAdjust="spacing" textLength="14" x="922" y="1107.9619">32</text><text fill="#000000" font-family="sans-serif" font-size="13" lengthAdjust="spacing" textLength="88" x="940" y="1107.9619">getAnnualFee()</text><polygon fill="#181818" points="926,1140.5156,916,1144.5156,926,1148.5156,922,1144.5156" style="stroke:#181818;stroke-width:1.0;"/><line style="stroke:#181818;stroke-width:1.0;stroke-dasharray:2.0,2.0;" x1="920" x2="1974" y1="1144.5156" y2="1144.5156"/><text fill="#000000" font-family="sans-serif" font-size="13" font-weight="bold" lengthAdjust="spacing" textLength="14" x="932" y="1139.2529">33</text><text fill="#000000" font-family="sans-serif" font-size="13" lengthAdjust="spacing" textLength="62" x="950" y="1139.2529">AnnualFee</text><polygon fill="#181818" points="2035,1171.8066,2045,1175.8066,2035,1179.8066,2039,1175.8066" style="stroke:#181818;stroke-width:1.0;"/><line style="stroke:#181818;stroke-width:1.0;" x1="915" x2="2041" y1="1175.8066" y2="1175.8066"/><text fill="#000000" font-family="sans-serif" font-size="13" font-weight="bold" lengthAdjust="spacing" textLength="14" x="922" y="1170.5439">34</text><text fill="#000000" font-family="sans-serif" font-size="13" lengthAdjust="spacing" textLength="415" x="940" y="1170.5439">setPlan(ceasingRepository.getByPlanType(ceasedPlan.getPlanType()));</text><polygon fill="#181818" points="926,1203.0977,916,1207.0977,926,1211.0977,922,1207.0977" style="stroke:#181818;stroke-width:1.0;"/><line style="stroke:#181818;stroke-width:1.0;stroke-dasharray:2.0,2.0;" x1="920" x2="2051" y1="1207.0977" y2="1207.0977"/><text fill="#000000" font-family="sans-serif" font-size="13" font-weight="bold" lengthAdjust="spacing" textLength="14" x="932" y="1201.835">35</text><text fill="#000000" font-family="sans-serif" font-size="13" lengthAdjust="spacing" textLength="14" x="950" y="1201.835">ok</text><polygon fill="#181818" points="1774,1234.3887,1784,1238.3887,1774,1242.3887,1778,1238.3887" style="stroke:#181818;stroke-width:1.0;"/><line style="stroke:#181818;stroke-width:1.0;" x1="915" x2="1780" y1="1238.3887" y2="1238.3887"/><text fill="#000000" font-family="sans-serif" font-size="13" font-weight="bold" lengthAdjust="spacing" textLength="14" x="922" y="1233.126">36</text><text fill="#000000" font-family="sans-serif" font-size="13" lengthAdjust="spacing" textLength="104" x="940" y="1233.126">save(subscription)</text><polygon fill="#181818" points="926,1265.6797,916,1269.6797,926,1273.6797,922,1269.6797" style="stroke:#181818;stroke-width:1.0;"/><line style="stroke:#181818;stroke-width:1.0;stroke-dasharray:2.0,2.0;" x1="920" x2="1790" y1="1269.6797" y2="1269.6797"/><text fill="#000000" font-family="sans-serif" font-size="13" font-weight="bold" lengthAdjust="spacing" textLength="14" x="932" y="1264.417">37</text><text fill="#000000" font-family="sans-serif" font-size="13" lengthAdjust="spacing" textLength="14" x="950" y="1264.417">ok</text><polygon fill="#181818" points="1181,1303.9707,1191,1307.9707,1181,1311.9707,1185,1307.9707" style="stroke:#181818;stroke-width:1.0;"/><line style="stroke:#181818;stroke-width:1.0;" x1="915" x2="1187" y1="1307.9707" y2="1307.9707"/><text fill="#000000" font-family="sans-serif" font-size="13" font-weight="bold" lengthAdjust="spacing" textLength="14" x="922" y="1302.708">38</text><text fill="#000000" font-family="sans-serif" font-size="13" lengthAdjust="spacing" textLength="241" x="940" y="1302.708">deleteByIdIfMatch(idPlan, desiredVersion)</text><polygon fill="#181818" points="926,1335.2617,916,1339.2617,926,1343.2617,922,1339.2617" style="stroke:#181818;stroke-width:1.0;"/><line style="stroke:#181818;stroke-width:1.0;stroke-dasharray:2.0,2.0;" x1="920" x2="1197" y1="1339.2617" y2="1339.2617"/><text fill="#000000" font-family="sans-serif" font-size="13" font-weight="bold" lengthAdjust="spacing" textLength="14" x="932" y="1333.999">39</text><text fill="#000000" font-family="sans-serif" font-size="13" lengthAdjust="spacing" textLength="14" x="950" y="1333.999">ok</text><polygon fill="#181818" points="601,1366.5527,591,1370.5527,601,1374.5527,597,1370.5527" style="stroke:#181818;stroke-width:1.0;"/><line style="stroke:#181818;stroke-width:1.0;stroke-dasharray:2.0,2.0;" x1="595" x2="909" y1="1370.5527" y2="1370.5527"/><text fill="#000000" font-family="sans-serif" font-size="13" font-weight="bold" lengthAdjust="spacing" textLength="14" x="607" y="1365.29">40</text><text fill="#000000" font-family="sans-serif" font-size="13" lengthAdjust="spacing" textLength="14" x="625" y="1365.29">ok</text><polygon fill="#181818" points="276,1397.8438,266,1401.8438,276,1405.8438,272,1401.8438" style="stroke:#181818;stroke-width:1.0;"/><line style="stroke:#181818;stroke-width:1.0;stroke-dasharray:2.0,2.0;" x1="270" x2="584" y1="1401.8438" y2="1401.8438"/><text fill="#000000" font-family="sans-serif" font-size="13" font-weight="bold" lengthAdjust="spacing" textLength="14" x="282" y="1396.5811">41</text><text fill="#000000" font-family="sans-serif" font-size="13" lengthAdjust="spacing" textLength="14" x="300" y="1396.5811">ok</text><polygon fill="#181818" points="81,1429.1348,71,1433.1348,81,1437.1348,77,1433.1348" style="stroke:#181818;stroke-width:1.0;"/><line style="stroke:#181818;stroke-width:1.0;stroke-dasharray:2.0,2.0;" x1="75" x2="259" y1="1433.1348" y2="1433.1348"/><text fill="#000000" font-family="sans-serif" font-size="13" font-weight="bold" lengthAdjust="spacing" textLength="14" x="87" y="1427.8721">42</text><text fill="#000000" font-family="sans-serif" font-size="13" lengthAdjust="spacing" textLength="94" x="105" y="1427.8721">204: No Content</text><!--SRC=[vLPDRzim3BtxLn2vp4RpCGmxUKE1Dic004anBDtkgiqcGct9i-HkmR3_Ff7-YAAq0NOSraCXatoFJwGevStUsigairbL26MRifXckfmP_DwWod2IIx6hHHb5eh5QP5O-2ukW5N-hfdp0slaogsiORKJzX5Qg7UIoHhADG1ZuQbnC9MehCrcv731AFxjSSwrihOi2swYvhOlJA1AqnVfPPiY0RitHtVfLmAgi2Xz4tmoanJdg2rRQI2Vua9v-CgOtdU8o50Ppoc4y-8jMPWayfsIcUJ1PBIihjI_cPJFJXQvJFah3ORJW1hMDurv4z1ycrrpp51RBzV9-6Sz49VaGp7v9blaxYIY00lisj9iWv-rXbSThxNhT1e-Xe8ySZMjz_WrhutGbKGSa3cx9NnCGYj1z3r9ub2fdS8jBeju5ao4BcGPeM2adGZVARZspkJqGLznByNrRAsnZfZTKGaoYaCtBohGNqf9odtcL6zg8b_aY_LeQ-v4gTXsG32c38vQ24SyOLqmS-3nU_JGGa9l79WM5F_YJuVU72k4AHZ21EVEuvHNKGkMwlEDBO0pkCjX8rLWqOoZ5pmLIusdT69dDQT0pBdLdsJQx7PhUukw2VN7uX3W6eLGZ2bxkRLaiSDXg4f6WGJa4VMRT1YsFlMiQngDMx2W0dcnvE5XUhLuuKGvHQ5r1MFe8kh-Upmz8OTVAYPCXplUVRIKaOzdCiXagv765vJW6_VUwRlfJT47M4FDFgkfEUao3xTxSu_CmTOdQ-up6DZuE_hJR1vkJ9FbmUJjywCyqd5rhF3U-zRYrroypOkOmLFdvAEPOe4Mw6rUF6s6p_N0nXy_3-QGISqlelrlEEZn5myFdZEq3vopq9ARmxktx5Euqq6yJLFOF]--></g></svg>