<?xml version="1.0" encoding="us-ascii" standalone="no"?><svg xmlns="http://www.w3.org/2000/svg" xmlns:xlink="http://www.w3.org/1999/xlink" contentStyleType="text/css" height="849px" preserveAspectRatio="none" style="width:1686px;height:849px;background:#FFFFFF;" version="1.1" viewBox="0 0 1686 849" width="1686px" zoomAndPan="magnify"><defs/><g><!--class PlanController--><g id="elem_PlanController"><rect codeLine="6" fill="#F1F1F1" height="63.2422" id="PlanController" rx="2.5" ry="2.5" style="stroke:#181818;stroke-width:0.5;" width="276" x="1117.5" y="7"/><text fill="#000000" font-family="sans-serif" font-size="14" lengthAdjust="spacing" textLength="90" x="1210.5" y="27.1074">PlanController</text><line style="stroke:#181818;stroke-width:0.5;" x1="1118.5" x2="1392.5" y1="35.6211" y2="35.6211"/><line style="stroke:#181818;stroke-width:0.5;" x1="1118.5" x2="1392.5" y1="43.6211" y2="43.6211"/><text fill="#000000" font-family="sans-serif" font-size="14" lengthAdjust="spacing" textLength="264" x="1123.5" y="62.7285">+ceasePlan(): ResponseEntity&lt;PlanView&gt;</text></g><!--class PlanService--><g id="elem_PlanService"><rect codeLine="10" fill="#F1F1F1" height="63.2422" id="PlanService" rx="2.5" ry="2.5" style="stroke:#181818;stroke-width:0.5;" width="368" x="1071.5" y="131"/><text fill="#000000" font-family="sans-serif" font-size="14" lengthAdjust="spacing" textLength="75" x="1218" y="151.1074">PlanService</text><line style="stroke:#181818;stroke-width:0.5;" x1="1072.5" x2="1438.5" y1="159.6211" y2="159.6211"/><line style="stroke:#181818;stroke-width:0.5;" x1="1072.5" x2="1438.5" y1="167.6211" y2="167.6211"/><text fill="#000000" font-family="sans-serif" font-size="14" lengthAdjust="spacing" textLength="356" x="1077.5" y="186.7285">+ceasePlanById(Long idPlan, long desiredVersion): Plan</text></g><!--class PlanServiceImpl--><g id="elem_PlanServiceImpl"><rect codeLine="14" fill="#F1F1F1" height="63.2422" id="PlanServiceImpl" rx="2.5" ry="2.5" style="stroke:#181818;stroke-width:0.5;" width="368" x="897.5" y="255"/><text fill="#000000" font-family="sans-serif" font-size="14" lengthAdjust="spacing" textLength="100" x="1031.5" y="275.1074">PlanServiceImpl</text><line style="stroke:#181818;stroke-width:0.5;" x1="898.5" x2="1264.5" y1="283.6211" y2="283.6211"/><line style="stroke:#181818;stroke-width:0.5;" x1="898.5" x2="1264.5" y1="291.6211" y2="291.6211"/><text fill="#000000" font-family="sans-serif" font-size="14" lengthAdjust="spacing" textLength="356" x="903.5" y="310.7285">+ceasePlanById(Long idPlan, long desiredVersion): Plan</text></g><!--class PlanRepository--><g id="elem_PlanRepository"><rect codeLine="18" fill="#F1F1F1" height="97.8242" id="PlanRepository" rx="2.5" ry="2.5" style="stroke:#181818;stroke-width:0.5;" width="331" x="7" y="388"/><text fill="#000000" font-family="sans-serif" font-size="12" font-style="italic" lengthAdjust="spacing" textLength="61" x="142" y="405.9492">&#171;interface&#187;</text><text fill="#000000" font-family="sans-serif" font-size="14" font-style="italic" lengthAdjust="spacing" textLength="96" x="124.5" y="424.0684">PlanRepository</text><line style="stroke:#181818;stroke-width:0.5;" x1="8" x2="337" y1="432.582" y2="432.582"/><line style="stroke:#181818;stroke-width:0.5;" x1="8" x2="337" y1="440.582" y2="440.582"/><text fill="#000000" font-family="sans-serif" font-size="14" lengthAdjust="spacing" textLength="143" x="13" y="459.6895">+findById(idPlan): Plan</text><text fill="#000000" font-family="sans-serif" font-size="14" lengthAdjust="spacing" textLength="319" x="13" y="478.3105">+deleteByIdIfMatch(idPlan, desiredVersion): Result</text></g><!--class CeasedPlansRepository--><g id="elem_CeasedPlansRepository"><rect codeLine="23" fill="#F1F1F1" height="97.8242" id="CeasedPlansRepository" rx="2.5" ry="2.5" style="stroke:#181818;stroke-width:0.5;" width="449" x="373" y="388"/><text fill="#000000" font-family="sans-serif" font-size="12" font-style="italic" lengthAdjust="spacing" textLength="61" x="567" y="405.9492">&#171;interface&#187;</text><text fill="#000000" font-family="sans-serif" font-size="14" font-style="italic" lengthAdjust="spacing" textLength="152" x="521.5" y="424.0684">CeasedPlansRepository</text><line style="stroke:#181818;stroke-width:0.5;" x1="374" x2="821" y1="432.582" y2="432.582"/><line style="stroke:#181818;stroke-width:0.5;" x1="374" x2="821" y1="440.582" y2="440.582"/><text fill="#000000" font-family="sans-serif" font-size="14" lengthAdjust="spacing" textLength="437" x="379" y="459.6895">+countSubscriptionsByPlan(idPlan, SubscriptionStatus.Active): Result</text><text fill="#000000" font-family="sans-serif" font-size="14" lengthAdjust="spacing" textLength="154" x="379" y="478.3105">+save(Plan ceasedPlan)</text></g><!--class SubscriptionRepository--><g id="elem_SubscriptionRepository"><rect codeLine="28" fill="#F1F1F1" height="116.4453" id="SubscriptionRepository" rx="2.5" ry="2.5" style="stroke:#181818;stroke-width:0.5;" width="449" x="857" y="379"/><text fill="#000000" font-family="sans-serif" font-size="12" font-style="italic" lengthAdjust="spacing" textLength="61" x="1051" y="396.9492">&#171;interface&#187;</text><text fill="#000000" font-family="sans-serif" font-size="14" font-style="italic" lengthAdjust="spacing" textLength="146" x="1008.5" y="415.0684">SubscriptionRepository</text><line style="stroke:#181818;stroke-width:0.5;" x1="858" x2="1305" y1="423.582" y2="423.582"/><line style="stroke:#181818;stroke-width:0.5;" x1="858" x2="1305" y1="431.582" y2="431.582"/><text fill="#000000" font-family="sans-serif" font-size="14" lengthAdjust="spacing" textLength="437" x="863" y="450.6895">+countSubscriptionsByPlan(idPlan, SubscriptionStatus.Active): Result</text><text fill="#000000" font-family="sans-serif" font-size="14" lengthAdjust="spacing" textLength="345" x="863" y="469.3105">+findSubscriptionIdsByIdPlan(Long idPlan): List&lt;Long&gt;</text><text fill="#000000" font-family="sans-serif" font-size="14" lengthAdjust="spacing" textLength="206" x="863" y="487.9316">+save(Subscription subscription)</text></g><!--class Plan--><g id="elem_Plan"><rect codeLine="34" fill="#F1F1F1" height="268.0742" id="Plan" rx="2.5" ry="2.5" style="stroke:#181818;stroke-width:0.5;" width="1196" x="483.5" y="574"/><text fill="#000000" font-family="sans-serif" font-size="14" lengthAdjust="spacing" textLength="28" x="1067.5" y="594.1074">Plan</text><line style="stroke:#181818;stroke-width:0.5;" x1="484.5" x2="1678.5" y1="602.6211" y2="602.6211"/><text fill="#000000" font-family="sans-serif" font-size="14" lengthAdjust="spacing" textLength="42" x="489.5" y="621.7285">-nMins</text><text fill="#000000" font-family="sans-serif" font-size="14" lengthAdjust="spacing" textLength="80" x="489.5" y="640.3496">-maxDevices</text><text fill="#000000" font-family="sans-serif" font-size="14" lengthAdjust="spacing" textLength="110" x="489.5" y="658.9707">-musicCollections</text><text fill="#000000" font-family="sans-serif" font-size="14" lengthAdjust="spacing" textLength="119" x="489.5" y="677.5918">-musicSuggestions</text><text fill="#000000" font-family="sans-serif" font-size="14" lengthAdjust="spacing" textLength="79" x="489.5" y="696.2129">-monthlyFee</text><text fill="#000000" font-family="sans-serif" font-size="14" lengthAdjust="spacing" textLength="73" x="489.5" y="714.834">-annualFee</text><text fill="#000000" font-family="sans-serif" font-size="14" lengthAdjust="spacing" textLength="65" x="489.5" y="733.4551">-planState</text><text fill="#000000" font-family="sans-serif" font-size="14" lengthAdjust="spacing" textLength="64" x="489.5" y="752.0762">-planType</text><text fill="#000000" font-family="sans-serif" font-size="14" lengthAdjust="spacing" textLength="85" x="489.5" y="770.6973">-planPromote</text><text fill="#000000" font-family="sans-serif" font-size="14" lengthAdjust="spacing" textLength="111" x="489.5" y="789.3184">-HTMLdescription</text><line style="stroke:#181818;stroke-width:0.5;" x1="484.5" x2="1678.5" y1="796.832" y2="796.832"/><text fill="#000000" font-family="sans-serif" font-size="14" lengthAdjust="spacing" textLength="1184" x="489.5" y="815.9395">Plan(final String planType, final Integer numMinutes, final Integer maxDevices, final Integer musicCollections,final String musicSuggestions, final Integer monthlyFee, final Integer annualFee,</text><text fill="#000000" font-family="sans-serif" font-size="14" lengthAdjust="spacing" textLength="173" x="489.5" y="834.5605">final String htmlDescription)</text></g><!--link PlanRepository to Plan--><g id="link_PlanRepository_Plan"><path codeLine="49" d="M326.2,486.09 C336.11,489.13 345.94,492.12 355.5,495 C439.7,520.41 529.55,547.03 616.31,572.5 " fill="none" id="PlanRepository-to-Plan" style="stroke:#181818;stroke-width:1.0;"/><polygon fill="#181818" points="621.23,573.94,613.7275,567.5594,616.4339,572.5269,611.4664,575.2332,621.23,573.94" style="stroke:#181818;stroke-width:1.0;"/><text fill="#000000" font-family="sans-serif" font-size="13" lengthAdjust="spacing" textLength="43" x="515.5" y="540.0283">records</text><text fill="#000000" font-family="sans-serif" font-size="13" lengthAdjust="spacing" textLength="7" x="339.3831" y="507.8883">1</text><text fill="#000000" font-family="sans-serif" font-size="13" lengthAdjust="spacing" textLength="20" x="574.0425" y="562.7328">0..*</text></g><!--link CeasedPlansRepository to Plan--><g id="link_CeasedPlansRepository_Plan"><path codeLine="50" d="M684.03,486.09 C727.4,510.2 782.33,540.73 837.4,571.33 " fill="none" id="CeasedPlansRepository-to-Plan" style="stroke:#181818;stroke-width:1.0;"/><polygon fill="#181818" points="842.05,573.92,836.1252,566.0526,837.6792,571.4918,832.24,573.0458,842.05,573.92" style="stroke:#181818;stroke-width:1.0;"/><text fill="#000000" font-family="sans-serif" font-size="13" lengthAdjust="spacing" textLength="43" x="783.5" y="540.0283">records</text><text fill="#000000" font-family="sans-serif" font-size="13" lengthAdjust="spacing" textLength="7" x="688.1872" y="507.8883">1</text><text fill="#000000" font-family="sans-serif" font-size="13" lengthAdjust="spacing" textLength="20" x="807.6287" y="562.7117">0..*</text></g><!--link SubscriptionRepository to Plan--><g id="link_SubscriptionRepository_Plan"><path codeLine="51" d="M1081.5,495.05 C1081.5,516.81 1081.5,542.67 1081.5,568.72 " fill="none" id="SubscriptionRepository-to-Plan" style="stroke:#181818;stroke-width:1.0;"/><polygon fill="#181818" points="1081.5,573.93,1085.5,564.93,1081.5,568.93,1077.5,564.93,1081.5,573.93" style="stroke:#181818;stroke-width:1.0;"/><text fill="#000000" font-family="sans-serif" font-size="13" lengthAdjust="spacing" textLength="43" x="1082.5" y="540.0283">records</text><text fill="#000000" font-family="sans-serif" font-size="13" lengthAdjust="spacing" textLength="7" x="1074.0516" y="517.5952">1</text><text fill="#000000" font-family="sans-serif" font-size="13" lengthAdjust="spacing" textLength="20" x="1060.9219" y="562.7223">0..*</text></g><!--link PlanController to PlanService--><g id="link_PlanController_PlanService"><path codeLine="52" d="M1255.5,70.29 C1255.5,87.05 1255.5,107.88 1255.5,125.4 " fill="none" id="PlanController-to-PlanService" style="stroke:#181818;stroke-width:1.0;stroke-dasharray:7.0,7.0;"/><polygon fill="#181818" points="1255.5,130.72,1259.5,121.72,1255.5,125.72,1251.5,121.72,1255.5,130.72" style="stroke:#181818;stroke-width:1.0;"/></g><!--link PlanServiceImpl to PlanRepository--><g id="link_PlanServiceImpl_PlanRepository"><path codeLine="53" d="M897.23,301.67 C749.57,315.19 537.69,339.47 355.5,379 C345.07,381.26 334.37,383.86 323.65,386.66 " fill="none" id="PlanServiceImpl-to-PlanRepository" style="stroke:#181818;stroke-width:1.0;stroke-dasharray:7.0,7.0;"/><polygon fill="#181818" points="318.72,387.96,328.4419,389.5364,323.5552,386.6868,326.4048,381.8001,318.72,387.96" style="stroke:#181818;stroke-width:1.0;"/></g><!--link PlanServiceImpl to CeasedPlansRepository--><g id="link_PlanServiceImpl_CeasedPlansRepository"><path codeLine="54" d="M981.8,318.09 C917.63,337.78 832.74,363.82 759.08,386.42 " fill="none" id="PlanServiceImpl-to-CeasedPlansRepository" style="stroke:#181818;stroke-width:1.0;stroke-dasharray:7.0,7.0;"/><polygon fill="#181818" points="754.24,387.91,764.0191,389.0802,759.018,386.4366,761.6616,381.4354,754.24,387.91" style="stroke:#181818;stroke-width:1.0;"/></g><!--link PlanServiceImpl to SubscriptionRepository--><g id="link_PlanServiceImpl_SubscriptionRepository"><path codeLine="55" d="M1081.5,318.27 C1081.5,334.27 1081.5,354.42 1081.5,373.51 " fill="none" id="PlanServiceImpl-to-SubscriptionRepository" style="stroke:#181818;stroke-width:1.0;stroke-dasharray:7.0,7.0;"/><polygon fill="#181818" points="1081.5,378.86,1085.5,369.86,1081.5,373.86,1077.5,369.86,1081.5,378.86" style="stroke:#181818;stroke-width:1.0;"/></g><!--link PlanServiceImpl to Plan--><g id="link_PlanServiceImpl_Plan"><path codeLine="56" d="M1243.71,318.08 C1275.07,331.57 1304.16,351.01 1323.5,379 C1367.49,442.66 1329.75,511.78 1272.07,570.08 " fill="none" id="PlanServiceImpl-to-Plan" style="stroke:#181818;stroke-width:1.0;stroke-dasharray:7.0,7.0;"/><polygon fill="#181818" points="1268.24,573.91,1277.4324,570.3745,1271.7755,570.3745,1271.7755,564.7176,1268.24,573.91" style="stroke:#181818;stroke-width:1.0;"/></g><!--link PlanService to Plan--><g id="link_PlanService_Plan"><path codeLine="57" d="M1277.32,194.31 C1315.86,252.57 1389.22,383.07 1359.5,495 C1352.09,522.89 1337.85,547.73 1319.57,569.7 " fill="none" id="PlanService-to-Plan" style="stroke:#181818;stroke-width:1.0;stroke-dasharray:7.0,7.0;"/><polygon fill="#181818" points="1316.11,573.76,1324.9871,569.4941,1319.3487,569.9507,1318.8921,564.3123,1316.11,573.76" style="stroke:#181818;stroke-width:1.0;"/></g><!--reverse link PlanService to PlanServiceImpl--><g id="link_PlanService_PlanServiceImpl"><path codeLine="58" d="M1195.03,205.9 C1172.01,222.04 1146.25,240.1 1125.09,254.94 " fill="none" id="PlanService-backto-PlanServiceImpl" style="stroke:#181818;stroke-width:1.0;stroke-dasharray:7.0,7.0;"/><polygon fill="none" points="1191.2,200.04,1211.59,194.29,1199.24,211.5,1191.2,200.04" style="stroke:#181818;stroke-width:1.0;"/></g><!--SRC=[lLHDZzem4BtdLuou50g4xHMXIBjigqO2QRLPxTth3C6gOqUsGvj-_FVQHWbEo7BeePoOUPxtveqz-N0qfjBhrQhYH9Ywv36LvOfoelKoPwHGf8oY8yiHA5EKOwI_CL4HcmP_wDuOnTvgWocL8cC_4UwYo2FmP1ctKXWbEKS5loAOKoGQNNuwMyCpwaeAZP-5OQRPkFGhm-z9z2Tao52T6CL- -KEJvjET50MmtCKBu2x8KJE5-IigpQIm4WuRfKlBYlyx8rXA9Wog0x6TkTGpLb8p8rK3cqq79Obh6-O79d8lSERkQ62U8qU33aiFUsBeSThANodRSTNSH3tfhMlV5-ZR7L1P2vFLRvegLXbBg1yQVm-jN8XbXfXQn_VKi1DUb2sD9YUSkWAWdVAitr98z5zwSiCDJwQvTlFqJC65sfeTqsRZKadd9Im47GIp_hFn7GCinPu9VVvRaX-FwDvI6zUQqQrxwzIR2R9PNHIemwnTYoDllY2UOo94JNWNkbrqXeFmfQc2w4d9KhRmrvVzphwMjdEVzExjP0Y7p2wedK9Bie1pEhNNKTYr57LfFTa5raFaOl0A6LXTz9I6bg-gE_D3f1l3mfiO-_MKZgRaZzY_iy4sJZvDOBbCO78NnnydVYvh08LKgbn7u_jpk-QT1twxQF0jZECa_1f5WozJXr_uHu-CjZzwShpfTtL3O3HvFbrNyU- -aRy0]--></g></svg>