<?xml version="1.0" encoding="us-ascii" standalone="no"?><svg xmlns="http://www.w3.org/2000/svg" xmlns:xlink="http://www.w3.org/1999/xlink" contentStyleType="text/css" height="606.69px" preserveAspectRatio="none" style="width:1126px;height:606px;background:#FFFFFF;" version="1.1" viewBox="0 0 1126 606" width="1126.71px" zoomAndPan="magnify"><defs/><g><rect fill="#FFFFFF" height="457.033" style="stroke:#181818;stroke-width:0.81;" width="8.1" x="29.97" y="75.8331"/><rect fill="#FFFFFF" height="430.8773" style="stroke:#181818;stroke-width:0.81;" width="8.1" x="171.72" y="94.6988"/><rect fill="#FFFFFF" height="380.1858" style="stroke:#181818;stroke-width:0.81;" width="8.1" x="366.93" y="120.0445"/><rect fill="#FFFFFF" height="329.4944" style="stroke:#181818;stroke-width:0.81;" width="8.1" x="562.14" y="145.3903"/><rect fill="#FFFFFF" height="25.3457" style="stroke:#181818;stroke-width:0.81;" width="8.1" x="822.96" y="272.1189"/><rect fill="#FFFFFF" height="25.3457" style="stroke:#181818;stroke-width:0.81;" width="8.1" x="822.96" y="322.8103"/><rect fill="#FFFFFF" height="25.3457" style="stroke:#181818;stroke-width:0.81;" width="8.1" x="822.96" y="373.5018"/><rect fill="#FFFFFF" height="25.3457" style="stroke:#181818;stroke-width:0.81;" width="8.1" x="993.06" y="170.736"/><rect fill="#FFFFFF" height="25.3457" style="stroke:#181818;stroke-width:0.81;" width="8.1" x="993.06" y="221.4274"/><rect fill="#FFFFFF" height="25.3457" style="stroke:#181818;stroke-width:0.81;" width="8.1" x="993.06" y="424.1932"/><line style="stroke:#181818;stroke-width:0.405;stroke-dasharray:5.0,5.0;" x1="34.02" x2="34.02" y1="67.7331" y2="540.1561"/><line style="stroke:#181818;stroke-width:0.405;stroke-dasharray:5.0,5.0;" x1="175.77" x2="175.77" y1="67.7331" y2="540.1561"/><line style="stroke:#181818;stroke-width:0.405;stroke-dasharray:5.0,5.0;" x1="370.98" x2="370.98" y1="67.7331" y2="540.1561"/><line style="stroke:#181818;stroke-width:0.405;stroke-dasharray:5.0,5.0;" x1="566.19" x2="566.19" y1="67.7331" y2="540.1561"/><line style="stroke:#181818;stroke-width:0.405;stroke-dasharray:5.0,5.0;" x1="827.01" x2="827.01" y1="67.7331" y2="540.1561"/><line style="stroke:#181818;stroke-width:0.405;stroke-dasharray:5.0,5.0;" x1="997.11" x2="997.11" y1="67.7331" y2="540.1561"/><text fill="#000000" font-family="sans-serif" font-size="11.34" lengthAdjust="spacing" textLength="55.08" x="4.05" y="64.887">Subscriber</text><ellipse cx="34.02" cy="10.935" fill="#E2E2F0" rx="6.48" ry="6.48" style="stroke:#181818;stroke-width:0.405;"/><path d="M34.02,17.415 L34.02,39.285 M23.49,23.895 L44.55,23.895 M34.02,39.285 L23.49,51.435 M34.02,39.285 L44.55,51.435 " fill="none" style="stroke:#181818;stroke-width:0.405;"/><text fill="#000000" font-family="sans-serif" font-size="11.34" lengthAdjust="spacing" textLength="55.08" x="4.05" y="551.5831">Subscriber</text><ellipse cx="34.02" cy="561.3142" fill="#E2E2F0" rx="6.48" ry="6.48" style="stroke:#181818;stroke-width:0.405;"/><path d="M34.02,567.7942 L34.02,589.6642 M23.49,574.2742 L44.55,574.2742 M34.02,589.6642 L23.49,601.8142 M34.02,589.6642 L44.55,601.8142 " fill="none" style="stroke:#181818;stroke-width:0.405;"/><rect fill="#E2E2F0" height="26.4231" rx="2.025" ry="2.025" style="stroke:#181818;stroke-width:0.405;" width="124.74" x="113.4" y="40.5"/><text fill="#000000" font-family="sans-serif" font-size="11.34" lengthAdjust="spacing" textLength="113.4" x="119.07" y="58.407">SubscriptionController</text><rect fill="#E2E2F0" height="26.4231" rx="2.025" ry="2.025" style="stroke:#181818;stroke-width:0.405;" width="124.74" x="113.4" y="539.3461"/><text fill="#000000" font-family="sans-serif" font-size="11.34" lengthAdjust="spacing" textLength="113.4" x="119.07" y="557.2531">SubscriptionController</text><rect fill="#E2E2F0" height="26.4231" rx="2.025" ry="2.025" style="stroke:#181818;stroke-width:0.405;" width="215.46" x="263.25" y="40.5"/><text fill="#000000" font-family="sans-serif" font-size="11.34" lengthAdjust="spacing" textLength="204.12" x="268.92" y="58.407">subscriptionService:SubscriptionService</text><rect fill="#E2E2F0" height="26.4231" rx="2.025" ry="2.025" style="stroke:#181818;stroke-width:0.405;" width="215.46" x="263.25" y="539.3461"/><text fill="#000000" font-family="sans-serif" font-size="11.34" lengthAdjust="spacing" textLength="204.12" x="268.92" y="557.2531">subscriptionService:SubscriptionService</text><rect fill="#E2E2F0" height="26.4231" rx="2.025" ry="2.025" style="stroke:#181818;stroke-width:0.405;" width="132.84" x="499.77" y="40.5"/><text fill="#000000" font-family="sans-serif" font-size="11.34" lengthAdjust="spacing" textLength="121.5" x="505.44" y="58.407">SubscriptionServiceImpl</text><rect fill="#E2E2F0" height="26.4231" rx="2.025" ry="2.025" style="stroke:#181818;stroke-width:0.405;" width="132.84" x="499.77" y="539.3461"/><text fill="#000000" font-family="sans-serif" font-size="11.34" lengthAdjust="spacing" textLength="121.5" x="505.44" y="557.2531">SubscriptionServiceImpl</text><rect fill="#E2E2F0" height="26.4231" rx="2.025" ry="2.025" style="stroke:#181818;stroke-width:0.405;" width="74.52" x="789.75" y="40.5"/><text fill="#000000" font-family="sans-serif" font-size="11.34" lengthAdjust="spacing" textLength="63.18" x="795.42" y="58.407">Subscription</text><rect fill="#E2E2F0" height="26.4231" rx="2.025" ry="2.025" style="stroke:#181818;stroke-width:0.405;" width="74.52" x="789.75" y="539.3461"/><text fill="#000000" font-family="sans-serif" font-size="11.34" lengthAdjust="spacing" textLength="63.18" x="795.42" y="557.2531">Subscription</text><rect fill="#E2E2F0" height="26.4231" rx="2.025" ry="2.025" style="stroke:#181818;stroke-width:0.405;" width="249.48" x="872.37" y="40.5"/><text fill="#000000" font-family="sans-serif" font-size="11.34" lengthAdjust="spacing" textLength="238.14" x="878.04" y="58.407">subscriptionRepository:SubscriptionRepository</text><rect fill="#E2E2F0" height="26.4231" rx="2.025" ry="2.025" style="stroke:#181818;stroke-width:0.405;" width="249.48" x="872.37" y="539.3461"/><text fill="#000000" font-family="sans-serif" font-size="11.34" lengthAdjust="spacing" textLength="238.14" x="878.04" y="557.2531">subscriptionRepository:SubscriptionRepository</text><rect fill="#FFFFFF" height="457.033" style="stroke:#181818;stroke-width:0.81;" width="8.1" x="29.97" y="75.8331"/><rect fill="#FFFFFF" height="430.8773" style="stroke:#181818;stroke-width:0.81;" width="8.1" x="171.72" y="94.6988"/><rect fill="#FFFFFF" height="380.1858" style="stroke:#181818;stroke-width:0.81;" width="8.1" x="366.93" y="120.0445"/><rect fill="#FFFFFF" height="329.4944" style="stroke:#181818;stroke-width:0.81;" width="8.1" x="562.14" y="145.3903"/><rect fill="#FFFFFF" height="25.3457" style="stroke:#181818;stroke-width:0.81;" width="8.1" x="822.96" y="272.1189"/><rect fill="#FFFFFF" height="25.3457" style="stroke:#181818;stroke-width:0.81;" width="8.1" x="822.96" y="322.8103"/><rect fill="#FFFFFF" height="25.3457" style="stroke:#181818;stroke-width:0.81;" width="8.1" x="822.96" y="373.5018"/><rect fill="#FFFFFF" height="25.3457" style="stroke:#181818;stroke-width:0.81;" width="8.1" x="993.06" y="170.736"/><rect fill="#FFFFFF" height="25.3457" style="stroke:#181818;stroke-width:0.81;" width="8.1" x="993.06" y="221.4274"/><rect fill="#FFFFFF" height="25.3457" style="stroke:#181818;stroke-width:0.81;" width="8.1" x="993.06" y="424.1932"/><polygon fill="#181818" points="162,91.4588,170.1,94.6988,162,97.9388,165.24,94.6988" style="stroke:#181818;stroke-width:0.81;"/><line style="stroke:#181818;stroke-width:0.81;" x1="38.07" x2="166.86" y1="94.6988" y2="94.6988"/><text fill="#000000" font-family="sans-serif" font-size="10.53" font-weight="bold" lengthAdjust="spacing" textLength="5.67" x="43.74" y="90.436">1</text><text fill="#000000" font-family="sans-serif" font-size="10.53" lengthAdjust="spacing" textLength="109.35" x="52.65" y="90.436">PATCH(/api/sub/renew)</text><polygon fill="#181818" points="357.21,116.8045,365.31,120.0445,357.21,123.2845,360.45,120.0445" style="stroke:#181818;stroke-width:0.81;"/><line style="stroke:#181818;stroke-width:0.81;" x1="179.82" x2="362.07" y1="120.0445" y2="120.0445"/><text fill="#000000" font-family="sans-serif" font-size="10.53" font-weight="bold" lengthAdjust="spacing" textLength="5.67" x="185.49" y="115.7817">2</text><text fill="#000000" font-family="sans-serif" font-size="10.53" lengthAdjust="spacing" textLength="162.81" x="194.4" y="115.7817">RenewAnnualSubscription(long id);</text><polygon fill="#181818" points="552.42,142.1503,560.52,145.3903,552.42,148.6303,555.66,145.3903" style="stroke:#181818;stroke-width:0.81;"/><line style="stroke:#181818;stroke-width:0.81;" x1="375.03" x2="557.28" y1="145.3903" y2="145.3903"/><text fill="#000000" font-family="sans-serif" font-size="10.53" font-weight="bold" lengthAdjust="spacing" textLength="5.67" x="380.7" y="141.1275">3</text><text fill="#000000" font-family="sans-serif" font-size="10.53" lengthAdjust="spacing" textLength="162.81" x="389.61" y="141.1275">RenewAnnualSubscription(long id);</text><polygon fill="#181818" points="983.34,167.496,991.44,170.736,983.34,173.976,986.58,170.736" style="stroke:#181818;stroke-width:0.81;"/><line style="stroke:#181818;stroke-width:0.81;" x1="570.24" x2="988.2" y1="170.736" y2="170.736"/><text fill="#000000" font-family="sans-serif" font-size="10.53" font-weight="bold" lengthAdjust="spacing" textLength="5.67" x="575.91" y="166.4732">4</text><text fill="#000000" font-family="sans-serif" font-size="10.53" lengthAdjust="spacing" textLength="140.13" x="584.82" y="166.4732">findSubscriptionIdByUserId(id)</text><polygon fill="#181818" points="579.15,192.8417,571.05,196.0817,579.15,199.3217,575.91,196.0817" style="stroke:#181818;stroke-width:0.81;"/><line style="stroke:#181818;stroke-width:0.81;stroke-dasharray:2.0,2.0;" x1="574.29" x2="996.3" y1="196.0817" y2="196.0817"/><text fill="#000000" font-family="sans-serif" font-size="10.53" font-weight="bold" lengthAdjust="spacing" textLength="5.67" x="584.01" y="191.8189">5</text><text fill="#000000" font-family="sans-serif" font-size="10.53" lengthAdjust="spacing" textLength="26.73" x="592.92" y="191.8189">IdSub</text><polygon fill="#181818" points="983.34,218.1874,991.44,221.4274,983.34,224.6674,986.58,221.4274" style="stroke:#181818;stroke-width:0.81;"/><line style="stroke:#181818;stroke-width:0.81;" x1="570.24" x2="988.2" y1="221.4274" y2="221.4274"/><text fill="#000000" font-family="sans-serif" font-size="10.53" font-weight="bold" lengthAdjust="spacing" textLength="5.67" x="575.91" y="217.1646">6</text><text fill="#000000" font-family="sans-serif" font-size="10.53" lengthAdjust="spacing" textLength="68.85" x="584.82" y="217.1646">getById(idSub)</text><polygon fill="#181818" points="579.15,243.5331,571.05,246.7731,579.15,250.0131,575.91,246.7731" style="stroke:#181818;stroke-width:0.81;"/><line style="stroke:#181818;stroke-width:0.81;stroke-dasharray:2.0,2.0;" x1="574.29" x2="996.3" y1="246.7731" y2="246.7731"/><text fill="#000000" font-family="sans-serif" font-size="10.53" font-weight="bold" lengthAdjust="spacing" textLength="5.67" x="584.01" y="242.5104">7</text><text fill="#000000" font-family="sans-serif" font-size="10.53" lengthAdjust="spacing" textLength="56.7" x="592.92" y="242.5104">subscription</text><polygon fill="#181818" points="813.24,268.8789,821.34,272.1189,813.24,275.3589,816.48,272.1189" style="stroke:#181818;stroke-width:0.81;"/><line style="stroke:#181818;stroke-width:0.81;" x1="570.24" x2="818.1" y1="272.1189" y2="272.1189"/><text fill="#000000" font-family="sans-serif" font-size="10.53" font-weight="bold" lengthAdjust="spacing" textLength="5.67" x="575.91" y="267.8561">8</text><text fill="#000000" font-family="sans-serif" font-size="10.53" lengthAdjust="spacing" textLength="215.46" x="584.82" y="267.8561">setRenewDate(LocalDate.now().plusYears(1));</text><polygon fill="#181818" points="579.15,294.2246,571.05,297.4646,579.15,300.7046,575.91,297.4646" style="stroke:#181818;stroke-width:0.81;"/><line style="stroke:#181818;stroke-width:0.81;stroke-dasharray:2.0,2.0;" x1="574.29" x2="826.2" y1="297.4646" y2="297.4646"/><text fill="#000000" font-family="sans-serif" font-size="10.53" font-weight="bold" lengthAdjust="spacing" textLength="5.67" x="584.01" y="293.2018">9</text><text fill="#000000" font-family="sans-serif" font-size="10.53" lengthAdjust="spacing" textLength="13.77" x="592.92" y="293.2018">Ok</text><polygon fill="#181818" points="813.24,319.5703,821.34,322.8103,813.24,326.0503,816.48,322.8103" style="stroke:#181818;stroke-width:0.81;"/><line style="stroke:#181818;stroke-width:0.81;" x1="570.24" x2="818.1" y1="322.8103" y2="322.8103"/><text fill="#000000" font-family="sans-serif" font-size="10.53" font-weight="bold" lengthAdjust="spacing" textLength="11.34" x="575.91" y="318.5475">10</text><text fill="#000000" font-family="sans-serif" font-size="10.53" lengthAdjust="spacing" textLength="222.75" x="590.49" y="318.5475">setRenewDate(LocalDate.now().plusMonths(1));</text><polygon fill="#181818" points="579.15,344.916,571.05,348.156,579.15,351.396,575.91,348.156" style="stroke:#181818;stroke-width:0.81;"/><line style="stroke:#181818;stroke-width:0.81;stroke-dasharray:2.0,2.0;" x1="574.29" x2="826.2" y1="348.156" y2="348.156"/><text fill="#000000" font-family="sans-serif" font-size="10.53" font-weight="bold" lengthAdjust="spacing" textLength="11.34" x="584.01" y="343.8933">11</text><text fill="#000000" font-family="sans-serif" font-size="10.53" lengthAdjust="spacing" textLength="13.77" x="598.59" y="343.8933">Ok</text><polygon fill="#181818" points="813.24,370.2618,821.34,373.5018,813.24,376.7418,816.48,373.5018" style="stroke:#181818;stroke-width:0.81;"/><line style="stroke:#181818;stroke-width:0.81;" x1="570.24" x2="818.1" y1="373.5018" y2="373.5018"/><text fill="#000000" font-family="sans-serif" font-size="10.53" font-weight="bold" lengthAdjust="spacing" textLength="11.34" x="575.91" y="369.239">12</text><text fill="#000000" font-family="sans-serif" font-size="10.53" lengthAdjust="spacing" textLength="188.73" x="590.49" y="369.239">setSubState(SubscriptionStatus.Active);</text><polygon fill="#181818" points="579.15,395.6075,571.05,398.8475,579.15,402.0875,575.91,398.8475" style="stroke:#181818;stroke-width:0.81;"/><line style="stroke:#181818;stroke-width:0.81;stroke-dasharray:2.0,2.0;" x1="574.29" x2="826.2" y1="398.8475" y2="398.8475"/><text fill="#000000" font-family="sans-serif" font-size="10.53" font-weight="bold" lengthAdjust="spacing" textLength="11.34" x="584.01" y="394.5847">13</text><text fill="#000000" font-family="sans-serif" font-size="10.53" lengthAdjust="spacing" textLength="13.77" x="598.59" y="394.5847">Ok</text><polygon fill="#181818" points="983.34,420.9532,991.44,424.1932,983.34,427.4332,986.58,424.1932" style="stroke:#181818;stroke-width:0.81;"/><line style="stroke:#181818;stroke-width:0.81;" x1="570.24" x2="988.2" y1="424.1932" y2="424.1932"/><text fill="#000000" font-family="sans-serif" font-size="10.53" font-weight="bold" lengthAdjust="spacing" textLength="11.34" x="575.91" y="419.9304">14</text><text fill="#000000" font-family="sans-serif" font-size="10.53" lengthAdjust="spacing" textLength="84.24" x="590.49" y="419.9304">save(subscription)</text><polygon fill="#181818" points="579.15,446.2989,571.05,449.5389,579.15,452.7789,575.91,449.5389" style="stroke:#181818;stroke-width:0.81;"/><line style="stroke:#181818;stroke-width:0.81;stroke-dasharray:2.0,2.0;" x1="574.29" x2="996.3" y1="449.5389" y2="449.5389"/><text fill="#000000" font-family="sans-serif" font-size="10.53" font-weight="bold" lengthAdjust="spacing" textLength="11.34" x="584.01" y="445.2761">15</text><text fill="#000000" font-family="sans-serif" font-size="10.53" lengthAdjust="spacing" textLength="13.77" x="598.59" y="445.2761">Ok</text><polygon fill="#181818" points="383.94,471.6446,375.84,474.8846,383.94,478.1246,380.7,474.8846" style="stroke:#181818;stroke-width:0.81;"/><line style="stroke:#181818;stroke-width:0.81;stroke-dasharray:2.0,2.0;" x1="379.08" x2="565.38" y1="474.8846" y2="474.8846"/><text fill="#000000" font-family="sans-serif" font-size="10.53" font-weight="bold" lengthAdjust="spacing" textLength="11.34" x="388.8" y="470.6219">16</text><text fill="#000000" font-family="sans-serif" font-size="10.53" lengthAdjust="spacing" textLength="11.34" x="403.38" y="470.6219">ok</text><polygon fill="#181818" points="188.73,496.9904,180.63,500.2304,188.73,503.4704,185.49,500.2304" style="stroke:#181818;stroke-width:0.81;"/><line style="stroke:#181818;stroke-width:0.81;stroke-dasharray:2.0,2.0;" x1="183.87" x2="370.17" y1="500.2304" y2="500.2304"/><text fill="#000000" font-family="sans-serif" font-size="10.53" font-weight="bold" lengthAdjust="spacing" textLength="11.34" x="193.59" y="495.9676">17</text><text fill="#000000" font-family="sans-serif" font-size="10.53" lengthAdjust="spacing" textLength="11.34" x="208.17" y="495.9676">ok</text><polygon fill="#181818" points="46.98,522.3361,38.88,525.5761,46.98,528.8161,43.74,525.5761" style="stroke:#181818;stroke-width:0.81;"/><line style="stroke:#181818;stroke-width:0.81;stroke-dasharray:2.0,2.0;" x1="42.12" x2="174.96" y1="525.5761" y2="525.5761"/><text fill="#000000" font-family="sans-serif" font-size="10.53" font-weight="bold" lengthAdjust="spacing" textLength="11.34" x="51.84" y="521.3133">18</text><text fill="#000000" font-family="sans-serif" font-size="10.53" lengthAdjust="spacing" textLength="37.26" x="66.42" y="521.3133">200: Ok</text><!--SRC=[dLAnRi8m4Dtp5HPBau64TaobIa27HchLgcc7ZiPnmSAnNTi1yVUzCsamHKY89RAVttjtzt8tA- -DAul2IAfyrygSwRPm_AVZYl5n8-ZIqZP9QESrPLvigET4gt1NNRlW5jwOrvQCwcxXc1K0ZGXrvDF1cw7M2oOCU0y4uuLMSwsyrLBsvBctyfZi8dBDxKOmNjQdM53tv_FLUaBL6Xa4U3ZFtdj6mFdEthdHJi3ukwFc3d3mmck8QHzVI2R1Bna_XD5ByZRzc3-b1JMY0F_2SiMtMO9loFaB09m0dohLKHdNIwLMIoAQx3xfgQZ2AI-H80_vs6P9leLgOcBLp7ROQzMam4wGHCQ3UuNSVmvBxcUxG8Ut4qKSto2C2mA5-z3r8wILFcj69PvofRTfbXlPkIzEhKjlCvmtKaPLNjVNUh_0PgwkDmUWzkXzj7-0T2wVuWRmYtptIJgwuMaSs4cQWoJU4hq-hC6mOG3krmaG_9ybkPjCqE0N]--></g></svg>