<?xml version="1.0" encoding="UTF-8" standalone="no"?><svg xmlns="http://www.w3.org/2000/svg" xmlns:xlink="http://www.w3.org/1999/xlink" contentStyleType="text/css" height="900px" preserveAspectRatio="none" style="width:637px;height:900px;background:#FFFFFF;" version="1.1" viewBox="0 0 637 900" width="637px" zoomAndPan="magnify"><defs/><g><!--MD5=[a0d94b09b17b306fb81c487dc7673e5c]
class SubscriptionController--><g id="elem_SubscriptionController"><rect codeLine="1" fill="#F1F1F1" height="66.6211" id="SubscriptionController" rx="2.5" ry="2.5" style="stroke:#181818;stroke-width:0.5;" width="247" x="217" y="7"/><ellipse cx="266.25" cy="23" fill="#ADD1B2" rx="11" ry="11" style="stroke:#181818;stroke-width:1.0;"/><path d="M269.0156,18.875 Q269.1719,18.6563 269.3594,18.5469 Q269.5469,18.4375 269.7656,18.4375 Q270.1406,18.4375 270.375,18.7031 Q270.6094,18.9531 270.6094,19.5625 L270.6094,21.0156 Q270.6094,21.625 270.375,21.8906 Q270.1406,22.1563 269.7656,22.1563 Q269.4219,22.1563 269.2188,21.9531 Q269.0156,21.7656 268.9063,21.25 Q268.8594,20.8906 268.6719,20.7031 Q268.3438,20.3281 267.7344,20.1094 Q267.125,19.8906 266.5,19.8906 Q265.7344,19.8906 265.0938,20.2188 Q264.4688,20.5469 263.9688,21.2969 Q263.4844,22.0469 263.4844,23.0781 L263.4844,24.1719 Q263.4844,25.4063 264.375,26.2344 Q265.2656,27.0469 266.8594,27.0469 Q267.7969,27.0469 268.4531,26.7969 Q268.8438,26.6406 269.2656,26.2031 Q269.5313,25.9375 269.6719,25.8594 Q269.8281,25.7813 270.0313,25.7813 Q270.3594,25.7813 270.6094,26.0469 Q270.875,26.2969 270.875,26.6406 Q270.875,26.9844 270.5313,27.3906 Q270.0313,27.9688 269.2344,28.2969 Q268.1563,28.75 266.8594,28.75 Q265.3438,28.75 264.1406,28.125 Q263.1563,27.625 262.4688,26.5625 Q261.7813,25.4844 261.7813,24.2031 L261.7813,23.0469 Q261.7813,21.7188 262.3906,20.5781 Q263.0156,19.4219 264.1094,18.8125 Q265.2031,18.1875 266.4375,18.1875 Q267.1719,18.1875 267.8125,18.3594 Q268.4688,18.5156 269.0156,18.875 Z " fill="#000000"/><text fill="#000000" font-family="sans-serif" font-size="14" lengthAdjust="spacing" textLength="140" x="286.75" y="28.7969">SubscriptionController</text><line style="stroke:#181818;stroke-width:0.5;" x1="218" x2="463" y1="39" y2="39"/><line style="stroke:#181818;stroke-width:0.5;" x1="218" x2="463" y1="47" y2="47"/><ellipse cx="228" cy="61.8105" fill="#84BE84" rx="3" ry="3" style="stroke:#038048;stroke-width:1.0;"/><text fill="#000000" font-family="sans-serif" font-size="14" lengthAdjust="spacing" textLength="221" x="237" y="66.1074">RenewAnnualSubscription(long id);</text></g><!--MD5=[0dcc03df3314187238fb9500a6ba3a42]
class SubscriptionService--><g id="elem_SubscriptionService"><rect codeLine="7" fill="#F1F1F1" height="66.6211" id="SubscriptionService" rx="2.5" ry="2.5" style="stroke:#181818;stroke-width:0.5;" width="247" x="217" y="135"/><ellipse cx="273.75" cy="151" fill="#ADD1B2" rx="11" ry="11" style="stroke:#181818;stroke-width:1.0;"/><path d="M276.5156,146.875 Q276.6719,146.6563 276.8594,146.5469 Q277.0469,146.4375 277.2656,146.4375 Q277.6406,146.4375 277.875,146.7031 Q278.1094,146.9531 278.1094,147.5625 L278.1094,149.0156 Q278.1094,149.625 277.875,149.8906 Q277.6406,150.1563 277.2656,150.1563 Q276.9219,150.1563 276.7188,149.9531 Q276.5156,149.7656 276.4063,149.25 Q276.3594,148.8906 276.1719,148.7031 Q275.8438,148.3281 275.2344,148.1094 Q274.625,147.8906 274,147.8906 Q273.2344,147.8906 272.5938,148.2188 Q271.9688,148.5469 271.4688,149.2969 Q270.9844,150.0469 270.9844,151.0781 L270.9844,152.1719 Q270.9844,153.4063 271.875,154.2344 Q272.7656,155.0469 274.3594,155.0469 Q275.2969,155.0469 275.9531,154.7969 Q276.3438,154.6406 276.7656,154.2031 Q277.0313,153.9375 277.1719,153.8594 Q277.3281,153.7813 277.5313,153.7813 Q277.8594,153.7813 278.1094,154.0469 Q278.375,154.2969 278.375,154.6406 Q278.375,154.9844 278.0313,155.3906 Q277.5313,155.9688 276.7344,156.2969 Q275.6563,156.75 274.3594,156.75 Q272.8438,156.75 271.6406,156.125 Q270.6563,155.625 269.9688,154.5625 Q269.2813,153.4844 269.2813,152.2031 L269.2813,151.0469 Q269.2813,149.7188 269.8906,148.5781 Q270.5156,147.4219 271.6094,146.8125 Q272.7031,146.1875 273.9375,146.1875 Q274.6719,146.1875 275.3125,146.3594 Q275.9688,146.5156 276.5156,146.875 Z " fill="#000000"/><text fill="#000000" font-family="sans-serif" font-size="14" lengthAdjust="spacing" textLength="125" x="294.25" y="156.7969">SubscriptionService</text><line style="stroke:#181818;stroke-width:0.5;" x1="218" x2="463" y1="167" y2="167"/><line style="stroke:#181818;stroke-width:0.5;" x1="218" x2="463" y1="175" y2="175"/><ellipse cx="228" cy="189.8105" fill="#84BE84" rx="3" ry="3" style="stroke:#038048;stroke-width:1.0;"/><text fill="#000000" font-family="sans-serif" font-size="14" lengthAdjust="spacing" textLength="221" x="237" y="194.1074">RenewAnnualSubscription(long id);</text></g><!--MD5=[d845121cb320b282bcbc82de8d275a60]
class SubscriptionServiceImpl--><g id="elem_SubscriptionServiceImpl"><rect codeLine="10" fill="#F1F1F1" height="122.4844" id="SubscriptionServiceImpl" rx="2.5" ry="2.5" style="stroke:#181818;stroke-width:0.5;" width="409" x="7" y="263"/><ellipse cx="132.25" cy="279" fill="#ADD1B2" rx="11" ry="11" style="stroke:#181818;stroke-width:1.0;"/><path d="M135.0156,274.875 Q135.1719,274.6563 135.3594,274.5469 Q135.5469,274.4375 135.7656,274.4375 Q136.1406,274.4375 136.375,274.7031 Q136.6094,274.9531 136.6094,275.5625 L136.6094,277.0156 Q136.6094,277.625 136.375,277.8906 Q136.1406,278.1563 135.7656,278.1563 Q135.4219,278.1563 135.2188,277.9531 Q135.0156,277.7656 134.9063,277.25 Q134.8594,276.8906 134.6719,276.7031 Q134.3438,276.3281 133.7344,276.1094 Q133.125,275.8906 132.5,275.8906 Q131.7344,275.8906 131.0938,276.2188 Q130.4688,276.5469 129.9688,277.2969 Q129.4844,278.0469 129.4844,279.0781 L129.4844,280.1719 Q129.4844,281.4063 130.375,282.2344 Q131.2656,283.0469 132.8594,283.0469 Q133.7969,283.0469 134.4531,282.7969 Q134.8438,282.6406 135.2656,282.2031 Q135.5313,281.9375 135.6719,281.8594 Q135.8281,281.7813 136.0313,281.7813 Q136.3594,281.7813 136.6094,282.0469 Q136.875,282.2969 136.875,282.6406 Q136.875,282.9844 136.5313,283.3906 Q136.0313,283.9688 135.2344,284.2969 Q134.1563,284.75 132.8594,284.75 Q131.3438,284.75 130.1406,284.125 Q129.1563,283.625 128.4688,282.5625 Q127.7813,281.4844 127.7813,280.2031 L127.7813,279.0469 Q127.7813,277.7188 128.3906,276.5781 Q129.0156,275.4219 130.1094,274.8125 Q131.2031,274.1875 132.4375,274.1875 Q133.1719,274.1875 133.8125,274.3594 Q134.4688,274.5156 135.0156,274.875 Z " fill="#000000"/><text fill="#000000" font-family="sans-serif" font-size="14" lengthAdjust="spacing" textLength="150" x="152.75" y="284.7969">SubscriptionServiceImpl</text><line style="stroke:#181818;stroke-width:0.5;" x1="8" x2="415" y1="295" y2="295"/><line style="stroke:#181818;stroke-width:0.5;" x1="8" x2="415" y1="303" y2="303"/><ellipse cx="18" cy="317.8105" fill="#84BE84" rx="3" ry="3" style="stroke:#038048;stroke-width:1.0;"/><text fill="#000000" font-family="sans-serif" font-size="14" lengthAdjust="spacing" textLength="221" x="27" y="322.1074">RenewAnnualSubscription(long id);</text><ellipse cx="18" cy="336.4316" fill="#84BE84" rx="3" ry="3" style="stroke:#038048;stroke-width:1.0;"/><text fill="#000000" font-family="sans-serif" font-size="14" lengthAdjust="spacing" textLength="374" x="27" y="340.7285">subscription.setRenewDate(LocalDate.now().plusYears(1));</text><ellipse cx="18" cy="355.0527" fill="#84BE84" rx="3" ry="3" style="stroke:#038048;stroke-width:1.0;"/><text fill="#000000" font-family="sans-serif" font-size="14" lengthAdjust="spacing" textLength="383" x="27" y="359.3496">subscription.setRenewDate(LocalDate.now().plusMonths(1));</text><ellipse cx="18" cy="373.6738" fill="#84BE84" rx="3" ry="3" style="stroke:#038048;stroke-width:1.0;"/><text fill="#000000" font-family="sans-serif" font-size="14" lengthAdjust="spacing" textLength="331" x="27" y="377.9707">subscription.setSubState(SubscriptionStatus.Active);</text></g><!--MD5=[8cb61edb30e29c1e32ddb687c0ab6f7a]
class SubscriptionRepository--><g id="elem_SubscriptionRepository"><rect codeLine="17" fill="#F1F1F1" height="116.4453" id="SubscriptionRepository" rx="2.5" ry="2.5" style="stroke:#181818;stroke-width:0.5;" width="215" x="104" y="446"/><ellipse cx="135.65" cy="468.291" fill="#B4A7E5" rx="11" ry="11" style="stroke:#181818;stroke-width:1.0;"/><path d="M136.6031,464.9316 L136.6031,471.5879 L138.3219,471.5879 Q138.9313,471.5879 139.1969,471.8223 Q139.4625,472.0566 139.4625,472.4473 Q139.4625,472.8223 139.1969,473.0566 Q138.9313,473.291 138.3219,473.291 L133.1813,473.291 Q132.5719,473.291 132.3063,473.0566 Q132.0406,472.8223 132.0406,472.4316 Q132.0406,472.0566 132.3063,471.8223 Q132.5719,471.5879 133.1813,471.5879 L134.9,471.5879 L134.9,464.9316 L133.1813,464.9316 Q132.5719,464.9316 132.3063,464.6973 Q132.0406,464.4629 132.0406,464.0723 Q132.0406,463.6973 132.3063,463.4629 Q132.5719,463.2285 133.1813,463.2285 L138.3219,463.2285 Q138.9313,463.2285 139.1969,463.4629 Q139.4625,463.6973 139.4625,464.0723 Q139.4625,464.4629 139.1969,464.6973 Q138.9313,464.9316 138.3219,464.9316 L136.6031,464.9316 Z " fill="#000000"/><text fill="#000000" font-family="sans-serif" font-size="12" font-style="italic" lengthAdjust="spacing" textLength="61" x="195.85" y="463.9492">«interface»</text><text fill="#000000" font-family="sans-serif" font-size="14" font-style="italic" lengthAdjust="spacing" textLength="146" x="153.35" y="482.0684">SubscriptionRepository</text><line style="stroke:#181818;stroke-width:0.5;" x1="105" x2="318" y1="490.582" y2="490.582"/><line style="stroke:#181818;stroke-width:0.5;" x1="105" x2="318" y1="498.582" y2="498.582"/><ellipse cx="115" cy="513.3926" fill="#84BE84" rx="3" ry="3" style="stroke:#038048;stroke-width:1.0;"/><text fill="#000000" font-family="sans-serif" font-size="14" lengthAdjust="spacing" textLength="189" x="124" y="517.6895">findSubscriptionIdByUserId(id)</text><ellipse cx="115" cy="532.0137" fill="#84BE84" rx="3" ry="3" style="stroke:#038048;stroke-width:1.0;"/><text fill="#000000" font-family="sans-serif" font-size="14" lengthAdjust="spacing" textLength="93" x="124" y="536.3105">getById(idSub)</text><ellipse cx="115" cy="550.6348" fill="#84BE84" rx="3" ry="3" style="stroke:#038048;stroke-width:1.0;"/><text fill="#000000" font-family="sans-serif" font-size="14" lengthAdjust="spacing" textLength="170" x="124" y="554.9316">save( Subscription): Result</text></g><!--MD5=[545507b7baa8aade59e57dce916f0187]
class Subscription--><g id="elem_Subscription"><rect codeLine="24" fill="#F1F1F1" height="252.832" id="Subscription" rx="2.5" ry="2.5" style="stroke:#181818;stroke-width:0.5;" width="516" x="114.5" y="641"/><ellipse cx="329.25" cy="657" fill="#ADD1B2" rx="11" ry="11" style="stroke:#181818;stroke-width:1.0;"/><path d="M332.0156,652.875 Q332.1719,652.6563 332.3594,652.5469 Q332.5469,652.4375 332.7656,652.4375 Q333.1406,652.4375 333.375,652.7031 Q333.6094,652.9531 333.6094,653.5625 L333.6094,655.0156 Q333.6094,655.625 333.375,655.8906 Q333.1406,656.1563 332.7656,656.1563 Q332.4219,656.1563 332.2188,655.9531 Q332.0156,655.7656 331.9063,655.25 Q331.8594,654.8906 331.6719,654.7031 Q331.3438,654.3281 330.7344,654.1094 Q330.125,653.8906 329.5,653.8906 Q328.7344,653.8906 328.0938,654.2188 Q327.4688,654.5469 326.9688,655.2969 Q326.4844,656.0469 326.4844,657.0781 L326.4844,658.1719 Q326.4844,659.4063 327.375,660.2344 Q328.2656,661.0469 329.8594,661.0469 Q330.7969,661.0469 331.4531,660.7969 Q331.8438,660.6406 332.2656,660.2031 Q332.5313,659.9375 332.6719,659.8594 Q332.8281,659.7813 333.0313,659.7813 Q333.3594,659.7813 333.6094,660.0469 Q333.875,660.2969 333.875,660.6406 Q333.875,660.9844 333.5313,661.3906 Q333.0313,661.9688 332.2344,662.2969 Q331.1563,662.75 329.8594,662.75 Q328.3438,662.75 327.1406,662.125 Q326.1563,661.625 325.4688,660.5625 Q324.7813,659.4844 324.7813,658.2031 L324.7813,657.0469 Q324.7813,655.7188 325.3906,654.5781 Q326.0156,653.4219 327.1094,652.8125 Q328.2031,652.1875 329.4375,652.1875 Q330.1719,652.1875 330.8125,652.3594 Q331.4688,652.5156 332.0156,652.875 Z " fill="#000000"/><text fill="#000000" font-family="sans-serif" font-size="14" lengthAdjust="spacing" textLength="78" x="349.75" y="662.7969">Subscription</text><line style="stroke:#181818;stroke-width:0.5;" x1="115.5" x2="629.5" y1="673" y2="673"/><rect fill="none" height="6" style="stroke:#C82930;stroke-width:1.0;" width="6" x="122.5" y="684.8105"/><text fill="#000000" font-family="sans-serif" font-size="14" lengthAdjust="spacing" textLength="11" x="134.5" y="692.1074">id</text><rect fill="none" height="6" style="stroke:#C82930;stroke-width:1.0;" width="6" x="122.5" y="703.4316"/><text fill="#000000" font-family="sans-serif" font-size="14" lengthAdjust="spacing" textLength="55" x="134.5" y="710.7285">subType</text><rect fill="none" height="6" style="stroke:#C82930;stroke-width:1.0;" width="6" x="122.5" y="722.0527"/><text fill="#000000" font-family="sans-serif" font-size="14" lengthAdjust="spacing" textLength="28" x="134.5" y="729.3496">date</text><rect fill="none" height="6" style="stroke:#C82930;stroke-width:1.0;" width="6" x="122.5" y="740.6738"/><text fill="#000000" font-family="sans-serif" font-size="14" lengthAdjust="spacing" textLength="56" x="134.5" y="747.9707">subState</text><rect fill="none" height="6" style="stroke:#C82930;stroke-width:1.0;" width="6" x="122.5" y="759.2949"/><text fill="#000000" font-family="sans-serif" font-size="14" lengthAdjust="spacing" textLength="52" x="134.5" y="766.5918">feeType</text><line style="stroke:#181818;stroke-width:0.5;" x1="115.5" x2="629.5" y1="774.1055" y2="774.1055"/><text fill="#000000" font-family="sans-serif" font-size="14" lengthAdjust="spacing" textLength="490" x="134.5" y="793.2129">Subscription(int id, string subType, date date, string subState, string feeType)</text><ellipse cx="125.5" cy="807.5371" fill="#84BE84" rx="3" ry="3" style="stroke:#038048;stroke-width:1.0;"/><text fill="#000000" font-family="sans-serif" font-size="14" lengthAdjust="spacing" textLength="66" x="134.5" y="811.834">getID(): int</text><ellipse cx="125.5" cy="826.1582" fill="#84BE84" rx="3" ry="3" style="stroke:#038048;stroke-width:1.0;"/><text fill="#000000" font-family="sans-serif" font-size="14" lengthAdjust="spacing" textLength="130" x="134.5" y="830.4551">getSubType(): string</text><ellipse cx="125.5" cy="844.7793" fill="#84BE84" rx="3" ry="3" style="stroke:#038048;stroke-width:1.0;"/><text fill="#000000" font-family="sans-serif" font-size="14" lengthAdjust="spacing" textLength="96" x="134.5" y="849.0762">getDate(): date</text><ellipse cx="125.5" cy="863.4004" fill="#84BE84" rx="3" ry="3" style="stroke:#038048;stroke-width:1.0;"/><text fill="#000000" font-family="sans-serif" font-size="14" lengthAdjust="spacing" textLength="131" x="134.5" y="867.6973">getSubState(): string</text><ellipse cx="125.5" cy="882.0215" fill="#84BE84" rx="3" ry="3" style="stroke:#038048;stroke-width:1.0;"/><text fill="#000000" font-family="sans-serif" font-size="14" lengthAdjust="spacing" textLength="130" x="134.5" y="886.3184">getFeeType(): string</text></g><!--MD5=[735a3ef7641b41d5ec8e9b2441552fb7]
link SubscriptionRepository to Subscription--><g id="link_SubscriptionRepository_Subscription"><path codeLine="39" d="M246.63,562.06 C260.19,584.08 276.3,610.24 292.38,636.37 " fill="none" id="SubscriptionRepository-to-Subscription" style="stroke:#181818;stroke-width:1.0;"/><polygon fill="#181818" points="295.17,640.9,293.8689,631.1375,292.5535,636.6393,287.0517,635.3239,295.17,640.9" style="stroke:#181818;stroke-width:1.0;"/><text fill="#000000" font-family="sans-serif" font-size="13" lengthAdjust="spacing" textLength="43" x="274.5" y="607.0283">records</text><text fill="#000000" font-family="sans-serif" font-size="13" lengthAdjust="spacing" textLength="7" x="243.6826" y="584.6064">1</text><text fill="#000000" font-family="sans-serif" font-size="13" lengthAdjust="spacing" textLength="20" x="269.8483" y="629.7096">0..*</text></g><!--MD5=[7c0a5013189dd744519452e23d34a89f]
link SubscriptionController to SubscriptionService--><g id="link_SubscriptionController_SubscriptionService"><path codeLine="40" d="M340.5,74.28 C340.5,91.19 340.5,111.92 340.5,129.53 " fill="none" id="SubscriptionController-to-SubscriptionService" style="stroke:#181818;stroke-width:1.0;stroke-dasharray:7.0,7.0;"/><polygon fill="#181818" points="340.5,134.89,344.5,125.89,340.5,129.89,336.5,125.89,340.5,134.89" style="stroke:#181818;stroke-width:1.0;"/></g><!--MD5=[a463dccd8de9a3cde3f12b9a78431812]
link SubscriptionServiceImpl to SubscriptionRepository--><g id="link_SubscriptionServiceImpl_SubscriptionRepository"><path codeLine="41" d="M211.5,385.26 C211.5,403.15 211.5,422.77 211.5,440.77 " fill="none" id="SubscriptionServiceImpl-to-SubscriptionRepository" style="stroke:#181818;stroke-width:1.0;stroke-dasharray:7.0,7.0;"/><polygon fill="#181818" points="211.5,445.81,215.5,436.81,211.5,440.81,207.5,436.81,211.5,445.81" style="stroke:#181818;stroke-width:1.0;"/></g><!--MD5=[86081a14726a75d9e6fe321749ef4ce7]
link SubscriptionServiceImpl to Subscription--><g id="link_SubscriptionServiceImpl_Subscription"><path codeLine="42" d="M290.45,385.27 C308.42,402.87 325.44,423.5 336.5,446 C365.08,504.17 375.18,575.25 377.66,635.68 " fill="none" id="SubscriptionServiceImpl-to-Subscription" style="stroke:#181818;stroke-width:1.0;stroke-dasharray:7.0,7.0;"/><polygon fill="#181818" points="377.85,640.76,381.486,631.6069,377.6496,635.764,373.4925,631.9276,377.85,640.76" style="stroke:#181818;stroke-width:1.0;"/></g><!--MD5=[1106b8449e6ce895e821e5b0220feefa]
link SubscriptionService to Subscription--><g id="link_SubscriptionService_Subscription"><path codeLine="43" d="M385.9,202.04 C404.35,218.06 423.63,239.08 433.5,263 C482.93,382.78 455.37,531.24 423,635.82 " fill="none" id="SubscriptionService-to-Subscription" style="stroke:#181818;stroke-width:1.0;stroke-dasharray:7.0,7.0;"/><polygon fill="#181818" points="421.46,640.76,427.9548,633.3561,422.9465,635.9861,420.3165,630.9777,421.46,640.76" style="stroke:#181818;stroke-width:1.0;"/></g><!--MD5=[bd4fa322b08aba60ea02c44d11c186c0]
reverse link SubscriptionService to SubscriptionServiceImpl--><g id="link_SubscriptionService_SubscriptionServiceImpl"><path codeLine="44" d="M300.16,217.5 C288.07,231.89 274.65,247.85 261.99,262.92 " fill="none" id="SubscriptionService-backto-SubscriptionServiceImpl" style="stroke:#181818;stroke-width:1.0;stroke-dasharray:7.0,7.0;"/><polygon fill="none" points="294.92,212.86,313.14,202.05,305.63,221.87,294.92,212.86" style="stroke:#181818;stroke-width:1.0;"/></g><!--MD5=[e2755ae4c697d19af29c72758a456953]
@startuml
class SubscriptionController {
 +RenewAnnualSubscription(long id);
}



class SubscriptionService {
 +RenewAnnualSubscription(long id);
}
class SubscriptionServiceImpl{
+RenewAnnualSubscription(long id);
+subscription.setRenewDate(LocalDate.now().plusYears(1));
+subscription.setRenewDate(LocalDate.now().plusMonths(1));
+subscription.setSubState(SubscriptionStatus.Active);
}

interface SubscriptionRepository <<interface>> {
 +findSubscriptionIdByUserId(id)
 +getById(idSub)
 +save( Subscription): Result
}


class Subscription {
    -id
    -subType
    -date
    -subState
    -feeType
    Subscription(int id, string subType, date date, string subState, string feeType)
    +getID(): int
    +getSubType(): string
    +getDate(): date
    +getSubState(): string
    +getFeeType(): string

}

SubscriptionRepository "1" - -> "0..*" Subscription:  records
SubscriptionController ..> SubscriptionService
SubscriptionServiceImpl ..> SubscriptionRepository
SubscriptionServiceImpl ..> Subscription
SubscriptionService ..> Subscription
SubscriptionServiceImpl .up.|> SubscriptionService
@enduml

PlantUML version 1.2022.13(Sat Nov 19 13:22:17 WET 2022)
(GPL source distribution)
Java Runtime: OpenJDK Runtime Environment
JVM: OpenJDK 64-Bit Server VM
Default Encoding: Cp1252
Language: pt
Country: PT
--></g></svg>